<?xml version="1.0" encoding="utf-8"?>
<svg viewBox="233.949 316.028 84.323 80.937" width="84.323" height="80.937" xmlns="http://www.w3.org/2000/svg">
  <path style="opacity:1;fill:#e0e600;fill-opacity:1;stroke:none;stroke-width:0.0625;stroke-linecap:round;stroke-linejoin:round;stroke-miterlimit:4;stroke-dasharray:none;stroke-dashoffset:0;stroke-opacity:1" d="M 1357.275 441.013 C 1357.215 440.859 1357.014 440.354 1356.828 439.891 C 1356.459 438.973 1356.513 439.008 1354.951 438.658 L 1354.304 438.514 L 1353.323 436.186 C 1351.928 432.877 1351.387 432.022 1349.878 430.741 C 1348.787 429.814 1348.533 429.662 1347.444 429.282 L 1346.228 428.857 L 1344.777 427.198 L 1343.327 425.54 L 1343.245 424.761 C 1343.2 424.333 1343.15 423.075 1343.135 421.967 L 1343.108 419.951 L 1343.749 418.543 C 1344.102 417.769 1344.39 417.026 1344.39 416.892 C 1344.39 416.708 1344.122 416.525 1343.283 416.137 L 1342.176 415.626 L 1341.479 414.226 L 1340.782 412.826 L 1339.149 411.47 C 1337.675 410.246 1337.515 410.075 1337.515 409.713 C 1337.515 409.37 1337.564 409.305 1337.851 409.272 C 1338.123 409.24 1338.454 408.866 1339.601 407.295 C 1340.472 406.101 1341.004 405.261 1340.984 405.107 C 1340.962 404.929 1340.595 404.672 1339.709 404.215 C 1338.872 403.782 1338.341 403.417 1338.084 403.097 L 1337.703 402.622 L 1337.66 398.865 L 1337.617 395.107 L 1336.764 394.288 C 1335.733 393.297 1335.643 392.993 1335.938 391.505 C 1336.05 390.942 1336.14 390.341 1336.139 390.17 C 1336.139 389.942 1335.599 389.269 1334.159 387.696 L 1332.181 385.535 L 1332.032 384.161 L 1331.883 382.786 L 1330.668 380.589 C 1329.299 378.113 1329.699 378.516 1326.101 375.985 L 1323.998 374.506 L 1322.788 374.382 C 1322.123 374.314 1321.517 374.21 1321.441 374.151 C 1321.365 374.093 1321.207 373.688 1321.089 373.252 C 1320.901 372.557 1320.769 372.354 1320.029 371.62 L 1319.184 370.782 L 1319.223 370.132 C 1319.244 369.774 1319.296 368.932 1319.339 368.259 L 1319.416 367.036 L 1320.276 366.603 C 1321.066 366.205 1321.226 366.17 1322.255 366.17 C 1323.867 366.17 1323.957 366.118 1324.132 365.084 C 1324.211 364.616 1324.308 364.053 1324.346 363.834 C 1324.407 363.487 1324.563 363.353 1325.56 362.784 C 1326.189 362.424 1326.741 362.111 1326.786 362.088 C 1326.831 362.064 1327.157 362.435 1327.511 362.912 C 1328.247 363.904 1328.008 363.8 1331.586 364.685 C 1333.768 365.225 1333.771 365.226 1334.527 365.885 L 1335.283 366.545 L 1336.618 366.544 L 1337.954 366.544 L 1338.89 365.779 L 1339.826 365.015 L 1341.082 365.099 C 1341.772 365.145 1342.431 365.147 1342.545 365.103 C 1342.677 365.052 1342.942 364.457 1343.271 363.47 C 1343.927 361.499 1344.049 361.409 1344.873 362.287 C 1345.2 362.635 1345.548 362.916 1345.648 362.912 C 1345.748 362.908 1346.139 362.753 1346.517 362.568 L 1347.204 362.232 L 1347.204 360.47 L 1347.204 358.709 L 1348.052 357.434 L 1348.9 356.16 L 1349.364 356.238 C 1350.32 356.4 1350.643 356.535 1352.021 357.348 C 1352.827 357.824 1353.545 358.165 1353.693 358.144 C 1353.861 358.12 1354.19 357.75 1354.61 357.114 C 1355.183 356.247 1355.267 356.04 1355.268 355.489 C 1355.268 354.427 1355.295 354.396 1356.555 353.904 C 1357.53 353.523 1357.768 353.372 1358.125 352.906 C 1358.451 352.482 1358.679 352.322 1359.125 352.203 C 1359.444 352.118 1359.735 352.048 1359.773 352.047 C 1359.995 352.039 1361.326 353.419 1361.58 353.92 C 1361.963 354.678 1362.207 354.919 1362.588 354.919 C 1362.819 354.919 1362.892 354.987 1362.895 355.2 C 1362.895 355.355 1362.948 355.995 1363.009 356.622 C 1363.111 357.673 1363.189 357.908 1364.009 359.622 C 1364.498 360.645 1364.983 361.545 1365.085 361.622 C 1365.225 361.728 1365.512 361.718 1366.221 361.584 C 1366.742 361.486 1367.18 361.422 1367.193 361.443 C 1367.206 361.464 1367.312 361.634 1367.429 361.82 C 1367.572 362.05 1367.79 362.185 1368.109 362.242 C 1368.368 362.289 1368.642 362.376 1368.718 362.437 C 1368.795 362.497 1368.987 363.001 1369.145 363.556 C 1369.419 364.518 1369.462 364.585 1370.067 364.992 C 1370.415 365.227 1370.793 365.419 1370.905 365.419 C 1371.018 365.419 1371.373 365.273 1371.693 365.093 C 1372.151 364.838 1372.356 364.611 1372.642 364.043 L 1373.008 363.319 L 1374.293 363.245 C 1375.001 363.204 1376.366 363.128 1377.327 363.076 L 1379.075 362.982 L 1380.089 361.59 C 1380.91 360.465 1381.119 360.085 1381.185 359.604 C 1381.23 359.277 1381.267 357.662 1381.267 356.015 C 1381.267 353.203 1381.252 353.002 1381.015 352.701 C 1380.877 352.525 1380.788 352.356 1380.818 352.327 C 1380.977 352.168 1381.849 352.999 1382.309 353.748 C 1382.729 354.431 1383.024 354.736 1383.759 355.242 C 1384.266 355.592 1384.906 355.938 1385.18 356.011 C 1385.63 356.131 1385.707 356.116 1385.968 355.855 C 1386.127 355.696 1386.294 355.42 1386.338 355.242 C 1386.41 354.956 1386.767 354.768 1386.767 355.016 C 1386.767 355.07 1386.935 355.298 1387.141 355.523 C 1387.508 355.925 1387.528 355.93 1388.297 355.846 C 1389.002 355.769 1389.162 355.694 1389.915 355.083 C 1390.694 354.45 1390.782 354.411 1391.224 354.493 C 1391.484 354.542 1391.918 354.742 1392.188 354.938 C 1392.459 355.134 1392.72 355.294 1392.77 355.294 C 1392.82 355.294 1393.416 354.872 1394.094 354.356 C 1395.044 353.632 1395.394 353.281 1395.622 352.824 C 1395.785 352.498 1396.197 351.944 1396.539 351.593 L 1397.161 350.955 L 1397.245 349.596 C 1397.328 348.263 1397.336 348.235 1397.667 348.119 C 1397.949 348.02 1398.257 348.107 1399.528 348.648 C 1400.897 349.231 1401.329 349.346 1403.815 349.789 C 1405.335 350.06 1407.058 350.344 1407.642 350.42 C 1409.336 350.64 1409.242 350.593 1409.329 351.263 C 1409.471 352.359 1409.483 352.378 1410.308 352.84 L 1411.101 353.283 L 1412.278 353.162 L 1413.454 353.04 L 1414.062 352.433 L 1414.67 351.826 L 1415.468 352.086 L 1416.267 352.345 L 1416.267 352.965 C 1416.267 353.497 1416.194 353.68 1415.75 354.269 C 1415.119 355.105 1415.06 355.362 1414.956 357.732 C 1414.911 358.763 1414.846 359.704 1414.812 359.823 C 1414.779 359.942 1414.291 360.291 1413.728 360.599 C 1412.973 361.012 1412.564 361.336 1412.168 361.834 L 1411.632 362.51 L 1410.231 362.21 C 1409.46 362.045 1408.735 361.882 1408.619 361.847 C 1408.5 361.81 1408.316 361.5 1408.196 361.132 C 1408.079 360.774 1407.931 360.415 1407.867 360.334 C 1407.661 360.072 1404.168 358.169 1403.894 358.169 C 1403.749 358.169 1403.471 358.251 1403.276 358.352 C 1402.955 358.518 1402.904 358.642 1402.708 359.732 L 1402.492 360.929 L 1401.514 361.421 C 1400.976 361.691 1400.505 361.962 1400.467 362.023 C 1400.393 362.144 1399.767 366.215 1399.767 366.578 C 1399.767 366.7 1399.992 367.044 1400.267 367.342 C 1400.753 367.87 1400.794 367.887 1401.736 367.968 C 1402.269 368.014 1402.968 368.085 1403.29 368.126 L 1403.876 368.199 L 1404.26 369.153 C 1404.543 369.858 1404.643 370.307 1404.643 370.875 L 1404.642 371.643 L 1405.879 372.714 L 1407.116 373.785 L 1407.203 374.649 L 1407.29 375.513 L 1406.333 376.833 C 1405.806 377.559 1405.309 378.206 1405.228 378.272 C 1405.147 378.337 1404.582 378.606 1403.973 378.869 C 1402.768 379.39 1402.808 379.34 1402.444 380.763 L 1402.212 381.67 L 1403.182 382.647 L 1404.153 383.623 L 1403.431 384.885 L 1402.71 386.148 L 1402.07 386.228 C 1401.517 386.297 1401.252 386.24 1400.096 385.806 L 1398.761 385.304 L 1397.687 385.637 L 1396.614 385.97 L 1395.378 387.316 C 1394.699 388.056 1394.141 388.762 1394.14 388.884 C 1394.14 389.007 1393.979 390.433 1393.784 392.053 L 1393.43 395 L 1392.797 395.939 C 1392.316 396.651 1392.127 397.07 1392.012 397.679 C 1391.832 398.636 1391.726 398.819 1390.623 400.073 C 1389.695 401.128 1389.729 401.045 1389.467 402.896 C 1389.367 403.605 1389.234 404.252 1389.17 404.333 C 1389.107 404.415 1388.65 405.001 1388.155 405.635 C 1387.293 406.737 1387.24 406.844 1386.948 408.072 C 1386.779 408.779 1386.593 409.47 1386.533 409.609 C 1386.397 409.925 1385.156 410.373 1383.957 410.538 C 1382.998 410.671 1383.046 410.631 1382.252 411.944 L 1381.738 412.795 L 1382.01 414.308 C 1382.159 415.141 1382.264 415.836 1382.243 415.853 C 1382.222 415.87 1381.647 415.946 1380.965 416.021 C 1380.218 416.104 1379.653 416.23 1379.545 416.338 C 1379.443 416.44 1379.34 416.861 1379.307 417.312 C 1379.248 418.107 1379.248 418.107 1379.805 418.735 L 1380.362 419.362 L 1379.548 420.835 C 1378.818 422.154 1378.727 422.396 1378.671 423.171 L 1378.609 424.034 L 1377.657 424.241 C 1377.133 424.355 1376.64 424.512 1376.56 424.59 C 1376.472 424.675 1376.338 425.79 1376.22 427.402 C 1376.048 429.77 1376.047 430.114 1376.21 430.433 C 1376.66 431.303 1376.658 431.354 1376.141 432.075 C 1375.813 432.534 1375.526 433.179 1375.251 434.077 L 1374.846 435.401 L 1375.243 436.146 C 1375.656 436.921 1375.723 437.169 1375.521 437.169 C 1375.455 437.169 1375.047 437.339 1374.615 437.545 C 1373.935 437.871 1373.779 438.012 1373.468 438.588 L 1373.108 439.254 L 1371.53 439.594 C 1370.663 439.781 1369.866 439.959 1369.76 439.989 C 1369.627 440.028 1369.463 439.832 1369.229 439.354 C 1369.03 438.948 1368.774 438.619 1368.609 438.557 C 1368.454 438.498 1367.718 438.378 1366.972 438.29 L 1365.616 438.13 L 1364.981 437.337 C 1364.233 436.404 1364.236 436.405 1362.453 436.897 L 1361.203 437.243 L 1360.317 438.971 L 1359.431 440.7 L 1358.504 440.995 C 1357.37 441.357 1357.408 441.357 1357.276 441.013 L 1357.275 441.013 Z" id="Carlow Kilkenny" transform="matrix(0.868562, 0, 0, 0.868562, -911.843872, 13.696216)"/>
</svg>