<?xml version="1.0" encoding="utf-8"?>
<svg viewBox="206.057 134.868 106.14 77.59" width="106.14" height="77.59" xmlns="http://www.w3.org/2000/svg">
  <path style="opacity:1;fill:#e0e600;fill-opacity:1;stroke:none;stroke-width:0.0625;stroke-linecap:round;stroke-linejoin:round;stroke-miterlimit:4;stroke-dasharray:none;stroke-dashoffset:0;stroke-opacity:1" d="M 1371.509 228.49 C 1370.684 228.297 1369.024 227.962 1367.821 227.746 L 1365.634 227.354 L 1364.97 226.774 C 1363.237 225.26 1363.496 225.393 1361.74 225.12 L 1360.135 224.87 L 1358.085 225.595 L 1356.034 226.32 L 1355.467 227.101 C 1355.024 227.713 1354.831 227.882 1354.577 227.882 C 1353.856 227.882 1352.098 227.613 1351.541 227.417 C 1350.979 227.219 1350.923 227.157 1350.493 226.24 C 1350.243 225.707 1349.968 225.244 1349.881 225.211 C 1349.795 225.178 1348.605 225.313 1347.237 225.511 C 1344.917 225.846 1344.601 225.925 1342.519 226.686 C 1341.292 227.134 1340.247 227.476 1340.196 227.445 C 1340.145 227.413 1339.978 227.051 1339.824 226.639 C 1339.67 226.227 1339.477 225.835 1339.395 225.767 C 1339.313 225.699 1338.409 225.28 1337.385 224.835 C 1335.741 224.121 1335.476 223.963 1335.125 223.496 L 1334.729 222.967 L 1334.965 222.567 C 1335.196 222.175 1335.196 222.126 1334.955 220.024 C 1334.82 218.846 1334.674 217.823 1334.63 217.753 C 1334.586 217.682 1333.867 217.166 1333.032 216.607 L 1331.514 215.59 L 1330.086 215.954 C 1328.771 216.29 1328.628 216.356 1328.281 216.788 C 1327.911 217.248 1327.886 217.257 1327.05 217.257 C 1326.067 217.257 1326.067 217.257 1326.365 215.991 C 1326.503 215.403 1326.682 215.115 1327.441 214.253 L 1328.352 213.22 L 1328.274 212.47 C 1328.231 212.058 1328.196 211.395 1328.196 210.998 C 1328.196 210.53 1328.132 210.211 1328.013 210.092 C 1327.91 209.989 1327.353 209.847 1326.732 209.765 C 1326.128 209.686 1325.551 209.577 1325.449 209.522 C 1325.348 209.467 1325.007 208.752 1324.692 207.933 C 1324.377 207.115 1324.024 206.265 1323.907 206.045 C 1323.791 205.825 1323.696 205.557 1323.696 205.45 C 1323.696 205.343 1324.032 204.664 1324.443 203.941 L 1325.19 202.625 L 1325.274 201.142 L 1325.358 199.658 L 1324.891 199.364 L 1324.425 199.07 L 1324.501 197.695 C 1324.543 196.939 1324.608 196.095 1324.645 195.82 C 1324.707 195.364 1324.645 195.23 1323.986 194.291 C 1323.18 193.149 1323.061 193.097 1322.103 193.463 C 1321.679 193.625 1321.499 193.639 1321.255 193.528 C 1320.894 193.364 1320.893 193.352 1321.127 192.132 C 1321.267 191.401 1321.274 191.147 1321.158 190.979 C 1321.076 190.86 1320.029 190.088 1318.831 189.263 L 1316.654 187.763 L 1315.946 186.641 C 1314.922 185.021 1315.075 185.13 1313.956 185.217 L 1312.987 185.291 L 1311.719 183.41 L 1310.451 181.529 L 1309.23 181.247 C 1308.558 181.091 1307.758 180.96 1307.451 180.955 C 1306.909 180.945 1306.88 180.965 1306.391 181.672 L 1305.888 182.4 L 1305.136 182.315 C 1304.722 182.268 1304.303 182.186 1304.205 182.132 C 1304.106 182.078 1303.853 181.677 1303.642 181.24 L 1303.259 180.445 L 1302.339 180.124 L 1301.419 179.803 L 1300.273 177.795 C 1299.642 176.69 1299.052 175.697 1298.962 175.588 C 1298.714 175.289 1294.388 172.031 1294.052 171.889 C 1293.891 171.822 1293.277 171.68 1292.688 171.575 C 1292.041 171.459 1291.347 171.237 1290.937 171.015 C 1290.533 170.796 1289.905 170.594 1289.383 170.515 C 1287.595 170.245 1287.696 170.284 1287.696 169.874 C 1287.696 169.669 1287.921 169.054 1288.196 168.507 C 1288.471 167.96 1288.696 167.413 1288.695 167.291 C 1288.695 167.17 1288.329 166.607 1287.883 166.041 C 1287.436 165.476 1287.071 164.906 1287.071 164.776 C 1287.071 164.192 1287.261 163.717 1287.681 163.251 L 1288.134 162.75 L 1289.571 162.614 C 1290.362 162.54 1291.069 162.443 1291.142 162.4 C 1291.215 162.356 1291.671 161.898 1292.155 161.382 C 1292.917 160.571 1293.09 160.294 1293.451 159.32 C 1293.77 158.459 1294.836 156.319 1295.158 155.892 C 1295.204 155.831 1299.378 156.762 1299.549 156.871 C 1299.813 157.04 1300.946 158.937 1300.893 159.121 C 1300.861 159.23 1300.776 159.656 1300.702 160.066 C 1300.579 160.758 1300.621 161.075 1301.276 164.379 C 1301.664 166.34 1302.044 168.011 1302.12 168.093 C 1302.312 168.297 1305.743 170.132 1305.934 170.132 C 1306.019 170.132 1306.304 169.951 1306.568 169.73 L 1307.048 169.327 L 1309.028 169.371 C 1310.118 169.395 1312.048 169.45 1313.318 169.493 L 1315.627 169.57 L 1315.971 170.998 C 1316.161 171.784 1316.364 172.474 1316.422 172.533 C 1316.48 172.591 1316.821 172.576 1317.179 172.499 C 1317.696 172.389 1317.875 172.394 1318.045 172.524 C 1319.876 173.933 1320.147 174.232 1321.319 176.136 C 1321.96 177.176 1322.553 178.097 1322.638 178.181 C 1322.722 178.265 1323.398 178.404 1324.14 178.491 L 1325.489 178.647 L 1326.656 179.718 L 1327.823 180.789 L 1328.603 180.45 L 1329.384 180.111 L 1331.696 180.194 L 1334.009 180.278 L 1335.363 179.018 C 1336.107 178.324 1336.798 177.757 1336.897 177.757 C 1337.155 177.757 1338.914 178.664 1339.535 179.118 C 1340 179.457 1340.072 179.577 1340.146 180.132 C 1340.192 180.479 1340.273 180.79 1340.326 180.822 C 1340.379 180.855 1340.856 180.792 1341.388 180.682 L 1342.354 180.482 L 1343.371 181.495 C 1343.931 182.052 1344.463 182.507 1344.554 182.507 C 1344.645 182.507 1345.077 182.307 1345.516 182.061 C 1346.228 181.663 1346.367 181.518 1346.817 180.702 C 1347.095 180.2 1347.321 179.706 1347.321 179.606 C 1347.321 179.505 1347.154 179.118 1346.949 178.746 C 1346.516 177.961 1346.502 177.813 1346.773 176.951 C 1346.92 176.487 1347.088 176.235 1347.384 176.042 L 1347.791 175.775 L 1347.867 176.235 C 1347.909 176.488 1347.944 177.176 1347.945 177.764 L 1347.945 178.833 L 1348.914 179.389 C 1349.447 179.695 1349.944 179.938 1350.019 179.931 C 1350.094 179.923 1350.557 179.588 1351.049 179.186 C 1351.777 178.591 1351.957 178.372 1352.016 178.012 C 1352.056 177.769 1352.23 176.979 1352.402 176.257 L 1352.716 174.945 L 1353.768 173.88 C 1354.347 173.294 1354.82 172.724 1354.82 172.614 C 1354.82 172.503 1354.736 172.211 1354.633 171.964 C 1354.505 171.659 1354.445 171.082 1354.445 170.159 L 1354.445 168.803 L 1355.285 168.268 C 1356.05 167.78 1356.22 167.725 1357.191 167.647 C 1358.163 167.568 1358.315 167.588 1358.9 167.865 C 1359.253 168.033 1359.618 168.14 1359.712 168.104 C 1359.806 168.067 1360.215 167.547 1360.622 166.948 L 1361.36 165.858 L 1361.332 163.617 L 1361.304 161.375 L 1360.642 160.003 C 1360.248 159.186 1359.581 158.101 1358.994 157.324 C 1358.052 156.075 1357.978 156.008 1357.321 155.818 C 1356.943 155.708 1356.535 155.589 1356.415 155.554 C 1355.869 155.395 1356.352 154.659 1357.344 154.137 C 1357.855 153.868 1357.948 153.756 1358.07 153.262 C 1358.147 152.95 1358.319 152.322 1358.454 151.866 C 1358.692 151.057 1358.711 151.033 1359.228 150.897 C 1359.52 150.82 1360.647 150.18 1361.734 149.474 L 1363.709 148.191 L 1364.734 146.222 C 1366.119 143.56 1368.793 139.822 1369.446 139.635 C 1369.687 139.565 1369.996 139.509 1370.133 139.509 C 1370.57 139.509 1375.662 142.835 1377.335 144.211 L 1378.917 145.514 L 1379.134 146.729 C 1379.253 147.398 1379.386 148.008 1379.429 148.084 C 1379.486 148.185 1381.425 149.768 1382.167 150.32 C 1382.185 150.333 1382.351 151.725 1382.536 153.413 L 1382.873 156.482 L 1382.439 156.963 C 1382.039 157.407 1382.009 157.497 1382.051 158.111 L 1382.097 158.777 L 1383.803 160.037 C 1384.741 160.729 1385.541 161.345 1385.58 161.404 C 1385.619 161.464 1385.748 161.919 1385.865 162.416 C 1386.069 163.278 1386.174 163.445 1388.137 166.007 C 1389.423 167.687 1390.465 168.917 1390.914 169.288 C 1391.849 170.058 1395.097 172.132 1395.368 172.132 C 1395.508 172.132 1395.723 171.813 1396.016 171.17 C 1396.258 170.64 1396.473 170.189 1396.494 170.168 C 1396.539 170.123 1399.829 170.596 1399.881 170.655 C 1399.986 170.775 1401.696 174.796 1401.696 174.924 C 1401.696 175.008 1401.301 176.163 1400.818 177.491 L 1399.939 179.906 L 1400.13 181.639 C 1400.235 182.592 1400.325 184.119 1400.328 185.033 C 1400.328 185.947 1400.374 186.906 1400.422 187.164 C 1400.485 187.504 1400.922 188.155 1401.999 189.516 C 1403.222 191.062 1403.535 191.388 1403.749 191.338 C 1404.578 191.144 1406.723 190.744 1406.747 190.778 C 1406.763 190.801 1406.966 191.27 1407.198 191.82 C 1407.501 192.537 1407.854 193.085 1408.447 193.757 L 1409.273 194.695 L 1409.053 196.445 C 1408.864 197.952 1408.769 198.327 1408.372 199.15 L 1407.91 200.105 L 1407.272 199.889 C 1406.733 199.707 1406.53 199.54 1405.965 198.809 C 1405.597 198.334 1405.217 197.899 1405.119 197.844 C 1405.004 197.778 1404.501 197.974 1403.675 198.406 L 1402.408 199.07 L 1401.974 200.195 C 1401.562 201.264 1401.537 201.417 1401.475 203.296 L 1401.41 205.272 L 1401.861 205.734 L 1402.313 206.196 L 1401.548 207.164 L 1400.783 208.132 L 1399.919 208.132 C 1399.444 208.132 1398.942 208.192 1398.805 208.266 C 1398.548 208.404 1398.069 209.366 1398.074 209.736 C 1398.074 209.851 1398.371 210.335 1398.73 210.811 C 1399.368 211.656 1399.437 211.706 1401.571 212.841 C 1403.184 213.699 1403.88 214.005 1404.219 214.006 C 1404.712 214.007 1404.882 214.171 1406.001 215.731 L 1406.476 216.393 L 1406.387 217.695 C 1406.309 218.835 1406.257 219.051 1405.966 219.435 C 1405.783 219.676 1405.601 219.875 1405.56 219.878 C 1405.519 219.88 1405.422 219.742 1405.344 219.57 C 1405.207 219.27 1405.158 219.258 1404.105 219.268 C 1403.502 219.274 1402.727 219.316 1402.384 219.362 L 1401.759 219.445 L 1401.134 220.695 L 1400.509 221.944 L 1399.466 222.552 C 1398.892 222.886 1398.38 223.111 1398.327 223.052 C 1398.274 222.993 1398.108 222.298 1397.957 221.507 C 1397.805 220.717 1397.653 219.972 1397.618 219.852 C 1397.582 219.727 1397.082 219.414 1396.446 219.118 C 1395.836 218.835 1395.313 218.539 1395.283 218.461 C 1395.254 218.383 1395.13 217.768 1395.009 217.094 C 1394.888 216.42 1394.707 215.786 1394.606 215.685 C 1394.412 215.491 1394.078 215.509 1392.446 215.801 L 1391.639 215.946 L 1391.091 216.916 C 1390.6 217.787 1390.392 218.006 1389.078 219.041 C 1387.914 219.957 1387.49 220.381 1387.014 221.101 C 1386.685 221.599 1386.399 222.007 1386.379 222.007 C 1386.234 222.007 1385.829 221.06 1385.697 220.415 C 1385.609 219.986 1385.475 219.586 1385.398 219.525 C 1385.321 219.465 1384.527 219.174 1383.634 218.879 C 1382.74 218.583 1381.112 217.96 1380.016 217.495 C 1378.476 216.841 1377.972 216.676 1377.795 216.771 C 1377.669 216.839 1377.363 217.2 1377.114 217.575 C 1376.687 218.217 1376.666 218.297 1376.74 218.975 L 1376.819 219.695 L 1378.533 221.333 L 1380.247 222.971 L 1380.097 223.472 C 1379.96 223.929 1379.87 224.008 1379.081 224.361 C 1378.343 224.691 1378.11 224.879 1377.511 225.63 C 1376.944 226.34 1376.64 226.595 1375.943 226.947 C 1375.467 227.186 1374.983 227.527 1374.867 227.703 C 1374.751 227.88 1374.286 228.208 1373.833 228.433 L 1373.009 228.841 L 1371.509 228.49 Z" id="Cavan Monaghan" transform="matrix(0.868562, 0, 0, 0.868562, -911.843872, 13.696216)"/>
</svg>