<?xml version="1.0" encoding="utf-8"?>
<svg viewBox="67.145 286.995 120.101 71.046" width="120.101" height="71.046" xmlns="http://www.w3.org/2000/svg">
  <path style="opacity:1;fill:#cb85f9;fill-opacity:1;stroke:none;stroke-width:0.0625;stroke-linecap:round;stroke-linejoin:round;stroke-miterlimit:4;stroke-dasharray:none;stroke-dashoffset:0;stroke-opacity:1" d="M 1129.31 396 C 1128.141 395.757 1127.164 395.54 1127.138 395.518 C 1127.113 395.495 1127.619 394.886 1128.263 394.163 L 1129.435 392.85 L 1130.872 392.287 C 1131.663 391.977 1133.519 391.256 1134.997 390.684 L 1137.685 389.643 L 1138.299 388.461 L 1138.913 387.278 L 1141.449 385.715 C 1143.861 384.23 1143.998 384.124 1144.239 383.574 C 1144.465 383.056 1144.718 382.832 1146.602 381.487 C 1148.601 380.059 1148.748 379.978 1149.386 379.941 L 1150.06 379.903 L 1150.793 378.215 C 1151.504 376.577 1151.547 376.513 1152.254 376.004 C 1153.034 375.441 1153.171 375.173 1153.325 373.895 C 1153.395 373.311 1153.376 373.247 1153.074 373.049 C 1152.894 372.931 1152.747 372.752 1152.747 372.651 C 1152.747 372.544 1153.265 372.208 1153.992 371.843 C 1155.049 371.312 1155.311 371.118 1155.728 370.554 L 1156.219 369.889 L 1157.359 369.737 L 1158.5 369.585 L 1159.872 370.46 L 1161.245 371.335 L 1162.628 371.043 C 1163.389 370.882 1164.056 370.701 1164.11 370.639 C 1164.164 370.578 1164.363 369.942 1164.551 369.227 C 1164.74 368.511 1165.021 367.724 1165.177 367.477 C 1165.438 367.063 1165.465 366.844 1165.525 364.657 C 1165.575 362.827 1165.629 362.263 1165.762 362.185 C 1167.383 361.23 1167.261 361.355 1167.684 360.215 C 1167.901 359.631 1168.287 358.704 1168.543 358.156 C 1168.798 357.608 1169.262 356.314 1169.573 355.281 C 1169.885 354.248 1170.303 352.866 1170.503 352.21 L 1170.867 351.018 L 1173.235 349.669 C 1175.425 348.423 1175.672 348.246 1176.5 347.329 L 1177.396 346.336 L 1177.052 345.37 C 1176.863 344.838 1176.645 344.333 1176.568 344.248 C 1176.491 344.162 1176.104 344.032 1175.708 343.959 L 1174.989 343.826 L 1174.051 344.396 C 1173.535 344.709 1173.029 344.965 1172.926 344.965 C 1172.822 344.965 1172.252 344.843 1171.657 344.694 C 1170.595 344.428 1170.553 344.427 1169.267 344.634 C 1168.548 344.749 1167.951 344.829 1167.942 344.811 C 1167.932 344.793 1167.773 344.541 1167.588 344.252 C 1167.071 343.445 1167.193 343.137 1168.365 342.298 L 1169.332 341.606 L 1170.071 339.644 L 1170.81 337.683 L 1172.06 336.549 C 1173.027 335.672 1173.349 335.297 1173.484 334.89 C 1173.658 334.366 1173.657 334.362 1173.14 333.588 C 1172.855 333.161 1172.622 332.726 1172.622 332.622 C 1172.622 332.518 1173.011 331.888 1173.486 331.222 C 1174.331 330.039 1174.367 330.006 1175.106 329.783 L 1175.861 329.554 L 1176.412 328.291 C 1177.018 326.902 1176.837 327.092 1179.583 324.948 C 1180.732 324.05 1181.103 323.67 1181.78 322.698 C 1182.54 321.607 1182.637 321.387 1183.212 319.449 L 1183.829 317.371 L 1184.691 316.418 C 1185.166 315.894 1185.599 315.465 1185.653 315.465 C 1185.707 315.465 1186.192 315.686 1186.73 315.957 C 1187.267 316.227 1188.545 316.734 1189.571 317.084 L 1191.435 317.721 L 1192.402 318.743 C 1193.336 319.73 1193.386 319.763 1193.89 319.734 C 1194.613 319.691 1194.718 319.614 1195.497 318.547 C 1196.163 317.634 1196.204 317.603 1196.81 317.526 C 1197.153 317.482 1197.703 317.437 1198.03 317.425 L 1198.626 317.403 L 1199.175 318.59 L 1199.725 319.778 L 1200.388 319.778 L 1201.052 319.778 L 1201.275 319.176 L 1201.499 318.574 L 1201.01 317.739 C 1200.742 317.279 1200.267 316.472 1199.956 315.946 C 1199.207 314.679 1199.274 314.573 1200.747 314.696 L 1201.81 314.785 L 1202.997 315.643 C 1203.65 316.115 1204.193 316.507 1204.202 316.514 C 1204.212 316.521 1204.283 317.119 1204.361 317.84 C 1204.438 318.562 1204.641 319.61 1204.812 320.17 L 1205.121 321.187 L 1206.591 322.545 C 1207.399 323.292 1208.187 324.011 1208.343 324.143 C 1208.508 324.283 1209.066 324.466 1209.679 324.58 L 1210.731 324.778 L 1212.076 325.96 C 1213.382 327.109 1213.447 327.148 1214.35 327.335 C 1215.693 327.613 1215.763 327.775 1215.053 328.937 C 1214.747 329.437 1214.497 329.976 1214.497 330.133 C 1214.497 330.291 1214.783 331.119 1215.132 331.974 C 1215.756 333.501 1215.766 333.545 1215.699 334.528 C 1215.619 335.695 1216.045 339.113 1216.326 339.559 C 1216.454 339.763 1216.631 339.844 1216.969 339.855 C 1217.861 339.883 1218.12 340.004 1218.413 340.528 C 1218.641 340.936 1218.761 341.028 1219.064 341.028 C 1219.405 341.028 1219.482 340.936 1220.041 339.858 L 1220.646 338.687 L 1221.166 339.183 C 1221.479 339.483 1222.027 339.813 1222.547 340.017 C 1223.022 340.203 1223.651 340.52 1223.945 340.722 C 1224.514 341.114 1224.918 341.189 1225.083 340.934 C 1225.139 340.848 1225.269 340.33 1225.372 339.783 L 1225.56 338.789 L 1226.891 337.846 C 1228.139 336.962 1228.267 336.83 1228.937 335.74 L 1229.651 334.578 L 1231.496 333.654 C 1232.83 332.985 1233.457 332.596 1233.762 332.246 C 1234.112 331.845 1234.41 331.684 1235.505 331.301 C 1236.231 331.048 1236.857 330.84 1236.897 330.84 C 1236.937 330.84 1237.009 331.05 1237.057 331.307 C 1237.105 331.563 1237.201 331.879 1237.27 332.009 C 1237.418 332.285 1237.473 332.281 1240.622 331.791 C 1243.459 331.348 1243.283 331.326 1243.544 332.154 C 1243.79 332.937 1243.939 333.045 1246.403 334.24 L 1247.747 334.892 L 1247.747 336.343 C 1247.747 337.892 1247.974 339.007 1248.316 339.138 C 1248.422 339.179 1249.006 339.177 1249.615 339.133 L 1250.721 339.055 L 1251.785 339.822 C 1252.37 340.245 1252.903 340.59 1252.97 340.59 C 1253.19 340.59 1254.937 339.751 1255.083 339.575 C 1255.162 339.479 1255.262 339.261 1255.306 339.09 C 1255.349 338.918 1255.564 338.66 1255.784 338.515 L 1256.185 338.252 L 1257.89 339.555 L 1259.596 340.858 L 1260.502 340.769 C 1261.46 340.674 1261.872 340.436 1261.872 339.975 C 1261.872 339.531 1262.019 339.34 1262.362 339.34 C 1262.867 339.34 1263.066 339.568 1263.364 340.486 C 1263.513 340.944 1263.721 341.352 1263.826 341.392 C 1263.932 341.432 1264.319 341.465 1264.687 341.465 C 1265.056 341.465 1265.381 341.507 1265.41 341.559 C 1265.509 341.735 1262.811 346.674 1262.186 347.459 L 1261.563 348.243 L 1260.311 348.165 C 1259.623 348.122 1258.553 348.058 1257.935 348.022 L 1256.81 347.958 L 1255.908 348.805 L 1255.006 349.653 L 1254.921 351.84 L 1254.836 354.028 L 1253.104 356.453 C 1251.922 358.108 1251.374 358.981 1251.377 359.203 C 1251.387 359.94 1251.757 360.974 1252.434 362.153 L 1253.151 363.403 L 1253.013 364.09 C 1252.937 364.468 1252.692 365.451 1252.467 366.274 L 1252.06 367.771 L 1249.622 369.559 C 1248.282 370.542 1247.145 371.444 1247.096 371.562 C 1247.047 371.681 1246.921 372.899 1246.816 374.27 C 1246.711 375.641 1246.582 376.799 1246.53 376.844 C 1246.478 376.889 1246.057 377.025 1245.596 377.146 C 1245.135 377.266 1244.689 377.448 1244.605 377.549 C 1244.521 377.65 1244.364 378.277 1244.256 378.943 L 1244.06 380.153 L 1242.928 380.278 C 1241.908 380.39 1241.733 380.45 1241.149 380.88 C 1240.747 381.178 1240.442 381.321 1240.344 381.26 C 1239.226 380.569 1236.832 378.804 1236.481 378.411 L 1236.027 377.903 L 1235.293 378.152 C 1234.696 378.354 1234.309 378.63 1233.206 379.641 L 1231.853 380.882 L 1230.767 381.086 C 1229.754 381.277 1229.594 381.276 1228.371 381.075 C 1226.496 380.766 1226.367 380.777 1225.243 381.343 L 1224.244 381.845 L 1222.92 380.78 C 1222.192 380.194 1221.543 379.715 1221.477 379.715 C 1221.412 379.715 1220.307 380.075 1219.022 380.516 L 1216.685 381.316 L 1213.15 381.393 L 1209.615 381.47 L 1206.991 382.733 L 1204.367 383.996 L 1202.651 383.788 C 1201.707 383.674 1200.79 383.552 1200.613 383.518 C 1200.349 383.466 1199.984 383.693 1198.593 384.773 C 1197.659 385.497 1196.781 386.09 1196.642 386.09 C 1196.126 386.09 1195.772 386.348 1194.147 387.907 L 1192.484 389.502 L 1189.951 389.414 L 1187.419 389.326 L 1184.729 391.379 L 1182.039 393.432 L 1180.862 393.574 L 1179.685 393.716 L 1178.781 393.091 C 1178.284 392.747 1177.657 392.311 1177.388 392.122 C 1177.107 391.924 1176.731 391.473 1176.503 391.059 C 1175.924 390.012 1175.768 389.967 1174.832 390.573 C 1174.224 390.968 1173.821 391.119 1172.935 391.287 L 1171.81 391.5 L 1170.278 391.17 L 1168.745 390.84 L 1160.209 390.84 L 1151.673 390.84 L 1150.616 391.502 C 1149.734 392.054 1149.419 392.348 1148.705 393.283 C 1148.235 393.899 1147.796 394.423 1147.73 394.447 C 1147.664 394.471 1147.26 394.363 1146.834 394.207 C 1146.258 393.997 1145.845 393.72 1145.219 393.123 C 1144.756 392.683 1144.334 392.346 1144.281 392.376 C 1144.228 392.405 1143.707 392.716 1143.122 393.067 C 1142.452 393.469 1141.123 394.053 1139.525 394.647 L 1136.99 395.591 L 1136.4 395.296 C 1135.984 395.088 1135.492 394.977 1134.731 394.921 L 1133.653 394.841 L 1132.592 395.653 C 1132.008 396.1 1131.509 396.46 1131.483 396.454 C 1131.456 396.448 1130.479 396.244 1129.31 396 L 1129.31 396 Z" id="Clare" transform="matrix(0.868562, 0, 0, 0.868562, -911.843872, 13.696216)"/>
</svg>