<?xml version="1.0" encoding="utf-8"?>
<svg viewBox="151.317 388.298 69.682 64.834" width="69.682" height="64.834" xmlns="http://www.w3.org/2000/svg">
  <path style="opacity:1;fill:#cb85f9;fill-opacity:1;stroke:none;stroke-width:0.0625;stroke-linecap:round;stroke-linejoin:round;stroke-miterlimit:4;stroke-dasharray:none;stroke-dashoffset:0;stroke-opacity:1" d="M 1276.045 505.876 C 1275.755 505.84 1275.553 505.685 1275.256 505.271 C 1275.036 504.966 1274.762 504.716 1274.646 504.717 C 1274.53 504.717 1273.422 504.629 1272.185 504.521 L 1269.935 504.324 L 1269.287 503.623 C 1268.719 503.007 1268.623 502.825 1268.502 502.127 C 1268.38 501.43 1268.391 501.284 1268.587 500.946 C 1268.715 500.724 1269.026 500.466 1269.318 500.339 C 1269.725 500.163 1269.932 499.942 1270.35 499.238 L 1270.874 498.357 L 1272.342 497.885 C 1273.831 497.406 1274.264 497.144 1274.653 496.486 C 1274.862 496.133 1274.86 496.108 1274.6 495.778 L 1274.331 495.435 L 1272.07 495.515 C 1267.523 495.676 1267.611 495.662 1266.546 496.358 C 1265.498 497.041 1263.969 497.84 1263.707 497.84 C 1263.576 497.84 1263.517 497.494 1263.457 496.37 C 1263.398 495.278 1263.296 494.659 1263.058 493.964 C 1262.76 493.091 1262.748 492.972 1262.886 492.198 L 1263.033 491.368 L 1264.171 490.823 L 1265.31 490.278 L 1265.3 489.772 C 1265.3 489.494 1265.183 489.044 1265.05 488.772 C 1264.829 488.319 1264.752 488.268 1264.121 488.153 L 1263.434 488.028 L 1263.522 486.965 L 1263.61 485.903 L 1262.548 483.278 C 1261.889 481.649 1261.273 480.338 1260.924 479.823 L 1260.362 478.992 L 1260.446 477.987 C 1260.526 477.032 1260.554 476.959 1261.012 476.512 L 1261.494 476.042 L 1261.839 476.373 C 1262.115 476.637 1262.374 476.728 1263.122 476.821 C 1264.21 476.957 1264.135 476.992 1265.487 475.74 L 1266.416 474.881 L 1266.211 473.892 C 1266.03 473.015 1266.026 472.732 1266.173 471.403 C 1266.308 470.19 1266.309 469.854 1266.183 469.647 C 1266.096 469.506 1265.621 469.232 1265.128 469.039 C 1264.25 468.694 1264.224 468.671 1263.84 467.894 C 1263.471 467.144 1263.461 467.088 1263.661 466.867 C 1264.014 466.477 1263.911 466.189 1262.986 464.985 C 1262.295 464.085 1261.969 463.506 1261.509 462.368 L 1260.92 460.906 L 1259.978 460.552 L 1259.035 460.197 L 1257.799 460.894 C 1256.53 461.609 1255.915 461.755 1255.63 461.412 C 1255.548 461.313 1255.077 461.137 1254.582 461.021 L 1253.681 460.809 L 1252.558 461.37 L 1251.435 461.931 L 1250.81 461.714 C 1250.467 461.594 1249.855 461.349 1249.451 461.168 C 1248.243 460.629 1248.076 460.714 1247.937 461.933 L 1247.848 462.712 L 1247.329 462.847 C 1245.681 463.276 1245.843 463.271 1245.552 462.905 C 1245.296 462.585 1245.293 462.549 1245.483 462.023 L 1245.68 461.475 L 1245.067 460.229 L 1244.454 458.983 L 1245.007 458.283 C 1245.311 457.897 1245.662 457.454 1245.785 457.298 C 1246.003 457.024 1246.001 456.98 1245.742 456.021 C 1245.595 455.475 1245.381 454.937 1245.267 454.825 C 1245.153 454.714 1244.613 454.504 1244.067 454.359 L 1243.074 454.096 L 1242.094 454.718 C 1241.355 455.188 1240.996 455.34 1240.632 455.34 C 1239.797 455.34 1239.676 455.555 1239.435 457.465 C 1239.247 458.963 1239.186 459.193 1238.892 459.507 C 1238.354 460.083 1238.186 460.128 1237.63 459.844 C 1236.857 459.45 1236.707 459.503 1236.046 460.403 C 1235.718 460.85 1235.43 461.215 1235.405 461.215 C 1235.381 461.215 1235.197 461.131 1234.998 461.028 C 1234.716 460.882 1234.466 460.488 1233.887 459.278 C 1233.476 458.418 1233.122 457.712 1233.1 457.707 C 1233.078 457.702 1232.301 457.629 1231.373 457.544 C 1229.737 457.394 1229.633 457.399 1227.974 457.717 L 1226.263 458.045 L 1225.599 457.801 C 1225.234 457.667 1224.874 457.509 1224.799 457.451 C 1224.566 457.267 1223.975 455.61 1224.054 455.361 C 1224.095 455.231 1224.409 454.95 1224.751 454.737 C 1225.093 454.525 1225.373 454.278 1225.374 454.189 C 1225.374 453.586 1225.794 450.814 1226.035 449.778 L 1226.327 448.528 L 1226.944 448.134 C 1227.833 447.567 1227.998 447.385 1227.998 446.975 C 1227.998 446.645 1228.081 446.572 1228.879 446.204 C 1229.545 445.897 1229.911 445.623 1230.379 445.083 C 1231.24 444.089 1231.216 443.867 1230.185 443.264 C 1229.738 443.002 1229.373 442.75 1229.373 442.704 C 1229.373 442.657 1229.837 442.555 1230.404 442.477 C 1230.971 442.399 1231.644 442.303 1231.899 442.265 C 1232.155 442.226 1232.581 442.037 1232.847 441.845 C 1233.259 441.546 1233.401 441.307 1233.805 440.23 C 1234.066 439.534 1234.314 438.966 1234.357 438.967 C 1234.4 438.968 1234.66 439.097 1234.935 439.252 L 1235.435 439.535 L 1235.528 440.657 C 1235.591 441.42 1235.681 441.822 1235.808 441.916 C 1235.911 441.991 1236.403 442.121 1236.902 442.204 L 1237.81 442.354 L 1238.295 441.835 L 1238.779 441.317 L 1239.857 441.362 C 1240.931 441.406 1240.939 441.409 1241.887 442.074 C 1242.704 442.648 1242.875 442.723 1243.098 442.604 C 1243.421 442.431 1243.45 442.21 1243.619 438.616 C 1243.714 436.611 1243.712 435.757 1243.619 435.574 C 1243.367 435.104 1243.575 435.215 1244.466 436.028 L 1245.35 436.836 L 1247.52 437.101 L 1249.69 437.366 L 1251.259 436.493 L 1252.829 435.619 L 1254.93 435.527 L 1257.031 435.434 L 1258.519 434.308 C 1259.58 433.505 1260.027 433.088 1260.079 432.855 C 1260.119 432.675 1260.177 432.434 1260.207 432.319 C 1260.238 432.204 1260.551 431.925 1260.902 431.7 L 1261.541 431.29 L 1262.736 431.599 L 1263.93 431.907 L 1264.388 433.498 C 1264.821 435.004 1264.885 435.134 1265.571 435.914 C 1265.969 436.368 1266.368 436.767 1266.457 436.802 C 1266.546 436.836 1267.067 436.715 1267.614 436.533 C 1268.412 436.267 1268.676 436.113 1268.95 435.754 L 1269.291 435.307 L 1271.053 435.397 L 1272.815 435.486 L 1273.915 436.054 C 1274.914 436.57 1275.044 436.68 1275.336 437.256 C 1275.513 437.605 1275.784 438.09 1275.939 438.334 C 1276.145 438.658 1276.278 439.198 1276.433 440.335 C 1276.549 441.192 1276.683 441.96 1276.73 442.043 C 1276.829 442.215 1278.431 443.544 1278.736 443.705 C 1278.848 443.765 1279.404 443.938 1279.971 444.091 C 1280.539 444.243 1281.007 444.376 1281.013 444.385 C 1281.023 444.395 1281.091 445.004 1281.173 445.74 L 1281.321 447.076 L 1280.701 447.49 L 1280.081 447.903 L 1279.421 450.464 C 1279.058 451.873 1278.717 453.042 1278.663 453.062 C 1278.609 453.082 1278.256 453.252 1277.878 453.438 C 1277.194 453.776 1277.19 453.782 1277.149 454.403 C 1277.069 455.619 1277.243 456.576 1277.621 456.999 L 1277.968 457.387 L 1279.829 457.262 C 1280.853 457.193 1281.887 457.176 1282.128 457.225 C 1282.368 457.274 1283.114 457.409 1283.785 457.526 L 1285.004 457.739 L 1284.624 458.094 C 1284.218 458.473 1284.219 458.461 1284.558 459.65 C 1284.687 460.102 1284.757 460.164 1285.336 460.339 C 1285.818 460.484 1286.219 460.758 1286.985 461.467 L 1287.998 462.403 L 1288.325 464.457 C 1288.635 466.401 1288.642 466.534 1288.448 466.941 C 1288.253 467.348 1288.257 467.414 1288.515 468.199 C 1288.862 469.258 1288.934 469.34 1289.516 469.34 C 1289.983 469.34 1290.029 469.383 1291.006 470.684 L 1292.015 472.028 L 1292.978 472.219 L 1293.941 472.409 L 1294.016 473.107 C 1294.123 474.101 1294.67 474.857 1295.635 475.344 L 1296.378 475.719 L 1296.378 476.859 L 1296.378 477.999 L 1297.299 479.145 C 1298.687 480.871 1298.503 480.756 1299.745 480.669 C 1302.224 480.495 1303.449 480.458 1303.583 480.552 C 1303.662 480.608 1303.849 481.459 1304 482.444 L 1304.274 484.234 L 1303.039 485.399 L 1301.805 486.563 L 1301.575 487.546 C 1301.448 488.086 1301.284 488.566 1301.211 488.613 C 1301.138 488.66 1300.812 488.735 1300.487 488.78 C 1299.742 488.883 1299.503 489.058 1299.468 489.529 C 1299.442 489.885 1299.5 489.932 1300.703 490.528 C 1301.876 491.109 1303.665 492.47 1303.488 492.647 C 1303.331 492.804 1298.945 493.732 1295.815 494.271 L 1292.44 494.851 L 1291.899 495.377 C 1291.601 495.666 1290.914 496.386 1290.372 496.977 C 1289.413 498.022 1289.39 498.062 1289.505 498.479 C 1289.575 498.731 1289.906 499.187 1290.313 499.588 C 1290.692 499.963 1291.001 500.328 1290.999 500.399 C 1290.999 500.47 1289.857 501.045 1288.467 501.678 L 1285.94 502.828 L 1283.489 503.13 L 1281.037 503.433 L 1279.489 504.255 C 1278.637 504.707 1277.746 505.276 1277.509 505.521 C 1277.075 505.969 1276.976 505.993 1276.05 505.876 L 1276.045 505.876 Z" id="Cork East" transform="matrix(0.868562, 0, 0, 0.868562, -911.843872, 13.696216)"/>
</svg>