<?xml version="1.0" encoding="utf-8"?>
<svg viewBox="48.748 446.535 138.574 44.622" width="138.574" height="44.622" xmlns="http://www.w3.org/2000/svg">
  <path style="opacity:1;fill:#ff4d66;fill-opacity:1;stroke:none;stroke-width:0.0625;stroke-linecap:round;stroke-linejoin:round;stroke-miterlimit:4;stroke-dasharray:none;stroke-dashoffset:0;stroke-opacity:1" d="M 1172.198 498.34 C 1171.228 498.34 1171.149 498.362 1170.495 498.809 C 1169.821 499.27 1169.785 499.279 1168.372 499.34 L 1166.935 499.403 L 1166.843 500.653 C 1166.792 501.34 1166.723 502.015 1166.69 502.153 C 1166.657 502.29 1166.008 502.951 1165.245 503.621 C 1163.911 504.794 1163.838 504.841 1163.273 504.84 C 1162.949 504.84 1160.632 504.931 1158.122 505.043 C 1153.797 505.237 1153.489 505.235 1152.22 505.026 L 1150.882 504.805 L 1149.657 506.09 L 1148.435 507.375 L 1147.935 508.826 L 1147.435 510.278 L 1145.044 510.278 L 1142.655 510.278 L 1140.935 511.766 C 1139.61 512.913 1138.798 513.76 1137.396 515.453 C 1136.394 516.663 1135.521 517.689 1135.454 517.735 C 1135.387 517.78 1134.769 517.889 1134.081 517.977 L 1132.831 518.135 L 1132.292 517.52 C 1131.683 516.824 1131.644 516.596 1131.995 515.823 C 1132.131 515.523 1132.245 515.042 1132.245 514.754 C 1132.245 514.178 1132.226 514.163 1131.224 514.022 C 1130.521 513.923 1130.308 513.707 1130.198 512.983 C 1130.122 512.486 1130.153 512.39 1130.556 511.899 C 1130.798 511.603 1130.997 511.333 1130.997 511.299 C 1130.997 511.265 1130.636 510.698 1130.194 510.037 C 1129.753 509.377 1129.365 508.767 1129.333 508.682 C 1129.297 508.587 1129.021 508.777 1128.616 509.174 L 1127.956 509.823 L 1126.882 509.287 L 1125.81 508.752 L 1122.31 509.969 L 1118.81 511.186 L 1118.567 512.196 C 1118.369 513.027 1118.354 513.263 1118.479 513.537 L 1118.632 513.871 L 1119.854 513.786 C 1121.541 513.666 1121.536 513.657 1120.714 515.586 L 1120.06 517.123 L 1116.386 518.256 L 1112.712 519.389 L 1111.81 519.065 L 1110.907 518.741 L 1110.101 519.633 C 1109.657 520.125 1109.256 520.593 1109.208 520.672 C 1109.152 520.766 1109.596 521.07 1110.466 521.532 C 1111.205 521.925 1111.826 522.26 1111.845 522.276 C 1111.864 522.292 1111.939 522.649 1112.013 523.071 L 1112.147 523.836 L 1111.253 525.082 C 1110.76 525.768 1110.262 526.355 1110.145 526.387 C 1110.029 526.419 1109.063 526.515 1107.997 526.598 C 1106.931 526.681 1106.02 526.784 1105.972 526.827 C 1105.839 526.944 1106.565 528.044 1107.435 529.041 L 1108.21 529.93 L 1109.511 529.524 C 1110.801 529.12 1110.822 529.117 1111.811 529.28 C 1112.36 529.37 1113.17 529.608 1113.61 529.811 L 1114.411 530.18 L 1115.423 529.952 C 1115.979 529.826 1116.631 529.684 1116.872 529.639 C 1117.113 529.594 1117.872 529.19 1118.56 528.741 L 1119.81 527.924 L 1121.813 528.264 L 1123.817 528.604 L 1127.751 527.67 C 1133.042 526.414 1133.31 526.313 1134.528 525.114 C 1135.061 524.589 1135.497 524.125 1135.497 524.082 C 1135.497 524.04 1134.165 523.968 1132.536 523.922 L 1129.575 523.838 L 1127.776 524.434 C 1126.184 524.96 1125.899 525.097 1125.3 525.631 L 1124.622 526.235 L 1123.997 526.028 C 1123.299 525.796 1123.266 525.7 1123.599 524.881 C 1123.754 524.498 1124.053 524.168 1124.72 523.651 C 1125.509 523.038 1125.873 522.863 1127.47 522.321 L 1129.31 521.696 L 1133.323 521.776 L 1137.337 521.856 L 1138.573 521.428 C 1139.253 521.193 1140.119 520.93 1140.497 520.844 C 1140.875 520.758 1141.255 520.599 1141.341 520.491 C 1141.605 520.156 1141.526 519.573 1141.165 519.196 L 1140.833 518.848 L 1141.171 518.338 C 1141.557 517.755 1141.514 517.752 1142.977 518.418 C 1143.67 518.733 1144.146 518.856 1144.915 518.918 C 1145.581 518.972 1146.13 519.098 1146.497 519.28 C 1147.012 519.535 1147.162 519.551 1148.27 519.465 L 1149.483 519.372 L 1152.02 517.579 C 1153.417 516.593 1154.979 515.561 1155.493 515.284 C 1156.382 514.803 1156.448 514.737 1156.841 513.922 L 1157.253 513.067 L 1156.979 512.213 C 1156.747 511.49 1156.721 511.248 1156.819 510.631 L 1156.935 509.905 L 1157.56 509.813 C 1157.903 509.763 1158.241 509.741 1158.311 509.766 C 1158.381 509.791 1158.627 510.395 1158.858 511.112 L 1159.28 512.414 L 1160.386 513.122 C 1161.162 513.617 1161.709 513.869 1162.218 513.969 C 1162.891 514.102 1163 514.089 1163.782 513.776 C 1164.245 513.591 1164.692 513.465 1164.778 513.498 C 1164.864 513.531 1165.04 513.869 1165.169 514.248 C 1165.38 514.871 1165.393 515.123 1165.29 516.813 L 1165.175 518.686 L 1164.653 519.377 C 1164.163 520.027 1164.051 520.1 1162.792 520.592 C 1161.422 521.128 1160.79 521.472 1159.968 522.131 C 1159.516 522.493 1159.429 522.511 1157.343 522.686 L 1155.185 522.868 L 1153.058 524.653 L 1150.933 526.438 L 1149.509 526.588 C 1147.62 526.788 1146.569 527.181 1142.06 529.364 C 1140.066 530.329 1138.114 531.265 1137.722 531.444 C 1137.013 531.768 1137.006 531.776 1136.481 532.961 C 1135.853 534.381 1135.114 535.219 1133.81 535.993 C 1133.328 536.278 1132.597 536.73 1132.185 536.997 L 1131.435 537.481 L 1133.81 537.397 L 1136.185 537.315 L 1138.351 536.307 C 1140.354 535.374 1140.574 535.236 1141.31 534.475 L 1142.104 533.653 L 1143.645 533.223 C 1144.84 532.89 1145.928 532.437 1148.497 531.204 C 1150.562 530.212 1152.789 529.256 1154.411 528.664 C 1157.742 527.449 1158.371 527.422 1158.126 528.51 C 1158.067 528.771 1158 528.998 1157.977 529.014 C 1157.268 529.497 1154.521 531.455 1151.784 533.43 L 1148.259 535.975 L 1147.979 536.875 C 1147.826 537.371 1147.64 537.843 1147.567 537.922 C 1147.494 538.002 1145.999 538.711 1144.245 539.498 C 1141.272 540.834 1140.947 540.951 1139.477 541.217 L 1137.901 541.502 L 1136.546 542.735 C 1135.751 543.457 1134.847 544.145 1134.36 544.401 C 1133.396 544.908 1133.355 544.951 1133.065 545.778 C 1132.877 546.315 1132.864 546.551 1132.973 547.459 C 1133.072 548.282 1133.066 548.587 1132.94 548.834 C 1132.851 549.009 1132.74 549.279 1132.692 549.434 C 1132.607 549.709 1132.627 549.716 1133.583 549.715 C 1134.408 549.715 1134.614 549.671 1134.909 549.434 C 1135.216 549.187 1135.268 549.044 1135.335 548.241 C 1135.41 547.336 1135.414 547.324 1135.944 546.959 C 1136.239 546.757 1136.562 546.59 1136.661 546.59 C 1136.86 546.59 1136.997 547.105 1136.997 547.848 C 1136.997 548.377 1136.98 548.365 1138.198 548.596 L 1138.96 548.741 L 1140.612 547.836 C 1141.673 547.256 1142.302 546.835 1142.368 546.663 C 1142.424 546.514 1142.511 545.96 1142.561 545.432 C 1142.611 544.904 1142.716 544.423 1142.794 544.362 C 1142.872 544.301 1143.328 544.129 1143.81 543.981 C 1144.636 543.727 1144.717 543.667 1145.272 542.913 C 1145.898 542.062 1145.972 542.028 1147.61 541.766 L 1148.103 541.686 L 1148.54 542.635 C 1148.965 543.555 1149.001 543.596 1149.794 543.987 C 1150.77 544.468 1150.855 544.442 1152.085 543.295 C 1152.573 542.84 1152.941 542.589 1153.056 542.633 C 1153.157 542.672 1153.342 542.911 1153.464 543.164 C 1153.586 543.418 1153.726 543.618 1153.778 543.608 C 1153.83 543.598 1154.449 543.591 1155.153 543.59 L 1156.435 543.59 L 1156.718 542.368 L 1157.003 541.147 L 1157.694 540.733 C 1158.075 540.505 1158.464 540.348 1158.56 540.385 C 1158.667 540.426 1158.767 540.745 1158.821 541.219 C 1158.895 541.876 1158.95 542.001 1159.21 542.1 C 1159.727 542.297 1160.126 542.234 1161.989 541.661 C 1163.683 541.139 1163.829 541.068 1164.392 540.504 L 1164.991 539.903 L 1164.737 538.34 C 1164.486 536.792 1164.503 535.991 1164.79 535.813 C 1164.877 535.759 1165.262 536.043 1165.747 536.518 C 1166.539 537.292 1166.593 537.322 1167.841 537.645 C 1168.545 537.827 1169.291 538.072 1169.497 538.19 C 1169.862 538.397 1169.871 538.429 1169.87 539.34 L 1169.87 540.278 L 1168.501 541.795 L 1167.132 543.313 L 1167.657 543.661 C 1167.947 543.852 1168.822 544.543 1169.599 545.194 C 1170.802 546.202 1171.086 546.512 1171.509 547.284 L 1172.007 548.19 L 1173.345 548.44 L 1174.685 548.692 L 1176.091 547.623 C 1177.372 546.65 1177.497 546.519 1177.497 546.151 C 1177.497 545.455 1177.638 545 1177.98 544.59 L 1178.312 544.194 L 1179.185 544.528 C 1179.666 544.711 1180.932 545.01 1181.995 545.194 L 1183.929 545.528 L 1184.21 546.028 C 1184.366 546.303 1184.51 546.57 1184.529 546.623 C 1184.548 546.677 1184.826 546.631 1185.148 546.522 C 1185.632 546.357 1185.962 546.072 1187.052 544.875 C 1188.071 543.756 1188.385 543.327 1188.441 542.979 C 1188.598 541.992 1188.607 541.976 1189.388 541.582 C 1190.001 541.273 1190.463 541.159 1191.759 540.998 L 1193.37 540.799 L 1193.427 540.413 C 1193.459 540.201 1193.516 539.663 1193.554 539.215 L 1193.624 538.401 L 1192.575 536.92 C 1191.599 535.541 1191.519 535.378 1191.38 534.518 C 1191.109 532.837 1191.314 532.904 1193.519 535.221 C 1195.134 536.918 1197.275 538.73 1197.454 538.551 C 1197.491 538.515 1197.454 538.169 1197.364 537.784 C 1197.209 537.091 1197.211 537.081 1197.564 536.713 C 1197.76 536.509 1197.991 536.34 1198.079 536.34 C 1198.166 536.34 1198.502 536.621 1198.823 536.965 L 1199.407 537.59 L 1200.548 537.59 C 1202.043 537.59 1202.078 537.543 1201.814 535.901 C 1201.542 534.214 1201.556 534.029 1201.985 533.723 C 1202.185 533.581 1202.426 533.465 1202.519 533.465 C 1202.612 533.465 1203.014 534.074 1203.413 534.819 L 1204.14 536.174 L 1205.741 536.522 C 1206.622 536.713 1207.403 536.906 1207.476 536.952 C 1207.549 536.997 1207.75 537.815 1207.923 538.77 C 1208.096 539.725 1208.309 540.55 1208.396 540.604 C 1208.498 540.667 1208.677 540.554 1208.901 540.282 L 1209.249 539.862 L 1210.751 539.772 L 1212.255 539.682 L 1212.983 538.889 L 1213.71 538.094 L 1213.788 537.061 C 1213.861 536.077 1213.884 536.013 1214.274 535.717 C 1214.5 535.546 1214.867 535.218 1215.091 534.989 C 1215.474 534.595 1215.497 534.522 1215.497 533.655 L 1215.497 532.737 L 1214.403 532.372 C 1213.316 532.01 1213.31 532.006 1213.272 531.559 C 1213.238 531.16 1213.287 531.073 1213.708 530.788 C 1213.968 530.611 1214.275 530.465 1214.392 530.465 C 1214.508 530.465 1215.085 530.744 1215.675 531.084 L 1216.749 531.704 L 1218.919 531.959 C 1220.112 532.1 1221.167 532.215 1221.263 532.215 C 1221.359 532.215 1221.804 532.546 1222.251 532.95 C 1223.015 533.64 1223.12 533.692 1223.999 533.838 C 1224.89 533.987 1224.962 534.025 1225.503 534.625 L 1226.071 535.256 L 1227.769 535.586 L 1229.468 535.918 L 1229.872 535.241 L 1230.278 534.563 L 1230.061 533.764 C 1229.82 532.871 1229.763 533.028 1230.729 531.872 L 1231.278 531.213 L 1230.806 530.149 L 1230.331 529.084 L 1230.452 527.458 L 1230.573 525.831 L 1231.13 525.276 C 1231.619 524.787 1231.759 524.715 1232.3 524.686 L 1232.915 524.653 L 1233.378 525.465 L 1233.841 526.278 L 1235.624 526.313 C 1237.134 526.343 1237.455 526.314 1237.731 526.133 C 1238.02 525.944 1239.862 525.484 1240.38 525.471 C 1240.616 525.465 1242.595 527.668 1244.341 529.881 C 1245.045 530.775 1245.622 531.419 1245.622 531.313 C 1245.622 531.207 1245.429 530.586 1245.192 529.932 L 1244.763 528.745 L 1244.933 525.635 C 1245.027 523.926 1245.195 522.027 1245.308 521.415 C 1245.509 520.321 1245.509 520.287 1245.242 519.571 C 1244.982 518.877 1244.977 518.826 1245.18 518.518 C 1245.296 518.34 1245.683 518.058 1246.039 517.891 L 1246.685 517.588 L 1247.271 518.245 C 1247.77 518.805 1247.906 519.08 1248.193 520.104 L 1248.531 521.307 L 1249.375 521.09 C 1249.839 520.971 1250.47 520.699 1250.779 520.487 C 1251.237 520.172 1251.369 519.994 1251.488 519.52 C 1251.651 518.872 1251.668 518.911 1250.67 517.555 C 1250.119 516.807 1249.835 515.828 1250.094 515.569 C 1250.18 515.483 1250.658 515.693 1251.578 516.221 C 1252.325 516.65 1252.963 517.024 1252.996 517.053 C 1253.029 517.082 1253.113 517.619 1253.183 518.245 C 1253.253 518.871 1253.371 519.402 1253.445 519.426 C 1253.519 519.451 1253.686 519.163 1253.814 518.786 C 1253.943 518.408 1254.112 518.074 1254.191 518.043 C 1254.27 518.013 1254.929 518.054 1255.654 518.135 L 1256.973 518.284 L 1257.375 517.28 C 1257.597 516.728 1257.843 516.213 1257.92 516.135 C 1258.033 516.021 1260.49 515.715 1261.289 515.715 C 1261.412 515.715 1261.574 515.42 1261.752 514.872 C 1261.903 514.408 1262.106 513.964 1262.205 513.885 C 1262.304 513.806 1262.739 513.676 1263.17 513.594 C 1263.601 513.513 1264.03 513.398 1264.123 513.34 C 1264.216 513.283 1264.564 512.263 1264.896 511.073 L 1265.5 508.909 L 1265.129 508.54 L 1264.76 508.168 L 1263.723 508.614 C 1262.769 509.023 1262.531 509.069 1260.767 509.194 L 1258.849 509.331 L 1257.883 509.897 C 1257.35 510.209 1256.858 510.465 1256.791 510.465 C 1256.724 510.465 1256.363 510.24 1255.99 509.963 C 1255.363 509.499 1255.272 509.362 1254.795 508.186 L 1254.277 506.913 L 1251.303 505.893 C 1248.032 504.772 1248.21 504.896 1248.057 503.665 C 1247.981 503.058 1247.92 502.93 1247.658 502.831 C 1247.398 502.732 1247.197 502.803 1246.418 503.276 C 1245.907 503.586 1245.38 503.84 1245.246 503.84 C 1245.112 503.84 1244.409 503.547 1243.687 503.188 L 1242.375 502.534 L 1241.795 500.782 C 1241.476 499.817 1241.189 498.984 1241.158 498.93 C 1241.127 498.876 1240.827 499.031 1240.488 499.274 C 1239.929 499.676 1239.796 499.716 1239.029 499.715 C 1238.226 499.715 1238.141 499.685 1237.248 499.09 C 1236.732 498.747 1236.187 498.466 1236.037 498.465 C 1235.733 498.465 1235.531 498.884 1235.717 499.127 C 1235.78 499.21 1236.158 499.688 1236.557 500.188 C 1237.245 501.052 1237.276 501.124 1237.203 501.626 C 1237.16 501.916 1237.094 502.272 1237.053 502.417 C 1236.994 502.627 1237.129 502.801 1237.732 503.292 C 1238.147 503.628 1238.519 503.998 1238.56 504.114 C 1238.603 504.234 1238.441 504.711 1238.182 505.225 L 1237.726 506.126 L 1236.644 506.045 C 1236.049 506.001 1235.364 505.935 1235.123 505.897 C 1234.69 505.828 1234.677 505.84 1233.935 506.948 C 1233.241 507.984 1233.104 508.116 1232.086 508.721 L 1230.986 509.376 L 1229.728 508.831 C 1228.435 508.272 1228.185 508.056 1228.047 507.366 C 1228.003 507.146 1227.901 506.965 1227.82 506.965 C 1227.739 506.965 1226.968 507.163 1226.107 507.403 L 1224.541 507.838 L 1223.516 507.465 C 1222.061 506.935 1220.956 506.936 1220.178 507.471 L 1219.623 507.852 L 1219.623 508.665 C 1219.623 509.464 1219.613 509.481 1219.217 509.645 C 1218.993 509.737 1218.336 509.946 1217.758 510.108 L 1216.705 510.403 L 1216.092 511.684 C 1215.582 512.748 1215.422 512.979 1215.144 513.042 C 1214.961 513.083 1214.379 513.224 1213.851 513.354 C 1213.324 513.484 1212.734 513.591 1212.539 513.59 C 1211.919 513.59 1209.91 512.988 1209.004 512.532 C 1207.699 511.875 1207.585 511.902 1206.455 513.143 L 1205.498 514.194 L 1202.967 515.038 C 1200.97 515.703 1200.208 516.023 1199.361 516.549 C 1198.192 517.276 1198.008 517.326 1197.723 516.997 C 1197.128 516.31 1196.873 515.634 1196.873 514.739 L 1196.873 513.846 L 1196.367 513.588 C 1195.787 513.292 1195.742 513.193 1195.424 511.606 C 1195.239 510.682 1195.135 510.41 1194.937 510.327 C 1194.605 510.186 1190.686 509.215 1190.449 509.215 C 1190.348 509.215 1190.152 509.373 1190.016 509.565 C 1189.78 509.896 1189.773 510.01 1189.889 511.772 C 1189.987 513.26 1189.979 513.663 1189.848 513.793 C 1189.758 513.883 1189.267 514.044 1188.758 514.151 C 1188.124 514.284 1187.388 514.581 1186.43 515.092 C 1185.659 515.503 1184.929 515.84 1184.807 515.84 C 1184.684 515.84 1183.835 515.408 1182.922 514.879 L 1181.262 513.918 L 1180.797 512.676 C 1180.448 511.746 1180.363 511.386 1180.459 511.233 C 1180.538 511.108 1181.06 510.919 1181.803 510.746 C 1182.92 510.487 1183.076 510.411 1183.758 509.811 C 1184.803 508.891 1184.784 508.633 1183.635 508.104 C 1182.462 507.563 1182.394 507.467 1182.662 506.713 C 1182.861 506.142 1182.861 506.08 1182.652 505.518 C 1182.449 504.97 1182.352 504.881 1181.384 504.352 C 1180.341 503.781 1180.334 503.773 1179.834 502.764 L 1179.33 501.75 L 1176.755 500.842 C 1175.339 500.342 1174.084 499.883 1173.966 499.823 C 1173.848 499.762 1173.689 499.473 1173.611 499.182 C 1173.396 498.379 1173.33 498.34 1172.195 498.34 L 1172.198 498.34 Z M 1162.599 516.45 C 1162.305 516.466 1161.924 516.506 1161.427 516.561 L 1159.685 516.754 L 1158.56 517.756 C 1157.941 518.308 1157.419 518.796 1157.4 518.84 C 1157.352 518.953 1157.712 519.247 1158.372 519.633 C 1158.898 519.94 1159.005 519.956 1159.997 519.885 C 1160.959 519.816 1161.167 519.752 1162.204 519.198 C 1163.625 518.438 1163.977 517.972 1163.747 517.153 C 1163.583 516.564 1163.48 516.401 1162.599 516.45 L 1162.599 516.45 Z" id="Cork South West" transform="matrix(0.868562, 0, 0, 0.868562, -911.843872, 13.696216)"/>
</svg>