<?xml version="1.0" encoding="utf-8"?>
<svg viewBox="166.879 439.663 21.505 16.318" width="21.505" height="16.318" xmlns="http://www.w3.org/2000/svg">
  <path style="opacity:1;fill:#cb85f9;fill-opacity:1;stroke:none;stroke-width:0.0625;stroke-linecap:round;stroke-linejoin:round;stroke-miterlimit:4;stroke-dasharray:none;stroke-dashoffset:0;stroke-opacity:1" d="M 1256.483 508.979 C 1256.322 508.848 1255.937 508.136 1255.623 507.385 L 1255.055 506.028 L 1252.25 505.08 C 1250.707 504.559 1249.378 504.07 1249.297 503.994 C 1249.215 503.917 1249.109 503.518 1249.062 503.107 C 1248.96 502.228 1248.819 502.073 1247.855 501.773 L 1247.151 501.554 L 1246.205 502.128 L 1245.259 502.703 L 1244.257 502.252 L 1243.255 501.801 L 1242.609 499.865 L 1241.964 497.928 L 1242.179 496.353 C 1242.297 495.487 1242.421 494.66 1242.454 494.517 C 1242.543 494.129 1243.82 493.723 1245.321 493.605 C 1246.725 493.494 1246.531 493.578 1249.56 491.771 L 1251.81 490.428 L 1254.36 490.63 L 1256.91 490.832 L 1257.985 491.877 L 1259.06 492.923 L 1260.394 493.216 L 1261.728 493.508 L 1261.993 494.206 C 1262.186 494.711 1262.295 495.42 1262.391 496.778 C 1262.537 498.858 1262.652 499.159 1263.253 499.027 C 1263.437 498.986 1263.834 499.01 1264.136 499.079 C 1264.438 499.148 1265.07 499.24 1265.542 499.284 C 1266.455 499.368 1266.489 499.465 1265.685 499.686 C 1263.731 500.223 1263.812 500.182 1263.313 500.906 L 1262.842 501.59 L 1260.37 501.59 L 1257.899 501.59 L 1257.708 502.059 C 1257.563 502.416 1257.553 502.563 1257.663 502.674 C 1257.756 502.768 1259.024 502.892 1261.184 503.02 C 1264.93 503.241 1266.189 503.443 1266.525 503.875 C 1266.837 504.276 1266.804 504.482 1266.252 505.58 C 1265.764 506.55 1265.211 507.09 1264.707 507.09 C 1264.598 507.09 1264.061 507.288 1263.513 507.528 C 1262.591 507.933 1262.368 507.977 1260.538 508.108 C 1258.573 508.249 1258.554 508.254 1257.739 508.733 C 1257.289 508.998 1256.887 509.215 1256.847 509.215 C 1256.807 509.215 1256.643 509.109 1256.483 508.979 L 1256.483 508.979 Z" id="Cork South Central" transform="matrix(0.868562, 0, 0, 0.868562, -911.843872, 13.696216)"/>
</svg>