<?xml version="1.0" encoding="utf-8"?>
<svg viewBox="108.302 380.174 60.041 81.644" width="60.041" height="81.644" xmlns="http://www.w3.org/2000/svg">
  <path style="opacity:1;fill:#ff4d66;fill-opacity:1;stroke:none;stroke-width:0.0625;stroke-linecap:round;stroke-linejoin:round;stroke-miterlimit:4;stroke-dasharray:none;stroke-dashoffset:0;stroke-opacity:1" d="M 1198.075 515.508 C 1197.944 515.232 1197.872 514.752 1197.872 514.143 C 1197.872 513.224 1197.862 513.199 1197.488 512.991 C 1197.276 512.874 1197.02 512.72 1196.918 512.649 C 1196.812 512.576 1196.602 511.911 1196.425 511.087 C 1196.247 510.261 1196.036 509.592 1195.927 509.51 C 1195.646 509.3 1190.038 507.925 1189.874 508.027 C 1189.531 508.239 1188.631 509.646 1188.68 509.893 C 1188.709 510.036 1188.765 510.804 1188.806 511.599 L 1188.88 513.045 L 1188.157 513.183 C 1187.721 513.266 1186.921 513.598 1186.138 514.021 L 1184.841 514.721 L 1183.497 513.965 C 1182.193 513.233 1182.146 513.191 1181.904 512.557 L 1181.654 511.903 L 1182.64 511.653 C 1183.541 511.424 1183.704 511.331 1184.546 510.565 C 1185.466 509.728 1185.467 509.726 1185.551 508.937 C 1185.598 508.502 1185.601 508.056 1185.561 507.944 C 1185.518 507.833 1185.088 507.565 1184.605 507.349 C 1183.891 507.029 1183.744 506.916 1183.817 506.742 C 1184.01 506.284 1183.981 505.995 1183.653 505.092 L 1183.313 504.156 L 1182.25 503.588 L 1181.188 503.02 L 1180.671 501.953 L 1180.155 500.885 L 1177.393 499.912 L 1174.632 498.939 L 1174.55 498.504 C 1174.475 498.106 1174.52 498.016 1175.078 497.447 C 1175.413 497.105 1176.32 496.28 1177.094 495.615 C 1178.279 494.595 1178.511 494.337 1178.571 493.967 C 1178.61 493.725 1178.671 493.373 1178.706 493.184 C 1178.752 492.936 1179.117 492.556 1180.01 491.826 C 1181.286 490.782 1181.368 490.646 1181.106 490.005 C 1181.027 489.811 1180.53 488.314 1180.003 486.678 L 1179.043 483.703 L 1180.115 482.681 C 1180.705 482.118 1181.452 481.408 1181.776 481.102 L 1182.366 480.546 L 1183.975 480.325 C 1185.555 480.109 1185.605 480.092 1186.627 479.441 L 1187.669 478.778 L 1190.477 478.715 L 1193.284 478.653 L 1194.028 477.84 C 1195.212 476.547 1195.177 476.648 1194.796 475.615 C 1194.583 475.04 1194.382 474.695 1194.231 474.647 C 1194.102 474.606 1193.346 474.472 1192.551 474.349 C 1191.627 474.206 1191.033 474.052 1190.902 473.921 C 1190.79 473.809 1190.443 473.225 1190.13 472.623 L 1189.562 471.528 L 1188.875 471.43 C 1187.302 471.205 1187.385 471.261 1186.986 470.16 C 1186.787 469.614 1186.625 469.08 1186.625 468.974 C 1186.625 468.869 1186.855 468.303 1187.137 467.717 C 1187.534 466.894 1187.781 466.551 1188.231 466.203 C 1188.911 465.677 1189.554 464.55 1189.37 464.207 C 1189.307 464.09 1189.064 463.88 1188.829 463.742 C 1188.352 463.46 1188.322 463.352 1188.18 461.403 C 1188.1 460.308 1188.082 460.256 1187.492 459.444 C 1187.159 458.986 1186.515 457.869 1186.061 456.962 L 1185.235 455.314 L 1185.38 453.921 L 1185.525 452.528 L 1184.756 449.465 C 1184.333 447.781 1183.935 446.203 1183.87 445.958 C 1183.806 445.714 1183.452 445.111 1183.083 444.617 C 1182.412 443.721 1182.412 443.721 1182.259 442.374 C 1182.175 441.634 1182.081 440.935 1182.049 440.822 C 1182.01 440.683 1182.344 440.308 1183.089 439.655 C 1184.054 438.81 1184.203 438.624 1184.312 438.124 L 1184.437 437.554 L 1185.424 437.27 C 1185.966 437.114 1186.45 436.921 1186.499 436.843 C 1186.548 436.764 1186.689 436.295 1186.814 435.801 L 1187.041 434.903 L 1188.864 433.735 C 1190.65 432.591 1190.722 432.528 1192.358 430.647 L 1194.029 428.727 L 1194.983 429.203 C 1195.783 429.602 1196.149 429.703 1197.25 429.824 C 1198.42 429.953 1198.824 430.073 1200.972 430.929 L 1203.382 431.889 L 1204.52 433.983 C 1205.147 435.135 1205.732 436.105 1205.821 436.139 C 1205.987 436.203 1207.637 435.779 1208.031 435.572 C 1208.311 435.425 1208.306 435.145 1208.002 433.772 C 1207.866 433.156 1207.754 432.566 1207.752 432.459 C 1207.752 432.305 1208.182 432.193 1209.843 431.915 C 1211.525 431.633 1212.171 431.464 1213.124 431.054 C 1213.778 430.774 1214.384 430.49 1214.472 430.424 C 1214.56 430.358 1214.924 429.758 1215.28 429.092 L 1215.927 427.88 L 1217.297 427.392 L 1218.668 426.903 L 1218.991 425.933 C 1219.255 425.138 1219.387 424.918 1219.722 424.714 C 1219.946 424.577 1220.593 424.025 1221.159 423.487 C 1221.968 422.718 1222.353 422.448 1222.967 422.222 L 1223.746 421.936 L 1225.391 423.165 C 1226.883 424.28 1227.099 424.402 1227.736 424.481 C 1229.184 424.663 1229.404 424.627 1230.261 424.069 C 1230.702 423.783 1231.357 423.479 1231.718 423.393 L 1232.374 423.238 L 1232.832 424.695 C 1233.313 426.224 1234.007 427.649 1234.356 427.824 C 1234.543 427.917 1235.091 428.074 1236.576 428.458 C 1237.008 428.57 1237.208 428.744 1237.826 429.551 C 1238.231 430.08 1238.873 431.05 1239.252 431.707 L 1239.943 432.903 L 1240.709 433.145 L 1241.475 433.386 L 1242.065 434.735 L 1242.655 436.085 L 1242.574 437.681 C 1242.529 438.559 1242.46 439.685 1242.419 440.182 L 1242.346 441.085 L 1241.829 440.719 C 1241.35 440.379 1241.203 440.347 1239.805 440.268 L 1238.297 440.183 L 1237.867 440.683 C 1237.499 441.112 1237.382 441.175 1237.045 441.125 L 1236.653 441.066 L 1236.566 440.026 C 1236.465 438.813 1236.473 438.823 1235.028 438.101 C 1234.241 437.708 1233.94 437.614 1233.768 437.705 C 1233.635 437.777 1233.321 438.426 1232.996 439.302 C 1232.696 440.114 1232.339 440.867 1232.205 440.976 C 1232.051 441.101 1231.341 441.258 1230.295 441.399 C 1229.378 441.522 1228.579 441.685 1228.519 441.763 C 1228.374 441.947 1228.236 443.033 1228.326 443.27 C 1228.365 443.372 1228.66 443.606 1228.98 443.791 C 1229.3 443.976 1229.584 444.145 1229.61 444.167 C 1229.636 444.19 1229.57 444.342 1229.463 444.506 C 1229.354 444.673 1228.764 445.043 1228.125 445.347 C 1226.915 445.922 1226.738 446.092 1226.831 446.592 C 1226.88 446.858 1226.8 446.952 1226.274 447.244 C 1225.936 447.432 1225.591 447.668 1225.507 447.769 C 1225.28 448.043 1224.664 450.836 1224.49 452.382 L 1224.338 453.735 L 1223.859 454.038 C 1223.381 454.34 1222.875 455.123 1222.875 455.561 C 1222.875 455.908 1223.739 457.998 1223.978 458.231 C 1224.242 458.487 1225.84 459.091 1226.252 459.09 C 1226.423 459.089 1227.285 458.95 1228.169 458.78 C 1229.593 458.506 1229.907 458.484 1230.919 458.591 C 1231.548 458.657 1232.133 458.712 1232.219 458.713 C 1232.305 458.714 1232.696 459.358 1233.087 460.143 C 1233.705 461.386 1233.864 461.608 1234.305 461.851 C 1234.584 462.004 1234.83 462.143 1234.852 462.16 C 1234.874 462.177 1234.778 462.415 1234.638 462.688 C 1234.41 463.136 1234.325 463.194 1233.786 463.27 C 1233.457 463.317 1233.087 463.384 1232.964 463.42 C 1232.626 463.519 1231.124 465.339 1231.131 465.641 C 1231.131 465.785 1231.352 466.324 1231.616 466.838 L 1232.095 467.774 L 1231.272 469.424 L 1230.45 471.074 L 1229.256 471.375 L 1228.062 471.675 L 1226.72 471.008 C 1225.646 470.473 1225.313 470.242 1225.053 469.85 C 1224.875 469.58 1224.648 469.328 1224.548 469.29 C 1224.374 469.223 1221.924 470.126 1221.706 470.338 C 1221.648 470.394 1221.551 471.269 1221.491 472.281 C 1221.37 474.343 1221.335 474.206 1222.301 475.504 C 1222.794 476.167 1223.331 476.649 1224.693 477.652 L 1226.448 478.946 L 1226.766 480.331 L 1227.084 481.716 L 1226.469 482.11 C 1225.731 482.584 1225.625 482.826 1225.625 484.03 C 1225.625 484.953 1225.625 484.954 1226.112 485.345 L 1226.599 485.737 L 1226.349 486.622 L 1226.098 487.507 L 1226.452 488.247 C 1226.647 488.654 1226.896 489.035 1227.005 489.094 C 1227.115 489.152 1228.495 489.549 1230.071 489.974 L 1232.937 490.749 L 1233.862 490.606 L 1234.788 490.463 L 1235.652 491.231 L 1236.517 492 L 1238.165 491.911 C 1239.434 491.843 1240.185 491.724 1241.437 491.394 C 1242.331 491.159 1243.148 490.966 1243.254 490.966 C 1243.579 490.965 1243.754 491.646 1243.581 492.243 C 1243.441 492.728 1243.375 492.784 1242.561 493.117 C 1242.083 493.313 1241.645 493.521 1241.588 493.578 C 1241.531 493.635 1241.375 494.434 1241.242 495.355 C 1240.89 497.779 1240.95 497.627 1240.129 498.202 C 1239.16 498.882 1238.891 498.868 1237.675 498.075 C 1236.688 497.43 1236.057 497.236 1235.445 497.39 C 1235.214 497.448 1235.022 497.676 1234.75 498.214 C 1234.544 498.624 1234.375 499.009 1234.375 499.071 C 1234.375 499.133 1234.773 499.682 1235.259 500.29 C 1235.979 501.189 1236.13 501.454 1236.072 501.712 C 1236.033 501.886 1235.966 502.285 1235.923 502.598 L 1235.845 503.168 L 1236.609 503.785 C 1237.03 504.125 1237.374 504.434 1237.374 504.473 C 1237.374 504.511 1237.297 504.649 1237.202 504.778 C 1237.04 505.001 1236.956 505.006 1235.72 504.862 C 1235 504.778 1234.332 504.741 1234.236 504.779 C 1234.14 504.817 1233.684 505.401 1233.223 506.077 C 1232.526 507.097 1232.259 507.38 1231.647 507.745 L 1230.911 508.183 L 1230.018 507.77 C 1229.526 507.542 1229.124 507.286 1229.124 507.2 C 1229.124 506.905 1228.599 505.961 1228.365 505.836 C 1228.189 505.741 1227.689 505.834 1226.365 506.205 L 1224.601 506.7 L 1223.604 506.333 C 1222.782 506.03 1222.415 505.966 1221.51 505.966 L 1220.412 505.966 L 1219.487 506.628 L 1218.562 507.291 L 1218.526 508.035 L 1218.489 508.778 L 1217.213 509.153 L 1215.937 509.528 L 1215.331 510.787 L 1214.725 512.046 L 1213.608 512.298 L 1212.492 512.549 L 1211.461 512.274 C 1210.894 512.123 1210.006 511.803 1209.488 511.563 C 1208.931 511.306 1208.235 511.093 1207.787 511.042 L 1207.028 510.956 L 1206.405 511.617 C 1206.063 511.981 1205.604 512.485 1205.386 512.738 C 1205.027 513.154 1204.764 513.272 1202.65 513.97 C 1201.034 514.503 1199.999 514.925 1199.297 515.338 L 1198.281 515.935 L 1198.075 515.508 Z" id="Cork North West" transform="matrix(0.868562, 0, 0, 0.868562, -911.843872, 13.696216)"/>
</svg>