<?xml version="1.0" encoding="utf-8"?>
<svg viewBox="149.959 409.205 37.125 32.296" width="37.125" height="32.296" xmlns="http://www.w3.org/2000/svg">
  <path style="opacity:1;fill:#cb85f9;fill-opacity:1;stroke:none;stroke-width:0.0625;stroke-linecap:round;stroke-linejoin:round;stroke-miterlimit:4;stroke-dasharray:none;stroke-dashoffset:0;stroke-opacity:1" d="M 1244.668 492.368 C 1244.701 492.25 1244.762 492.032 1244.804 491.883 C 1244.907 491.524 1244.169 489.872 1243.863 489.775 C 1243.736 489.735 1242.748 489.935 1241.666 490.22 C 1240.133 490.624 1239.386 490.754 1238.279 490.808 L 1236.858 490.878 L 1236.334 490.388 C 1235.066 489.201 1235.258 489.279 1234.062 489.465 C 1233.037 489.625 1232.954 489.619 1231.719 489.295 C 1227.865 488.285 1227.621 488.201 1227.427 487.826 C 1227.26 487.504 1227.27 487.369 1227.526 486.399 L 1227.809 485.328 L 1227.278 484.886 C 1226.785 484.477 1226.747 484.4 1226.747 483.831 C 1226.747 483.227 1226.757 483.211 1227.431 482.764 C 1227.807 482.514 1228.146 482.212 1228.183 482.093 C 1228.238 481.919 1227.461 478.385 1227.342 478.27 C 1227.324 478.252 1226.499 477.643 1225.509 476.915 C 1224.074 475.861 1223.584 475.421 1223.096 474.748 L 1222.484 473.903 L 1222.567 472.528 C 1222.613 471.772 1222.686 471.12 1222.73 471.08 C 1222.774 471.04 1223.113 470.885 1223.484 470.736 L 1224.16 470.464 L 1224.359 470.739 C 1224.469 470.89 1224.588 471.05 1224.622 471.094 C 1224.656 471.138 1225.397 471.551 1226.267 472.011 L 1227.85 472.848 L 1229.401 472.459 C 1230.253 472.246 1231.008 472.033 1231.078 471.987 C 1231.148 471.941 1231.674 470.988 1232.247 469.869 L 1233.289 467.836 L 1232.774 466.76 L 1232.259 465.683 L 1232.767 465.081 C 1233.059 464.734 1233.414 464.452 1233.604 464.414 C 1233.786 464.378 1234.159 464.312 1234.434 464.266 C 1235.106 464.154 1235.192 464.069 1235.672 463.028 C 1236.088 462.128 1236.96 460.84 1237.154 460.84 C 1237.211 460.84 1237.485 460.957 1237.764 461.099 L 1238.271 461.358 L 1238.728 461.034 C 1238.979 460.857 1239.422 460.501 1239.712 460.244 L 1240.241 459.778 L 1240.453 458.122 C 1240.665 456.476 1240.668 456.465 1240.991 456.465 C 1241.17 456.465 1241.723 456.212 1242.22 455.903 C 1243.187 455.301 1243.308 455.272 1244.022 455.47 C 1244.432 455.584 1244.504 455.667 1244.654 456.188 L 1244.823 456.778 L 1244.035 457.759 C 1243.602 458.299 1243.247 458.792 1243.247 458.855 C 1243.247 458.918 1243.534 459.542 1243.884 460.24 L 1244.522 461.511 L 1244.303 462.156 L 1244.083 462.801 L 1244.696 463.57 C 1245.065 464.032 1245.406 464.339 1245.551 464.339 C 1245.929 464.341 1248.542 463.699 1248.713 463.562 C 1248.798 463.494 1248.904 463.161 1248.949 462.82 C 1249.016 462.317 1249.069 462.217 1249.233 462.283 C 1249.344 462.328 1249.908 462.539 1250.487 462.752 L 1251.54 463.14 L 1252.688 462.543 C 1253.803 461.962 1253.85 461.95 1254.385 462.092 C 1254.687 462.172 1255.059 462.353 1255.212 462.495 C 1255.453 462.719 1255.589 462.741 1256.262 462.671 C 1256.863 462.608 1257.256 462.463 1258.03 462.017 C 1258.836 461.552 1259.099 461.457 1259.417 461.518 C 1259.633 461.56 1259.875 461.636 1259.954 461.686 C 1260.034 461.737 1260.327 462.35 1260.605 463.047 C 1260.959 463.937 1261.339 464.615 1261.878 465.319 L 1262.647 466.322 L 1262.416 466.712 L 1262.186 467.103 L 1262.834 468.315 L 1263.483 469.528 L 1264.324 469.873 C 1264.787 470.063 1265.176 470.231 1265.187 470.248 C 1265.199 470.264 1265.143 470.925 1265.064 471.715 C 1264.951 472.833 1264.953 473.299 1265.074 473.812 L 1265.227 474.471 L 1264.536 475.125 C 1263.883 475.742 1263.812 475.776 1263.265 475.741 C 1262.771 475.709 1262.621 475.631 1262.245 475.209 C 1261.591 474.477 1261.347 474.532 1260.344 475.639 L 1259.508 476.562 L 1259.37 477.942 L 1259.232 479.322 L 1259.85 480.175 C 1260.297 480.792 1260.752 481.726 1261.492 483.548 L 1262.516 486.068 L 1262.439 486.986 C 1262.397 487.49 1262.335 488.08 1262.302 488.297 C 1262.218 488.845 1262.486 489.062 1263.369 489.162 C 1264.466 489.287 1264.432 489.496 1263.213 490.107 C 1262.648 490.39 1262.147 490.683 1262.1 490.756 C 1262.053 490.83 1261.979 491.149 1261.936 491.465 C 1261.806 492.412 1261.793 492.419 1260.602 492.155 C 1259.561 491.924 1259.56 491.924 1258.436 490.84 L 1257.311 489.756 L 1254.472 489.532 L 1251.634 489.307 L 1248.972 490.868 C 1246.441 492.352 1246.269 492.432 1245.46 492.505 C 1244.695 492.575 1244.615 492.561 1244.669 492.368 L 1244.668 492.368 Z" id="Cork North Central" transform="matrix(0.868562, 0, 0, 0.868562, -911.843872, 13.696216)"/>
</svg>