<?xml version="1.0" encoding="utf-8"?>
<svg viewBox="153.848 17.985 129.919 101.73" width="129.919" height="101.73" xmlns="http://www.w3.org/2000/svg">
  <path style="opacity:1;fill:#e0e600;fill-opacity:1;stroke:none;stroke-width:0.0625;stroke-linecap:round;stroke-linejoin:round;stroke-miterlimit:4;stroke-dasharray:none;stroke-dashoffset:0;stroke-opacity:1" d="M 1297.755 121.938 L 1294.692 121.865 L 1292.563 120.93 L 1290.435 119.995 L 1290.735 119 C 1291.007 118.099 1291.177 117.824 1292.523 116.108 C 1293.568 114.774 1294.064 114.031 1294.193 113.606 C 1294.563 112.389 1294.463 112.264 1293.001 112.111 C 1291.843 111.99 1291.893 111.979 1291.019 112.544 C 1289.864 113.29 1289.019 113.374 1285.146 113.126 C 1282.611 112.964 1281.848 112.873 1281.34 112.672 C 1280.991 112.535 1280.655 112.391 1280.593 112.353 C 1280.531 112.315 1280.714 112.046 1280.999 111.756 L 1281.517 111.228 L 1281.125 109.802 C 1280.909 109.017 1280.666 108.307 1280.586 108.222 C 1280.505 108.138 1280.018 108.006 1279.503 107.929 L 1278.567 107.788 L 1276.255 108.684 C 1274.983 109.176 1273.822 109.657 1273.676 109.752 C 1273.529 109.847 1272.761 110.504 1271.97 111.212 C 1270.533 112.497 1270.525 112.503 1268.486 113.358 C 1267.362 113.83 1266.379 114.241 1266.302 114.272 C 1266.225 114.302 1266.134 114.218 1266.099 114.084 C 1266.058 113.928 1266.409 113.179 1267.084 111.983 L 1268.132 110.125 L 1268.1 109.251 C 1268.068 108.388 1268.062 108.374 1267.63 108.163 C 1267.389 108.046 1267.097 107.947 1266.981 107.944 C 1266.865 107.941 1265.796 108.527 1264.606 109.246 L 1262.443 110.554 L 1261.62 112.008 C 1261.168 112.807 1260.754 113.47 1260.701 113.481 C 1260.648 113.492 1260.342 112.799 1260.021 111.942 L 1259.438 110.384 L 1258.465 110.09 L 1257.491 109.796 L 1255.655 111.161 C 1253.597 112.689 1252.631 113.358 1252.574 113.294 C 1252.271 112.952 1252.021 112.076 1251.944 111.09 L 1251.853 109.929 L 1251.353 109.674 L 1250.853 109.419 L 1250.023 109.971 C 1248.818 110.771 1248.874 110.749 1246.179 111.49 C 1243.439 112.244 1243.585 112.247 1242.682 111.415 L 1242.146 110.921 L 1239.919 110.808 C 1238.694 110.746 1237.314 110.694 1236.852 110.692 L 1236.012 110.688 L 1235.624 109.439 C 1235.411 108.753 1235.173 108.152 1235.096 108.104 C 1235.019 108.056 1233.321 107.392 1231.324 106.628 L 1227.692 105.238 L 1227.498 103.682 C 1227.391 102.826 1227.226 101.833 1227.132 101.476 L 1226.961 100.827 L 1227.79 99.901 C 1228.485 99.124 1228.74 98.931 1229.37 98.701 C 1229.783 98.551 1230.154 98.375 1230.193 98.311 C 1230.233 98.247 1230.37 97.314 1230.499 96.237 C 1230.64 95.054 1230.793 94.241 1230.886 94.184 C 1230.971 94.132 1231.496 93.966 1232.054 93.816 L 1233.067 93.543 L 1235.037 91.765 L 1237.006 89.988 L 1238.724 89.468 C 1239.669 89.182 1241.071 88.858 1241.84 88.749 L 1243.238 88.55 L 1244.903 88.987 C 1246.066 89.293 1246.906 89.436 1247.692 89.462 L 1248.817 89.5 L 1249.169 88.775 C 1249.489 88.114 1249.591 88.016 1250.322 87.667 C 1251.051 87.319 1251.131 87.243 1251.197 86.83 C 1251.237 86.58 1251.294 86.257 1251.322 86.113 C 1251.392 85.766 1251.217 85.62 1248.675 83.894 C 1246.71 82.561 1246.38 82.276 1246.38 81.918 C 1246.38 81.85 1247.541 81.229 1248.961 80.539 C 1251.479 79.313 1251.554 79.286 1251.993 79.436 C 1252.24 79.521 1253.342 79.617 1254.442 79.651 L 1256.442 79.712 L 1257.891 79.029 L 1259.341 78.346 L 1259.422 77.485 C 1259.467 77.012 1259.504 76.362 1259.504 76.04 C 1259.504 75.105 1259.637 74.91 1260.491 74.584 L 1261.253 74.293 L 1262.535 75.239 C 1263.24 75.759 1263.881 76.185 1263.958 76.186 C 1264.036 76.187 1264.413 76.044 1264.796 75.869 C 1265.502 75.546 1265.554 75.476 1265.696 74.675 L 1265.776 74.224 L 1264.973 73.874 C 1264.181 73.529 1264.165 73.513 1263.868 72.719 C 1263.703 72.276 1263.511 71.879 1263.442 71.836 C 1263.373 71.794 1262.895 71.692 1262.38 71.61 L 1261.442 71.461 L 1260.093 72.012 C 1259.35 72.315 1258.675 72.561 1258.593 72.559 C 1258.51 72.557 1257.627 72.199 1256.63 71.763 L 1254.817 70.97 L 1254.682 70.36 C 1254.608 70.025 1254.514 69.546 1254.474 69.296 L 1254.401 68.843 L 1255.651 67.984 C 1256.814 67.185 1257.008 67.098 1258.422 66.744 C 1259.897 66.374 1259.944 66.352 1259.984 66.005 C 1260.087 65.116 1259.958 64.933 1258.271 63.58 L 1256.662 62.29 L 1256.388 61.254 C 1256.115 60.222 1256.113 60.218 1255.653 60.142 C 1254.797 60 1254.545 60.061 1253.054 60.771 L 1251.567 61.479 L 1249.647 61.658 C 1248.591 61.756 1247.492 61.802 1247.204 61.759 C 1246.693 61.682 1246.67 61.657 1246.156 60.62 L 1245.63 59.559 L 1246.428 57.966 C 1247.121 56.583 1247.287 56.344 1247.678 56.157 L 1248.129 55.942 L 1249.777 57.156 L 1251.425 58.37 L 1252.589 58.506 C 1253.229 58.58 1253.802 58.61 1253.863 58.571 C 1253.924 58.532 1254.074 58.184 1254.195 57.797 L 1254.416 57.093 L 1255.054 57.017 C 1255.405 56.974 1256.093 56.939 1256.582 56.939 L 1257.472 56.938 L 1258.779 54.909 C 1260.194 52.712 1260.037 52.848 1261.404 52.628 C 1261.773 52.569 1261.955 52.431 1262.317 51.938 L 1262.769 51.322 L 1262.623 50.579 C 1262.429 49.593 1262.643 49.213 1263.704 48.663 L 1264.473 48.264 L 1265.382 46.434 L 1266.291 44.603 L 1265.817 43.802 L 1265.343 43 L 1265.687 42.063 C 1265.876 41.547 1266.372 40.183 1266.789 39.031 L 1267.548 36.938 L 1270.632 36.938 C 1273.564 36.938 1273.807 36.956 1275.569 37.313 C 1276.588 37.519 1277.432 37.702 1277.443 37.719 C 1277.454 37.736 1277.65 38.228 1277.878 38.813 C 1278.328 39.968 1279.019 40.848 1279.426 40.786 C 1279.592 40.761 1279.779 40.46 1280.052 39.784 C 1280.267 39.252 1280.864 38.214 1281.38 37.476 L 1282.317 36.136 L 1283.537 35.88 C 1284.743 35.628 1284.766 35.616 1285.667 34.797 L 1286.578 33.968 L 1287.85 33.877 C 1288.549 33.827 1289.173 33.722 1289.236 33.643 C 1289.299 33.565 1289.392 32.451 1289.441 31.168 L 1289.531 28.836 L 1289.934 28.446 C 1290.208 28.181 1290.624 27.974 1291.234 27.802 L 1292.132 27.548 L 1293.515 28.078 C 1294.787 28.565 1294.918 28.646 1295.141 29.084 L 1295.384 29.561 L 1294.946 30.431 C 1294.705 30.91 1294.493 31.48 1294.475 31.698 C 1294.442 32.094 1294.443 32.094 1295.496 32.384 C 1296.076 32.544 1296.61 32.638 1296.684 32.594 C 1296.758 32.55 1297.051 32.257 1297.335 31.944 C 1297.62 31.631 1298.017 31.28 1298.217 31.164 L 1298.581 30.952 L 1298.915 32.726 C 1299.099 33.702 1299.309 35.119 1299.382 35.875 C 1299.595 38.085 1300.006 39.062 1300.933 39.558 C 1301.235 39.719 1301.286 39.705 1301.649 39.366 C 1301.863 39.165 1302.509 38.282 1303.083 37.405 L 1304.127 35.81 L 1304.209 34.08 C 1304.276 32.669 1304.259 32.329 1304.117 32.238 C 1304.021 32.176 1303.492 31.927 1302.942 31.684 L 1301.942 31.242 L 1301.479 30.309 C 1300.672 28.679 1300.671 28.67 1301.223 27.318 L 1301.705 26.136 L 1302.653 25.829 L 1303.601 25.521 L 1304.515 25.886 L 1305.43 26.25 L 1305.895 27.33 L 1306.361 28.411 L 1306.111 29.385 C 1305.815 30.543 1305.797 30.497 1307.044 31.848 L 1307.942 32.821 L 1309.107 33.041 L 1310.273 33.261 L 1312.319 35.131 L 1314.366 37 L 1314.376 39.11 L 1314.386 41.219 L 1313.886 42.125 C 1313.324 43.143 1313.29 43.368 1313.628 43.808 L 1313.864 44.116 L 1314.504 43.816 C 1314.856 43.651 1315.202 43.446 1315.273 43.361 C 1315.344 43.275 1315.845 41.832 1316.387 40.153 L 1317.372 37.101 L 1317.014 35.488 C 1316.699 34.069 1315.096 28.731 1314.938 28.573 C 1314.875 28.51 1314.053 28.708 1313.492 28.921 C 1313.218 29.025 1313.113 29.209 1312.88 29.992 C 1312.726 30.512 1312.537 30.936 1312.462 30.933 C 1312.386 30.931 1311.592 30.773 1310.698 30.582 L 1309.073 30.235 L 1308.612 29.18 C 1308.358 28.6 1308.147 28.003 1308.143 27.854 C 1308.132 27.452 1308.547 26.563 1309.27 25.435 C 1309.624 24.883 1309.964 24.194 1310.026 23.903 C 1310.088 23.613 1310.165 23.255 1310.199 23.107 C 1310.253 22.87 1310.375 22.829 1311.269 22.75 C 1312.269 22.661 1312.283 22.664 1312.763 23.049 C 1313.029 23.263 1313.304 23.438 1313.375 23.438 C 1313.446 23.438 1313.733 23.022 1314.011 22.514 C 1314.506 21.613 1314.554 21.568 1316.021 20.639 L 1317.524 19.688 L 1319.058 19.688 L 1320.592 19.688 L 1321.199 21.215 C 1321.533 22.054 1322.044 23.549 1322.336 24.536 L 1322.867 26.331 L 1321.972 28.052 C 1321.169 29.598 1321.092 29.805 1321.223 30.091 C 1321.313 30.289 1321.912 30.749 1322.801 31.304 L 1324.235 32.199 L 1324.779 33.77 L 1325.323 35.342 L 1327.35 37.484 C 1329.626 39.89 1329.594 39.823 1329.148 41.25 C 1329.02 41.663 1328.815 42.568 1328.694 43.262 L 1328.474 44.523 L 1326.551 45.677 L 1324.628 46.83 L 1324.101 47.949 L 1323.573 49.067 L 1322.198 49.971 C 1321.222 50.613 1320.789 50.975 1320.705 51.22 C 1320.476 51.887 1320.734 51.886 1322.537 51.211 C 1324.08 50.632 1324.257 50.592 1324.776 50.703 C 1325.311 50.817 1325.369 50.874 1325.917 51.812 L 1326.495 52.8 L 1326.222 53.478 C 1325.979 54.081 1325.672 54.408 1323.453 56.425 L 1320.957 58.693 L 1320.486 59.825 C 1320.044 60.888 1320.026 60.981 1320.188 61.369 C 1320.283 61.596 1320.409 61.812 1320.469 61.849 C 1320.528 61.886 1322.067 60.459 1323.888 58.679 C 1326.934 55.701 1327.263 55.416 1328.011 55.116 C 1328.458 54.937 1328.889 54.736 1328.968 54.671 C 1329.048 54.605 1329.153 54.205 1329.202 53.782 C 1329.294 52.994 1329.38 52.861 1330.286 52.121 C 1330.56 51.897 1330.588 51.799 1330.523 51.308 C 1330.45 50.763 1330.427 50.739 1329.517 50.25 C 1328.351 49.624 1328.266 49.404 1328.676 48.057 L 1328.959 47.125 L 1329.825 46.652 C 1330.691 46.179 1330.692 46.178 1331.096 46.396 C 1331.609 46.672 1332.147 46.519 1332.274 46.062 C 1332.322 45.89 1332.366 45.104 1332.373 44.315 L 1332.385 42.879 L 1333.78 41.48 L 1335.175 40.082 L 1334.642 39.184 C 1334.178 38.404 1333.978 38.202 1333.113 37.643 C 1332.221 37.067 1331.894 36.729 1329.96 34.375 L 1327.801 31.75 L 1327.299 30.247 L 1326.798 28.744 L 1327.42 27.387 C 1327.979 26.167 1328.06 25.876 1328.218 24.517 C 1328.366 23.247 1328.441 22.955 1328.687 22.69 C 1329.096 22.25 1329.204 21.997 1329.392 21.029 L 1329.557 20.184 L 1329.114 19.717 C 1328.87 19.46 1328.492 18.983 1328.272 18.657 C 1327.881 18.074 1327.879 18.063 1328.156 18.063 C 1328.312 18.063 1329.221 17.999 1330.175 17.921 C 1331.682 17.799 1332.112 17.809 1333.433 18.001 C 1334.934 18.218 1334.962 18.218 1335.451 17.97 C 1335.724 17.831 1336.419 17.655 1336.994 17.578 C 1337.818 17.469 1338.25 17.328 1339.023 16.915 C 1340.098 16.343 1340.048 16.423 1340.514 14.545 C 1340.637 14.048 1340.727 13.934 1341.143 13.747 L 1341.629 13.528 L 1342.415 14.139 C 1342.848 14.475 1343.637 15.088 1344.168 15.5 C 1344.998 16.145 1345.134 16.304 1345.135 16.633 C 1345.135 16.897 1345.017 17.129 1344.755 17.38 C 1344.228 17.885 1344.31 18.162 1345.073 18.451 C 1345.917 18.771 1348.849 18.802 1348.968 18.493 C 1349.126 18.08 1348.48 17.321 1345.937 14.935 L 1343.302 12.461 L 1342.904 10.543 C 1342.686 9.488 1342.507 8.557 1342.508 8.473 C 1342.508 8.277 1342.263 8.149 1340.984 7.687 L 1339.935 7.307 L 1339.473 6.451 C 1339.218 5.98 1339.01 5.447 1339.01 5.267 L 1339.01 4.938 L 1341.163 4.938 L 1343.315 4.938 L 1348.632 6.831 L 1353.948 8.725 L 1355.135 9.599 C 1355.788 10.08 1356.341 10.488 1356.364 10.507 C 1356.386 10.525 1356.712 11.6 1357.088 12.895 C 1357.518 14.374 1357.858 15.324 1358.003 15.448 C 1358.13 15.556 1359.76 16.477 1361.625 17.495 L 1365.015 19.345 L 1366.231 19.265 L 1367.448 19.184 L 1369.235 20.573 L 1371.022 21.962 L 1373.207 22.308 C 1374.409 22.498 1375.411 22.675 1375.434 22.702 C 1375.457 22.729 1375.716 23.474 1376.008 24.358 L 1376.54 25.966 L 1375.182 27.333 C 1373.978 28.543 1373.58 28.847 1371.698 29.994 C 1369.878 31.103 1369.378 31.347 1368.214 31.691 C 1366.976 32.057 1366.613 32.245 1364.151 33.786 C 1362.664 34.717 1360.463 36.232 1359.26 37.153 C 1357.077 38.823 1357.07 38.831 1355.467 40.914 C 1354.584 42.061 1353.36 43.714 1352.747 44.585 L 1351.632 46.17 L 1348.54 47.849 C 1346.839 48.772 1344.558 49.999 1343.47 50.576 L 1341.493 51.626 L 1339.713 54.007 L 1337.932 56.388 L 1337.781 59.882 C 1337.698 61.803 1337.594 63.843 1337.552 64.415 L 1337.475 65.454 L 1336.086 66.148 C 1335.323 66.529 1334.679 66.859 1334.655 66.88 C 1334.631 66.902 1334.505 68.554 1334.374 70.551 C 1334.242 72.549 1333.999 75.387 1333.832 76.858 L 1333.529 79.532 L 1332.239 81.593 L 1330.948 83.654 L 1328.979 85.305 C 1327.838 86.262 1326.986 87.071 1326.951 87.229 C 1326.918 87.378 1326.719 88.679 1326.509 90.119 C 1326.299 91.56 1326.102 92.763 1326.072 92.793 C 1326.042 92.823 1324.989 92.916 1323.732 93 L 1321.448 93.151 L 1320.533 92.793 C 1320.03 92.595 1319.552 92.473 1319.471 92.52 C 1319.39 92.567 1318.501 93.241 1317.497 94.017 C 1315.058 95.902 1311.697 97.749 1310.488 97.87 L 1309.698 97.949 L 1307.054 96.131 C 1305.599 95.131 1304.345 94.313 1304.266 94.313 C 1304.187 94.313 1303.677 94.658 1303.133 95.08 C 1302.419 95.634 1301.827 96.26 1301.01 97.326 C 1300.056 98.572 1299.804 98.825 1299.413 98.932 C 1297.281 99.514 1296.707 99.691 1296.597 99.802 C 1296.51 99.888 1296.612 100.143 1296.913 100.597 C 1297.341 101.242 1297.363 101.334 1297.546 103.196 C 1297.723 104.993 1297.764 105.174 1298.153 105.83 C 1298.531 106.468 1298.718 106.623 1300.167 107.501 C 1301.752 108.46 1301.769 108.475 1302.356 109.461 C 1302.884 110.347 1302.982 110.447 1303.26 110.392 C 1303.959 110.255 1305.87 109.96 1306.573 109.881 L 1307.323 109.797 L 1308.922 110.929 L 1310.522 112.06 L 1312.204 111.705 L 1313.885 111.349 L 1313.885 112.028 C 1313.885 112.605 1313.832 112.76 1313.537 113.056 C 1313.208 113.384 1313.102 113.41 1311.715 113.497 L 1310.242 113.589 L 1309.831 114.491 C 1309.428 115.377 1309.37 115.435 1306.66 117.744 L 1303.9 120.094 L 1303.814 121.079 L 1303.728 122.063 L 1302.275 122.037 C 1301.476 122.023 1299.445 121.978 1297.76 121.938 L 1297.755 121.938 Z" id="Donegal" transform="matrix(0.868562, 0, 0, 0.868562, -911.843872, 13.696216)"/>
</svg>