<?xml version="1.0" encoding="utf-8"?>
<svg viewBox="489.306 356.116 63.13 32.549" width="63.13" height="32.549" xmlns="http://www.w3.org/2000/svg">
  <path style="opacity:1;fill:#e0e600;fill-opacity:1;stroke:none;stroke-width:0.01653646;stroke-linecap:round;stroke-linejoin:round;stroke-miterlimit:4;stroke-dasharray:none;stroke-dashoffset:0;stroke-opacity:1" d="M 1677.03 394.237 C 1677.001 394.267 1677.501 395.627 1678.139 397.257 L 1679.299 400.222 L 1680.28 400.58 C 1680.958 400.828 1681.283 400.897 1681.338 400.802 C 1681.458 400.587 1682.906 395.879 1682.866 395.842 C 1682.844 395.824 1682.067 395.744 1681.137 395.663 L 1679.448 395.521 L 1678.267 394.857 C 1677.614 394.489 1677.06 394.212 1677.03 394.241 L 1677.03 394.237 Z M 1621.795 396.954 L 1620.53 397.035 C 1619.837 397.082 1619.26 397.13 1619.249 397.14 C 1619.187 397.213 1614.257 406.882 1614.257 406.926 C 1614.257 406.955 1614.986 407.396 1615.876 407.903 C 1616.769 408.414 1617.557 408.899 1617.634 408.986 C 1617.707 409.074 1617.816 409.949 1617.878 410.93 C 1618.02 413.144 1618.064 413.067 1616.434 413.268 L 1615.252 413.414 L 1614.195 416.24 C 1613.615 417.794 1613.159 419.089 1613.184 419.111 C 1613.21 419.136 1613.647 419.329 1614.162 419.545 C 1614.676 419.76 1615.146 419.997 1615.208 420.07 C 1615.27 420.146 1615.438 421.39 1615.58 422.842 L 1615.839 425.475 L 1615.518 425.938 L 1615.201 426.398 L 1615.708 426.861 C 1616.521 427.601 1616.485 427.601 1617.32 426.795 C 1617.9 426.241 1618.159 426.073 1618.429 426.077 C 1618.622 426.077 1619.355 425.799 1620.063 425.46 L 1621.346 424.844 L 1626.387 426.594 L 1631.427 428.349 L 1637.696 425.869 C 1641.147 424.508 1644.046 423.407 1644.141 423.429 C 1644.301 423.462 1645.133 425.54 1645.133 425.909 C 1645.133 425.996 1644.589 427.076 1643.929 428.309 C 1643.266 429.545 1642.722 430.588 1642.722 430.628 C 1642.722 430.668 1643.765 430.927 1645.042 431.201 C 1646.322 431.478 1647.456 431.708 1647.566 431.711 C 1647.693 431.719 1649.539 429.603 1652.431 426.146 C 1656.468 421.313 1657.332 420.347 1658.879 418.939 C 1660.52 417.437 1660.648 417.287 1660.535 417.035 C 1660.462 416.871 1660.341 416.784 1660.243 416.824 C 1658.025 417.674 1652.686 419.526 1652.606 419.475 C 1652.544 419.439 1652.493 419.337 1652.493 419.253 C 1652.493 419.1 1658.722 410.255 1659.109 409.862 C 1659.306 409.657 1659.4 409.676 1661.18 410.204 C 1662.205 410.514 1663.135 410.81 1663.244 410.868 C 1663.383 410.941 1663.631 411.751 1664.08 413.618 L 1664.714 416.262 L 1667.041 419.008 L 1669.372 421.751 L 1671.334 422.769 C 1672.949 423.604 1673.471 423.815 1674.262 423.954 C 1674.795 424.049 1675.345 424.125 1675.484 424.125 C 1675.626 424.125 1676.378 423.633 1677.154 423.031 C 1677.95 422.415 1678.642 421.966 1678.737 422.003 C 1678.828 422.039 1679.408 422.404 1680.021 422.816 L 1681.141 423.571 L 1682.621 423.68 C 1683.435 423.742 1684.124 423.772 1684.15 423.746 C 1684.175 423.721 1683.902 422.506 1683.537 421.051 L 1682.873 418.407 L 1684.285 415.449 L 1685.696 412.484 L 1685.805 410.449 C 1685.864 409.329 1685.886 408.384 1685.846 408.348 C 1685.809 408.312 1684.419 408.166 1682.756 408.02 L 1679.729 407.757 L 1678.413 406.444 L 1677.1 405.131 L 1674.598 405.445 L 1672.1 405.759 L 1667.03 404.931 C 1664.244 404.475 1661.873 404.103 1661.76 404.103 C 1661.596 404.103 1661.545 404.285 1661.476 405.124 C 1661.428 405.686 1661.33 406.196 1661.253 406.258 C 1661.111 406.371 1656.734 405.511 1656.585 405.339 C 1656.541 405.288 1655.793 404.336 1654.914 403.224 L 1653.321 401.2 L 1652.923 399.121 C 1652.704 397.979 1652.471 397.057 1652.402 397.071 C 1652.332 397.086 1651.745 397.421 1651.089 397.819 C 1650.137 398.399 1649.655 398.607 1648.678 398.851 L 1647.46 399.154 L 1644.345 398.256 C 1642.631 397.764 1641.176 397.392 1641.103 397.436 C 1641.03 397.476 1640.388 397.943 1639.673 398.468 L 1638.371 399.424 L 1635.691 399.548 L 1633.014 399.672 L 1632.178 399.194 L 1631.347 398.716 L 1630.49 398.869 C 1630.019 398.953 1629.458 399.026 1629.246 399.03 C 1629.031 399.033 1627.266 398.566 1625.325 397.994 L 1621.795 396.954 Z" id="Dublin Bay North" transform="matrix(0.868562, 0, 0, 0.868562, -911.843872, 13.696216)"/>
</svg>