<?xml version="1.0" encoding="utf-8"?>
<svg viewBox="422.423 409.801 59.054 73.895" width="59.054" height="73.895" xmlns="http://www.w3.org/2000/svg">
  <path style="opacity:1;fill:#e0e600;fill-opacity:1;stroke:none;stroke-width:0.01653646;stroke-linecap:round;stroke-linejoin:round;stroke-miterlimit:4;stroke-dasharray:none;stroke-dashoffset:0;stroke-opacity:1" d="M 1572.701 537.682 L 1567.636 534.239 L 1567.672 533.309 C 1567.69 532.798 1567.814 530.077 1567.942 527.262 C 1568.073 524.446 1568.179 521.893 1568.175 521.594 C 1568.175 521.047 1568.164 521.04 1566.95 520.019 C 1566.275 519.453 1565.633 518.925 1565.517 518.844 C 1565.345 518.72 1564.455 518.888 1560.444 519.785 C 1557.767 520.383 1555.491 520.898 1555.389 520.93 C 1555.261 520.967 1554.67 520.369 1553.58 519.096 L 1551.957 517.207 L 1550.027 513.396 L 1548.098 509.584 L 1543.995 509.511 C 1541.741 509.471 1539.287 509.431 1538.543 509.42 L 1537.19 509.402 L 1536.683 508.735 L 1536.179 508.067 L 1536.533 507.681 C 1536.978 507.195 1541.004 502.921 1541.785 502.104 L 1542.365 501.499 L 1542.7 499.631 L 1543.036 497.764 L 1544.334 496.043 C 1545.049 495.098 1545.655 494.256 1545.684 494.172 C 1545.713 494.091 1545.531 492.585 1545.279 490.827 L 1544.827 487.632 L 1545.297 485.761 L 1545.771 483.89 L 1545.625 482.384 C 1545.541 481.556 1545.432 480.794 1545.381 480.696 C 1545.326 480.593 1544.739 480.05 1544.068 479.488 C 1543.021 478.606 1542.854 478.413 1542.857 478.103 C 1542.857 477.902 1542.93 476.64 1543.018 475.298 L 1543.174 472.854 L 1544.309 471.195 C 1544.932 470.279 1545.877 468.901 1546.409 468.128 L 1547.372 466.72 L 1550.246 464.944 C 1552.737 463.408 1553.204 463.073 1553.733 462.435 C 1554.072 462.03 1554.787 461.22 1555.323 460.633 L 1556.3 459.568 L 1557.205 459.645 L 1558.109 459.725 L 1562.431 458.029 C 1564.809 457.095 1566.789 456.329 1566.833 456.333 C 1566.877 456.333 1567.566 457.482 1568.361 458.886 L 1569.809 461.439 L 1571.731 462.865 C 1572.814 463.667 1573.77 464.291 1573.92 464.291 C 1574.12 464.291 1574.386 463.981 1575.072 462.934 C 1575.896 461.676 1575.991 461.461 1576.374 459.998 L 1576.79 458.419 L 1577.403 458.204 C 1579.274 457.544 1579.222 457.577 1579.766 456.741 C 1580.047 456.311 1580.317 456.001 1580.36 456.052 C 1580.408 456.107 1581.301 457.489 1582.344 459.13 C 1583.391 460.768 1584.317 462.168 1584.405 462.245 C 1584.934 462.683 1592.895 467.307 1593.122 467.307 C 1593.501 467.307 1593.585 467.008 1593.691 465.298 L 1593.778 463.831 L 1595.076 465.794 C 1595.791 466.869 1596.47 467.788 1596.583 467.832 C 1596.889 467.949 1597.144 467.759 1598.038 466.764 L 1598.851 465.856 L 1598.698 464.951 C 1598.61 464.451 1598.563 464.028 1598.589 464.006 C 1598.614 463.988 1598.913 463.806 1599.249 463.602 L 1599.858 463.233 L 1601.659 463.405 C 1602.651 463.496 1603.498 463.583 1603.538 463.598 C 1603.581 463.613 1603.206 464.335 1602.706 465.195 C 1601.794 466.767 1600.868 468.883 1600.868 469.397 C 1600.868 469.59 1601.08 469.831 1601.579 470.207 L 1602.29 470.743 L 1602.557 472.07 C 1602.702 472.8 1602.874 473.463 1602.943 473.544 C 1603.009 473.628 1603.253 473.73 1603.483 473.773 C 1603.713 473.814 1603.928 473.919 1603.961 474 C 1603.994 474.083 1603.906 474.587 1603.771 475.119 C 1603.541 476.02 1603.538 476.115 1603.713 476.542 C 1603.895 476.972 1603.888 477.056 1603.625 477.971 C 1603.472 478.507 1603.363 479.029 1603.385 479.127 C 1603.406 479.226 1603.592 479.448 1603.797 479.62 L 1604.169 479.933 L 1603.895 480.32 C 1603.629 480.692 1603.611 481.122 1603.833 481.699 C 1603.866 481.782 1603.581 481.957 1603.133 482.129 C 1601.74 482.654 1601.834 482.472 1601.834 484.675 L 1601.834 486.597 L 1601.028 486.571 L 1600.222 486.546 L 1599.267 487.687 C 1598.362 488.763 1598.22 488.876 1596.608 489.81 C 1595.675 490.349 1594.869 490.871 1594.817 490.962 C 1594.766 491.053 1594.693 491.874 1594.65 492.782 L 1594.573 494.438 L 1594.103 495.069 C 1593.844 495.415 1593.632 495.773 1593.632 495.864 C 1593.632 495.959 1593.979 496.79 1594.405 497.713 L 1595.182 499.391 L 1595.011 500.448 C 1594.916 501.028 1594.839 501.637 1594.839 501.798 C 1594.836 502.009 1595.277 502.534 1596.481 503.749 C 1597.626 504.901 1598.104 505.463 1598.052 505.598 C 1598.016 505.7 1597.677 506.313 1597.305 506.958 L 1596.63 508.129 L 1596.353 510.179 L 1596.076 512.228 L 1596.36 513.071 C 1596.517 513.53 1596.645 513.972 1596.645 514.045 C 1596.645 514.132 1595.423 514.38 1593.384 514.705 C 1591.593 514.993 1590.105 515.263 1590.076 515.307 C 1590.051 515.35 1589.883 518.965 1589.708 523.341 L 1589.383 531.299 L 1586.283 536.183 L 1583.187 541.066 L 1580.477 541.095 L 1577.767 541.124 L 1572.701 537.682 Z" id="Dublin South West" transform="matrix(0.868562, 0, 0, 0.868562, -911.843872, 13.696216)"/>
</svg>