<?xml version="1.0" encoding="utf-8"?>
<svg viewBox="442.917 389.222 37.446 29.058" width="37.446" height="29.058" xmlns="http://www.w3.org/2000/svg">
  <path style="opacity:1;fill:#cb85f9;fill-opacity:1;stroke:none;stroke-width:0.01653646;stroke-linecap:round;stroke-linejoin:round;stroke-miterlimit:4;stroke-dasharray:none;stroke-dashoffset:0;stroke-opacity:1" d="M 1588.709 463.645 L 1585.058 461.457 L 1582.942 458.142 C 1581.779 456.315 1580.718 454.728 1580.583 454.615 C 1580.222 454.305 1579.974 454.495 1579.222 455.658 C 1578.526 456.741 1578.705 456.621 1576.742 457.336 L 1575.958 457.62 L 1575.619 458.817 C 1575.433 459.473 1575.207 460.283 1575.112 460.615 C 1574.941 461.231 1573.912 462.963 1573.719 462.963 C 1573.661 462.963 1572.946 462.471 1572.132 461.869 L 1570.652 460.775 L 1569.222 458.281 C 1568.438 456.909 1566.815 453.999 1565.619 451.807 C 1563.843 448.554 1563.197 447.496 1562.085 446.004 L 1560.724 444.184 L 1560.287 442.266 C 1560.046 441.212 1559.824 440.26 1559.787 440.154 C 1559.736 439.983 1559.816 439.99 1560.433 440.205 C 1560.819 440.34 1561.228 440.417 1561.337 440.373 C 1561.45 440.333 1561.691 439.998 1561.87 439.629 C 1562.048 439.261 1562.256 438.962 1562.333 438.962 C 1562.406 438.962 1563.128 439.155 1563.934 439.392 C 1564.743 439.629 1565.528 439.804 1565.673 439.786 C 1565.885 439.757 1565.994 439.6 1566.159 439.082 C 1566.275 438.717 1566.396 438.349 1566.425 438.265 C 1566.469 438.156 1566.72 438.232 1567.333 438.539 L 1568.183 438.969 L 1568.482 438.67 C 1568.646 438.502 1568.781 438.28 1568.781 438.17 C 1568.781 438.021 1568.854 437.988 1569.062 438.043 C 1569.612 438.178 1569.725 437.933 1570.196 435.555 L 1570.644 433.298 L 1571.29 433.371 C 1571.928 433.447 1571.939 433.444 1572.497 432.9 L 1573.062 432.353 L 1575.112 434.563 L 1577.165 436.77 L 1579.033 437.448 L 1580.904 438.13 L 1585.109 437.098 L 1589.314 436.066 L 1592.006 436.066 L 1594.693 436.066 L 1594.941 436.467 C 1595.459 437.306 1595.478 437.31 1597.082 437.091 L 1598.516 436.894 L 1600.47 437.558 C 1601.554 437.922 1602.535 438.189 1602.673 438.152 C 1602.914 438.09 1602.918 438.116 1602.845 440.424 C 1602.779 442.587 1602.746 442.835 1602.429 443.725 C 1602.239 444.257 1601.991 445.071 1601.882 445.534 C 1601.769 446.001 1601.638 446.424 1601.59 446.478 C 1601.539 446.533 1600.817 446.376 1599.982 446.128 C 1598.756 445.764 1598.428 445.705 1598.286 445.826 C 1598.187 445.91 1597.907 446.478 1597.666 447.091 L 1597.221 448.211 L 1595.78 448.922 C 1594.985 449.316 1594.252 449.728 1594.15 449.841 C 1593.986 450.023 1594.001 450.188 1594.303 451.508 L 1594.639 452.974 L 1595.273 453.47 C 1595.66 453.773 1595.871 454.017 1595.813 454.094 C 1594.803 455.403 1591.699 459.601 1591.593 459.801 C 1591.466 460.042 1591.524 460.203 1592.133 461.22 L 1592.815 462.365 L 1592.709 464.072 C 1592.651 465.024 1592.549 465.794 1592.483 465.808 C 1592.418 465.823 1590.718 464.853 1588.709 463.645 Z" id="Dublin South Central" transform="matrix(0.868562, 0, 0, 0.868562, -911.843872, 13.696216)"/>
</svg>