<?xml version="1.0" encoding="utf-8"?>
<svg viewBox="467.672 375.474 39.804 18.322" width="39.804" height="18.322" xmlns="http://www.w3.org/2000/svg">
  <path style="opacity:1;fill:#cb85f9;fill-opacity:1;stroke:none;stroke-width:0.01653646;stroke-linecap:round;stroke-linejoin:round;stroke-miterlimit:4;stroke-dasharray:none;stroke-dashoffset:0;stroke-opacity:1" d="M 1626.741 437.266 L 1623.845 436.923 L 1620.916 437.098 C 1618.936 437.215 1617.922 437.233 1617.78 437.153 C 1617.667 437.084 1615.843 436.496 1613.728 435.844 L 1609.884 434.655 L 1606.142 435.895 L 1602.396 437.131 L 1600.514 436.471 L 1598.636 435.814 L 1597.618 435.946 C 1597.057 436.022 1596.459 436.11 1596.284 436.146 C 1596.014 436.197 1595.937 436.143 1595.737 435.745 C 1595.605 435.49 1595.383 435.147 1595.241 434.983 C 1595.098 434.815 1593.858 433.035 1592.487 431.022 C 1590.616 428.276 1590.025 427.328 1590.124 427.211 C 1590.193 427.127 1590.55 426.821 1590.915 426.529 C 1591.801 425.821 1591.79 425.617 1590.838 424.742 L 1590.098 424.06 L 1590.656 423.604 C 1590.966 423.349 1591.218 423.042 1591.218 422.915 C 1591.218 422.656 1590.842 422.375 1590.332 422.247 C 1589.887 422.138 1589.846 422.003 1589.985 421.091 C 1590.051 420.672 1590.076 420.263 1590.043 420.179 C 1590.014 420.099 1589.602 419.723 1589.132 419.34 L 1588.275 418.647 L 1588.65 418.553 C 1588.968 418.469 1589.15 418.527 1589.777 418.892 L 1590.525 419.329 L 1593.435 418.41 C 1595.036 417.903 1596.477 417.491 1596.637 417.491 C 1596.794 417.491 1597.793 417.608 1598.851 417.754 C 1601.054 418.049 1601.025 418.06 1601.178 417.054 C 1601.218 416.762 1601.266 416.525 1601.276 416.525 C 1601.287 416.525 1602.327 416.718 1603.585 416.952 C 1605.781 417.356 1606.007 417.426 1609.249 418.695 C 1611.105 419.424 1613.006 420.179 1613.472 420.376 L 1614.315 420.734 L 1614.537 422.977 L 1614.76 425.223 L 1614.326 425.781 C 1614.089 426.088 1613.892 426.39 1613.892 426.46 C 1613.892 426.598 1614.701 427.397 1615.734 428.268 C 1616.259 428.717 1616.489 428.841 1616.696 428.786 C 1616.846 428.75 1617.338 428.345 1617.794 427.886 L 1618.618 427.054 L 1622.616 428.914 L 1626.617 430.774 L 1629.549 431.471 C 1631.161 431.854 1632.525 432.218 1632.58 432.277 C 1632.7 432.412 1634.173 436.671 1634.1 436.671 C 1634.071 436.671 1633.218 436.887 1632.2 437.153 C 1631.186 437.415 1630.194 437.627 1629.997 437.62 C 1629.797 437.612 1628.331 437.452 1626.741 437.266 Z" id="Dublin Central" transform="matrix(0.868562, 0, 0, 0.868562, -911.843872, 13.696216)"/>
</svg>