<?xml version="1.0" encoding="utf-8"?>
<svg viewBox="391.343 382.811 60.131 77.945" width="60.131" height="77.945" xmlns="http://www.w3.org/2000/svg">
  <path style="opacity:1;fill:#cb85f9;fill-opacity:1;stroke:none;stroke-width:0.01653646;stroke-linecap:round;stroke-linejoin:round;stroke-miterlimit:4;stroke-dasharray:none;stroke-dashoffset:0;stroke-opacity:1" d="M 1531.161 512.571 C 1530.752 511.393 1530.049 509.347 1529.593 508.027 L 1528.768 505.624 L 1524.363 504.106 L 1519.961 502.589 L 1516.945 500.751 C 1515.285 499.737 1513.852 498.909 1513.761 498.909 C 1513.673 498.906 1512.01 499.296 1510.073 499.777 C 1508.133 500.255 1506.517 500.616 1506.481 500.58 C 1506.445 500.543 1506.306 499.358 1506.167 497.946 C 1505.963 495.827 1505.949 495.361 1506.08 495.277 C 1506.167 495.222 1507.557 494.376 1509.169 493.395 C 1511.295 492.1 1512.087 491.557 1512.061 491.411 C 1512.043 491.301 1510.996 490.36 1509.738 489.317 C 1507.881 487.786 1506.762 486.71 1503.844 483.675 C 1500.977 480.688 1500.277 479.901 1500.412 479.798 C 1500.507 479.729 1501.703 478.759 1503.075 477.643 C 1505.19 475.922 1505.576 475.557 1505.635 475.229 C 1505.843 474.003 1506.547 468.445 1506.517 468.27 C 1506.496 468.153 1505.529 467.15 1504.369 466.038 C 1503.21 464.926 1502.243 463.977 1502.221 463.926 C 1502.199 463.875 1502.896 462.879 1503.76 461.716 L 1505.336 459.597 L 1505.638 457.453 C 1505.806 456.271 1505.967 455.195 1505.996 455.056 C 1506.043 454.852 1509.118 452.022 1509.628 451.716 C 1509.716 451.665 1511.346 451.785 1513.25 451.986 C 1515.157 452.186 1516.857 452.35 1517.032 452.35 C 1517.324 452.35 1517.47 452.088 1519.301 448.218 C 1520.376 445.946 1521.259 444.024 1521.255 443.947 C 1521.255 443.871 1520.522 443.105 1519.629 442.244 C 1518.732 441.383 1517.999 440.629 1517.999 440.57 C 1517.999 440.508 1518.429 439.079 1518.954 437.39 L 1519.91 434.319 L 1520.241 431.303 C 1520.427 429.643 1520.588 428.272 1520.599 428.25 C 1520.614 428.232 1521.565 427.969 1522.718 427.67 L 1524.815 427.12 L 1526.985 427.681 C 1528.181 427.988 1529.224 428.261 1529.305 428.287 C 1529.41 428.323 1529.385 428.484 1529.21 428.881 C 1528.936 429.501 1528.889 429.352 1529.848 431.026 C 1530.18 431.606 1530.512 432.123 1530.588 432.182 C 1530.8 432.342 1533.16 433.294 1533.349 433.294 C 1533.44 433.294 1533.969 432.798 1534.527 432.189 C 1535.082 431.584 1535.702 431.022 1535.906 430.942 C 1536.106 430.858 1536.949 430.53 1537.769 430.212 L 1539.268 429.629 L 1540.395 427.298 C 1541.015 426.018 1541.562 424.972 1541.614 424.972 C 1541.661 424.975 1542.157 425.077 1542.711 425.205 C 1543.594 425.406 1543.791 425.497 1544.243 425.942 C 1544.564 426.255 1544.827 426.423 1544.94 426.379 C 1545.042 426.343 1545.527 426.011 1546.023 425.646 L 1546.924 424.979 L 1547.846 425.066 L 1548.769 425.15 L 1550.06 426.656 L 1551.355 428.163 L 1554.415 428.732 C 1556.796 429.177 1557.533 429.271 1557.723 429.169 C 1557.858 429.1 1558.521 428.64 1559.193 428.152 C 1560.6 427.131 1560.247 427.193 1563.854 427.342 L 1565.739 427.419 L 1567.38 428.79 C 1568.285 429.545 1569.022 430.187 1569.022 430.212 C 1569.022 430.238 1568.562 430.595 1567.997 431 C 1567.431 431.409 1566.917 431.846 1566.848 431.97 C 1566.629 432.382 1567.045 432.623 1568.398 432.86 C 1569.073 432.981 1569.627 433.09 1569.627 433.105 C 1569.627 433.119 1569.463 433.903 1569.262 434.841 C 1569.065 435.782 1568.901 436.577 1568.901 436.609 C 1568.901 436.642 1568.773 436.671 1568.617 436.671 C 1568.281 436.671 1568.11 436.843 1567.993 437.302 C 1567.949 437.485 1567.887 437.634 1567.862 437.634 C 1567.833 437.634 1567.431 437.445 1566.965 437.211 C 1565.903 436.675 1565.75 436.737 1565.462 437.813 C 1565.334 438.283 1565.181 438.601 1565.086 438.601 C 1564.995 438.601 1564.251 438.404 1563.427 438.159 C 1562.603 437.919 1561.844 437.755 1561.742 437.795 C 1561.636 437.831 1561.41 438.152 1561.231 438.502 C 1561.056 438.856 1560.892 439.162 1560.87 439.192 C 1560.848 439.217 1560.422 439.089 1559.926 438.911 C 1558.959 438.557 1558.529 438.608 1558.529 439.075 C 1558.529 439.374 1559.7 444.48 1559.813 444.666 C 1559.86 444.746 1560.473 445.57 1561.169 446.5 C 1562.154 447.806 1562.872 448.977 1564.35 451.668 C 1565.396 453.583 1566.268 455.202 1566.283 455.264 C 1566.297 455.33 1564.437 456.114 1562.147 457.015 L 1557.985 458.649 L 1556.968 458.587 L 1555.95 458.525 L 1555.232 459.207 C 1554.834 459.583 1554.043 460.447 1553.474 461.129 L 1552.438 462.369 L 1549.542 464.156 L 1546.65 465.943 L 1545.738 467.26 C 1545.239 467.982 1544.221 469.47 1543.481 470.564 L 1542.135 472.555 L 1541.945 475.674 C 1541.821 477.683 1541.796 478.839 1541.869 478.93 C 1541.934 479.007 1542.529 479.529 1543.189 480.094 C 1543.853 480.659 1544.422 481.228 1544.458 481.359 C 1544.491 481.494 1544.557 482.1 1544.604 482.709 C 1544.681 483.737 1544.655 483.949 1544.225 485.688 L 1543.762 487.563 L 1544.203 490.732 L 1544.641 493.902 L 1543.335 495.652 L 1542.033 497.403 L 1541.705 499.208 L 1541.38 501.017 L 1539.852 502.633 C 1539.013 503.523 1537.58 505.044 1536.664 506.01 C 1535.723 507.006 1535.009 507.867 1535.009 507.998 C 1535.009 508.125 1535.282 508.6 1535.618 509.055 L 1536.23 509.88 L 1534.093 512.294 C 1532.919 513.625 1531.945 514.712 1531.93 514.712 C 1531.916 514.712 1531.566 513.749 1531.161 512.571 Z" id="Dublin Mid West" transform="matrix(0.868562, 0, 0, 0.868562, -911.843872, 13.696216)"/>
</svg>