<?xml version="1.0" encoding="utf-8"?>
<svg viewBox="413.382 330.03 59.162 63.243" width="59.162" height="63.243" xmlns="http://www.w3.org/2000/svg">
  <path style="opacity:1;fill:#cb85f9;fill-opacity:1;stroke:none;stroke-width:0.01653646;stroke-linecap:round;stroke-linejoin:round;stroke-miterlimit:4;stroke-dasharray:none;stroke-dashoffset:0;stroke-opacity:1" d="M 1579.299 436.46 L 1577.815 435.913 L 1575.575 433.524 C 1574.346 432.211 1573.259 431.106 1573.161 431.069 C 1572.902 430.971 1572.599 431.172 1572.056 431.806 L 1571.571 432.375 L 1570.75 432.222 C 1570.298 432.138 1569.634 432.014 1569.277 431.945 L 1568.628 431.821 L 1569.27 431.379 C 1570.378 430.617 1570.517 430.471 1570.426 430.147 C 1570.375 429.968 1569.558 429.209 1568.303 428.174 C 1567.18 427.251 1566.188 426.452 1566.1 426.405 C 1566.009 426.354 1564.605 426.299 1562.978 426.284 L 1560.02 426.259 L 1558.682 427.233 L 1557.343 428.206 L 1554.615 427.703 L 1551.891 427.2 L 1550.914 426.055 C 1550.378 425.424 1549.75 424.705 1549.524 424.457 L 1549.108 424.005 L 1547.803 424.005 L 1546.493 424.005 L 1545.757 424.548 C 1545.348 424.848 1544.98 425.092 1544.932 425.092 C 1544.885 425.092 1544.735 424.957 1544.6 424.789 C 1544.4 424.545 1544.094 424.435 1542.941 424.187 C 1540.764 423.721 1541.099 423.502 1539.702 426.325 C 1539.042 427.667 1538.433 428.801 1538.353 428.845 C 1538.269 428.888 1537.47 429.209 1536.577 429.552 L 1534.954 430.18 L 1534.038 431.157 L 1533.123 432.134 L 1532.226 431.77 C 1531.281 431.387 1531.077 431.183 1530.428 429.964 C 1530.165 429.468 1530.154 429.374 1530.293 429.031 C 1530.621 428.228 1530.72 427.751 1530.581 427.616 C 1530.512 427.543 1529.41 427.222 1528.137 426.901 C 1526.865 426.584 1525.8 426.295 1525.771 426.266 C 1525.741 426.237 1526.226 424.344 1526.85 422.061 L 1527.988 417.914 L 1528.309 414.114 C 1528.517 411.678 1528.685 410.285 1528.776 410.226 C 1528.852 410.179 1530.556 409.172 1532.558 407.994 L 1536.198 405.853 L 1537.675 401.648 L 1539.155 397.44 L 1542.117 394.161 C 1543.747 392.359 1545.18 390.765 1545.301 390.627 C 1545.469 390.43 1545.673 389.438 1546.154 386.462 L 1546.785 382.552 L 1548.685 379.817 C 1549.907 378.062 1550.658 377.085 1550.79 377.085 C 1550.906 377.085 1552.216 377.3 1553.707 377.566 C 1555.199 377.829 1556.516 378.048 1556.64 378.048 C 1556.822 378.048 1558.139 376.936 1560.64 374.663 L 1561.002 374.335 L 1564.495 374.204 C 1566.99 374.105 1568.026 374.025 1568.124 373.919 C 1568.197 373.835 1568.602 371.582 1569.025 368.908 C 1569.448 366.239 1569.831 364.12 1569.879 364.207 C 1570.101 364.612 1586.513 400.966 1586.513 401.05 C 1586.513 401.105 1586.247 401.313 1585.926 401.51 C 1585.605 401.71 1581.768 404.23 1577.403 407.115 L 1569.463 412.36 L 1569.124 413.115 C 1568.744 413.946 1568.686 414.45 1568.956 414.552 C 1569.054 414.588 1569.755 414.741 1570.517 414.887 C 1571.775 415.135 1571.976 415.212 1572.782 415.763 C 1573.646 416.357 1573.701 416.375 1575.415 416.66 L 1577.162 416.948 L 1578.128 417.823 C 1578.661 418.301 1579.15 418.695 1579.219 418.695 C 1579.288 418.698 1579.857 418.374 1580.484 417.976 L 1581.626 417.254 L 1583.209 417.251 L 1584.792 417.251 L 1586.903 418.906 L 1589.015 420.566 L 1588.938 421.047 C 1588.898 421.313 1588.865 421.806 1588.865 422.138 C 1588.865 422.692 1588.895 422.754 1589.245 422.929 L 1589.624 423.119 L 1589.216 423.447 C 1588.603 423.936 1588.665 424.228 1589.529 424.979 C 1589.927 425.325 1590.251 425.643 1590.251 425.683 C 1590.251 425.723 1589.923 426.018 1589.526 426.339 C 1589.037 426.737 1588.803 427.01 1588.803 427.193 C 1588.803 427.342 1589.923 429.104 1591.345 431.19 L 1593.884 434.921 L 1591.375 434.986 L 1588.865 435.052 L 1584.93 436.044 C 1582.764 436.588 1580.948 437.025 1580.889 437.018 C 1580.831 437.011 1580.116 436.759 1579.299 436.46 Z" id="Dublin West" transform="matrix(0.868562, 0, 0, 0.868562, -911.843872, 13.696216)"/>
</svg>