<?xml version="1.0" encoding="utf-8"?>
<svg viewBox="451.804 358.71 41.697 18.643" width="41.697" height="18.643" xmlns="http://www.w3.org/2000/svg">
  <path style="opacity:1;fill:#ff4d66;fill-opacity:1;stroke:none;stroke-width:0.01653646;stroke-linecap:round;stroke-linejoin:round;stroke-miterlimit:4;stroke-dasharray:none;stroke-dashoffset:0;stroke-opacity:1" d="M 1609.056 417.506 C 1606.138 416.357 1606.04 416.328 1603.468 415.865 C 1601.524 415.511 1600.799 415.423 1600.649 415.518 C 1600.536 415.588 1600.379 415.905 1600.299 416.222 C 1600.219 416.536 1600.139 416.809 1600.117 416.824 C 1600.095 416.842 1599.241 416.751 1598.213 416.62 L 1596.342 416.383 L 1593.508 417.283 L 1590.674 418.184 L 1589.916 417.765 L 1589.154 417.342 L 1588.194 417.586 L 1587.231 417.827 L 1586.159 416.995 L 1585.083 416.164 L 1583.234 416.164 L 1581.385 416.164 L 1580.36 416.82 C 1579.201 417.561 1579.423 417.593 1578.249 416.518 L 1577.647 415.967 L 1575.896 415.69 C 1574.16 415.416 1574.142 415.409 1573.183 414.771 C 1572.333 414.202 1572.089 414.103 1571.111 413.928 L 1570.006 413.731 L 1570.119 413.41 C 1570.21 413.162 1572.191 411.802 1578.931 407.36 C 1583.712 404.209 1588.435 401.178 1589.427 400.623 L 1591.229 399.613 L 1603.979 398.49 C 1610.992 397.87 1617.017 397.334 1617.371 397.294 L 1618.013 397.224 L 1615.522 402.111 C 1613.994 405.113 1613.049 407.108 1613.071 407.268 C 1613.1 407.473 1613.527 407.775 1614.858 408.53 C 1615.821 409.077 1616.638 409.541 1616.678 409.559 C 1616.718 409.577 1616.788 410.168 1616.828 410.872 L 1616.904 412.152 L 1615.796 412.294 C 1615.187 412.374 1614.625 412.487 1614.552 412.549 C 1614.475 412.611 1613.91 414.019 1613.29 415.679 C 1612.67 417.338 1612.134 418.691 1612.094 418.688 C 1612.054 418.68 1610.686 418.151 1609.056 417.506 Z" id="Dublin North West" transform="matrix(0.868562, 0, 0, 0.868562, -911.843872, 13.696216)"/>
</svg>