<?xml version="1.0" encoding="utf-8"?>
<svg viewBox="315.748 228.515 38.004 53.84" width="38.004" height="53.84" xmlns="http://www.w3.org/2000/svg">
  <path style="opacity:1;fill:none;fill-opacity:1;stroke:#000000;stroke-width:1;stroke-linecap:round;stroke-linejoin:round;stroke-miterlimit:4;stroke-dasharray:none;stroke-dashoffset:0;stroke-opacity:1" d="M 1437.607 247.327 L 1436.407 247.534 C 1435.748 247.647 1435.173 247.762 1435.128 247.791 C 1434.909 247.934 1434.754 248.814 1434.667 250.409 C 1434.616 251.332 1434.557 252.171 1434.534 252.274 C 1434.508 252.392 1433.868 252.915 1432.786 253.702 C 1431.848 254.384 1430.813 255.184 1430.486 255.481 C 1429.803 256.099 1429.63 256.136 1429.075 255.782 C 1428.87 255.65 1428.112 255.197 1427.394 254.774 L 1426.087 254.006 L 1425.384 254.237 C 1424.687 254.465 1424.664 254.481 1423.259 255.84 L 1421.839 257.213 L 1421.536 258.231 C 1421.37 258.79 1421.234 259.274 1421.234 259.305 C 1421.233 259.336 1421.698 259.784 1422.269 260.299 L 1423.306 261.235 L 1424.214 261.235 L 1425.122 261.235 L 1426.14 262.174 C 1426.699 262.691 1427.174 263.198 1427.195 263.301 C 1427.216 263.404 1427.257 263.676 1427.287 263.905 C 1427.347 264.368 1427.357 264.375 1428.171 264.469 C 1429.023 264.567 1429.033 264.577 1429.484 265.606 C 1429.71 266.121 1429.893 266.632 1429.892 266.741 C 1429.891 266.849 1429.531 267.911 1429.091 269.102 C 1428.553 270.558 1428.194 271.699 1427.994 272.584 C 1427.83 273.308 1427.638 273.96 1427.566 274.032 C 1427.475 274.123 1426.86 274.224 1425.505 274.371 C 1424.443 274.487 1423.532 274.598 1423.48 274.618 C 1423.428 274.637 1423.214 274.933 1423.007 275.276 L 1422.63 275.899 L 1422.702 276.5 C 1422.741 276.831 1422.766 277.172 1422.755 277.258 C 1422.744 277.344 1422.218 278.14 1421.587 279.026 C 1420.76 280.188 1420.247 280.813 1419.746 281.27 L 1419.05 281.905 L 1418.995 283.219 C 1418.966 283.942 1418.916 284.6 1418.884 284.682 C 1418.852 284.764 1418.473 285.036 1418.04 285.284 C 1417.607 285.531 1417.201 285.785 1417.136 285.85 C 1417.072 285.914 1416.948 286.296 1416.861 286.698 L 1416.702 287.428 L 1417.038 288.116 L 1417.372 288.803 L 1417.132 289.625 C 1416.702 291.094 1416.853 290.957 1415.22 291.338 C 1414.661 291.469 1414.159 291.619 1414.105 291.674 C 1414.051 291.729 1413.86 292.037 1413.683 292.36 L 1413.361 292.946 L 1413.812 293.237 C 1414.06 293.396 1414.294 293.61 1414.331 293.711 C 1414.368 293.813 1414.354 294.361 1414.3 294.93 C 1414.21 295.88 1414.181 295.984 1413.951 296.225 C 1413.721 296.464 1413.704 296.525 1413.759 296.922 L 1413.819 297.356 L 1414.622 297.746 C 1415.653 298.248 1415.839 298.397 1415.839 298.709 C 1415.839 298.91 1415.712 299.067 1415.181 299.52 C 1414.612 300.004 1414.524 300.119 1414.54 300.344 L 1414.558 300.604 L 1415.841 300.803 C 1417.134 301.003 1418.039 301.207 1418.548 301.412 C 1418.786 301.508 1418.866 301.629 1419.111 302.278 L 1419.396 303.034 L 1419.849 303.078 C 1420.099 303.104 1421.015 303.145 1421.886 303.172 C 1422.85 303.202 1423.517 303.26 1423.589 303.321 C 1423.654 303.375 1423.931 303.772 1424.204 304.203 L 1424.703 304.989 L 1425.365 304.989 C 1425.729 304.989 1426.41 305.05 1426.878 305.127 C 1428.141 305.334 1428.126 305.312 1428.126 307.239 L 1428.126 308.772 L 1428.855 309.041 C 1429.256 309.189 1429.596 309.312 1429.609 309.315 C 1429.622 309.318 1429.991 309.138 1430.429 308.918 C 1430.933 308.665 1431.256 308.447 1431.308 308.323 C 1431.353 308.214 1431.556 307.097 1431.761 305.84 C 1432.019 304.259 1432.182 303.498 1432.286 303.369 C 1432.489 303.12 1433.715 302.991 1434.027 303.188 C 1434.31 303.366 1435.21 304.522 1435.406 304.959 C 1435.557 305.296 1435.643 305.358 1436.466 305.735 L 1437.363 306.145 L 1438.437 305.701 C 1439.028 305.457 1440.021 304.953 1440.646 304.582 C 1441.27 304.212 1441.865 303.907 1441.966 303.907 C 1442.243 303.905 1443.923 304.543 1444.054 304.699 C 1444.117 304.775 1444.251 305.039 1444.351 305.287 L 1444.533 305.739 L 1445.947 305.897 L 1447.363 306.053 L 1448.572 305.481 C 1449.237 305.165 1449.781 304.887 1449.781 304.864 C 1449.781 304.84 1449.603 303.689 1449.384 302.307 L 1448.986 299.793 L 1449.3 298.922 C 1449.473 298.442 1449.65 298.015 1449.691 297.973 C 1449.732 297.931 1450.135 297.727 1450.585 297.52 C 1451.068 297.298 1451.43 297.074 1451.466 296.977 C 1451.516 296.84 1451.163 296.528 1449.439 295.18 L 1447.351 293.547 L 1445.328 293.389 L 1443.304 293.231 L 1441.527 292.162 C 1440.549 291.574 1439.699 291.031 1439.638 290.953 C 1439.471 290.74 1439.488 289.043 1439.66 288.871 C 1439.792 288.739 1440.116 288.652 1441.252 288.448 C 1441.873 288.336 1442.037 288.243 1441.963 288.041 C 1441.941 287.981 1441.702 287.64 1441.433 287.283 C 1440.962 286.657 1440.916 286.623 1440.053 286.244 C 1438.757 285.676 1438.253 285.049 1438.738 284.61 C 1438.914 284.451 1438.977 284.451 1440.762 284.596 C 1441.775 284.678 1442.719 284.789 1442.857 284.842 C 1442.996 284.895 1443.615 285.03 1444.234 285.141 L 1445.359 285.342 L 1446.193 284.399 C 1446.99 283.498 1447.034 283.428 1447.129 282.885 C 1447.28 282.025 1447.29 282.007 1447.779 281.78 C 1448.516 281.437 1448.649 281.488 1449.178 282.319 C 1449.302 282.514 1449.788 282.971 1450.258 283.334 C 1451.101 283.988 1451.122 283.999 1452.111 284.223 L 1453.113 284.449 L 1453.443 282.912 C 1453.625 282.067 1453.762 281.364 1453.746 281.352 C 1453.551 281.207 1450.478 280.502 1449.092 280.283 C 1448.001 280.111 1447.249 279.95 1447.178 279.875 C 1447.114 279.807 1446.838 279.309 1446.564 278.768 C 1446.008 277.666 1446.004 277.542 1446.511 277.115 C 1446.731 276.93 1446.884 276.881 1447.226 276.881 C 1447.745 276.881 1447.722 277.085 1447.457 274.848 L 1447.263 273.213 L 1444.599 272.451 L 1441.937 271.692 L 1441.263 271.172 C 1440.143 270.31 1440.18 270.182 1441.838 269.194 L 1443.093 268.446 L 1443.984 268.344 C 1444.475 268.289 1444.965 268.277 1445.072 268.317 C 1445.267 268.388 1445.366 268.638 1445.636 269.746 C 1445.724 270.105 1445.791 270.198 1446.078 270.344 C 1446.264 270.439 1446.437 270.516 1446.463 270.516 C 1446.489 270.516 1446.706 270.129 1446.945 269.655 C 1447.184 269.181 1447.674 268.42 1448.035 267.963 L 1448.691 267.133 L 1448.396 266.283 C 1448.223 265.78 1448.058 265.439 1447.992 265.448 C 1447.931 265.456 1447.622 265.505 1447.306 265.557 C 1446.99 265.608 1446.1 265.694 1445.328 265.748 C 1443.987 265.842 1443.916 265.839 1443.754 265.676 C 1443.535 265.458 1443.401 264.882 1443.517 264.664 C 1443.591 264.525 1444.706 263.748 1445.25 263.457 C 1445.345 263.406 1446.048 263.286 1446.81 263.188 C 1448.077 263.025 1448.276 262.974 1449.109 262.6 L 1450.021 262.19 L 1450.078 261.338 C 1450.109 260.869 1450.134 259.988 1450.135 259.381 L 1450.135 258.278 L 1449.299 257.436 L 1448.461 256.596 L 1448.342 255.549 C 1448.27 254.917 1448.18 254.476 1448.112 254.434 C 1448.05 254.396 1447.518 254.337 1446.93 254.303 C 1445.917 254.244 1445.804 254.217 1444.707 253.78 L 1443.551 253.317 L 1442.467 251.774 C 1440.808 249.411 1440.678 249.207 1440.678 248.948 C 1440.678 248.815 1440.63 248.665 1440.569 248.615 C 1440.508 248.566 1439.92 248.385 1439.264 248.211 C 1438.209 247.932 1438.043 247.861 1437.838 247.61 L 1437.607 247.327 Z M 1454.804 264.93 L 1454.519 265.203 C 1454.202 265.511 1453.891 266.263 1453.974 266.524 C 1454.07 266.827 1454.354 266.995 1455.191 267.248 C 1455.643 267.385 1456.071 267.489 1456.142 267.481 C 1456.347 267.457 1457.116 265.934 1457.116 265.545 L 1457.116 265.213 L 1456.525 265.213 C 1456.2 265.213 1455.678 265.149 1455.366 265.071 L 1454.804 264.93 Z M 1452.345 278.03 C 1452.053 278.03 1451.814 278.053 1451.814 278.08 C 1451.814 278.108 1451.982 278.328 1452.185 278.569 C 1452.608 279.07 1452.727 279.039 1452.822 278.405 L 1452.877 278.03 L 1452.345 278.03 Z" id="Dublin" transform="matrix(0.868562, 0, 0, 0.868562, -911.843872, 13.696216)"/>
</svg>