<?xml version="1.0" encoding="utf-8"?>
<svg viewBox="424.317 237.025 142.51 124.517" width="142.51" height="124.517" xmlns="http://www.w3.org/2000/svg">
  <path style="opacity:1;fill:#e0e600;fill-opacity:1;stroke:none;stroke-width:0.01653646;stroke-linecap:round;stroke-linejoin:round;stroke-miterlimit:4;stroke-dasharray:none;stroke-dashoffset:0;stroke-opacity:1" d="M 1610.402 257.125 L 1608.56 257.161 C 1607.546 257.179 1606.215 257.223 1605.598 257.263 L 1604.482 257.336 L 1602.582 259.324 L 1600.686 261.315 L 1599.566 264.349 L 1598.443 267.38 L 1597.976 273.154 C 1597.721 276.33 1597.465 278.967 1597.411 279.014 C 1597.356 279.062 1596.032 280.24 1594.475 281.629 L 1591.637 284.157 L 1588.019 285.882 C 1586.028 286.83 1584.336 287.669 1584.255 287.746 C 1584.175 287.822 1583.511 289.157 1582.782 290.714 L 1581.454 293.541 L 1578.945 294.431 L 1576.44 295.317 L 1573.726 294.566 C 1572.235 294.154 1570.929 293.774 1570.823 293.723 C 1570.721 293.672 1570.568 293.344 1570.491 292.99 C 1570.411 292.636 1570.207 291.75 1570.039 291.017 L 1569.736 289.686 L 1565.776 287.709 L 1561.818 285.732 L 1558.635 286.422 C 1556.884 286.801 1555.392 287.177 1555.319 287.257 C 1555.246 287.337 1554.466 288.595 1553.583 290.054 C 1552.701 291.513 1551.909 292.79 1551.822 292.888 C 1551.738 292.99 1550.735 293.559 1549.601 294.157 C 1547.562 295.226 1547.504 295.273 1545.1 297.392 L 1542.668 299.54 L 1540.516 304.449 L 1538.36 309.355 L 1538.823 311.258 C 1539.075 312.309 1539.316 313.221 1539.356 313.286 C 1539.4 313.356 1540.417 313.56 1541.621 313.742 C 1542.824 313.925 1543.842 314.107 1543.889 314.154 C 1543.933 314.198 1543.915 315.004 1543.846 315.949 L 1543.722 317.659 L 1546.151 320.715 L 1548.576 323.772 L 1549.422 323.713 C 1549.885 323.681 1551.351 323.64 1552.679 323.622 L 1555.09 323.589 L 1559.794 326.587 C 1562.384 328.236 1564.521 329.607 1564.547 329.633 C 1564.572 329.658 1564.517 331.102 1564.426 332.842 C 1564.335 334.585 1564.258 336.066 1564.258 336.132 C 1564.258 336.234 1565.327 336.485 1570.262 337.521 L 1571.56 337.791 L 1573.993 341.004 C 1575.331 342.769 1576.662 344.52 1576.954 344.896 L 1577.479 345.578 L 1576.575 348.441 C 1575.579 351.599 1575.798 351.205 1573.887 353.2 L 1573.022 354.105 L 1571.607 358.142 C 1570.827 360.363 1570.189 362.238 1570.2 362.303 C 1570.21 362.42 1587.075 399.719 1587.355 400.241 L 1587.345 400.241 C 1587.417 400.375 1587.494 400.485 1587.516 400.485 C 1587.538 400.485 1588.311 400.055 1589.234 399.533 L 1590.911 398.585 L 1604.778 397.345 C 1612.407 396.663 1619.381 396.057 1620.274 395.999 L 1621.904 395.89 L 1625.519 396.958 C 1628.714 397.903 1629.195 398.016 1629.68 397.932 C 1631.431 397.636 1631.522 397.64 1632.474 398.158 L 1633.364 398.639 L 1635.687 398.504 L 1638.01 398.373 L 1639.454 397.316 C 1640.249 396.736 1640.964 396.262 1641.048 396.262 C 1641.132 396.265 1642.605 396.666 1644.32 397.162 L 1647.442 398.067 L 1648.485 397.812 C 1649.32 397.604 1649.794 397.388 1650.895 396.706 L 1652.267 395.857 L 1652.183 395.255 C 1652.139 394.923 1652.059 394.566 1652 394.46 C 1651.946 394.358 1651.216 393.647 1650.381 392.884 C 1649.546 392.126 1648.86 391.44 1648.86 391.363 C 1648.86 391.247 1652.821 388.635 1653.248 388.471 C 1653.335 388.438 1653.459 388.479 1653.525 388.566 C 1653.591 388.654 1654.608 390.733 1655.79 393.187 C 1656.971 395.642 1657.974 397.688 1658.014 397.731 C 1658.12 397.848 1661.541 396.612 1661.607 396.433 C 1661.636 396.353 1660.874 393.442 1659.907 389.967 L 1658.149 383.646 L 1658.149 380.335 L 1658.149 377.023 L 1657.27 374.981 L 1656.388 372.935 L 1653.631 372.446 L 1650.87 371.957 L 1649.925 370.63 C 1649.404 369.9 1648.937 369.262 1648.886 369.211 C 1648.838 369.164 1647.58 369.255 1646.088 369.419 L 1643.382 369.718 L 1639.458 368.339 L 1635.53 366.957 L 1629.447 363.263 C 1626.099 361.231 1623.29 359.502 1623.203 359.418 C 1623.002 359.229 1622.864 357.967 1623.031 357.861 C 1623.101 357.817 1625.012 358.164 1627.28 358.627 C 1629.545 359.094 1631.478 359.473 1631.569 359.473 C 1631.664 359.473 1632.514 358.824 1633.462 358.029 L 1635.18 356.588 L 1637.474 355.848 C 1638.732 355.443 1640.775 354.787 1642.011 354.389 C 1643.853 353.798 1644.25 353.631 1644.214 353.463 C 1644.188 353.353 1643.973 352.259 1643.74 351.037 C 1643.328 348.864 1643.32 348.539 1643.703 348.634 C 1644.083 348.729 1650.917 352.307 1650.972 352.438 C 1651.001 352.518 1650.188 355.093 1649.167 358.168 C 1648.142 361.238 1647.303 363.806 1647.303 363.875 C 1647.303 363.981 1651.504 365.626 1652.008 365.717 C 1652.139 365.743 1652.905 364.149 1654.834 359.856 L 1657.482 353.962 L 1661.147 349.87 C 1663.161 347.624 1665.072 345.479 1665.396 345.111 L 1665.983 344.44 L 1663.7 343.557 C 1662.442 343.072 1661.41 342.671 1661.41 342.66 C 1661.41 342.653 1661.063 341.004 1660.648 338.998 C 1660.228 336.989 1659.856 335.315 1659.816 335.278 C 1659.736 335.198 1655.057 335.88 1654.944 335.989 C 1654.903 336.03 1655.02 337.208 1655.206 338.608 C 1655.407 340.122 1655.498 341.194 1655.432 341.26 C 1655.265 341.427 1633.572 341.084 1633.397 340.913 C 1633.294 340.811 1633.305 340.734 1633.437 340.607 C 1633.531 340.516 1637.463 338.378 1642.175 335.858 L 1650.738 331.274 L 1653.062 330.636 L 1655.385 329.994 L 1658.19 330.643 C 1659.729 330.997 1661.085 331.292 1661.202 331.299 C 1661.352 331.303 1661.775 330.69 1662.654 329.195 L 1663.894 327.087 L 1666.906 327.054 L 1669.919 327.021 L 1670.495 325.424 C 1670.809 324.549 1671.064 323.797 1671.064 323.753 C 1671.064 323.713 1670.466 323.422 1669.736 323.104 C 1669.007 322.791 1668.409 322.462 1668.409 322.382 C 1668.409 322.298 1668.762 321.215 1669.193 319.975 L 1669.977 317.718 L 1669.977 315.526 L 1669.977 313.334 L 1669.091 308.545 L 1668.201 303.756 L 1665.214 300.602 L 1662.227 297.447 L 1662.307 296.397 L 1662.387 295.346 L 1661.417 293.165 L 1660.451 290.992 L 1660.436 289.135 C 1660.425 288.118 1660.389 286.969 1660.345 286.589 L 1660.268 285.897 L 1658.879 286.794 L 1657.493 287.687 L 1655.224 287.038 C 1653.062 286.418 1652.719 286.36 1647.686 285.711 C 1644.786 285.335 1642.226 284.992 1641.993 284.945 C 1641.584 284.861 1641.468 284.686 1637.93 278.712 L 1634.286 272.566 L 1631.365 269.948 C 1629.76 268.507 1628.404 267.285 1628.353 267.234 C 1628.305 267.18 1628.112 265.732 1627.926 264.018 C 1627.616 261.173 1627.561 260.888 1627.339 260.794 C 1627.207 260.735 1625.227 260.33 1622.937 259.893 C 1620.65 259.455 1618.735 259.072 1618.688 259.039 C 1618.637 259.01 1618.403 258.634 1618.163 258.208 C 1617.926 257.781 1617.707 257.427 1617.681 257.427 C 1617.656 257.427 1616.711 257.971 1615.584 258.634 C 1614.453 259.298 1613.472 259.842 1613.399 259.842 C 1613.327 259.842 1612.623 259.229 1611.831 258.481 L 1610.402 257.125 Z M 1690.926 336.325 C 1690.707 336.595 1686.98 343.827 1687.013 343.922 C 1687.034 343.995 1688.14 345.023 1689.463 346.209 L 1691.874 348.368 L 1695.426 348.342 L 1698.979 348.313 L 1700.521 345.64 L 1702.068 342.959 L 1702.254 340.454 L 1702.436 337.941 L 1701.678 337.255 C 1701.262 336.876 1700.864 336.562 1700.791 336.558 C 1700.722 336.558 1699.861 336.879 1698.88 337.273 L 1697.093 337.995 L 1695.448 337.864 L 1693.803 337.733 L 1692.385 337.007 C 1691.604 336.606 1690.948 336.299 1690.926 336.325 Z" id="Dublin Fingal" transform="matrix(0.868562, 0, 0, 0.868562, -911.843872, 13.696216)"/>
</svg>