<?xml version="1.0" encoding="utf-8"?>
<svg viewBox="471.459 392.164 38.888 26.714" width="38.888" height="26.714" xmlns="http://www.w3.org/2000/svg">
  <path style="opacity:1;fill:#cb85f9;fill-opacity:1;stroke:none;stroke-width:0.01653646;stroke-linecap:round;stroke-linejoin:round;stroke-miterlimit:4;stroke-dasharray:none;stroke-dashoffset:0;stroke-opacity:1" d="M 1595.175 464.039 C 1594.285 462.686 1593.351 461.235 1593.1 460.819 L 1592.636 460.057 L 1594.843 457.139 C 1596.057 455.534 1597.071 454.083 1597.097 453.911 C 1597.141 453.652 1597.028 453.514 1596.367 453.01 C 1595.609 452.434 1595.587 452.398 1595.394 451.57 C 1595.284 451.103 1595.193 450.64 1595.197 450.538 C 1595.197 450.421 1595.704 450.104 1596.532 449.692 C 1597.265 449.331 1597.936 448.951 1598.023 448.853 C 1598.107 448.754 1598.33 448.276 1598.516 447.799 C 1598.702 447.317 1598.88 446.923 1598.917 446.923 C 1598.953 446.923 1599.675 447.124 1600.525 447.368 C 1601.926 447.773 1602.093 447.799 1602.261 447.631 C 1602.363 447.525 1602.633 446.763 1602.856 445.935 C 1603.082 445.107 1603.392 444.137 1603.541 443.776 C 1603.793 443.181 1603.822 442.886 1603.881 440.421 L 1603.943 437.714 L 1606.897 436.73 L 1609.854 435.741 L 1613.472 436.876 C 1615.46 437.499 1617.305 438.028 1617.572 438.054 C 1617.845 438.079 1619.775 438.838 1622.036 439.808 L 1626.015 441.522 L 1631.741 441.442 C 1634.888 441.398 1637.441 441.383 1637.408 441.413 C 1637.379 441.442 1636.314 441.96 1635.041 442.565 L 1632.729 443.667 L 1630.457 443.67 L 1628.185 443.67 L 1626.27 444.203 C 1625.22 444.494 1624.308 444.779 1624.25 444.837 C 1624.191 444.899 1624.271 446.581 1624.436 448.736 L 1624.727 452.533 L 1625.406 454.615 L 1626.088 456.701 L 1625.15 457.708 L 1624.213 458.711 L 1623.247 458.299 C 1622.24 457.868 1622.16 457.865 1620.996 458.208 C 1620.843 458.255 1620.748 458.054 1620.53 457.237 C 1620.376 456.672 1620.179 456.151 1620.088 456.078 C 1619.92 455.935 1617.656 455.366 1617.273 455.366 C 1617.145 455.366 1616.864 455.625 1616.62 455.968 L 1616.186 456.57 L 1615.132 456.501 L 1614.074 456.428 L 1613.52 457.135 C 1613.071 457.704 1612.907 458.065 1612.634 459.043 C 1612.451 459.707 1612.265 460.286 1612.221 460.334 C 1612.178 460.378 1611.62 460.454 1610.978 460.498 L 1609.811 460.585 L 1609.428 460.144 C 1608.793 459.422 1608.447 459.575 1608.213 460.68 C 1608.137 461.041 1608.064 461.348 1608.049 461.366 C 1608.035 461.381 1607.684 461.282 1607.269 461.14 L 1606.514 460.885 L 1606.051 461.231 C 1605.795 461.421 1605.299 461.804 1604.945 462.081 L 1604.304 462.584 L 1602.495 462.416 C 1599.683 462.154 1599.675 462.157 1598.567 462.796 C 1598.038 463.102 1597.556 463.441 1597.498 463.554 C 1597.429 463.682 1597.458 464.083 1597.571 464.645 L 1597.753 465.531 L 1597.272 466.012 L 1596.787 466.497 L 1595.175 464.039 Z" id="Dublin Bay South" transform="matrix(0.868562, 0, 0, 0.868562, -911.843872, 13.696216)"/>
</svg>