<?xml version="1.0" encoding="utf-8"?>
<svg viewBox="473.291 410.194 39.869 60.503" width="39.869" height="60.503" xmlns="http://www.w3.org/2000/svg">
  <path style="opacity:1;fill:#ff4d66;fill-opacity:1;stroke:none;stroke-width:0.01653646;stroke-linecap:round;stroke-linejoin:round;stroke-miterlimit:4;stroke-dasharray:none;stroke-dashoffset:0;stroke-opacity:1" d="M 1614.676 525.449 L 1610.938 524.76 L 1607.039 523.385 L 1603.14 522.01 L 1600.54 518.341 C 1598.92 516.062 1597.899 514.508 1597.841 514.238 C 1597.786 514.001 1597.604 513.443 1597.44 513.002 L 1597.137 512.199 L 1597.381 510.35 L 1597.626 508.497 L 1598.461 507.02 C 1598.92 506.207 1599.3 505.456 1599.3 505.35 C 1599.3 505.248 1598.538 504.38 1597.611 503.424 C 1596.681 502.469 1595.923 501.593 1595.923 501.477 C 1595.923 501.356 1595.999 500.806 1596.09 500.251 L 1596.254 499.237 L 1595.499 497.596 L 1594.745 495.955 L 1595.211 495.302 L 1595.678 494.649 L 1595.678 493.417 C 1595.678 491.429 1595.591 491.579 1597.411 490.543 C 1598.899 489.697 1599.048 489.576 1599.84 488.603 L 1600.686 487.563 L 1601.656 487.64 C 1602.418 487.702 1602.655 487.68 1602.768 487.545 C 1602.863 487.432 1602.921 486.684 1602.943 485.349 L 1602.976 483.325 L 1603.943 482.939 C 1605.022 482.508 1605.091 482.395 1604.854 481.461 C 1604.734 480.976 1604.745 480.893 1605.026 480.484 C 1605.441 479.871 1605.412 479.58 1604.891 479.164 L 1604.457 478.814 L 1604.73 477.964 C 1604.993 477.151 1604.993 477.092 1604.807 476.545 C 1604.621 475.998 1604.625 475.932 1604.913 474.868 C 1605.358 473.197 1605.328 473.102 1604.322 472.913 C 1603.778 472.811 1603.716 472.698 1603.468 471.29 C 1603.279 470.225 1603.264 470.199 1602.349 469.477 L 1601.966 469.178 L 1602.323 468.255 C 1602.52 467.748 1603.184 466.465 1603.797 465.403 C 1604.796 463.667 1604.993 463.401 1605.733 462.796 C 1606.185 462.424 1606.627 462.121 1606.714 462.121 C 1606.802 462.121 1607.225 462.23 1607.655 462.362 C 1608.086 462.497 1608.531 462.573 1608.636 462.529 C 1608.746 462.489 1608.899 462.219 1608.976 461.935 C 1609.085 461.519 1609.154 461.435 1609.304 461.512 C 1609.592 461.665 1612.798 461.512 1612.973 461.337 C 1613.053 461.257 1613.297 460.549 1613.516 459.761 C 1613.764 458.886 1614.041 458.175 1614.235 457.919 L 1614.548 457.507 L 1615.602 457.588 L 1616.656 457.664 L 1617.112 457.055 C 1617.364 456.72 1617.63 456.472 1617.707 456.501 C 1617.787 456.53 1618.181 456.621 1618.586 456.701 L 1619.319 456.844 L 1619.556 457.642 C 1619.683 458.084 1619.826 458.591 1619.869 458.769 C 1620.012 459.36 1620.201 459.418 1621.27 459.2 L 1622.229 458.999 L 1623.123 459.386 C 1623.878 459.707 1624.323 460.042 1625.953 461.508 L 1627.886 463.248 L 1627.886 463.886 C 1627.886 464.513 1627.9 464.539 1628.509 465.02 C 1628.849 465.29 1629.235 465.586 1629.366 465.677 C 1629.571 465.819 1629.622 466.089 1629.749 467.712 C 1629.841 468.912 1629.954 469.656 1630.059 469.78 C 1630.147 469.889 1630.942 470.604 1631.828 471.37 C 1632.711 472.136 1633.437 472.822 1633.437 472.898 C 1633.437 472.975 1633.542 473.766 1633.666 474.656 L 1633.896 476.279 L 1633.335 476.935 C 1632.846 477.501 1632.631 477.964 1631.733 480.32 L 1630.694 483.048 L 1628.838 483.303 C 1627.816 483.442 1626.865 483.591 1626.719 483.639 C 1626.405 483.737 1626.281 484.018 1626.431 484.299 C 1626.493 484.416 1627.94 485.313 1629.651 486.298 L 1632.762 488.085 L 1636.238 491.174 C 1639.002 493.628 1639.67 494.281 1639.498 494.35 C 1639.381 494.394 1638.754 494.551 1638.105 494.693 C 1637.459 494.832 1636.847 495.029 1636.748 495.131 C 1636.621 495.258 1636.569 495.579 1636.569 496.261 L 1636.569 497.217 L 1635.906 498.001 C 1635.541 498.431 1635.242 498.844 1635.242 498.917 C 1635.242 499.077 1636.081 500.459 1636.234 500.554 C 1636.289 500.591 1636.865 500.696 1637.51 500.791 C 1639.531 501.087 1639.345 500.966 1639.349 501.966 C 1639.349 502.662 1639.476 503.235 1639.998 504.942 L 1640.647 507.053 L 1640.085 507.254 C 1639.305 507.535 1639.298 507.531 1638.918 506.984 C 1638.375 506.2 1638.284 506.189 1637.084 506.776 C 1636.168 507.225 1636.03 507.334 1636.033 507.593 C 1636.033 507.768 1636.723 508.957 1637.671 510.43 C 1638.568 511.824 1639.4 513.206 1639.516 513.505 C 1639.728 514.045 1639.728 514.045 1639.447 514.227 C 1639.29 514.326 1639.046 514.537 1638.9 514.69 C 1638.754 514.843 1637.591 515.445 1636.314 516.021 L 1633.991 517.075 L 1632.116 516.802 C 1631.081 516.652 1630.081 516.525 1629.888 516.525 L 1629.534 516.521 L 1629.611 519.052 C 1629.655 520.445 1629.644 521.587 1629.593 521.587 C 1629.542 521.587 1628.364 521.288 1626.974 520.923 C 1625.588 520.558 1624.37 520.259 1624.268 520.259 C 1624.169 520.259 1622.959 521.591 1621.576 523.214 C 1619.399 525.785 1619.027 526.168 1618.742 526.157 C 1618.564 526.149 1616.733 525.828 1614.676 525.449 Z" id="Dublin Rathdown" transform="matrix(0.868562, 0, 0, 0.868562, -911.843872, 13.696216)"/>
</svg>