<?xml version="1.0" encoding="utf-8"?>
<svg viewBox="499.663 410.972 48.919 61.175" width="48.919" height="61.175" xmlns="http://www.w3.org/2000/svg">
  <path style="opacity: 1; fill: rgb(203, 133, 249); fill-opacity: 1; stroke: none; stroke-width: 0.0165365; stroke-linecap: round; stroke-linejoin: round; stroke-miterlimit: 4; stroke-dasharray: none; stroke-dashoffset: 0; stroke-opacity: 1;" d="M 1627.809 457.398 C 1626.711 457.369 1626.675 457.558 1625.818 458.521 L 1625.107 459.324 L 1626.963 461.019 L 1628.819 462.715 L 1628.9 463.412 C 1628.98 464.109 1628.98 464.112 1629.76 464.652 C 1630.191 464.951 1630.566 465.305 1630.596 465.436 C 1630.625 465.571 1630.709 466.465 1630.778 467.427 L 1630.909 469.178 L 1631.387 469.597 C 1631.65 469.831 1632.401 470.484 1633.061 471.045 C 1633.717 471.611 1634.294 472.154 1634.341 472.253 C 1634.385 472.351 1634.549 473.38 1634.709 474.536 L 1634.994 476.633 L 1634.337 477.388 C 1633.721 478.084 1633.601 478.336 1632.631 480.896 C 1632.058 482.41 1631.511 483.741 1631.416 483.854 C 1631.296 483.993 1630.865 484.095 1629.983 484.2 C 1629.29 484.284 1628.699 484.386 1628.674 484.427 C 1628.648 484.47 1629.706 485.127 1631.022 485.889 L 1633.418 487.268 L 1637.405 490.816 C 1639.892 493.026 1641.395 494.445 1641.395 494.584 C 1641.395 494.934 1640.953 495.127 1639.345 495.474 C 1638.513 495.656 1637.799 495.838 1637.748 495.882 C 1637.7 495.926 1637.627 496.367 1637.58 496.863 C 1637.507 497.702 1637.463 497.808 1636.971 498.391 C 1636.449 499.011 1636.442 499.026 1636.639 499.329 C 1636.748 499.496 1636.85 499.631 1636.869 499.631 C 1637.273 499.631 1640.166 500.167 1640.279 500.262 C 1640.399 500.361 1640.435 500.704 1640.417 501.553 C 1640.392 502.655 1640.428 502.812 1641.081 504.916 C 1641.46 506.13 1641.756 507.268 1641.734 507.447 C 1641.701 507.739 1641.577 507.812 1640.443 508.228 C 1639.753 508.479 1639.097 508.658 1638.984 508.621 C 1638.871 508.585 1638.608 508.319 1638.397 508.027 C 1638.032 507.516 1638.003 507.498 1637.653 507.633 C 1637.423 507.717 1637.31 507.83 1637.35 507.936 C 1637.386 508.027 1638.047 509.077 1638.816 510.27 C 1640.315 512.586 1641.012 514.059 1640.796 514.46 C 1640.727 514.588 1640.479 514.811 1640.242 514.956 C 1639.939 515.142 1639.834 515.281 1639.885 515.42 C 1639.925 515.529 1640.935 517.433 1642.128 519.658 C 1644.239 523.589 1644.327 523.728 1645.377 524.84 L 1646.453 525.978 L 1648.962 525.584 L 1651.464 525.19 L 1654.181 526.521 C 1655.673 527.251 1656.931 527.842 1656.975 527.827 C 1657.019 527.813 1658.784 526.361 1660.896 524.607 C 1664.105 521.937 1665.159 521.142 1667.329 519.738 C 1668.755 518.815 1669.988 517.995 1670.072 517.918 C 1670.192 517.809 1669.926 516.415 1668.773 511.16 L 1667.322 504.544 L 1667.406 497.111 L 1667.486 489.678 L 1671.749 486.746 L 1676.013 483.818 L 1676.013 481.56 L 1676.013 479.302 L 1674.208 476.954 C 1672.661 474.94 1671.935 474.134 1669.113 471.323 L 1665.819 468.04 L 1663.948 467.792 C 1662.923 467.654 1661.99 467.5 1661.884 467.453 C 1661.775 467.406 1660.582 466.045 1659.236 464.43 L 1656.785 461.494 L 1653.343 461.574 L 1649.896 461.658 L 1644.469 460.987 L 1639.042 460.316 L 1635.362 458.963 L 1631.682 457.609 L 1629.334 457.478 C 1628.659 457.442 1628.174 457.409 1627.809 457.398 Z M 1679.864 479.397 C 1679.82 479.481 1679.748 480.2 1679.704 480.998 C 1679.66 481.793 1679.594 482.847 1679.551 483.343 L 1679.474 484.237 L 1679.824 483.985 C 1680.017 483.847 1680.455 483.471 1680.802 483.15 L 1681.429 482.567 L 1680.685 480.903 C 1680.258 479.941 1679.912 479.306 1679.864 479.397 Z" id="Dun Laoghaire" transform="matrix(0.868562, 0, 0, 0.868562, -911.843872, 13.696216)"/>
</svg>