<?xml version="1.0" encoding="utf-8"?>
<svg viewBox="121.221 226.571 90.391 82.201" width="90.391" height="82.201" xmlns="http://www.w3.org/2000/svg">
  <path style="opacity:1;fill:#ff4d66;fill-opacity:1;stroke:none;stroke-width:0.0625;stroke-linecap:round;stroke-linejoin:round;stroke-miterlimit:4;stroke-dasharray:none;stroke-dashoffset:0;stroke-opacity:1" d="M 1258.122 338.394 C 1257.194 337.678 1256.319 337.092 1256.178 337.091 C 1255.786 337.09 1254.418 338.141 1254.324 338.516 C 1254.248 338.817 1253.481 339.34 1253.115 339.34 C 1253.037 339.34 1252.527 339.026 1251.983 338.643 L 1250.993 337.945 L 1249.964 337.987 L 1248.935 338.028 L 1248.873 336.101 C 1248.837 334.986 1248.757 334.155 1248.685 334.13 C 1248.616 334.106 1247.688 333.652 1246.623 333.12 L 1244.685 332.153 L 1244.373 331.299 C 1244.201 330.829 1243.973 330.396 1243.867 330.338 C 1243.702 330.247 1239.71 330.762 1238.478 331.032 C 1238.092 331.117 1238.099 331.125 1237.872 330.24 C 1237.796 329.945 1237.645 329.668 1237.535 329.626 C 1237.425 329.584 1236.493 329.826 1235.462 330.164 C 1233.694 330.743 1233.564 330.809 1233.144 331.321 C 1232.785 331.758 1232.321 332.054 1230.754 332.845 L 1228.81 333.827 L 1228.138 334.963 C 1227.494 336.05 1227.402 336.145 1225.998 337.153 C 1224.477 338.245 1224.373 338.383 1224.373 339.294 C 1224.373 339.457 1224.355 339.59 1224.333 339.59 C 1224.311 339.59 1223.818 339.386 1223.239 339.137 C 1222.533 338.833 1221.971 338.482 1221.537 338.074 C 1221.18 337.74 1220.804 337.465 1220.701 337.465 C 1220.151 337.465 1219.848 337.735 1219.459 338.574 C 1219.08 339.391 1219.051 339.421 1218.87 339.186 C 1218.735 339.01 1218.463 338.915 1217.937 338.858 L 1217.194 338.778 L 1216.965 337.34 C 1216.802 336.317 1216.756 335.552 1216.805 334.687 L 1216.874 333.471 L 1216.249 331.866 C 1215.905 330.983 1215.623 330.227 1215.623 330.186 C 1215.623 330.145 1215.877 329.683 1216.186 329.16 C 1216.495 328.636 1216.748 328.123 1216.748 328.018 C 1216.748 327.914 1216.555 327.526 1216.319 327.157 L 1215.89 326.486 L 1214.93 326.331 L 1213.97 326.177 L 1212.561 324.95 C 1211.151 323.723 1211.151 323.722 1210.231 323.578 C 1209.725 323.498 1209.18 323.352 1209.021 323.253 C 1208.862 323.154 1208.13 322.52 1207.396 321.845 L 1206.061 320.616 L 1205.781 319.572 C 1205.627 318.998 1205.466 318.156 1205.424 317.7 L 1205.347 316.873 L 1206.203 316.763 L 1207.059 316.653 L 1207.34 315.84 C 1207.494 315.394 1207.716 314.84 1207.834 314.611 C 1208.042 314.208 1208.067 314.197 1208.617 314.277 C 1209.694 314.432 1209.704 314.439 1210.557 315.778 C 1211.009 316.486 1211.466 317.1 1211.574 317.141 C 1211.681 317.182 1212.328 317.215 1213.011 317.215 C 1214.224 317.215 1214.257 317.207 1214.4 316.894 C 1214.527 316.614 1214.495 316.48 1214.148 315.85 C 1213.93 315.452 1213.363 314.38 1212.888 313.468 L 1212.026 311.81 L 1212.388 310.428 C 1212.588 309.668 1212.764 309.035 1212.781 309.023 C 1212.797 309.01 1213.062 308.842 1213.369 308.651 L 1213.928 308.303 L 1215.288 308.465 L 1216.648 308.626 L 1216.948 308.265 C 1217.118 308.061 1217.23 307.786 1217.206 307.636 C 1217.168 307.401 1217.234 307.362 1217.739 307.313 C 1218.216 307.267 1218.5 307.114 1219.406 306.415 C 1220.039 305.926 1220.521 305.458 1220.553 305.3 C 1220.716 304.504 1220.985 302.201 1220.931 302.062 C 1220.897 301.974 1220.336 301.601 1219.684 301.234 C 1219.032 300.867 1218.498 300.499 1218.498 300.417 C 1218.498 300.335 1218.751 300.019 1219.06 299.715 C 1219.37 299.412 1219.623 299.092 1219.623 299.004 C 1219.623 298.916 1219.398 298.245 1219.123 297.513 C 1218.635 296.214 1218.623 296.143 1218.623 294.581 L 1218.623 292.981 L 1220.633 291.324 C 1222.375 289.889 1222.692 289.571 1223.008 288.945 C 1223.209 288.548 1223.373 288.15 1223.373 288.061 C 1223.373 287.972 1222.749 287.281 1221.987 286.526 L 1220.601 285.153 L 1220.676 284.2 C 1220.739 283.398 1220.716 283.207 1220.531 282.994 C 1220.402 282.845 1219.648 282.523 1218.713 282.216 C 1217.24 281.733 1217.081 281.65 1216.66 281.146 C 1216.408 280.846 1216.132 280.573 1216.046 280.54 C 1215.96 280.507 1214.494 280.302 1212.787 280.085 C 1209.952 279.725 1209.657 279.665 1209.36 279.385 C 1209.123 279.162 1208.802 279.046 1208.173 278.955 C 1206.782 278.755 1206.781 278.754 1206.276 277.995 C 1205.715 277.152 1205.634 277.139 1204.248 277.653 C 1203.324 277.996 1203.283 278 1201.486 277.909 L 1199.661 277.816 L 1199.449 277.143 C 1199.202 276.359 1199.368 276.43 1195.952 275.646 C 1194.195 275.242 1193.839 275.115 1192.827 274.529 C 1192.199 274.166 1191.22 273.707 1190.652 273.511 C 1189.686 273.176 1189.611 273.125 1189.496 272.715 C 1189.308 272.04 1189.339 271.949 1190.01 271.229 C 1190.629 270.566 1190.663 270.549 1192.341 270.064 L 1194.044 269.571 L 1195.079 269.831 C 1195.648 269.974 1196.232 270.09 1196.377 270.09 C 1196.887 270.09 1198.764 268.64 1199.644 267.568 C 1200.391 266.657 1200.492 266.466 1200.623 265.727 C 1200.704 265.274 1200.793 264.819 1200.821 264.715 C 1200.849 264.612 1201.766 263.967 1202.859 263.281 L 1204.846 262.035 L 1205.422 260.981 C 1205.739 260.401 1205.998 259.806 1205.998 259.659 C 1205.998 259.513 1205.75 258.652 1205.446 257.748 L 1204.895 256.103 L 1205.601 255.945 C 1206.245 255.801 1206.39 255.7 1207.259 254.783 C 1209.12 252.82 1208.901 253.279 1209.837 249.357 L 1210.676 245.845 L 1211.284 245.467 L 1211.892 245.089 L 1213.601 245.986 C 1214.698 246.561 1215.669 247.182 1216.31 247.72 C 1216.86 248.18 1218.042 249.023 1218.935 249.593 C 1219.829 250.162 1221.319 251.221 1222.245 251.945 C 1224.022 253.334 1226.267 254.715 1226.748 254.715 C 1226.924 254.715 1227.273 254.476 1227.659 254.09 C 1228.405 253.344 1228.691 253.276 1228.576 253.872 C 1228.523 254.149 1228.265 254.496 1227.763 254.965 C 1227.038 255.645 1227.026 255.666 1226.743 256.894 C 1226.459 258.126 1226.459 258.137 1226.696 258.581 C 1226.924 259.006 1226.991 259.04 1228.087 259.276 L 1229.239 259.525 L 1229.668 260.476 C 1230.056 261.338 1230.176 261.483 1230.935 262.014 C 1231.714 262.558 1231.844 262.606 1232.75 262.676 L 1233.726 262.751 L 1234.205 264.447 C 1234.468 265.38 1234.798 266.314 1234.939 266.523 C 1235.181 266.883 1235.254 266.908 1236.315 267.003 C 1236.931 267.058 1237.451 267.142 1237.47 267.191 C 1237.489 267.239 1237.729 267.63 1238.004 268.059 C 1238.487 268.814 1238.522 268.84 1239.029 268.84 C 1239.495 268.84 1239.63 268.765 1240.244 268.165 C 1240.848 267.576 1240.985 267.498 1241.327 267.552 C 1241.692 267.61 1241.73 267.666 1241.874 268.346 C 1241.959 268.749 1241.998 269.159 1241.96 269.258 C 1241.922 269.357 1241.62 269.537 1241.288 269.659 C 1240.731 269.864 1240.373 270.135 1240.373 270.353 C 1240.373 270.402 1240.62 270.745 1240.921 271.116 C 1241.447 271.761 1241.477 271.844 1241.649 273.117 C 1241.818 274.362 1241.867 274.503 1242.445 275.392 C 1242.953 276.174 1243.153 276.375 1243.592 276.544 C 1243.884 276.657 1244.123 276.777 1244.123 276.811 C 1244.123 276.846 1244.012 277.053 1243.877 277.271 C 1243.637 277.659 1243.596 277.674 1242.283 277.825 C 1241.542 277.91 1240.868 278.047 1240.786 278.129 C 1240.621 278.293 1240.375 279.633 1240.374 280.374 C 1240.373 280.839 1240.387 280.852 1241.34 281.312 C 1242.214 281.733 1242.386 281.88 1243.13 282.84 C 1243.582 283.425 1244.049 283.921 1244.167 283.944 C 1244.286 283.967 1244.632 283.901 1244.936 283.797 L 1245.49 283.608 L 1245.564 284.068 C 1245.605 284.321 1245.832 285.168 1246.068 285.95 L 1246.499 287.372 L 1245.924 287.907 C 1245.522 288.281 1245.368 288.512 1245.414 288.673 C 1245.45 288.799 1245.517 289.144 1245.562 289.439 C 1245.641 289.947 1245.692 290.001 1246.564 290.501 L 1247.482 291.027 L 1247.618 291.84 C 1247.859 293.285 1247.876 293.327 1248.368 293.68 C 1248.829 294.012 1248.851 294.063 1249.062 295.275 C 1249.181 295.964 1249.326 296.62 1249.385 296.732 C 1249.452 296.862 1249.797 296.99 1250.338 297.087 C 1251.599 297.311 1251.594 297.309 1252.063 298.004 C 1252.488 298.636 1252.497 298.676 1252.497 299.924 C 1252.497 300.626 1252.548 301.333 1252.61 301.496 C 1252.748 301.858 1254.151 302.64 1254.467 302.532 C 1254.587 302.491 1254.835 302.24 1255.018 301.975 C 1255.288 301.584 1255.505 301.442 1256.171 301.22 C 1256.921 300.971 1257.02 300.896 1257.315 300.353 L 1257.638 299.759 L 1258.671 300.295 L 1259.704 300.832 L 1260.059 301.713 C 1260.254 302.197 1260.497 302.663 1260.598 302.747 C 1260.73 302.857 1261.758 302.913 1264.245 302.947 L 1267.708 302.993 L 1268.18 302.417 C 1268.44 302.1 1268.709 301.84 1268.778 301.84 C 1268.847 301.84 1269.361 302.224 1269.92 302.692 C 1270.478 303.16 1271.005 303.585 1271.091 303.636 C 1271.177 303.688 1272.177 303.493 1273.313 303.203 L 1275.38 302.677 L 1276.115 301.891 L 1276.851 301.104 L 1276.781 302.519 L 1276.711 303.934 L 1277.76 305.093 C 1278.337 305.731 1278.894 306.305 1278.997 306.369 C 1279.132 306.453 1279.666 306.258 1280.9 305.672 C 1282.494 304.916 1282.643 304.815 1282.997 304.255 C 1283.274 303.817 1283.551 303.568 1284.017 303.34 C 1284.652 303.03 1284.66 303.019 1285.108 301.803 C 1285.497 300.746 1285.633 300.52 1286.094 300.158 L 1286.629 299.738 L 1287.557 300.254 C 1288.288 300.662 1288.677 300.998 1289.397 301.846 C 1290.053 302.619 1290.642 303.146 1291.494 303.724 L 1292.679 304.528 L 1293.073 305.544 L 1293.466 306.561 L 1292.992 307.711 C 1292.731 308.344 1292.499 308.878 1292.476 308.899 C 1292.453 308.919 1292.018 309.144 1291.51 309.399 C 1290.749 309.78 1290.297 309.904 1288.948 310.104 C 1288.047 310.237 1287.193 310.371 1287.051 310.402 C 1286.88 310.44 1286.587 310.831 1286.188 311.556 C 1285.623 312.584 1285.505 312.712 1284.322 313.59 L 1283.059 314.526 L 1281.459 314.731 C 1280.579 314.844 1279.84 314.957 1279.817 314.982 C 1279.794 315.007 1278.888 316.378 1277.804 318.028 C 1276.294 320.326 1275.564 321.586 1274.682 323.414 L 1273.531 325.8 L 1270.144 328.965 C 1266.848 332.046 1266.717 332.152 1265.257 332.928 L 1263.756 333.725 L 1263.55 334.38 C 1263.356 334.997 1263.271 335.086 1262.048 335.955 C 1260.233 337.246 1260.294 337.154 1260.663 338.062 C 1260.969 338.814 1260.982 339.43 1260.697 339.62 C 1260.267 339.906 1259.783 339.676 1258.122 338.394 L 1258.122 338.394 Z" id="Galway East" transform="matrix(0.868562, 0, 0, 0.868562, -911.843872, 13.696216)"/>
</svg>