<?xml version="1.0" encoding="utf-8"?>
<svg viewBox="44.332 227.941 105.361 71.14" width="105.361" height="71.14" xmlns="http://www.w3.org/2000/svg">
  <path style="opacity:1;fill:#e0e600;fill-opacity:1;stroke:none;stroke-width:0.04419417;stroke-linecap:round;stroke-linejoin:round;stroke-miterlimit:4;stroke-dasharray:none;stroke-dashoffset:0;stroke-opacity:1" d="M 1105.425 246.666 L 1105.027 247.096 C 1104.663 247.49 1104.532 247.56 1103.486 247.924 C 1102.857 248.143 1102.142 248.344 1101.896 248.371 C 1100.916 248.48 1100.872 248.495 1100.872 248.719 C 1100.872 248.87 1101.113 249.154 1101.726 249.729 C 1102.2 250.174 1102.621 250.502 1102.675 250.469 C 1102.729 250.437 1103.042 250.22 1103.37 249.987 L 1103.966 249.561 L 1106.281 249.561 L 1108.593 249.561 L 1109.837 249.241 C 1110.521 249.064 1111.128 248.875 1111.185 248.821 C 1111.264 248.746 1111.079 248.498 1110.429 247.803 L 1109.57 246.883 L 1107.497 246.774 L 1105.425 246.666 Z M 1197.991 247.44 L 1197.404 247.442 C 1196.197 247.444 1196.266 247.4 1195.347 248.786 L 1194.527 250.02 L 1192.765 251.381 C 1191.685 252.216 1190.926 252.745 1190.804 252.745 C 1190.694 252.745 1189.362 252.604 1187.845 252.434 C 1186.328 252.264 1185.037 252.125 1184.976 252.125 C 1184.909 252.125 1184.779 252.452 1184.654 252.942 C 1184.532 253.418 1184.371 253.835 1184.267 253.938 C 1184.169 254.035 1183.447 254.662 1182.661 255.332 C 1181.391 256.418 1181.199 256.618 1180.917 257.155 C 1180.743 257.486 1180.552 257.799 1180.49 257.85 C 1180.354 257.962 1176.576 259.108 1176.341 259.108 C 1176.25 259.108 1175.828 258.915 1175.404 258.678 L 1174.632 258.246 L 1170.345 258.496 C 1167.987 258.634 1165.949 258.748 1165.816 258.75 C 1165.535 258.754 1165.218 258.478 1165.218 258.229 C 1165.218 258.135 1165.475 257.722 1165.79 257.309 L 1166.363 256.557 L 1165.548 255.815 L 1164.732 255.071 L 1163.476 254.647 C 1162.785 254.414 1162.161 254.159 1162.091 254.08 C 1162.021 254.002 1161.768 253.187 1161.531 252.27 L 1161.099 250.604 L 1160.529 251.467 C 1160.215 251.942 1159.871 252.361 1159.765 252.399 C 1159.621 252.45 1159.363 252.367 1158.763 252.075 C 1158.041 251.723 1157.808 251.659 1156.572 251.471 L 1155.187 251.26 L 1154.568 251.768 C 1153.687 252.49 1153.581 252.535 1153.302 252.327 C 1153.125 252.194 1153.018 251.95 1152.816 251.213 C 1152.673 250.694 1152.513 250.269 1152.458 250.27 C 1152.403 250.27 1152.102 250.439 1151.79 250.645 C 1151.479 250.851 1151.121 251.086 1150.995 251.166 C 1150.782 251.302 1150.481 251.297 1146.603 251.114 L 1142.439 250.916 L 1139.632 249.444 C 1138.088 248.634 1136.809 247.971 1136.788 247.971 C 1136.767 247.971 1136.703 248.014 1136.644 248.067 C 1136.585 248.12 1135.297 248.728 1133.782 249.416 L 1131.029 250.668 L 1129.712 250.578 L 1128.396 250.491 L 1127.132 249.436 L 1125.866 248.383 L 1123.556 249.162 C 1122.285 249.592 1121.194 249.969 1121.132 250 C 1121.055 250.039 1121.41 250.588 1122.255 251.739 L 1123.491 253.42 L 1124.665 253.979 C 1125.583 254.414 1126.087 254.726 1126.958 255.403 C 1127.572 255.88 1128.131 256.33 1128.202 256.401 C 1128.379 256.577 1128.491 258.398 1128.335 258.549 C 1128.263 258.619 1127.666 258.662 1126.503 258.682 L 1124.781 258.709 L 1124.382 257.549 L 1123.986 256.387 L 1123.013 255.381 L 1122.04 254.373 L 1119.124 254.526 C 1117.52 254.609 1116.022 254.681 1115.796 254.684 C 1115.404 254.689 1115.374 254.708 1115.113 255.116 L 1114.837 255.541 L 1113.534 255.836 C 1112.817 255.998 1112.185 256.174 1112.13 256.227 C 1112.075 256.28 1111.918 256.946 1111.782 257.707 L 1111.534 259.09 L 1111.822 259.746 C 1112.067 260.31 1112.241 260.536 1113.062 261.354 L 1114.017 262.307 L 1116.564 262.639 L 1119.109 262.971 L 1119.491 263.375 C 1119.719 263.616 1119.852 263.832 1119.823 263.909 C 1119.796 263.979 1119.454 264.311 1119.062 264.645 C 1118.446 265.168 1118.107 265.612 1118.107 265.897 C 1118.107 265.939 1118.737 266.165 1119.507 266.399 L 1120.906 266.823 L 1121.583 267.436 L 1122.261 268.051 L 1122.261 268.643 L 1122.261 269.235 L 1120.827 270.071 C 1120.039 270.53 1119.327 270.972 1119.247 271.051 C 1119.167 271.13 1119.074 271.38 1119.04 271.608 C 1118.964 272.115 1118.904 272.145 1117.687 272.272 L 1116.781 272.365 L 1115.368 271.744 L 1113.956 271.125 L 1112.993 271.608 L 1112.029 272.092 L 1110.913 273.895 C 1110.3 274.886 1109.798 275.715 1109.798 275.739 C 1109.798 275.762 1110.047 275.981 1110.351 276.225 C 1110.839 276.616 1111.116 276.742 1112.718 277.305 L 1114.532 277.942 L 1115.724 277.748 C 1116.694 277.59 1117.067 277.481 1117.743 277.168 C 1118.2 276.957 1118.619 276.785 1118.673 276.785 C 1118.727 276.785 1119.386 277.02 1120.14 277.307 L 1121.511 277.828 L 1121.566 278.832 C 1121.596 279.384 1121.62 279.998 1121.63 280.198 L 1121.644 280.561 L 1124.216 281.678 C 1125.631 282.293 1126.85 282.795 1126.927 282.795 C 1127.067 282.795 1131.476 281.823 1131.523 281.782 C 1131.537 281.769 1131.628 280.69 1131.726 279.383 C 1131.824 278.076 1131.92 276.961 1131.939 276.905 C 1131.958 276.849 1132.181 276.758 1132.437 276.703 C 1132.803 276.625 1132.924 276.628 1133.009 276.717 C 1133.069 276.779 1133.283 277.425 1133.484 278.155 C 1133.685 278.884 1133.868 279.548 1133.892 279.629 C 1133.94 279.792 1133.866 279.806 1135.185 279.401 C 1135.929 279.172 1135.967 279.148 1136.32 278.66 L 1136.683 278.155 L 1136.63 276.996 C 1136.589 276.092 1136.603 275.816 1136.694 275.741 C 1136.775 275.673 1137.128 275.665 1137.84 275.713 C 1138.84 275.78 1138.883 275.791 1139.339 276.114 C 1139.596 276.296 1140.073 276.631 1140.399 276.858 C 1140.725 277.085 1141.01 277.316 1141.032 277.369 C 1141.054 277.423 1140.826 278.253 1140.524 279.215 L 1139.975 280.965 L 1138.432 281.952 C 1137.058 282.831 1136.735 282.995 1135.475 283.457 C 1134.697 283.743 1134.028 284.006 1133.987 284.041 C 1133.945 284.076 1133.595 285.203 1133.21 286.547 C 1132.612 288.618 1132.528 289.015 1132.624 289.151 C 1132.686 289.239 1132.995 289.612 1133.311 289.981 L 1133.885 290.651 L 1134.503 290.651 C 1134.843 290.651 1135.58 290.618 1136.139 290.578 L 1137.155 290.504 L 1138.944 291.688 L 1140.735 292.871 L 1141.424 292.871 L 1142.114 292.871 L 1144.717 291.733 L 1147.319 290.594 L 1147.548 289.987 C 1147.673 289.653 1148.066 288.558 1148.419 287.553 L 1149.061 285.725 L 1151.151 283.969 C 1153.993 281.581 1153.6 281.806 1154.612 281.996 C 1155.074 282.083 1155.776 282.239 1156.173 282.342 C 1156.57 282.446 1156.952 282.53 1157.02 282.53 C 1157.088 282.53 1157.957 281.796 1158.95 280.897 C 1160.077 279.877 1160.824 279.263 1160.94 279.262 C 1161.085 279.261 1161.18 279.387 1161.372 279.838 L 1161.618 280.416 L 1161.247 281.237 C 1160.891 282.024 1160.817 282.116 1159.51 283.42 C 1158.76 284.169 1158.147 284.814 1158.147 284.854 C 1158.147 284.893 1158.703 285.595 1159.383 286.414 C 1160.063 287.234 1160.657 288.003 1160.702 288.121 C 1160.747 288.24 1160.945 288.949 1161.141 289.698 C 1161.48 290.986 1161.509 291.201 1161.68 293.668 L 1161.862 296.276 L 1161.553 299.319 L 1161.243 302.364 L 1161.692 303.209 C 1161.939 303.674 1162.17 304.083 1162.206 304.121 C 1162.242 304.159 1163.477 304.307 1164.95 304.45 L 1167.628 304.709 L 1175.282 303.203 L 1182.938 301.698 L 1190.409 301.715 L 1197.878 301.731 L 1201.206 300.35 L 1204.534 298.971 L 1206.481 298.971 L 1208.428 298.971 L 1209.385 298.397 C 1209.911 298.081 1210.415 297.823 1210.505 297.823 C 1210.798 297.822 1211.752 298.1 1211.819 298.205 C 1211.855 298.262 1211.887 298.675 1211.887 299.123 C 1211.887 300.102 1211.9 300.09 1210.651 300.387 C 1209.712 300.61 1209.626 300.656 1209.569 300.955 C 1209.536 301.131 1209.617 301.226 1210.055 301.535 C 1210.565 301.895 1210.58 301.917 1210.528 302.229 C 1210.392 303.052 1210.313 303.184 1209.676 303.657 C 1209.337 303.908 1209.059 304.132 1209.059 304.155 C 1209.059 304.205 1209.671 306.67 1209.717 306.803 C 1209.739 306.868 1209.982 306.886 1210.442 306.86 C 1211.04 306.826 1211.358 306.734 1212.758 306.188 C 1214.294 305.589 1214.418 305.522 1215.082 304.946 L 1215.783 304.338 L 1216.377 304.461 L 1216.969 304.584 L 1216.946 305.44 L 1216.923 306.293 L 1217.433 306.242 C 1217.889 306.196 1218.019 306.132 1218.692 305.614 C 1219.106 305.296 1219.462 305.022 1219.483 305.006 C 1219.517 304.981 1219.829 302.889 1219.839 302.633 C 1219.839 302.581 1219.381 302.283 1218.817 301.971 C 1217.829 301.425 1217.781 301.385 1217.534 300.897 C 1217.393 300.618 1217.278 300.299 1217.278 300.19 C 1217.278 300.062 1217.493 299.777 1217.87 299.397 L 1218.46 298.801 L 1217.999 297.569 L 1217.54 296.336 L 1217.565 294.407 L 1217.589 292.475 L 1219.7 290.707 C 1221.354 289.323 1221.852 288.857 1221.995 288.561 L 1222.177 288.182 L 1220.88 286.881 L 1219.583 285.58 L 1219.558 284.608 L 1219.533 283.635 L 1218.031 283.125 L 1216.527 282.617 L 1215.998 282.055 L 1215.467 281.49 L 1212.418 281.117 C 1209.334 280.738 1209.18 280.703 1208.705 280.276 C 1208.532 280.12 1208.264 280.044 1207.469 279.928 C 1206.91 279.847 1206.349 279.742 1206.225 279.694 C 1206.085 279.639 1205.87 279.387 1205.664 279.035 C 1205.481 278.722 1205.298 278.465 1205.258 278.465 C 1205.218 278.465 1204.834 278.597 1204.404 278.758 L 1203.623 279.051 L 1201.373 278.975 C 1199.519 278.913 1199.096 278.875 1198.969 278.76 C 1198.884 278.683 1198.728 278.356 1198.623 278.033 C 1198.518 277.711 1198.399 277.415 1198.361 277.373 C 1198.323 277.332 1197.225 277.049 1195.92 276.744 L 1193.547 276.192 L 1192.437 275.531 C 1191.592 275.029 1191.026 274.769 1190.072 274.446 C 1189.383 274.212 1188.78 273.974 1188.734 273.918 C 1188.644 273.81 1188.201 272.009 1188.201 271.762 C 1188.202 271.628 1189.856 269.744 1190.088 269.614 C 1190.143 269.583 1191.057 269.31 1192.119 269.008 L 1194.051 268.461 L 1195.178 268.74 L 1196.305 269.022 L 1197.211 268.383 C 1197.9 267.897 1198.279 267.545 1198.803 266.91 L 1199.492 266.078 L 1199.646 265.09 C 1199.732 264.547 1199.831 264.047 1199.865 263.983 C 1199.899 263.918 1200.851 263.281 1201.982 262.567 L 1204.041 261.268 L 1204.486 260.444 L 1204.932 259.617 L 1204.775 259.119 C 1204.689 258.845 1204.419 258.053 1204.176 257.358 L 1203.734 256.094 L 1203.225 255.836 C 1202.945 255.695 1202.69 255.511 1202.658 255.426 C 1202.626 255.341 1202.575 254.764 1202.545 254.141 L 1202.492 253.008 L 1201.996 253.008 C 1201.724 253.008 1201.293 252.982 1201.037 252.951 L 1200.57 252.895 L 1199.4 251.621 C 1198.757 250.921 1198.204 250.28 1198.17 250.198 C 1198.137 250.115 1198.083 249.462 1198.05 248.744 L 1197.991 247.44 Z M 1155.718 289.17 L 1154.7 289.766 C 1154.141 290.093 1152.403 291.114 1150.835 292.035 L 1147.986 293.711 L 1147.986 294.164 L 1147.986 294.616 L 1148.406 294.772 C 1149.112 295.033 1149.2 295.116 1149.267 295.606 L 1149.328 296.051 L 1148.414 297.026 C 1147.911 297.562 1147.301 298.163 1147.058 298.362 L 1146.617 298.721 L 1146.263 299.973 L 1145.91 301.225 L 1144.959 301.688 C 1144.255 302.03 1144.01 302.192 1144.01 302.315 C 1144.01 302.443 1144.313 302.615 1145.357 303.078 L 1146.705 303.676 L 1148.34 303.805 C 1149.814 303.921 1150.005 303.953 1150.283 304.147 C 1150.453 304.265 1150.614 304.362 1150.642 304.362 C 1150.67 304.362 1150.972 304.115 1151.31 303.811 C 1151.649 303.507 1152.352 302.979 1152.873 302.639 C 1153.718 302.086 1153.816 301.996 1153.781 301.799 C 1153.759 301.678 1153.716 300.444 1153.685 299.059 C 1153.647 297.351 1153.588 296.38 1153.503 296.041 C 1153.32 295.309 1153.336 295.223 1153.812 294.518 L 1154.246 293.875 L 1155.175 293.67 C 1155.686 293.558 1156.163 293.49 1156.236 293.518 C 1156.349 293.561 1156.826 294.885 1156.826 295.159 C 1156.826 295.211 1156.531 295.981 1156.171 296.869 C 1155.154 299.387 1155.179 299.218 1155.57 300.694 L 1155.898 301.932 L 1156.808 302.059 L 1157.718 302.188 L 1158.578 301.907 L 1159.437 301.623 L 1159.814 300.098 C 1160.021 299.259 1160.285 297.988 1160.4 297.274 L 1160.609 295.975 L 1160.41 293.664 L 1160.21 291.354 L 1159.556 290.703 L 1158.902 290.053 L 1157.31 289.612 L 1155.718 289.17 Z M 1141.687 313.985 L 1140.702 314.213 C 1140.161 314.339 1139.441 314.445 1139.101 314.45 C 1138.105 314.465 1137.985 314.514 1137.839 314.953 C 1137.769 315.163 1137.727 315.35 1137.747 315.369 C 1137.767 315.389 1138.429 315.779 1139.218 316.237 C 1140.333 316.883 1141.597 317.478 1144.896 318.91 L 1149.14 320.752 L 1150.704 321.965 C 1151.565 322.632 1152.29 323.178 1152.315 323.182 C 1152.34 323.186 1152.406 323.112 1152.466 323.018 C 1152.61 322.787 1153.198 321.324 1153.198 321.196 C 1153.198 321.139 1152.835 320.744 1152.392 320.317 L 1151.585 319.539 L 1151.521 318.129 C 1151.472 317.079 1151.423 316.698 1151.332 316.639 C 1151.264 316.595 1150.803 316.34 1150.306 316.073 L 1149.404 315.588 L 1148 315.588 L 1146.597 315.588 L 1146.119 316.061 L 1145.642 316.535 L 1144.994 316.446 L 1144.345 316.356 L 1143.982 315.623 L 1143.619 314.891 L 1142.652 314.438 L 1141.687 313.985 Z M 1156.925 321.686 L 1156.724 322.014 C 1156.613 322.194 1156.41 322.467 1156.273 322.623 C 1155.998 322.937 1155.01 325.566 1155.124 325.68 C 1155.161 325.717 1155.727 325.76 1156.382 325.776 L 1156.382 325.778 C 1157.037 325.794 1157.772 325.804 1158.013 325.801 L 1158.45 325.797 L 1158.591 325.09 C 1158.677 324.66 1158.874 324.105 1159.095 323.672 C 1159.437 323.003 1159.452 322.934 1159.378 322.522 C 1159.211 321.596 1159.354 321.686 1158.066 321.686 L 1156.925 321.686 Z M 1161.976 325.989 C 1161.908 325.947 1161.753 326.107 1161.542 326.436 C 1161.363 326.717 1161.042 327.144 1160.829 327.387 C 1160.247 328.051 1160.3 328.138 1161.419 328.369 C 1161.93 328.475 1162.359 328.566 1162.374 328.571 C 1162.389 328.576 1162.548 328.466 1162.728 328.325 C 1162.954 328.146 1163.271 328.019 1163.761 327.914 C 1164.15 327.831 1164.498 327.736 1164.536 327.702 C 1164.692 327.56 1164.468 327.357 1163.786 327.028 C 1163.39 326.837 1162.844 326.54 1162.573 326.368 C 1162.303 326.195 1162.034 326.024 1161.976 325.989 L 1161.976 325.989 Z" id="Galway West" transform="matrix(0.868562, 0, 0, 0.868562, -911.843872, 13.696216)"/>
</svg>