<?xml version="1.0" encoding="utf-8"?>
<svg viewBox="9.481 353.773 115.567 108.91" width="115.567" height="108.91" xmlns="http://www.w3.org/2000/svg">
  <path style="opacity:1;fill:#e0e600;fill-opacity:1;stroke:none;stroke-width:0.0625;stroke-linecap:round;stroke-linejoin:round;stroke-miterlimit:4;stroke-dasharray:none;stroke-dashoffset:0;stroke-opacity:1" d="M 1175.392 391.541 C 1175.312 391.553 1175.199 391.623 1174.995 391.762 C 1174.725 391.946 1174.042 392.17 1173.218 392.346 L 1171.88 392.631 L 1170.345 392.297 L 1168.81 391.961 L 1160.349 391.963 L 1151.886 391.965 L 1151.072 392.477 C 1150.446 392.869 1150.065 393.243 1149.439 394.084 C 1148.99 394.688 1148.622 395.238 1148.622 395.307 C 1148.622 395.376 1148.802 395.842 1149.023 396.34 C 1149.475 397.363 1149.534 397.18 1148.488 397.983 L 1148.06 398.311 L 1148.351 398.913 C 1148.602 399.431 1148.653 399.773 1148.714 401.362 L 1148.784 403.207 L 1148.308 403.788 C 1147.936 404.241 1147.746 404.672 1147.436 405.748 L 1147.04 407.129 L 1144.907 408.016 L 1142.772 408.903 L 1140.878 410.653 L 1138.981 412.403 L 1135.833 413.252 L 1132.685 414.102 L 1130.497 413.897 L 1128.31 413.692 L 1127.102 414.397 L 1125.895 415.104 L 1125.7 415.94 C 1125.592 416.4 1125.489 416.873 1125.47 416.987 C 1125.447 417.126 1125.762 417.408 1126.435 417.848 L 1127.435 418.502 L 1129.491 418.788 C 1131.447 419.059 1131.629 419.11 1133.142 419.788 C 1134.017 420.18 1134.758 420.563 1134.786 420.639 C 1134.814 420.716 1134.585 421.366 1134.278 422.084 L 1133.72 423.391 L 1134.099 424.959 L 1134.476 426.528 L 1134.063 427.807 C 1133.772 428.71 1133.425 429.435 1132.886 430.276 C 1132.465 430.931 1132.122 431.492 1132.122 431.52 C 1132.122 431.548 1132.417 431.669 1132.778 431.788 C 1133.139 431.906 1133.47 432.057 1133.513 432.123 C 1133.697 432.406 1133.182 433.243 1132.425 433.889 L 1131.64 434.557 L 1133.413 435.084 C 1134.677 435.46 1135.472 435.781 1136.19 436.206 L 1137.198 436.799 L 1139.235 436.938 C 1140.357 437.014 1141.307 437.109 1141.345 437.147 C 1141.474 437.275 1141.527 438.557 1141.407 438.631 C 1141.342 438.671 1140.653 438.768 1139.875 438.846 C 1138.856 438.948 1138.181 439.094 1137.456 439.372 L 1136.45 439.756 L 1136.129 439.338 C 1135.346 438.316 1135.541 438.386 1134.381 438.721 C 1133.358 439.017 1133.348 439.024 1132.133 440.286 L 1130.913 441.551 L 1127.924 441.625 L 1124.934 441.698 L 1123.084 440.676 C 1121.317 439.699 1121.18 439.592 1119.977 438.303 L 1118.717 436.956 L 1118.93 435.803 C 1119.048 435.17 1119.221 433.753 1119.315 432.653 L 1119.487 430.653 L 1118.981 430.137 L 1118.475 429.622 L 1118.7 428.907 C 1118.914 428.228 1118.963 428.174 1119.674 427.815 L 1120.422 427.436 L 1119.129 426.827 C 1117.993 426.29 1117.736 426.215 1117.01 426.213 C 1116.384 426.211 1116.109 426.151 1115.872 425.965 C 1115.7 425.831 1115.489 425.721 1115.401 425.719 C 1115.198 425.715 1114.997 426.238 1114.997 426.772 C 1114.997 427.272 1114.868 427.387 1114.059 427.612 L 1113.434 427.786 L 1113.397 428.422 L 1113.36 429.057 L 1113.883 429.19 C 1114.399 429.321 1114.416 429.315 1115.143 428.709 L 1115.881 428.094 L 1116.532 428.342 C 1116.891 428.479 1117.206 428.59 1117.233 428.59 C 1117.325 428.59 1117.144 430.12 1117.04 430.219 C 1116.983 430.274 1116.265 430.378 1115.448 430.452 C 1114.63 430.525 1113.94 430.608 1113.911 430.637 C 1113.882 430.666 1114.45 431.121 1115.174 431.649 L 1116.491 432.608 L 1116.434 433.131 C 1116.403 433.419 1116.343 434.075 1116.303 434.59 L 1116.231 435.528 L 1114.526 437.022 L 1112.821 438.518 L 1111.065 438.995 C 1108.882 439.587 1107.175 439.753 1106.916 439.399 C 1106.633 439.011 1106.722 438.681 1107.309 437.965 C 1108.058 437.052 1108.074 436.626 1107.373 436.233 C 1106.563 435.778 1106.547 435.743 1106.631 434.643 C 1106.714 433.549 1106.743 433.6 1105.551 432.651 L 1105.169 432.346 L 1104.159 432.746 C 1103.435 433.034 1103.079 433.254 1102.892 433.526 C 1102.436 434.189 1101.893 434.716 1101.724 434.662 C 1101.634 434.634 1100.657 434.574 1099.554 434.53 L 1097.548 434.448 L 1097.327 435.381 C 1097.207 435.894 1097.04 436.396 1096.958 436.496 C 1096.876 436.597 1096.363 436.773 1095.816 436.889 C 1095.269 437.005 1094.796 437.125 1094.765 437.157 C 1094.734 437.188 1094.608 437.729 1094.488 438.358 C 1094.367 438.987 1094.203 439.541 1094.124 439.59 C 1094.045 439.639 1092.789 439.719 1091.333 439.768 C 1089.877 439.817 1088.649 439.894 1088.603 439.942 C 1088.557 439.989 1088.337 440.553 1088.115 441.194 L 1087.71 442.358 L 1088.238 443.106 C 1088.834 443.952 1088.829 443.982 1087.927 444.553 L 1087.38 444.901 L 1087.345 446.463 L 1087.31 448.028 L 1086.832 448.067 C 1086.443 448.099 1086.202 448.009 1085.55 447.584 C 1084.624 446.981 1084.628 446.995 1085.002 445.391 C 1085.14 444.794 1085.239 444.298 1085.22 444.288 C 1085.201 444.278 1085.089 444.197 1084.97 444.106 C 1084.783 443.963 1084.379 444.14 1081.845 445.479 C 1080.245 446.325 1078.48 447.187 1077.923 447.397 C 1077.367 447.607 1076.904 447.834 1076.894 447.903 C 1076.884 447.98 1077.456 448.028 1078.394 448.028 L 1079.91 448.028 L 1080.345 448.819 L 1080.781 449.612 L 1080.148 450.256 L 1079.515 450.903 L 1079.474 454.422 L 1079.433 457.942 L 1080.308 458.473 L 1081.183 459.004 L 1083.439 458.823 L 1085.693 458.641 L 1086.841 457.983 C 1087.474 457.621 1088.016 457.286 1088.043 457.239 C 1088.071 457.191 1088.033 456.762 1087.965 456.286 C 1087.84 455.432 1087.843 455.416 1088.166 455.159 C 1089.068 454.439 1089.123 454.432 1090.072 454.901 C 1090.83 455.275 1091.041 455.463 1091.81 456.457 C 1092.292 457.08 1092.77 457.589 1092.873 457.588 C 1093.144 457.585 1096.016 457.113 1096.066 457.063 C 1096.089 457.04 1095.993 456.839 1095.851 456.616 C 1095.671 456.331 1095.317 456.083 1094.67 455.784 C 1094.162 455.549 1093.748 455.279 1093.748 455.182 C 1093.748 454.93 1094.898 453.608 1095.127 453.598 C 1095.232 453.594 1096.245 454.216 1097.377 454.981 C 1099.288 456.272 1099.511 456.387 1100.498 456.612 C 1101.325 456.8 1101.657 456.943 1101.998 457.256 C 1102.239 457.478 1102.584 457.79 1102.767 457.95 L 1103.101 458.241 L 1103.664 457.723 C 1103.973 457.438 1104.411 457.15 1104.64 457.084 C 1105.282 456.9 1106.329 456.948 1107.498 457.213 L 1108.56 457.454 L 1109.81 456.725 C 1111.026 456.017 1111.103 455.992 1112.607 455.788 C 1113.461 455.671 1115.392 455.245 1116.92 454.836 L 1119.685 454.098 L 1120.429 454.329 L 1121.174 454.559 L 1122.054 456.522 C 1122.539 457.601 1123.024 458.533 1123.133 458.594 C 1123.252 458.661 1123.507 458.651 1123.775 458.569 L 1124.22 458.432 L 1124.273 457.479 C 1124.316 456.686 1124.273 456.417 1124.035 455.868 C 1123.681 455.056 1123.681 454.985 1124.021 454.284 C 1124.343 453.621 1124 453.752 1128.31 452.651 L 1131.56 451.819 L 1133.888 451.748 L 1136.216 451.678 L 1136.406 451.979 C 1136.51 452.144 1136.668 452.485 1136.756 452.737 C 1136.904 453.162 1136.876 453.318 1136.373 454.887 L 1135.83 456.581 L 1134.945 456.782 C 1134.213 456.948 1133.941 457.087 1133.373 457.581 C 1132.705 458.16 1132.651 458.18 1131.48 458.334 C 1130.55 458.457 1130.174 458.461 1129.832 458.348 C 1129.352 458.19 1129.374 458.244 1129.117 456.616 L 1128.972 455.702 L 1128.293 455.25 C 1127.825 454.94 1127.573 454.839 1127.484 454.928 C 1127.413 454.999 1127.228 455.98 1127.072 457.106 L 1126.789 459.153 L 1125.371 461.323 L 1123.953 463.491 L 1123.517 463.42 C 1123.278 463.381 1123.032 463.3 1122.972 463.241 C 1122.911 463.179 1123.056 462.631 1123.306 461.977 C 1123.549 461.341 1123.748 460.798 1123.748 460.772 C 1123.748 460.746 1123.634 460.665 1123.496 460.59 C 1123.281 460.475 1123.139 460.542 1122.545 461.053 C 1121.541 461.915 1121.009 463.038 1120.357 465.676 C 1120.071 466.832 1119.803 467.817 1119.761 467.864 C 1119.719 467.911 1118.983 468.063 1118.127 468.202 C 1116.647 468.441 1116.497 468.444 1115.127 468.26 L 1113.685 468.065 L 1112.123 468.69 C 1110.585 469.304 1110.531 469.316 1108.775 469.407 L 1106.992 469.499 L 1105.759 470.344 C 1104.913 470.926 1104.134 471.337 1103.265 471.659 C 1102.086 472.096 1101.947 472.185 1101.156 473.014 L 1100.31 473.901 L 1098.388 474.028 L 1096.466 474.153 L 1095.847 475.719 L 1095.226 477.286 L 1093.705 478.057 C 1091.743 479.052 1091.691 479.09 1091.908 479.387 C 1092.054 479.587 1092.371 479.636 1094.256 479.747 C 1096.356 479.87 1096.465 479.889 1097.269 480.291 C 1097.728 480.521 1098.14 480.77 1098.185 480.842 C 1098.23 480.915 1097.771 481.545 1097.164 482.245 C 1096.557 482.944 1095.451 484.278 1094.707 485.209 L 1093.351 486.903 L 1091.97 487.559 L 1090.588 488.215 L 1087.898 488.45 C 1086.419 488.579 1085.063 488.645 1084.884 488.598 C 1084.604 488.524 1084.555 488.434 1084.523 487.946 C 1084.5 487.591 1084.546 487.335 1084.648 487.256 C 1084.737 487.187 1086.044 486.912 1087.552 486.645 L 1090.297 486.159 L 1091.341 485.415 C 1092.079 484.89 1092.442 484.543 1092.57 484.237 C 1092.67 483.998 1092.734 483.786 1092.715 483.766 C 1092.696 483.747 1092.23 483.696 1091.681 483.653 C 1091.013 483.601 1090.455 483.471 1089.988 483.258 L 1089.291 482.94 L 1088.021 483.836 L 1086.75 484.731 L 1085.162 484.852 C 1084.288 484.918 1083.568 484.985 1083.558 485 C 1082.712 486.476 1081.862 487.744 1081.515 488.051 C 1081.268 488.271 1081.098 488.482 1081.138 488.522 C 1081.178 488.562 1081.693 488.419 1082.285 488.204 L 1083.361 487.811 L 1083.867 488.211 L 1084.373 488.612 L 1084.373 490.866 L 1084.373 493.118 L 1082.92 494.666 C 1081.905 495.749 1081.537 496.217 1081.701 496.217 C 1081.83 496.218 1082.739 495.866 1083.724 495.438 L 1085.515 494.661 L 1087.396 494.932 C 1088.431 495.082 1089.305 495.231 1089.338 495.264 C 1089.371 495.297 1089.449 495.781 1089.511 496.338 L 1089.625 497.352 L 1088.873 499.192 C 1088.459 500.204 1088.123 501.109 1088.123 501.206 C 1088.123 501.477 1088.533 502.715 1088.623 502.715 C 1088.667 502.715 1089.901 502.215 1091.367 501.604 L 1094.033 500.493 L 1094.859 498.497 L 1095.685 496.5 L 1096.769 495.608 L 1097.853 494.715 L 1099.269 494.721 L 1100.685 494.727 L 1101.984 495.973 L 1103.285 497.218 L 1102.748 499.811 C 1102.453 501.238 1102.16 502.502 1102.099 502.622 C 1102.032 502.753 1101.846 502.841 1101.632 502.841 C 1101.307 502.841 1101.268 502.889 1101.193 503.389 C 1101.121 503.869 1101.169 504.045 1101.576 504.796 C 1101.831 505.268 1102.056 505.676 1102.076 505.702 C 1102.096 505.728 1103.005 505.962 1104.093 506.223 C 1105.614 506.588 1106.721 506.759 1108.871 506.96 L 1111.67 507.221 L 1112.24 506.673 L 1112.81 506.122 L 1115.748 505.575 L 1118.685 505.03 L 1121.097 503.432 C 1122.844 502.276 1124.06 501.58 1125.507 500.907 C 1127.458 500 1127.569 499.965 1130.158 499.456 L 1132.81 498.934 L 1135.623 497.436 L 1138.435 495.938 L 1144.41 494.264 L 1150.384 492.591 L 1151.738 492.591 C 1154.084 492.591 1153.969 492.802 1150.31 495.188 L 1147.81 496.819 L 1144.498 497.171 L 1141.185 497.522 L 1140.728 497.936 C 1140.477 498.163 1140.043 498.732 1139.763 499.202 C 1139.333 499.927 1139.126 500.136 1138.396 500.577 C 1137.627 501.041 1137.503 501.173 1137.226 501.813 L 1136.918 502.53 L 1135.306 503.169 C 1134.421 503.52 1133.678 503.86 1133.656 503.925 C 1133.634 503.989 1134.349 504.422 1135.244 504.887 C 1136.139 505.353 1136.869 505.772 1136.869 505.819 C 1136.869 505.866 1136.684 506.269 1136.463 506.716 L 1136.06 507.528 L 1135.185 507.52 C 1134.336 507.513 1134.282 507.494 1133.402 506.864 C 1132.903 506.507 1132.445 506.215 1132.382 506.215 C 1132.039 506.215 1130.991 506.798 1130.539 507.239 L 1130.019 507.747 L 1130.41 508.381 C 1130.625 508.731 1131.125 509.494 1131.523 510.077 C 1131.921 510.66 1132.248 511.226 1132.248 511.335 C 1132.248 511.443 1132.023 511.805 1131.748 512.137 C 1131.473 512.47 1131.248 512.785 1131.248 512.837 C 1131.248 512.888 1131.618 512.99 1132.07 513.065 C 1132.522 513.14 1132.962 513.26 1133.05 513.333 C 1133.138 513.406 1133.247 513.892 1133.291 514.417 C 1133.359 515.215 1133.332 515.46 1133.121 515.936 C 1132.884 516.473 1132.881 516.517 1133.084 516.741 L 1133.074 516.743 C 1133.255 516.943 1133.394 516.966 1133.982 516.895 C 1134.364 516.849 1134.746 516.773 1134.832 516.727 C 1134.918 516.681 1135.789 515.684 1136.769 514.51 C 1138.169 512.832 1138.947 512.035 1140.41 510.778 L 1142.271 509.178 L 1144.478 509.206 L 1146.685 509.231 L 1147.054 508.067 C 1147.422 506.909 1147.431 506.897 1148.906 505.311 C 1150.587 503.502 1150.427 503.569 1152.236 503.928 C 1153.202 504.12 1153.667 504.123 1157.423 503.983 C 1159.693 503.898 1162.008 503.797 1162.568 503.757 L 1163.587 503.682 L 1164.65 502.669 L 1165.714 501.655 L 1165.8 500.13 C 1165.861 499.03 1165.935 498.563 1166.066 498.454 C 1166.178 498.361 1166.86 498.281 1167.837 498.247 L 1169.425 498.19 L 1170.21 497.686 L 1170.994 497.182 L 1172.283 497.27 C 1173.401 497.345 1173.593 497.328 1173.744 497.147 C 1173.839 497.033 1174.717 496.242 1175.693 495.391 C 1176.985 494.266 1177.484 493.752 1177.531 493.501 C 1177.566 493.311 1177.629 492.955 1177.667 492.712 C 1177.727 492.339 1177.923 492.121 1178.919 491.307 L 1180.101 490.343 L 1179.904 489.874 C 1179.631 489.222 1177.863 483.654 1177.863 483.448 C 1177.863 483.294 1179.73 481.469 1181.304 480.083 L 1181.953 479.511 L 1183.564 479.288 C 1185.135 479.071 1185.202 479.049 1186.238 478.405 L 1187.3 477.743 L 1190.048 477.663 L 1192.794 477.583 L 1193.328 476.993 C 1193.744 476.531 1193.843 476.337 1193.789 476.093 C 1193.751 475.921 1193.682 475.739 1193.634 475.69 C 1193.586 475.641 1192.883 475.495 1192.074 475.366 C 1190.673 475.143 1190.58 475.109 1190.121 474.661 C 1189.855 474.402 1189.461 473.808 1189.246 473.341 L 1188.855 472.491 L 1187.953 472.401 C 1186.551 472.261 1186.606 472.314 1185.951 470.511 L 1185.367 468.905 L 1186.08 467.427 C 1186.689 466.163 1186.879 465.885 1187.378 465.518 C 1188.175 464.934 1188.221 464.749 1187.695 464.284 L 1187.265 463.905 L 1187.144 462.266 C 1187.024 460.632 1187.022 460.628 1186.529 459.954 C 1186.257 459.582 1185.601 458.447 1185.07 457.428 L 1184.105 455.577 L 1184.248 454.053 L 1184.39 452.53 L 1183.574 449.257 L 1182.757 445.985 L 1182.066 445.067 L 1181.376 444.151 L 1181.13 442.227 C 1180.995 441.17 1180.911 440.239 1180.943 440.157 C 1180.975 440.075 1181.495 439.58 1182.101 439.059 C 1183.138 438.168 1183.206 438.079 1183.267 437.54 C 1183.302 437.225 1183.398 436.888 1183.478 436.792 C 1183.558 436.695 1184.029 436.52 1184.525 436.401 C 1185.021 436.283 1185.472 436.145 1185.527 436.095 C 1185.582 436.044 1185.709 435.686 1185.81 435.3 L 1185.994 434.598 L 1184.96 432.698 L 1183.925 430.798 L 1183.238 430.577 C 1182.86 430.456 1181.809 430.127 1180.904 429.846 L 1179.257 429.337 L 1177.498 427.348 C 1176.401 426.11 1175.738 425.259 1175.738 425.093 C 1175.738 424.597 1176.483 423.734 1177.753 422.761 L 1179.015 421.794 L 1178.941 421.249 C 1178.879 420.794 1178.688 420.492 1177.802 419.454 C 1177.035 418.553 1176.738 418.112 1176.738 417.868 C 1176.738 417.125 1177.026 416.515 1177.763 415.682 C 1178.176 415.217 1178.486 414.767 1178.453 414.682 C 1178.42 414.598 1177.993 414.011 1177.504 413.378 L 1176.613 412.227 L 1176.613 410.934 L 1176.613 409.643 L 1177.123 409.149 C 1177.403 408.877 1178.042 407.974 1178.543 407.143 L 1179.455 405.634 L 1179.355 404.581 C 1179.3 404.002 1179.245 403.387 1179.245 403.214 C 1179.235 403.001 1178.75 402.307 1177.742 401.089 L 1176.245 399.28 L 1176.245 398.374 L 1176.245 397.468 L 1175.408 397.061 C 1174.947 396.838 1174.518 396.566 1174.454 396.458 C 1174.386 396.344 1174.374 395.756 1174.427 395.055 C 1174.517 393.857 1174.523 393.843 1175.133 393.038 C 1175.784 392.178 1175.838 392.015 1175.59 391.677 C 1175.518 391.578 1175.47 391.53 1175.39 391.542 L 1175.392 391.541 Z M 1070.552 451.993 L 1070.224 452.164 C 1070.043 452.259 1069.772 452.537 1069.62 452.782 C 1069.469 453.026 1068.957 453.539 1068.484 453.922 C 1068.01 454.305 1067.622 454.689 1067.622 454.776 C 1067.622 454.862 1068.058 455.101 1068.591 455.307 C 1069.397 455.618 1069.602 455.655 1069.81 455.53 C 1069.947 455.447 1070.355 455.282 1070.716 455.162 C 1071.182 455.008 1071.372 454.88 1071.372 454.721 C 1071.372 454.598 1071.188 453.934 1070.962 453.244 L 1070.552 451.993 Z M 1074.714 455.162 L 1074.306 455.649 C 1074.024 455.984 1073.849 456.372 1073.741 456.895 C 1073.655 457.312 1073.537 457.746 1073.48 457.86 C 1073.422 457.974 1072.983 458.217 1072.503 458.401 C 1072.023 458.584 1071.263 459.017 1070.814 459.364 C 1070.364 459.711 1069.991 460.003 1069.991 460.012 C 1069.991 460.021 1069.89 460.562 1069.773 461.215 L 1069.56 462.403 L 1068.902 462.44 C 1068.398 462.469 1068.226 462.432 1068.169 462.284 C 1068.129 462.177 1068.052 462.09 1067.999 462.09 C 1067.946 462.09 1067.605 462.554 1067.24 463.121 C 1066.874 463.689 1066.383 464.359 1066.148 464.61 C 1065.762 465.022 1065.73 465.113 1065.806 465.565 C 1065.88 466.005 1065.981 466.125 1066.661 466.573 C 1067.658 467.228 1067.704 467.219 1067.55 466.401 C 1067.505 466.16 1067.538 465.585 1067.622 465.121 C 1067.766 464.332 1067.822 464.233 1068.499 463.59 C 1069.374 462.759 1072.069 461 1072.935 460.694 C 1073.278 460.572 1073.956 460.357 1074.44 460.215 L 1075.323 459.955 L 1075.716 458.243 L 1076.11 456.528 L 1075.411 455.846 L 1074.714 455.162 Z M 1062.704 460.526 C 1062.597 460.528 1062.475 460.537 1062.323 460.553 C 1061.708 460.617 1061.564 460.686 1061.183 461.108 C 1060.943 461.373 1060.747 461.672 1060.747 461.77 C 1060.747 461.88 1061.022 462.025 1061.466 462.151 C 1061.861 462.262 1062.241 462.373 1062.31 462.399 C 1062.59 462.502 1062.804 462.45 1063.386 462.133 C 1063.895 461.856 1063.997 461.742 1063.997 461.448 C 1063.997 461.173 1063.888 461.026 1063.511 460.787 C 1063.198 460.59 1063.026 460.521 1062.704 460.526 L 1062.704 460.526 Z M 1080.628 499.463 C 1079.962 499.463 1078.611 499.742 1078.456 499.987 C 1078.358 500.143 1078.446 500.393 1078.855 501.077 C 1079.265 501.767 1079.448 501.965 1079.671 501.965 C 1079.915 501.965 1079.98 501.867 1080.107 501.309 C 1080.189 500.948 1080.423 500.433 1080.626 500.162 C 1080.83 499.892 1080.997 499.625 1080.997 499.569 C 1080.997 499.495 1080.85 499.463 1080.628 499.463 Z M 1073.593 501.412 C 1073.523 501.482 1073.593 502.96 1073.695 503.434 C 1073.742 503.661 1073.793 503.691 1073.968 503.588 C 1074.087 503.518 1074.626 503.272 1075.165 503.041 L 1076.146 502.621 L 1075.331 502.536 C 1074.556 502.453 1074.496 502.421 1074.087 501.897 C 1073.851 501.594 1073.629 501.376 1073.593 501.412 L 1073.593 501.412 Z M 1071.56 502.735 L 1070.81 503.448 C 1070.397 503.84 1069.87 504.307 1069.638 504.485 L 1069.216 504.807 L 1070.2 505.192 C 1070.742 505.403 1071.227 505.578 1071.277 505.582 C 1071.418 505.594 1071.486 505.129 1071.525 503.881 L 1071.56 502.735 Z M 1099.532 508.825 L 1099.122 509.235 L 1098.712 509.645 L 1098.386 509.254 L 1098.06 508.862 L 1097.372 509.475 C 1096.632 510.134 1096.376 510.23 1094.747 510.475 L 1093.685 510.635 L 1095.56 511.039 C 1096.591 511.262 1097.604 511.448 1097.81 511.453 C 1098.248 511.465 1101.247 511.006 1101.339 510.914 C 1101.422 510.832 1100.781 510.038 1100.087 509.364 L 1099.532 508.825 Z" id="Kerry" transform="matrix(0.868562, 0, 0, 0.868562, -911.843872, 13.696216)"/>
</svg>