<?xml version="1.0" encoding="utf-8"?>
<svg viewBox="265.236 252.687 47.729 69.246" width="47.729" height="69.246" xmlns="http://www.w3.org/2000/svg">
  <path style="opacity:1;fill:#cb85f9;fill-opacity:1;stroke:none;stroke-width:0.0625;stroke-linecap:round;stroke-linejoin:round;stroke-miterlimit:4;stroke-dasharray:none;stroke-dashoffset:0;stroke-opacity:1" d="M 1384.378 354.37 C 1383.835 353.996 1383.496 353.632 1383.126 353.026 C 1382.776 352.454 1382.417 352.059 1381.974 351.757 L 1381.33 351.32 L 1381.33 349.106 L 1381.33 346.893 L 1380.47 346.198 L 1379.61 345.503 L 1379.339 344.422 C 1379.19 343.827 1378.954 343.181 1378.816 342.987 C 1378.627 342.722 1378.54 342.326 1378.469 341.406 C 1378.417 340.731 1378.332 340.111 1378.28 340.027 C 1378.184 339.871 1376.549 339.007 1376.35 339.007 C 1376.288 339.007 1375.946 339.24 1375.589 339.524 C 1374.989 340.001 1374.915 340.029 1374.604 339.886 C 1374.419 339.8 1373.432 339.515 1372.411 339.252 C 1371.39 338.988 1370.539 338.755 1370.52 338.734 C 1370.501 338.712 1370.34 338.404 1370.161 338.05 C 1369.944 337.616 1369.595 337.214 1369.1 336.825 L 1368.362 336.245 L 1368.524 335.407 C 1368.63 334.858 1369.165 333.515 1370.079 331.507 L 1371.471 328.445 L 1371.134 325.257 C 1370.893 322.984 1370.742 322.007 1370.608 321.853 C 1370.504 321.733 1370.159 321.468 1369.84 321.264 L 1369.262 320.892 L 1368.015 321.082 C 1367.299 321.191 1366.17 321.257 1365.363 321.237 C 1364.429 321.215 1363.911 321.252 1363.815 321.348 C 1363.736 321.427 1363.591 321.958 1363.492 322.529 C 1363.393 323.099 1363.294 323.585 1363.271 323.609 C 1363.114 323.765 1362.15 322.904 1359.564 320.297 L 1356.611 317.32 L 1356.39 315.945 C 1356.147 314.428 1355.967 313.93 1355.511 313.501 C 1355.294 313.297 1355.205 313.08 1355.205 312.753 L 1355.205 312.292 L 1356.407 312.203 C 1357.414 312.129 1357.946 311.997 1359.688 311.39 L 1361.768 310.664 L 1364.643 310.719 C 1367.919 310.782 1371.402 310.544 1371.591 310.244 C 1371.651 310.148 1371.801 309.631 1371.922 309.094 L 1372.143 308.119 L 1372.905 307.693 C 1374.056 307.049 1374.058 307.044 1373.586 305.912 C 1373.364 305.38 1373.144 304.904 1373.097 304.854 C 1373.05 304.804 1372.229 304.649 1371.273 304.508 C 1370.316 304.368 1369.517 304.236 1369.496 304.215 C 1369.475 304.194 1369.725 303.88 1370.051 303.518 C 1370.448 303.077 1370.971 302.688 1371.639 302.34 L 1372.634 301.82 L 1372.856 301.07 C 1373.167 300.014 1373.145 299.861 1372.567 299.13 C 1371.903 298.29 1371.984 298.125 1373.43 297.381 C 1374.506 296.826 1374.52 296.813 1374.686 296.189 C 1374.834 295.628 1374.918 295.523 1375.434 295.251 C 1376.395 294.744 1376.455 294.641 1376.455 293.499 C 1376.455 292.945 1376.404 292.396 1376.342 292.279 C 1376.28 292.163 1375.666 291.682 1374.979 291.211 L 1373.729 290.354 L 1373.401 289.456 C 1373.119 288.684 1372.937 288.421 1372.108 287.598 L 1371.143 286.639 L 1369.893 286.388 C 1368.655 286.139 1368.637 286.13 1368.041 285.478 C 1367.462 284.846 1367.442 284.798 1367.52 284.267 C 1367.578 283.875 1367.7 283.639 1367.935 283.457 C 1368.877 282.732 1368.955 282.59 1368.96 281.611 L 1368.96 280.695 L 1370.565 279.507 L 1372.169 278.32 L 1373.091 276.767 C 1373.997 275.241 1374.35 274.824 1374.237 275.413 C 1374.2 275.605 1374.371 276.024 1374.736 276.643 C 1375.18 277.393 1375.309 277.747 1375.38 278.409 L 1375.469 279.237 L 1376.304 279.979 C 1376.763 280.387 1377.373 280.84 1377.66 280.987 C 1378.134 281.228 1378.196 281.317 1378.338 281.947 C 1378.58 283.03 1378.579 283.029 1380.477 283.257 L 1382.159 283.459 L 1383.618 284.251 L 1385.076 285.043 L 1385.076 285.531 C 1385.076 285.868 1384.916 286.31 1384.562 286.956 C 1384.107 287.785 1384.04 288.013 1383.983 288.938 L 1383.918 289.983 L 1384.403 290.289 C 1385.579 291.031 1385.892 291.128 1387.54 291.26 C 1388.419 291.331 1389.483 291.419 1389.904 291.456 L 1390.67 291.524 L 1390.817 292.434 C 1390.898 292.935 1391.129 293.695 1391.332 294.125 L 1391.701 294.905 L 1391.326 295.359 C 1391.12 295.61 1390.951 295.886 1390.951 295.974 C 1390.951 296.062 1391.382 296.781 1391.908 297.571 L 1392.865 299.007 L 1394.699 299.007 C 1395.708 299.007 1397.145 298.921 1397.894 298.816 L 1399.254 298.625 L 1399.97 299.348 L 1400.685 300.07 L 1400.027 301.699 C 1399.358 303.356 1398.239 307.474 1398.367 307.807 C 1398.405 307.906 1399.007 308.273 1399.705 308.622 C 1400.91 309.225 1401.024 309.257 1401.962 309.257 C 1402.507 309.257 1403.673 309.398 1404.562 309.572 C 1405.772 309.808 1406.257 309.855 1406.503 309.761 C 1406.817 309.642 1406.845 309.667 1407.141 310.338 C 1407.312 310.723 1407.451 311.113 1407.451 311.203 C 1407.451 311.293 1407.144 311.582 1406.768 311.844 C 1406.155 312.271 1406.027 312.445 1405.518 313.539 C 1405.206 314.21 1404.951 314.806 1404.951 314.864 C 1404.951 315.15 1405.546 315.39 1407.171 315.758 C 1408.757 316.117 1409.017 316.146 1409.53 316.016 C 1409.847 315.937 1410.124 315.889 1410.146 315.91 C 1410.167 315.932 1410.156 316.483 1410.112 317.135 L 1410.039 318.32 L 1408.813 319.381 C 1408.139 319.965 1407.368 320.549 1407.099 320.679 C 1406.831 320.809 1406.521 321.062 1406.411 321.242 C 1406.3 321.423 1406.161 321.642 1406.103 321.729 C 1406.022 321.851 1403.561 322.377 1403.052 322.382 C 1403.004 322.382 1402.705 322.747 1402.387 323.192 C 1401.623 324.263 1400.253 325.117 1398.658 325.517 C 1398.054 325.668 1397.494 325.859 1397.412 325.941 C 1397.331 326.022 1397.073 327.108 1396.838 328.353 L 1396.412 330.617 L 1395.651 331.361 C 1395.029 331.968 1394.769 332.132 1394.231 332.256 C 1393.502 332.425 1393.392 332.555 1393.266 333.391 C 1393.191 333.892 1393.22 334.01 1393.504 334.347 L 1393.827 334.731 L 1393.046 335.454 L 1392.265 336.176 L 1392.224 337.625 L 1392.183 339.074 L 1394.529 342.322 C 1396.704 345.332 1397.034 345.874 1397.247 346.775 C 1397.317 347.071 1397.272 347.127 1396.826 347.306 C 1396.552 347.416 1396.324 347.52 1396.32 347.538 C 1396.32 347.555 1396.264 348.239 1396.205 349.056 L 1396.096 350.542 L 1395.537 351.119 C 1395.23 351.436 1394.865 351.922 1394.727 352.199 C 1394.519 352.614 1393.519 353.545 1392.877 353.919 C 1392.801 353.963 1392.552 353.86 1392.322 353.691 C 1391.979 353.438 1391.758 353.382 1391.098 353.382 C 1390.307 353.382 1390.278 353.395 1389.452 354.07 C 1388.447 354.892 1388.027 354.964 1387.64 354.379 C 1387.467 354.118 1387.202 353.945 1386.783 353.82 C 1386.035 353.596 1385.803 353.699 1385.531 354.379 C 1385.42 354.656 1385.284 354.882 1385.229 354.882 C 1385.174 354.882 1384.794 354.652 1384.384 354.37 L 1384.378 354.37 Z" id="Kildare South" transform="matrix(0.868562, 0, 0, 0.868562, -911.843872, 13.696216)"/>
</svg>