<?xml version="1.0" encoding="utf-8"?>
<svg viewBox="282.704 251.101 37.28 36.186" width="37.28" height="36.186" xmlns="http://www.w3.org/2000/svg">
  <path style="opacity:1;fill:#cb85f9;fill-opacity:1;stroke:none;stroke-width:0.0625;stroke-linecap:round;stroke-linejoin:round;stroke-miterlimit:4;stroke-dasharray:none;stroke-dashoffset:0;stroke-opacity:1" d="M 1407.446 314.725 C 1406.862 314.586 1406.367 314.459 1406.347 314.443 C 1406.327 314.427 1406.444 314.111 1406.608 313.74 C 1406.852 313.189 1407.068 312.949 1407.801 312.414 C 1408.463 311.931 1408.695 311.687 1408.692 311.478 C 1408.682 311.071 1407.654 308.735 1407.414 308.584 C 1407.274 308.495 1407.027 308.504 1406.61 308.61 C 1406.094 308.743 1405.84 308.73 1404.821 308.521 C 1404.168 308.388 1403.099 308.243 1402.446 308.199 C 1401.483 308.135 1401.1 308.046 1400.415 307.727 C 1399.951 307.511 1399.571 307.258 1399.571 307.164 C 1399.571 306.617 1400.558 303.225 1401.139 301.779 C 1401.514 300.844 1401.821 299.988 1401.821 299.878 C 1401.821 299.702 1399.708 297.507 1399.538 297.507 C 1399.502 297.507 1398.638 297.619 1397.616 297.756 C 1396.595 297.893 1395.246 298.006 1394.618 298.006 L 1393.478 298.007 L 1392.819 297.004 L 1392.16 296 L 1392.412 295.722 C 1392.97 295.11 1392.973 294.987 1392.462 293.93 C 1392.147 293.276 1391.929 292.589 1391.815 291.887 C 1391.719 291.298 1391.556 290.741 1391.447 290.632 C 1391.294 290.479 1390.695 290.399 1388.761 290.27 C 1386.472 290.118 1386.224 290.078 1385.674 289.775 C 1385.093 289.455 1385.075 289.427 1385.074 288.865 C 1385.074 288.414 1385.199 288.045 1385.648 287.202 C 1386.212 286.142 1386.223 286.101 1386.138 285.312 C 1386.09 284.868 1385.974 284.428 1385.88 284.333 C 1385.786 284.239 1384.985 283.766 1384.102 283.283 C 1382.557 282.438 1382.448 282.4 1381.253 282.265 C 1379.407 282.058 1379.517 282.113 1379.286 281.283 C 1379.099 280.61 1379.036 280.527 1378.465 280.217 C 1378.125 280.031 1377.531 279.615 1377.146 279.292 C 1376.467 278.72 1376.447 278.685 1376.447 278.072 C 1376.447 277.548 1376.35 277.274 1375.882 276.475 L 1375.317 275.51 L 1375.823 274.505 C 1376.506 273.147 1376.688 273.072 1377.679 273.745 L 1378.438 274.261 L 1379.523 274.138 C 1380.851 273.987 1381.276 274.155 1381.391 274.878 C 1381.43 275.121 1381.484 275.434 1381.512 275.573 C 1381.54 275.713 1381.916 276.073 1382.348 276.374 C 1382.781 276.676 1383.409 277.226 1383.745 277.597 C 1384.27 278.178 1384.656 278.424 1386.495 279.344 C 1388.386 280.291 1388.749 280.429 1389.619 280.535 C 1390.4 280.629 1390.635 280.62 1390.758 280.487 C 1390.843 280.395 1391.098 279.77 1391.326 279.097 C 1391.719 277.938 1391.781 277.839 1392.523 277.187 L 1393.306 276.5 L 1395.818 276.841 L 1398.329 277.182 L 1398.812 277.813 C 1399.227 278.356 1399.442 278.505 1400.34 278.871 C 1401.588 279.38 1401.633 279.415 1402.334 280.445 C 1402.637 280.889 1402.979 281.285 1403.095 281.324 C 1403.211 281.362 1404.172 281.139 1405.231 280.826 C 1407.15 280.26 1407.158 280.259 1407.738 280.457 C 1408.132 280.591 1408.487 280.844 1408.832 281.238 C 1409.114 281.558 1409.417 281.861 1409.506 281.912 C 1409.643 281.989 1411.011 281.632 1411.119 281.491 C 1411.138 281.466 1411.44 281.097 1411.789 280.671 L 1412.424 279.897 L 1413.668 280.689 C 1415.358 281.764 1415.302 281.739 1416.406 281.889 C 1418.1 282.119 1417.947 281.996 1417.947 283.129 L 1417.947 284.12 L 1417.146 284.568 C 1416.706 284.814 1416.286 285.087 1416.213 285.175 C 1416.14 285.263 1415.967 285.823 1415.827 286.421 L 1415.574 287.507 L 1415.909 288.189 C 1416.233 288.851 1416.238 288.891 1416.058 289.471 L 1415.873 290.07 L 1414.639 290.382 L 1413.405 290.695 L 1412.728 291.903 C 1411.964 293.268 1411.968 293.366 1412.803 293.875 C 1413.302 294.179 1413.304 294.183 1413.236 294.813 C 1413.174 295.378 1413.087 295.526 1412.42 296.21 C 1411.933 296.71 1411.688 297.058 1411.716 297.21 C 1411.744 297.364 1412.209 297.677 1413.055 298.113 L 1414.351 298.781 L 1413.842 299.3 L 1413.334 299.82 L 1413.433 300.545 C 1413.487 300.944 1413.611 301.345 1413.708 301.435 C 1413.805 301.526 1414.531 301.694 1415.322 301.809 C 1417.478 302.124 1417.983 302.292 1418.158 302.756 C 1418.287 303.098 1418.274 303.157 1418.031 303.31 C 1416.289 304.404 1415.553 304.91 1415.498 305.055 C 1415.461 305.15 1415.526 305.553 1415.641 305.95 L 1415.851 306.672 L 1415.437 307.527 L 1415.023 308.382 L 1413.829 308.384 C 1413.172 308.385 1412.577 308.428 1412.508 308.478 C 1412.309 308.622 1411.374 309.79 1411.215 310.094 C 1411.086 310.338 1411.152 310.458 1411.826 311.219 C 1412.509 311.987 1412.576 312.112 1412.519 312.507 C 1412.456 312.945 1412.349 313.064 1410.985 314.211 C 1410.463 314.649 1409.442 315.017 1408.822 314.991 C 1408.65 314.984 1408.031 314.864 1407.447 314.725 L 1407.446 314.725 Z" id="Kildare North" transform="matrix(0.868562, 0, 0, 0.868562, -911.843872, 13.696216)"/>
</svg>