<?xml version="1.0" encoding="utf-8"?>
<svg viewBox="205.032 255.308 81.974 76.296" width="81.974" height="76.296" xmlns="http://www.w3.org/2000/svg">
  <path style="opacity:1;fill:#e0e600;fill-opacity:1;stroke:none;stroke-width:0.0625;stroke-linecap:round;stroke-linejoin:round;stroke-miterlimit:4;stroke-dasharray:none;stroke-dashoffset:0;stroke-opacity:1" d="M 1318.181 364.374 C 1317.355 362.859 1317.27 362.633 1317.086 361.457 C 1316.976 360.755 1316.852 360.093 1316.811 359.984 C 1316.769 359.875 1316.402 359.695 1315.986 359.579 C 1315.18 359.355 1315.046 359.213 1314.356 357.852 L 1314.039 357.226 L 1314.532 356.542 L 1315.025 355.857 L 1315 354.607 C 1314.977 353.448 1315.01 353.261 1315.444 352.028 L 1315.914 350.699 L 1317.226 349.753 C 1318.452 348.869 1318.588 348.727 1319.277 347.608 C 1319.999 346.435 1320.165 345.902 1319.865 345.717 C 1319.783 345.666 1318.981 345.557 1318.084 345.475 C 1317.022 345.378 1316.204 345.231 1315.742 345.055 L 1315.032 344.783 L 1314.575 343.412 C 1314.31 342.618 1314.031 341.997 1313.91 341.936 C 1313.796 341.878 1313.252 341.761 1312.702 341.677 C 1311.815 341.54 1311.646 341.469 1311.202 341.049 C 1310.505 340.388 1307.926 339.042 1307.378 339.053 C 1306.736 339.067 1306.609 339.152 1305.674 340.201 C 1305.199 340.734 1304.363 341.504 1303.816 341.912 C 1302.944 342.562 1302.769 342.762 1302.402 343.52 L 1301.983 344.385 L 1302.452 345.277 C 1302.861 346.055 1302.899 346.197 1302.75 346.388 C 1302.656 346.509 1302.1 347.17 1301.513 347.857 C 1300.926 348.545 1300.198 349.416 1299.894 349.795 C 1299.59 350.173 1298.958 350.884 1298.49 351.375 C 1298.023 351.866 1297.639 352.316 1297.638 352.375 C 1297.638 352.434 1297.587 352.56 1297.527 352.654 C 1297.442 352.788 1297.142 352.629 1296.17 351.935 C 1295.484 351.445 1294.83 351.045 1294.716 351.045 C 1294.345 351.045 1293.515 351.655 1293.515 351.928 C 1293.515 352.069 1293.883 352.701 1294.333 353.333 C 1294.875 354.095 1295.131 354.566 1295.094 354.732 C 1294.994 355.181 1294.273 356.807 1294.01 357.176 L 1293.754 357.536 L 1293.077 357.205 C 1292.179 356.764 1292.073 356.497 1292.232 355.076 C 1292.299 354.474 1292.315 353.907 1292.267 353.814 C 1292.219 353.722 1291.411 353.313 1290.472 352.906 C 1289.205 352.356 1288.657 352.048 1288.347 351.71 L 1287.931 351.256 L 1288.147 350.197 L 1288.363 349.139 L 1287.689 348.405 C 1287 347.655 1286.893 347.326 1287.094 346.576 C 1287.19 346.216 1287.255 346.222 1287.978 346.647 C 1288.665 347.051 1290.727 347.574 1291.018 347.418 C 1291.123 347.362 1291.624 346.659 1292.13 345.855 L 1293.052 344.395 L 1292.974 343.028 L 1292.896 341.661 L 1292.018 340.619 C 1291.245 339.701 1291.14 339.516 1291.14 339.068 C 1291.14 338.716 1291.227 338.462 1291.422 338.246 L 1291.703 337.934 L 1293.066 338.172 C 1293.815 338.304 1294.479 338.379 1294.541 338.341 C 1294.744 338.216 1295.765 336.749 1295.765 336.583 C 1295.765 336.495 1295.487 336.115 1295.147 335.74 C 1294.807 335.364 1294.461 334.831 1294.379 334.555 C 1294.241 334.097 1294.264 333.951 1294.639 332.892 C 1294.865 332.254 1295.103 331.665 1295.168 331.582 C 1295.233 331.499 1295.536 331.394 1295.843 331.348 C 1296.811 331.203 1296.882 331.078 1297.035 329.232 C 1297.15 327.84 1297.222 327.502 1297.537 326.877 C 1297.87 326.218 1297.918 325.963 1298.035 324.232 C 1298.107 323.171 1298.117 322.234 1298.059 322.131 C 1297.81 321.694 1294.364 319.221 1291.766 317.613 C 1288.122 315.359 1285.891 313.915 1285.891 313.812 C 1285.891 313.767 1285.996 313.664 1286.124 313.584 C 1286.253 313.503 1286.62 312.984 1286.94 312.429 C 1287.26 311.874 1287.541 311.42 1287.563 311.42 C 1287.586 311.42 1288.347 311.306 1289.256 311.166 C 1290.727 310.941 1291.042 310.846 1292.132 310.299 L 1293.356 309.685 L 1293.983 308.128 L 1294.61 306.57 L 1294.128 305.292 C 1293.862 304.589 1293.575 303.928 1293.489 303.825 C 1293.403 303.721 1292.769 303.25 1292.08 302.779 C 1291.166 302.153 1290.609 301.655 1290.016 300.934 C 1289.354 300.13 1289.01 299.838 1288.166 299.362 C 1287.388 298.923 1287.144 298.725 1287.19 298.567 C 1287.223 298.452 1287.29 298.02 1287.337 297.607 C 1287.418 296.906 1287.471 296.81 1288.15 296.123 C 1288.75 295.517 1288.9 295.278 1289.01 294.748 C 1289.084 294.396 1289.232 293.705 1289.339 293.215 L 1289.535 292.322 L 1290.681 292.107 C 1292.049 291.851 1292.266 291.672 1292.266 290.794 L 1292.266 290.196 L 1293.375 290.108 C 1293.985 290.06 1294.611 289.956 1294.766 289.876 C 1294.925 289.795 1295.335 289.192 1295.712 288.487 C 1296.359 287.276 1296.398 287.232 1297.165 286.844 L 1297.953 286.446 L 1298.453 286.808 C 1298.728 287.007 1299.178 287.458 1299.453 287.81 C 1299.883 288.359 1300.102 288.51 1301.016 288.881 C 1301.984 289.275 1302.154 289.307 1302.938 289.239 C 1303.634 289.179 1303.94 289.077 1304.544 288.705 L 1305.289 288.244 L 1308.059 288.439 L 1310.828 288.633 L 1312.391 287.961 C 1313.779 287.364 1314.06 287.188 1314.912 286.386 C 1315.858 285.495 1315.873 285.472 1315.947 284.74 C 1316.012 284.105 1316.138 283.819 1316.816 282.767 C 1317.462 281.763 1317.777 281.41 1318.521 280.853 C 1319.394 280.2 1319.468 280.17 1320.195 280.17 C 1320.846 280.17 1321.047 280.11 1321.58 279.759 C 1322.081 279.429 1322.289 279.361 1322.641 279.415 C 1323.022 279.474 1323.115 279.563 1323.361 280.107 C 1323.897 281.289 1323.942 281.344 1324.59 281.594 C 1325.216 281.836 1325.225 281.848 1325.805 283.128 C 1326.291 284.2 1326.446 284.739 1326.724 286.325 L 1327.059 288.232 L 1328.631 290.387 C 1329.65 291.784 1330.305 292.57 1330.492 292.621 C 1330.708 292.681 1330.879 292.609 1331.162 292.342 C 1331.529 291.994 1331.539 291.956 1331.467 291.159 C 1331.426 290.707 1331.356 290.155 1331.312 289.933 L 1331.231 289.529 L 1331.776 289.568 C 1332.318 289.607 1332.321 289.61 1332.525 290.288 C 1332.638 290.663 1332.836 291.036 1332.966 291.118 C 1333.096 291.2 1333.639 291.329 1334.173 291.405 C 1335.015 291.525 1335.189 291.595 1335.492 291.934 C 1335.835 292.318 1335.855 292.323 1336.637 292.233 C 1337.334 292.152 1337.504 292.076 1338.005 291.62 C 1338.32 291.334 1338.679 291.022 1338.803 290.927 C 1338.926 290.832 1340.023 290.579 1341.24 290.364 L 1343.453 289.975 L 1344.964 287.978 C 1346.448 286.019 1346.489 285.977 1347.21 285.718 C 1347.891 285.474 1348.062 285.322 1349.542 283.656 C 1350.441 282.643 1351.14 281.748 1351.142 281.607 C 1351.142 281.47 1351.186 281.295 1351.236 281.22 C 1351.288 281.141 1352.186 281.014 1353.327 280.924 C 1355.442 280.757 1355.742 280.664 1356.859 279.834 C 1357.23 279.558 1357.265 279.474 1357.265 278.851 C 1357.265 278.476 1357.307 278.172 1357.359 278.175 C 1358.014 278.213 1360.936 278.934 1361.181 279.119 C 1361.355 279.25 1362.622 280.313 1363.997 281.482 L 1366.497 283.607 L 1366.436 284.107 C 1366.402 284.382 1366.348 284.738 1366.315 284.898 C 1366.268 285.129 1366.451 285.389 1367.209 286.168 L 1368.162 287.147 L 1369.37 287.372 C 1370.566 287.594 1370.585 287.603 1371.348 288.33 C 1372.018 288.967 1372.164 289.194 1372.463 290.051 L 1372.806 291.038 L 1374.036 291.877 L 1375.265 292.717 L 1375.265 293.412 L 1375.265 294.107 L 1374.611 294.487 C 1374.03 294.825 1373.937 294.939 1373.776 295.503 C 1373.597 296.128 1373.577 296.148 1372.572 296.646 C 1371.69 297.083 1371.506 297.233 1371.223 297.739 C 1371.042 298.062 1370.895 298.412 1370.895 298.518 C 1370.895 298.623 1371.125 299.015 1371.407 299.388 C 1371.875 300.007 1371.913 300.114 1371.841 300.595 C 1371.764 301.109 1371.734 301.137 1370.797 301.599 C 1369.988 301.997 1369.704 302.227 1369.039 303.019 C 1368.28 303.923 1368.248 303.987 1368.324 304.473 C 1368.367 304.753 1368.484 305.044 1368.584 305.119 C 1368.683 305.194 1369.483 305.353 1370.361 305.472 C 1371.239 305.591 1372.05 305.714 1372.163 305.745 C 1372.352 305.799 1372.74 306.501 1372.63 306.593 C 1372.604 306.615 1372.301 306.793 1371.957 306.989 C 1371.614 307.185 1371.291 307.404 1371.241 307.476 C 1371.191 307.548 1371.061 308.007 1370.951 308.496 L 1370.752 309.385 L 1369.917 309.486 C 1369.458 309.542 1367.339 309.601 1365.207 309.617 L 1361.332 309.646 L 1359.395 310.33 C 1357.74 310.914 1357.239 311.036 1355.964 311.159 C 1355.143 311.239 1354.398 311.365 1354.308 311.44 C 1354.059 311.646 1354.084 313.589 1354.338 313.8 C 1354.863 314.235 1355.065 314.743 1355.349 316.337 L 1355.641 317.977 L 1358.737 321.074 C 1361.322 323.661 1361.973 324.245 1362.685 324.62 C 1363.279 324.932 1363.629 325.044 1363.839 324.992 C 1364.153 324.913 1364.165 324.883 1364.395 323.607 C 1364.659 322.138 1364.48 322.29 1365.929 322.302 C 1366.632 322.308 1367.614 322.247 1368.112 322.169 C 1368.961 322.035 1369.041 322.043 1369.393 322.294 C 1369.6 322.441 1369.771 322.656 1369.773 322.772 C 1369.773 322.888 1369.911 324.188 1370.075 325.662 L 1370.374 328.342 L 1370.017 329.05 C 1368.887 331.289 1367.533 334.583 1367.406 335.404 C 1367.2 336.727 1367.189 336.695 1368.134 337.433 C 1368.805 337.957 1369.076 338.269 1369.349 338.837 C 1369.543 339.238 1369.791 339.614 1369.902 339.673 C 1370.012 339.732 1370.914 339.985 1371.905 340.234 C 1372.896 340.483 1373.953 340.796 1374.254 340.928 C 1375 341.257 1375.141 341.238 1375.809 340.718 C 1376.234 340.386 1376.464 340.286 1376.673 340.342 C 1377.265 340.5 1377.324 340.615 1377.407 341.789 C 1377.471 342.696 1377.548 343.013 1377.796 343.389 C 1377.966 343.646 1378.203 344.279 1378.324 344.795 C 1378.444 345.31 1378.569 345.828 1378.6 345.945 C 1378.632 346.061 1379.02 346.442 1379.464 346.79 L 1380.27 347.424 L 1380.27 349.141 C 1380.27 351.134 1380.231 351.332 1379.82 351.552 C 1379.324 351.818 1379.321 352.189 1379.81 352.874 L 1380.246 353.482 L 1380.177 356.616 L 1380.108 359.75 L 1379.319 360.822 C 1378.391 362.083 1378.692 361.992 1375.019 362.117 C 1373.502 362.168 1372.621 362.249 1372.457 362.352 C 1372.319 362.439 1372.044 362.85 1371.846 363.265 C 1371.161 364.699 1370.594 364.534 1370.035 362.74 C 1369.843 362.125 1369.607 361.578 1369.509 361.524 C 1369.411 361.469 1369.096 361.367 1368.809 361.295 C 1368.414 361.197 1368.218 361.054 1368.008 360.715 C 1367.734 360.271 1367.721 360.266 1367.087 360.34 C 1366.733 360.382 1366.272 360.45 1366.062 360.492 C 1365.681 360.569 1365.68 360.567 1364.928 359.013 C 1364.182 357.469 1364.175 357.443 1364.034 355.844 C 1363.881 354.112 1363.793 353.92 1363.151 353.919 C 1362.892 353.919 1362.766 353.794 1362.487 353.259 C 1362.128 352.572 1360.471 351.02 1360.015 350.943 C 1359.887 350.922 1359.33 351.026 1358.779 351.175 C 1357.839 351.428 1357.754 351.48 1357.429 351.994 C 1357.111 352.497 1356.972 352.585 1355.772 353.05 C 1355.052 353.329 1354.42 353.625 1354.368 353.707 C 1354.316 353.79 1354.272 354.261 1354.271 354.755 C 1354.271 355.543 1354.221 355.731 1353.876 356.286 C 1353.659 356.635 1353.467 356.92 1353.448 356.92 C 1353.43 356.92 1352.844 356.583 1352.146 356.171 C 1351.067 355.534 1350.71 355.391 1349.765 355.218 C 1349.153 355.106 1348.573 355.045 1348.476 355.083 C 1348.379 355.12 1347.814 355.861 1347.222 356.728 L 1346.144 358.306 L 1346.144 359.929 C 1346.144 361.882 1346.066 361.976 1345.203 361.053 C 1344.877 360.705 1344.505 360.42 1344.376 360.42 C 1344.247 360.42 1343.864 360.603 1343.525 360.826 C 1342.931 361.217 1342.89 361.283 1342.42 362.607 L 1341.932 363.982 L 1340.723 363.941 L 1339.515 363.901 L 1338.564 364.66 L 1337.612 365.42 L 1336.587 365.42 C 1335.645 365.42 1335.538 365.393 1335.26 365.095 C 1334.621 364.411 1334.197 364.235 1331.529 363.549 L 1328.841 362.857 L 1328.046 361.826 C 1327.6 361.247 1327.157 360.795 1327.038 360.795 C 1326.92 360.795 1326.067 361.237 1325.14 361.777 L 1323.457 362.76 L 1323.296 363.621 C 1323 365.207 1323.146 365.045 1322.014 365.045 C 1321.101 365.045 1320.93 365.087 1320.047 365.531 L 1319.081 366.017 L 1318.181 364.374 Z" id="Laois Offaly" transform="matrix(0.868562, 0, 0, 0.868562, -911.843872, 13.696216)"/>
</svg>