<?xml version="1.0" encoding="utf-8"?>
<svg viewBox="109.148 344.504 87.599 48.037" width="87.599" height="48.037" xmlns="http://www.w3.org/2000/svg">
  <path style="opacity:1;fill:#ff4d66;fill-opacity:1;stroke:none;stroke-width:0.0625;stroke-linecap:round;stroke-linejoin:round;stroke-miterlimit:4;stroke-dasharray:none;stroke-dashoffset:0;stroke-opacity:1" d="M 1247.234 435.982 L 1245.783 435.778 L 1243.965 434.12 C 1242.373 432.669 1242.055 432.435 1241.416 432.24 C 1240.693 432.02 1240.68 432.007 1240.06 430.947 C 1239.442 429.887 1238.221 428.207 1237.78 427.808 C 1237.655 427.694 1236.964 427.443 1236.246 427.25 C 1234.988 426.912 1234.93 426.882 1234.655 426.401 C 1234.498 426.127 1234.111 425.103 1233.795 424.126 C 1233.479 423.149 1233.142 422.284 1233.046 422.204 C 1232.912 422.093 1232.617 422.105 1231.796 422.256 C 1230.948 422.411 1230.556 422.56 1229.944 422.959 C 1229.293 423.384 1229.064 423.465 1228.528 423.465 C 1228.176 423.465 1227.745 423.411 1227.57 423.344 C 1227.395 423.278 1226.538 422.687 1225.667 422.032 C 1224.796 421.377 1223.964 420.84 1223.818 420.84 C 1223.673 420.84 1223.113 421.01 1222.575 421.217 C 1221.755 421.533 1221.42 421.758 1220.515 422.602 C 1219.921 423.155 1219.206 423.745 1218.926 423.911 C 1218.471 424.181 1218.386 424.312 1218.124 425.148 L 1217.83 426.084 L 1216.632 426.478 C 1215.974 426.695 1215.35 426.946 1215.247 427.035 C 1215.144 427.125 1214.778 427.735 1214.435 428.391 L 1213.81 429.584 L 1212.767 430.034 C 1211.956 430.384 1211.182 430.578 1209.273 430.911 C 1207.793 431.169 1206.748 431.411 1206.637 431.522 C 1206.477 431.682 1206.493 431.889 1206.775 433.218 L 1207.095 434.732 L 1206.788 434.849 C 1206.619 434.913 1206.434 434.965 1206.376 434.965 C 1206.318 434.965 1205.79 434.075 1205.201 432.988 L 1204.13 431.01 L 1201.407 429.939 C 1199.034 429.006 1198.532 428.852 1197.497 428.74 C 1196.484 428.63 1196.132 428.526 1195.101 428.026 C 1194.299 427.638 1193.833 427.477 1193.714 427.547 C 1193.616 427.605 1192.717 428.586 1191.717 429.726 C 1189.994 431.69 1189.818 431.85 1188.377 432.774 C 1187.501 433.336 1186.811 433.703 1186.748 433.639 C 1186.688 433.578 1186.209 432.727 1185.682 431.747 C 1185.156 430.768 1184.669 429.932 1184.6 429.89 C 1184.531 429.847 1183.442 429.495 1182.178 429.108 L 1179.88 428.403 L 1178.391 426.721 C 1177.099 425.263 1176.92 425.009 1177.043 424.808 C 1177.121 424.68 1177.846 424.064 1178.653 423.438 C 1180.283 422.176 1180.259 422.222 1180 420.855 C 1179.896 420.309 1179.723 420.03 1178.86 419.022 C 1177.613 417.564 1177.613 417.503 1178.872 416.056 C 1179.354 415.503 1179.747 414.937 1179.747 414.8 C 1179.747 414.662 1179.269 413.913 1178.685 413.135 L 1177.622 411.721 L 1177.622 410.931 C 1177.622 410.174 1177.643 410.121 1178.124 409.651 C 1178.4 409.382 1179.055 408.441 1179.578 407.559 L 1180.531 405.958 L 1180.441 404.379 C 1180.391 403.511 1180.304 402.683 1180.247 402.539 C 1180.19 402.395 1179.52 401.521 1178.758 400.596 L 1177.372 398.913 L 1177.372 397.876 L 1177.372 396.838 L 1176.435 396.374 L 1175.497 395.911 L 1175.497 395.146 C 1175.497 394.452 1175.544 394.316 1176.004 393.673 C 1176.283 393.284 1176.565 392.965 1176.63 392.965 C 1176.695 392.965 1177.243 393.323 1177.846 393.759 C 1178.449 394.195 1179.062 394.616 1179.207 394.694 C 1179.452 394.825 1180.627 394.754 1182.078 394.522 C 1182.335 394.481 1183.375 393.768 1185.078 392.465 L 1187.685 390.471 L 1190.352 390.468 L 1193.019 390.465 L 1194.704 388.871 C 1196.084 387.566 1196.473 387.265 1196.85 387.208 C 1197.184 387.158 1197.757 386.792 1198.938 385.876 L 1200.566 384.612 L 1202.563 384.861 L 1204.56 385.11 L 1207.291 383.787 L 1210.023 382.465 L 1213.375 382.465 L 1216.727 382.465 L 1219.025 381.666 L 1221.323 380.868 L 1222.61 381.916 C 1223.318 382.493 1224.005 382.965 1224.137 382.965 C 1224.27 382.965 1224.841 382.731 1225.406 382.446 L 1226.435 381.927 L 1227.682 382.081 C 1228.369 382.165 1229.015 382.282 1229.118 382.34 C 1229.222 382.398 1229.567 383.075 1229.885 383.844 L 1230.463 385.242 L 1230.042 386.537 C 1229.811 387.25 1229.622 388.014 1229.622 388.235 C 1229.622 388.51 1229.827 388.949 1230.263 389.614 C 1230.968 390.688 1231.064 390.732 1231.997 390.402 C 1232.29 390.299 1232.574 390.215 1232.629 390.215 C 1232.684 390.215 1232.915 390.538 1233.143 390.934 C 1233.539 391.622 1233.555 391.7 1233.514 392.749 C 1233.487 393.438 1233.524 393.909 1233.612 394.016 C 1233.689 394.109 1234.518 394.401 1235.454 394.665 L 1237.154 395.145 L 1237.546 394.678 L 1237.937 394.212 L 1238.686 394.347 C 1239.418 394.479 1239.467 394.514 1240.904 395.94 L 1242.372 397.399 L 1242.372 398.596 C 1242.372 399.753 1242.384 399.805 1242.734 400.14 C 1242.999 400.394 1243.374 400.549 1244.14 400.722 C 1245.664 401.067 1245.795 401.044 1246.925 400.236 C 1247.86 399.568 1247.927 399.488 1248.113 398.827 C 1248.361 397.943 1248.939 397.092 1249.296 397.085 C 1250.066 397.069 1252.532 396.73 1252.637 396.626 C 1252.704 396.559 1252.818 396.116 1252.891 395.641 C 1253.061 394.535 1253.238 394.199 1253.243 394.972 C 1253.253 395.732 1253.451 395.977 1254.13 396.05 C 1254.559 396.096 1254.895 396.022 1255.608 395.725 C 1256.116 395.513 1256.551 395.34 1256.575 395.34 C 1256.599 395.34 1256.965 395.934 1257.388 396.659 C 1258.125 397.923 1258.174 397.977 1258.546 397.94 C 1258.935 397.902 1258.935 397.902 1259.06 396.874 C 1259.175 395.929 1259.219 395.818 1259.603 395.498 C 1259.98 395.184 1260.028 395.07 1260.087 394.332 C 1260.147 393.58 1260.12 393.457 1259.748 392.799 L 1259.344 392.083 L 1259.621 391.344 C 1259.902 390.591 1259.881 390.408 1259.477 390.116 C 1259.266 389.964 1259.273 389.922 1259.612 389.378 C 1259.9 388.916 1260.164 388.701 1260.951 388.29 L 1261.932 387.777 L 1262.799 386.064 C 1263.524 384.632 1263.719 384.34 1263.988 384.287 C 1264.165 384.252 1264.828 384.132 1265.462 384.02 L 1266.615 383.815 L 1267.38 382.578 C 1268.376 380.966 1268.639 380.933 1269.111 382.362 C 1269.262 382.821 1269.454 383.25 1269.536 383.315 C 1269.618 383.381 1270.032 383.56 1270.457 383.713 L 1271.229 383.992 L 1272.361 383.731 C 1273.482 383.473 1274.249 383.485 1274.246 383.762 C 1274.236 384.251 1273.661 385.586 1273.016 386.596 C 1272.277 387.755 1272.259 387.805 1272.066 389.201 L 1271.869 390.624 L 1272.356 391.527 L 1272.843 392.431 L 1272.496 392.979 C 1272.305 393.281 1271.862 393.807 1271.511 394.148 C 1271.16 394.489 1270.872 394.855 1270.872 394.96 C 1270.872 395.066 1270.98 395.435 1271.111 395.779 C 1271.347 396.401 1271.346 396.434 1271.053 399.717 C 1270.89 401.538 1270.754 403.091 1270.752 403.169 C 1270.752 403.246 1270.49 403.521 1270.175 403.779 L 1269.603 404.248 L 1269.077 403.731 C 1268.778 403.439 1268.43 403.215 1268.272 403.215 C 1268.12 403.215 1267.475 403.33 1266.84 403.47 L 1265.685 403.725 L 1264.722 404.751 C 1263.834 405.698 1263.759 405.751 1263.753 405.436 C 1263.753 405.171 1263.584 404.965 1263.029 404.529 C 1262.633 404.219 1262.195 403.965 1262.055 403.965 C 1261.585 403.965 1259.4 404.713 1259.329 404.898 C 1259.29 404.999 1259.22 405.508 1259.173 406.03 L 1259.087 406.978 L 1258.573 407.238 C 1257.494 407.784 1257.407 407.891 1257.244 408.872 C 1257.065 409.946 1256.98 410.133 1256.405 410.736 L 1255.967 411.194 L 1256.236 412.978 C 1256.384 413.959 1256.564 414.833 1256.636 414.92 C 1256.708 415.006 1257.081 415.255 1257.465 415.471 L 1258.162 415.864 L 1259.137 415.713 L 1260.112 415.561 L 1260.586 415.932 C 1261.007 416.263 1261.19 416.314 1262.232 416.39 C 1263.376 416.474 1263.441 416.496 1264.863 417.283 L 1266.321 418.089 L 1266.469 419.261 C 1266.55 419.905 1266.652 420.522 1266.694 420.631 C 1266.86 421.063 1267.221 420.984 1268.271 420.285 L 1269.31 419.594 L 1270.139 419.671 L 1270.968 419.748 L 1271.041 420.575 C 1271.081 421.03 1271.152 421.937 1271.197 422.59 C 1271.279 423.766 1271.287 423.789 1272.026 424.997 C 1272.512 425.791 1272.866 426.238 1273.041 426.279 C 1273.189 426.314 1273.832 426.447 1274.471 426.576 C 1275.111 426.705 1275.659 426.835 1275.69 426.866 C 1275.721 426.898 1275.798 427.199 1275.861 427.537 L 1275.976 428.152 L 1275.174 429.229 C 1274.733 429.821 1274.372 430.363 1274.372 430.432 C 1274.372 430.501 1274.794 431.135 1275.309 431.84 C 1276.115 432.942 1276.247 433.194 1276.248 433.637 C 1276.249 433.921 1276.283 434.355 1276.324 434.603 C 1276.393 435.02 1276.364 435.074 1275.931 435.342 L 1275.464 435.631 L 1274.188 434.996 L 1272.912 434.362 L 1270.902 434.324 L 1268.892 434.287 L 1268.271 434.868 C 1267.868 435.245 1267.49 435.478 1267.192 435.534 C 1266.765 435.614 1266.704 435.584 1266.272 435.082 C 1265.893 434.641 1265.725 434.249 1265.343 432.917 C 1265.087 432.023 1264.803 431.217 1264.712 431.126 C 1264.525 430.939 1261.976 430.221 1261.497 430.22 C 1261.325 430.22 1260.753 430.496 1260.225 430.835 C 1259.34 431.402 1259.256 431.492 1259.159 431.985 C 1259.063 432.469 1258.943 432.605 1257.879 433.429 C 1257.233 433.93 1256.616 434.344 1256.507 434.349 C 1256.398 434.354 1255.465 434.399 1254.433 434.449 L 1252.556 434.54 L 1251.033 435.377 C 1249.332 436.313 1249.456 436.293 1247.234 435.981 L 1247.234 435.982 Z" id="Limerick County" transform="matrix(0.868562, 0, 0, 0.868562, -911.843872, 13.696216)"/>
</svg>