<?xml version="1.0" encoding="utf-8"?>
<svg viewBox="156.836 331.933 31.949 29.019" width="31.949" height="29.019" xmlns="http://www.w3.org/2000/svg">
  <path style="opacity:1;fill:#cb85f9;fill-opacity:1;stroke:none;stroke-width:0.0625;stroke-linecap:round;stroke-linejoin:round;stroke-miterlimit:4;stroke-dasharray:none;stroke-dashoffset:0;stroke-opacity:1" d="M 1244.294 399.656 C 1243.941 399.57 1243.59 399.46 1243.512 399.412 C 1243.424 399.358 1243.371 398.872 1243.369 398.114 L 1243.369 396.903 L 1241.691 395.198 L 1240.012 393.494 L 1238.864 393.283 C 1237.551 393.041 1237.239 393.082 1237.002 393.525 C 1236.796 393.908 1236.721 393.911 1235.552 393.571 L 1234.625 393.302 L 1234.625 392.314 C 1234.625 391.341 1234.615 391.31 1233.93 390.146 C 1233.465 389.356 1233.162 388.965 1233.012 388.965 C 1232.89 388.965 1232.481 389.071 1232.105 389.201 L 1231.42 389.436 L 1231.085 388.907 C 1230.901 388.615 1230.75 388.232 1230.75 388.055 C 1230.75 387.879 1230.95 387.177 1231.195 386.496 L 1231.639 385.258 L 1231.02 383.752 L 1230.401 382.246 L 1231.355 382.083 C 1232.388 381.906 1232.379 381.912 1234.313 380.078 C 1235.253 379.185 1235.537 379.087 1235.981 379.501 C 1236.472 379.96 1240.329 382.59 1240.509 382.59 C 1240.594 382.59 1240.951 382.375 1241.301 382.111 C 1242.227 381.413 1242.325 381.378 1243.586 381.28 C 1244.413 381.215 1244.785 381.132 1244.914 380.984 C 1245.013 380.871 1245.161 380.3 1245.241 379.715 C 1245.451 378.2 1245.389 378.287 1246.431 378.042 C 1246.941 377.921 1247.428 377.74 1247.512 377.638 C 1247.605 377.526 1247.749 376.399 1247.879 374.761 C 1248.03 372.858 1248.144 372.023 1248.265 371.913 C 1248.36 371.827 1249.384 371.065 1250.541 370.219 L 1252.644 368.682 L 1253.401 368.761 C 1254.114 368.835 1254.236 368.806 1255.462 368.258 C 1256.698 367.707 1256.781 367.645 1257.068 367.08 C 1257.234 366.752 1257.426 366.449 1257.493 366.407 C 1257.561 366.365 1257.83 366.44 1258.092 366.573 C 1258.472 366.767 1258.613 366.943 1258.797 367.456 C 1259.064 368.198 1259.181 368.278 1260.171 368.398 C 1260.574 368.447 1260.855 368.53 1260.796 368.583 C 1260.737 368.635 1260.322 368.823 1259.875 369 C 1259.428 369.176 1258.518 369.577 1257.852 369.89 L 1256.641 370.46 L 1256.56 371.001 C 1256.515 371.299 1256.498 371.708 1256.521 371.91 L 1256.563 372.278 L 1257.751 372.342 C 1258.757 372.396 1258.891 372.427 1258.626 372.545 C 1258.454 372.621 1258.116 372.724 1257.876 372.774 C 1257.635 372.824 1257.304 372.95 1257.14 373.054 C 1256.854 373.236 1256.844 373.286 1256.918 374.24 C 1256.981 375.064 1257.074 375.384 1257.453 376.086 C 1257.899 376.912 1257.949 376.956 1259.254 377.7 L 1260.595 378.465 L 1262.359 378.465 L 1264.123 378.465 L 1264.483 379.258 C 1264.68 379.694 1264.932 380.085 1265.042 380.127 C 1265.152 380.17 1265.663 380.242 1266.177 380.289 C 1266.814 380.347 1267.134 380.431 1267.181 380.553 C 1267.219 380.652 1266.96 381.207 1266.606 381.787 C 1266.252 382.366 1265.957 382.841 1265.95 382.841 C 1265.272 382.888 1263.027 383.386 1262.938 383.509 C 1262.869 383.604 1262.448 384.408 1262.001 385.295 L 1261.188 386.909 L 1260.182 387.452 C 1259.512 387.814 1259.099 388.127 1258.949 388.387 C 1258.824 388.602 1258.558 389.067 1258.358 389.42 L 1257.993 390.062 L 1258.322 390.453 C 1258.646 390.838 1258.648 390.853 1258.451 391.345 C 1258.174 392.038 1258.196 392.247 1258.626 393.009 C 1258.871 393.443 1258.999 393.843 1258.996 394.163 C 1258.996 394.593 1258.926 394.701 1258.453 395.048 L 1257.915 395.443 L 1257.554 394.824 C 1257.355 394.484 1257.079 394.178 1256.94 394.144 C 1256.802 394.111 1256.22 394.281 1255.647 394.524 C 1255.075 394.767 1254.554 394.965 1254.491 394.965 C 1254.428 394.965 1254.376 394.444 1254.376 393.806 C 1254.376 392.958 1254.324 392.571 1254.181 392.368 C 1253.824 391.859 1253.556 392.018 1252.748 393.22 C 1252.151 394.107 1251.972 394.485 1251.913 394.98 C 1251.824 395.727 1251.755 395.767 1250.313 395.891 C 1248.378 396.057 1248.443 396.03 1247.821 396.95 C 1247.513 397.405 1247.199 398.032 1247.124 398.342 C 1247.003 398.835 1246.895 398.965 1246.265 399.373 C 1245.494 399.872 1245.297 399.901 1244.297 399.656 L 1244.294 399.656 Z" id="Limerick City" transform="matrix(0.868562, 0, 0, 0.868562, -911.843872, 13.696216)"/>
</svg>