<?xml version="1.0" encoding="utf-8"?>
<svg viewBox="207.452 192.595 69.36 73.963" width="69.36" height="73.963" xmlns="http://www.w3.org/2000/svg">
  <path style="opacity:1;fill:#cb85f9;fill-opacity:1;stroke:none;stroke-width:0.0625;stroke-linecap:round;stroke-linejoin:round;stroke-miterlimit:4;stroke-dasharray:none;stroke-dashoffset:0;stroke-opacity:1" d="M 1335.882 290.802 C 1335.609 290.502 1335.428 290.436 1334.668 290.36 C 1334.177 290.311 1333.725 290.205 1333.664 290.126 C 1333.603 290.047 1333.482 289.718 1333.394 289.395 C 1333.151 288.495 1332.986 288.403 1331.687 288.446 L 1330.579 288.482 L 1330.362 288.92 C 1330.2 289.247 1330.165 289.53 1330.22 290.045 C 1330.306 290.851 1330.358 290.89 1329.084 289.192 L 1328.117 287.902 L 1327.763 285.942 C 1327.448 284.201 1327.331 283.818 1326.713 282.507 L 1326.018 281.032 L 1325.343 280.734 C 1324.693 280.446 1324.655 280.402 1324.317 279.54 C 1323.92 278.53 1323.803 278.449 1322.572 278.334 C 1321.844 278.266 1321.781 278.283 1321.178 278.716 C 1320.613 279.122 1320.465 279.17 1319.764 279.17 C 1318.995 279.17 1318.961 279.184 1317.881 279.989 C 1316.883 280.731 1316.692 280.945 1315.835 282.282 C 1314.982 283.612 1314.89 283.817 1314.89 284.378 C 1314.89 284.985 1314.87 285.017 1314.102 285.696 C 1313.516 286.213 1312.974 286.537 1311.982 286.961 L 1310.649 287.53 L 1307.85 287.33 L 1305.05 287.13 L 1304.295 287.589 C 1303.879 287.841 1303.275 288.097 1302.951 288.157 C 1302.433 288.254 1302.251 288.221 1301.431 287.879 C 1300.666 287.559 1300.453 287.406 1300.236 287.02 C 1300.091 286.762 1299.644 286.321 1299.243 286.04 C 1298.843 285.759 1298.514 285.518 1298.514 285.505 C 1298.514 285.493 1298.432 285.02 1298.333 284.455 C 1298.165 283.499 1298.096 283.354 1297.334 282.342 C 1296.883 281.745 1296.513 281.195 1296.512 281.119 C 1296.512 281.044 1296.404 279.932 1296.274 278.648 C 1296.052 276.44 1296.019 276.283 1295.663 275.766 L 1295.286 275.218 L 1295.201 271.288 C 1295.134 268.16 1295.043 266.731 1294.757 264.293 L 1294.397 261.228 L 1293.697 259.918 C 1293.29 259.157 1292.283 257.668 1291.295 256.367 L 1289.594 254.127 L 1289.372 252.82 C 1289.249 252.101 1289.029 251.153 1288.883 250.713 C 1288.62 249.922 1288.619 249.895 1288.822 247.948 L 1289.027 245.982 L 1290.82 244.198 L 1292.613 242.414 L 1292.813 241.323 C 1292.947 240.591 1293.085 240.182 1293.232 240.081 C 1293.353 239.997 1294.014 239.547 1294.702 239.081 L 1295.952 238.232 L 1296.014 236.92 L 1296.076 235.607 L 1296.826 235.501 C 1297.238 235.442 1297.643 235.375 1297.724 235.351 C 1297.806 235.328 1298.188 234.859 1298.573 234.31 C 1299.111 233.542 1299.456 233.195 1300.066 232.81 L 1300.86 232.308 L 1301.016 231.211 C 1301.162 230.182 1301.21 230.067 1301.78 229.362 C 1302.401 228.595 1302.438 228.466 1302.287 227.627 C 1302.204 227.164 1302.152 227.122 1300.826 226.439 L 1299.451 225.732 L 1299.289 224.732 C 1299.143 223.836 1299.074 223.68 1298.632 223.227 C 1298.36 222.95 1298.138 222.621 1298.138 222.496 C 1298.138 222.293 1298.218 222.279 1298.919 222.354 C 1299.661 222.434 1300.023 222.638 1300.161 223.051 C 1300.185 223.122 1300.609 223.283 1301.103 223.411 C 1302.236 223.702 1302.342 223.636 1302.706 222.405 L 1302.978 221.482 L 1303.617 222.754 C 1303.968 223.453 1304.308 224.058 1304.373 224.097 C 1304.568 224.218 1308.808 223.553 1308.988 223.374 C 1309.079 223.282 1309.492 221.638 1309.905 219.72 L 1310.657 216.232 L 1311.491 215.378 C 1312.325 214.525 1312.326 214.524 1312.906 214.589 C 1313.262 214.629 1313.558 214.597 1313.673 214.506 C 1313.986 214.257 1316.768 210.164 1316.974 209.648 C 1317.08 209.383 1317.326 209.053 1317.521 208.914 C 1317.716 208.775 1318.163 208.129 1318.515 207.478 C 1318.923 206.725 1319.232 206.292 1319.365 206.287 C 1319.481 206.283 1320.273 206.21 1321.126 206.125 L 1322.676 205.971 L 1323.076 206.851 C 1323.296 207.336 1323.687 208.306 1323.944 209.008 C 1324.201 209.71 1324.485 210.345 1324.575 210.419 C 1324.665 210.494 1325.095 210.608 1325.532 210.674 C 1325.968 210.74 1326.508 210.825 1326.732 210.863 L 1327.138 210.931 L 1327.138 211.942 L 1327.138 212.952 L 1326.327 213.879 C 1325.88 214.389 1325.485 214.93 1325.448 215.081 C 1325.216 216.041 1324.918 217.852 1324.97 217.988 C 1325.069 218.247 1325.294 218.284 1326.909 218.303 C 1328.096 218.317 1328.464 218.282 1328.568 218.144 C 1329.158 217.359 1329.245 217.302 1330.279 217.028 L 1331.331 216.75 L 1332.475 217.519 C 1333.104 217.942 1333.648 218.388 1333.684 218.51 C 1333.719 218.632 1333.818 219.469 1333.903 220.369 C 1334.055 221.974 1334.052 222.014 1333.785 222.388 C 1333.636 222.599 1333.515 222.846 1333.518 222.939 C 1333.518 223.031 1333.8 223.501 1334.138 223.982 L 1334.754 224.857 L 1336.665 225.692 L 1338.576 226.528 L 1339.013 227.554 C 1339.254 228.118 1339.538 228.635 1339.644 228.702 C 1339.785 228.791 1340.493 228.583 1342.258 227.934 C 1343.59 227.445 1344.734 227.045 1344.8 227.045 C 1344.866 227.045 1345.884 227.559 1347.061 228.187 L 1349.201 229.33 L 1349.933 230.509 L 1350.665 231.687 L 1350.58 232.483 C 1350.504 233.192 1350.45 233.313 1350.079 233.596 C 1349.803 233.807 1349.367 233.962 1348.776 234.06 C 1348.288 234.14 1347.828 234.28 1347.753 234.369 C 1347.679 234.459 1347.554 234.906 1347.476 235.363 L 1347.333 236.194 L 1346.605 236.561 C 1346.205 236.764 1345.844 237.014 1345.804 237.118 C 1345.72 237.337 1345.965 238.672 1346.117 238.823 C 1346.173 238.879 1346.636 238.994 1347.147 239.078 C 1348.076 239.232 1348.076 239.232 1348.246 239.732 L 1348.417 240.232 L 1347.597 241.67 C 1346.894 242.903 1346.572 243.311 1345.333 244.543 C 1344.538 245.332 1343.888 246.075 1343.888 246.193 C 1343.888 246.383 1348.925 251.005 1349.76 251.581 C 1350.001 251.748 1350.357 251.796 1351.385 251.802 C 1352.109 251.806 1353.098 251.85 1353.582 251.899 C 1354.348 251.976 1354.538 252.048 1355.031 252.452 C 1355.409 252.762 1355.646 253.078 1355.744 253.403 C 1355.824 253.671 1355.968 253.955 1356.064 254.035 C 1356.16 254.115 1356.756 254.244 1357.389 254.321 L 1358.54 254.463 L 1359.901 256.031 L 1361.263 257.598 L 1361.263 258.5 C 1361.263 259.087 1361.321 259.46 1361.431 259.569 C 1361.523 259.662 1362.325 259.954 1363.212 260.218 C 1364.1 260.483 1364.863 260.735 1364.908 260.778 C 1364.953 260.822 1365.141 261.862 1365.324 263.091 C 1365.508 264.32 1365.686 265.389 1365.719 265.466 C 1365.753 265.544 1366.169 265.904 1366.644 266.267 C 1367.282 266.755 1367.64 267.152 1368.02 267.791 L 1368.533 268.655 L 1368.238 269.693 C 1367.951 270.704 1367.928 270.739 1367.39 270.994 C 1366.926 271.214 1366.754 271.407 1366.327 272.182 L 1365.818 273.107 L 1365.009 273.205 C 1364.565 273.259 1363.444 273.315 1362.519 273.33 L 1360.836 273.357 L 1360.473 273.994 C 1360.136 274.584 1360.011 274.679 1358.74 275.306 C 1357.228 276.052 1357.08 276.173 1356.955 276.763 C 1356.908 276.987 1356.793 277.17 1356.7 277.17 C 1356.329 277.17 1356.138 277.554 1356.138 278.302 C 1356.138 279.025 1356.127 279.048 1355.653 279.348 C 1355.229 279.615 1354.88 279.682 1352.934 279.863 C 1351.706 279.978 1350.606 280.122 1350.49 280.183 C 1350.366 280.249 1350.245 280.52 1350.198 280.835 C 1350.129 281.295 1349.914 281.605 1348.746 282.929 C 1347.487 284.356 1347.311 284.507 1346.578 284.795 C 1345.799 285.099 1345.749 285.148 1344.505 286.795 C 1343.805 287.723 1343.124 288.6 1342.994 288.744 C 1342.802 288.955 1342.343 289.075 1340.604 289.366 L 1338.451 289.727 L 1337.746 290.391 C 1336.864 291.223 1336.364 291.333 1335.88 290.802 L 1335.882 290.802 Z" id="Longford Westmeath" transform="matrix(0.868562, 0, 0, 0.868562, -911.843872, 13.696216)"/>
</svg>