<?xml version="1.0" encoding="utf-8"?>
<svg viewBox="303.507 171.455 40.542 56.962" width="40.542" height="56.962" xmlns="http://www.w3.org/2000/svg">
  <path style="opacity:1;fill:#e0e600;fill-opacity:1;stroke:none;stroke-width:0.0625;stroke-linecap:round;stroke-linejoin:round;stroke-miterlimit:4;stroke-dasharray:none;stroke-dashoffset:0;stroke-opacity:1" d="M 1429.927 246.821 L 1429.357 246.376 L 1429.27 245.098 C 1429.221 244.384 1429.116 243.752 1429.032 243.667 C 1428.949 243.582 1428.364 243.189 1427.732 242.792 C 1426.863 242.245 1426.468 241.905 1426.108 241.391 C 1425.661 240.751 1425.579 240.696 1424.672 240.421 L 1423.711 240.129 L 1422.956 239.1 L 1422.201 238.07 L 1422.201 236.855 C 1422.201 235.827 1422.165 235.624 1421.98 235.528 C 1421.86 235.465 1420.953 235.315 1419.966 235.194 C 1418.579 235.025 1418.048 234.906 1417.629 234.671 C 1417.137 234.396 1417.096 234.338 1417.202 234.062 C 1417.428 233.467 1417.687 233.062 1418.303 232.338 C 1418.898 231.64 1418.933 231.558 1419.072 230.526 C 1419.152 229.931 1419.233 229.389 1419.253 229.32 C 1419.323 229.079 1419.066 228.766 1418.332 228.201 C 1417.454 227.526 1417.421 227.523 1415.021 227.931 L 1413.281 228.226 L 1412.388 227.684 L 1411.495 227.142 L 1411.341 225.981 C 1411.252 225.31 1411.109 224.741 1411.002 224.634 C 1410.9 224.531 1410.496 224.419 1410.104 224.384 L 1409.391 224.32 L 1408.951 222.354 L 1408.511 220.388 L 1407.913 219.783 L 1407.316 219.178 L 1407.444 218.062 C 1407.669 216.097 1407.701 216.214 1406.464 214.542 L 1405.355 213.043 L 1404.621 212.956 C 1404.031 212.886 1403.511 212.666 1401.989 211.843 C 1400.42 210.995 1400.015 210.717 1399.646 210.233 C 1399.048 209.451 1399.134 209.257 1400.079 209.257 C 1400.479 209.257 1400.946 209.205 1401.115 209.14 C 1401.453 209.012 1403.316 206.809 1403.504 206.315 C 1403.608 206.043 1403.554 205.935 1403.072 205.443 L 1402.522 204.882 L 1402.559 203.238 C 1402.591 201.814 1402.641 201.478 1402.928 200.727 C 1403.244 199.905 1403.3 199.839 1404.019 199.436 L 1404.777 199.01 L 1405.351 199.79 C 1405.905 200.544 1405.962 200.583 1407.062 200.972 C 1407.689 201.193 1408.289 201.339 1408.398 201.298 C 1408.506 201.256 1408.879 200.626 1409.226 199.896 C 1409.802 198.688 1409.878 198.42 1410.086 196.882 C 1410.441 194.247 1410.465 194.386 1409.449 193.259 C 1408.838 192.581 1408.463 192.024 1408.199 191.405 C 1407.993 190.919 1407.823 190.494 1407.823 190.461 C 1407.823 190.429 1408.034 190.335 1408.292 190.253 C 1408.55 190.172 1409.183 189.874 1409.698 189.592 L 1410.636 189.079 L 1412.335 189.01 L 1414.034 188.942 L 1414.96 188.204 C 1415.469 187.798 1415.958 187.411 1416.046 187.343 C 1416.388 187.08 1417.108 187.468 1417.626 188.195 C 1417.896 188.573 1418.209 188.882 1418.322 188.882 C 1418.434 188.882 1419.026 188.714 1419.636 188.507 C 1420.438 188.236 1420.98 188.132 1421.595 188.132 C 1422.387 188.132 1422.554 188.079 1424.02 187.351 L 1425.594 186.57 L 1425.569 184.82 C 1425.528 181.941 1425.547 181.63 1425.755 181.71 C 1425.856 181.749 1426.084 182.03 1426.264 182.336 C 1426.443 182.643 1426.814 183.055 1427.088 183.254 L 1427.586 183.615 L 1428.236 183.422 C 1428.699 183.285 1429.147 183.001 1429.798 182.431 C 1430.301 181.992 1430.755 181.632 1430.808 181.632 C 1431.114 181.632 1433.398 183.448 1436.068 185.813 C 1438.714 188.158 1439.195 188.64 1439.647 189.402 C 1439.934 189.886 1440.246 190.357 1440.34 190.449 C 1440.434 190.541 1441.326 190.98 1442.323 191.423 L 1444.135 192.228 L 1445.039 193.712 C 1445.536 194.527 1445.944 195.252 1445.945 195.322 C 1445.945 195.391 1445.203 196.19 1444.292 197.096 L 1442.635 198.744 L 1440.26 198.514 C 1438.033 198.299 1437.777 198.246 1436.135 197.675 C 1434.482 197.098 1434.249 196.974 1431.919 195.411 C 1430.563 194.502 1429.381 193.758 1429.294 193.76 C 1429.028 193.764 1427.297 194.598 1427.183 194.777 C 1427.125 194.869 1427.076 195.194 1427.075 195.498 C 1427.075 195.912 1426.731 196.891 1425.717 199.373 L 1424.361 202.695 L 1424.526 205.888 L 1424.691 209.081 L 1425.57 210.638 C 1426.445 212.188 1426.452 212.196 1427.197 212.532 C 1427.781 212.796 1428.298 212.903 1429.541 213.02 C 1431.124 213.169 1431.142 213.174 1432.081 213.763 C 1432.602 214.089 1433.558 214.546 1434.206 214.779 L 1435.385 215.203 L 1435.371 216.14 C 1435.359 216.978 1435.303 217.183 1434.845 218.074 L 1434.332 219.07 L 1434.421 221 L 1434.51 222.93 L 1435.946 223.289 C 1436.735 223.487 1437.397 223.665 1437.416 223.683 C 1437.435 223.702 1437.361 224.191 1437.251 224.769 C 1437.119 225.463 1436.81 226.349 1436.339 227.382 L 1435.627 228.945 L 1435.774 233.632 L 1435.92 238.32 L 1436.669 241.07 C 1437.081 242.582 1437.459 243.918 1437.509 244.039 C 1437.589 244.231 1437.519 244.257 1436.938 244.257 C 1436.573 244.257 1435.955 244.324 1435.562 244.405 C 1434.858 244.55 1434.846 244.548 1434.549 244.203 C 1434.253 243.859 1434.239 243.856 1433.546 244 C 1433.159 244.08 1432.782 244.218 1432.709 244.306 C 1432.636 244.394 1432.454 245.033 1432.305 245.726 L 1432.034 246.987 L 1431.585 247.064 C 1431.338 247.106 1430.992 247.169 1430.818 247.203 C 1430.584 247.249 1430.349 247.148 1429.929 246.821 L 1429.927 246.821 Z" id="Louth" transform="matrix(0.868562, 0, 0, 0.868562, -911.843872, 13.696216)"/>
</svg>