<?xml version="1.0" encoding="utf-8"?>
<svg viewBox="50.188 142.376 116.953 95.421" width="116.953" height="95.421" xmlns="http://www.w3.org/2000/svg">
  <path style="opacity:1;fill:#cb85f9;fill-opacity:1;stroke:none;stroke-width:0.0625;stroke-linecap:round;stroke-linejoin:round;stroke-miterlimit:4;stroke-dasharray:none;stroke-dashoffset:0;stroke-opacity:1" d="M 1144.542 148.153 L 1142.31 149.024 L 1140.077 149.893 L 1139.866 151 C 1139.75 151.609 1139.648 152.198 1139.648 152.309 C 1139.648 152.42 1140.188 152.965 1140.859 153.522 C 1141.965 154.441 1142.202 154.578 1143.435 155.008 L 1144.792 155.483 L 1146.169 156.983 C 1146.927 157.808 1147.821 158.675 1148.156 158.91 C 1148.851 159.401 1148.97 159.795 1148.421 159.791 C 1148.232 159.79 1147.521 159.712 1146.841 159.616 C 1145.457 159.419 1145.784 159.634 1143.39 157.332 L 1142.452 156.432 L 1140.755 156.696 L 1139.058 156.959 L 1138.724 159.563 L 1138.388 162.168 L 1138.816 163.233 L 1139.245 164.295 L 1138.777 164.889 C 1138.014 165.852 1138.286 165.801 1134.906 165.616 C 1133.125 165.518 1131.813 165.394 1131.734 165.315 C 1131.66 165.24 1131.599 164.945 1131.589 164.659 L 1131.577 164.135 L 1132.79 163.68 L 1134.003 163.223 L 1135.134 161.926 C 1135.78 161.185 1136.264 160.517 1136.265 160.368 C 1136.266 160.224 1136.304 159.801 1136.349 159.426 L 1136.431 158.743 L 1135.581 159.35 L 1134.731 159.955 L 1133.626 159.602 L 1132.519 159.248 L 1132.323 158.553 C 1132.215 158.17 1132.045 157.567 1131.946 157.213 C 1131.778 156.616 1131.66 156.483 1130.296 155.346 C 1129.488 154.673 1128.536 153.877 1128.181 153.577 L 1127.534 153.03 L 1127.218 153.569 C 1126.928 154.061 1126.673 154.229 1124.239 155.53 C 1122.775 156.312 1121.56 156.966 1121.54 156.983 C 1121.52 157 1121.367 158.104 1121.2 159.436 C 1120.954 161.408 1120.929 161.881 1121.061 161.983 C 1121.15 162.051 1121.518 162.373 1121.878 162.698 L 1122.534 163.287 L 1122.431 164.254 L 1122.327 165.221 L 1120.89 166.045 L 1119.452 166.868 L 1119.247 169.987 L 1119.042 173.108 L 1117.897 175.67 L 1116.751 178.233 L 1116.852 180.106 L 1116.952 181.979 L 1118.282 182.696 L 1119.611 183.414 L 1120.161 183.227 C 1120.668 183.054 1120.752 182.962 1121.183 182.09 C 1121.619 181.209 1121.637 181.124 1121.458 180.875 C 1120.885 180.076 1120.897 180.233 1121.263 178.295 C 1121.513 176.97 1121.626 175.896 1121.681 174.305 C 1121.733 172.791 1121.801 172.099 1121.907 172.034 C 1121.991 171.981 1122.526 171.87 1123.093 171.785 C 1123.66 171.701 1124.175 171.598 1124.238 171.557 C 1124.301 171.516 1124.43 170.977 1124.527 170.358 L 1124.702 169.233 L 1125.534 168.799 C 1126.623 168.233 1126.89 167.738 1126.89 166.285 L 1126.89 165.282 L 1127.296 165.118 C 1128.299 164.712 1128.208 164.665 1129.786 166.407 C 1130.736 167.455 1131.591 168.256 1132.253 168.723 C 1132.81 169.115 1133.265 169.516 1133.265 169.614 C 1133.265 169.711 1132.846 170.116 1132.333 170.512 C 1131.821 170.908 1131.398 171.317 1131.398 171.42 C 1131.398 171.523 1131.529 172.703 1131.697 174.043 C 1132.023 176.664 1131.96 176.495 1132.861 177.151 C 1133.172 177.378 1133.181 177.413 1133.036 177.895 C 1132.788 178.723 1131.588 180.057 1130.601 180.6 L 1129.747 181.069 L 1129.835 183.276 C 1129.883 184.489 1129.979 185.552 1130.048 185.639 C 1130.117 185.726 1130.448 185.999 1130.783 186.244 L 1131.39 186.692 L 1132.546 186.541 C 1133.598 186.404 1133.788 186.335 1134.648 185.78 L 1135.593 185.168 L 1136.824 182.608 L 1138.054 180.045 L 1138.759 180.045 C 1139.351 180.045 1139.55 180.106 1139.99 180.43 L 1140.515 180.817 L 1140.515 182.473 L 1140.515 184.129 L 1138.343 186.371 C 1136.364 188.414 1136.15 188.679 1135.943 189.336 L 1135.714 190.059 L 1136.415 191.465 L 1137.115 192.869 L 1138.242 193.612 C 1139.323 194.323 1139.388 194.394 1139.835 195.311 C 1140.092 195.837 1140.269 196.351 1140.23 196.453 C 1140.191 196.556 1139.849 196.817 1139.47 197.034 C 1138.604 197.529 1138.421 197.958 1138.646 198.963 L 1138.796 199.635 L 1141.312 199.723 C 1142.695 199.772 1143.876 199.859 1143.935 199.916 C 1143.995 199.975 1143.909 200.756 1143.744 201.672 L 1143.445 203.321 L 1143.749 205.631 C 1144.009 207.6 1144.029 207.958 1143.878 208.053 C 1143.608 208.223 1143.49 207.987 1142.628 205.561 L 1141.839 203.336 L 1140.363 202.36 L 1138.888 201.383 L 1136.804 202.119 L 1134.722 202.858 L 1134.378 204.137 C 1134.15 204.989 1133.783 205.901 1133.277 206.866 L 1132.515 208.315 L 1132.515 210.803 L 1132.515 213.291 L 1133.494 213.784 L 1134.474 214.276 L 1137.9 213.313 L 1141.328 212.35 L 1142.847 211.153 L 1144.367 209.953 L 1148.472 209.893 L 1152.578 209.83 L 1154.89 210.381 C 1157.009 210.886 1158.992 211.134 1161.169 211.166 C 1161.289 211.168 1161.521 211.381 1161.687 211.639 C 1161.95 212.049 1162.008 212.359 1162.142 214.108 C 1162.362 216.974 1162.492 216.726 1160.749 216.768 L 1159.296 216.803 L 1158.91 217.893 L 1158.523 218.983 L 1158.701 220.729 C 1158.922 222.906 1158.848 222.826 1160.804 222.987 C 1161.375 223.034 1161.806 223.128 1161.839 223.215 C 1161.895 223.361 1161.436 225.79 1161.333 225.893 C 1161.304 225.922 1160.476 226.004 1159.492 226.077 C 1157.836 226.199 1157.553 226.186 1155.703 225.905 L 1153.703 225.602 L 1150.89 226.067 C 1148.358 226.486 1147.653 226.549 1143.806 226.709 L 1139.535 226.887 L 1138.964 227.354 L 1138.396 227.821 L 1136.548 227.875 C 1134.025 227.951 1133.961 227.965 1133.65 228.493 C 1133.33 229.034 1133.33 229.236 1133.64 230.42 C 1134.053 231.997 1133.989 232.666 1133.265 234.358 L 1132.64 235.817 L 1132.64 237.661 C 1132.64 238.675 1132.677 240.525 1132.722 241.774 L 1132.804 244.045 L 1133.394 244.045 C 1133.982 244.045 1133.986 244.048 1135.198 245.358 C 1135.867 246.08 1136.467 246.67 1136.532 246.67 C 1136.597 246.67 1138.041 247.395 1139.739 248.282 L 1142.827 249.893 L 1146.671 250.049 L 1150.515 250.204 L 1150.983 249.883 C 1151.241 249.707 1151.777 249.406 1152.175 249.213 C 1153.073 248.778 1153.242 248.859 1153.546 249.87 C 1153.668 250.275 1153.794 250.68 1153.827 250.77 C 1153.869 250.885 1154.033 250.817 1154.38 250.538 L 1154.872 250.141 L 1156.413 250.358 C 1157.313 250.484 1158.257 250.701 1158.685 250.879 C 1159.087 251.047 1159.428 251.166 1159.444 251.145 C 1159.46 251.124 1159.647 250.851 1159.858 250.538 C 1160.243 249.968 1161.176 249.045 1161.366 249.045 C 1161.701 249.045 1161.921 249.527 1162.384 251.278 C 1162.663 252.334 1162.915 253.237 1162.944 253.284 C 1162.973 253.33 1163.508 253.531 1164.134 253.731 C 1165.219 254.078 1165.327 254.146 1166.456 255.206 C 1167.107 255.817 1167.64 256.382 1167.64 256.463 C 1167.64 256.545 1167.498 256.822 1167.323 257.079 L 1167.005 257.545 L 1167.667 257.545 C 1168.03 257.545 1169.806 257.458 1171.612 257.352 L 1174.898 257.159 L 1175.655 257.586 L 1176.413 258.014 L 1177.808 257.59 C 1178.575 257.357 1179.329 257.133 1179.482 257.092 C 1179.638 257.051 1179.911 256.759 1180.107 256.424 C 1180.327 256.044 1180.994 255.364 1181.952 254.543 L 1183.452 253.26 L 1183.724 252.284 C 1183.872 251.747 1184.029 251.248 1184.073 251.176 C 1184.193 250.982 1184.841 251.013 1187.89 251.358 L 1190.649 251.67 L 1192.194 250.475 C 1193.63 249.365 1193.803 249.185 1194.646 247.911 C 1195.226 247.032 1195.647 246.521 1195.815 246.487 C 1195.96 246.458 1196.672 246.4 1197.399 246.358 C 1198.512 246.293 1198.749 246.312 1198.886 246.477 C 1198.99 246.602 1199.077 247.244 1199.126 248.252 L 1199.202 249.831 L 1200.14 250.854 L 1201.077 251.879 L 1202.112 251.94 C 1202.778 251.979 1203.213 252.064 1203.329 252.18 C 1203.449 252.3 1203.537 252.786 1203.593 253.633 C 1203.673 254.852 1203.689 254.91 1204.001 255.038 C 1204.25 255.14 1204.503 255.12 1205.083 254.952 C 1205.775 254.751 1205.931 254.634 1206.915 253.577 L 1207.991 252.42 L 1208.577 249.952 C 1208.9 248.594 1209.289 246.977 1209.44 246.358 L 1209.716 245.233 L 1210.583 244.633 C 1211.06 244.304 1211.566 244.004 1211.706 243.969 C 1211.872 243.928 1212.587 244.237 1213.743 244.85 C 1214.723 245.37 1215.568 245.795 1215.622 245.795 C 1215.676 245.795 1216.054 245.542 1216.462 245.235 L 1217.202 244.676 L 1219.202 244.672 L 1221.202 244.666 L 1222.401 243.387 C 1223.372 242.351 1223.641 241.977 1223.821 241.42 C 1223.978 240.935 1224.231 240.539 1224.681 240.076 C 1225.386 239.351 1225.701 239.267 1226.259 239.664 C 1226.448 239.799 1226.834 239.947 1227.116 239.992 C 1227.622 240.073 1227.631 240.067 1227.827 239.578 C 1227.989 239.174 1228.263 238.921 1229.323 238.19 C 1230.581 237.323 1230.629 237.274 1230.819 236.619 C 1230.927 236.248 1231.015 235.882 1231.015 235.807 C 1231.015 235.495 1231.521 235.17 1232.007 235.17 C 1233.076 235.17 1233.05 235.216 1233.362 232.67 C 1233.622 230.554 1233.673 230.339 1234.081 229.61 L 1234.518 228.825 L 1234.161 227.84 L 1233.802 226.858 L 1231.813 225.416 C 1229.693 223.879 1229.502 223.638 1230.038 223.188 C 1230.197 223.054 1230.484 222.812 1230.677 222.651 C 1231.006 222.374 1231.04 222.254 1231.231 220.621 L 1231.434 218.885 L 1232.159 218.371 L 1232.884 217.858 L 1232.857 216.061 C 1232.833 214.495 1232.857 214.247 1233.038 214.129 C 1233.399 213.898 1235.92 214.379 1236.902 214.867 L 1237.728 215.278 L 1238.343 214.541 L 1238.96 213.803 L 1238.847 212.69 L 1238.732 211.575 L 1237.821 211.516 L 1236.911 211.459 L 1235.528 210.293 C 1233.967 208.98 1234.07 209.203 1233.954 206.901 C 1233.871 205.249 1233.881 205.227 1234.821 204.84 C 1235.134 204.712 1235.39 204.578 1235.39 204.541 C 1235.39 204.505 1235.102 204.364 1234.749 204.229 C 1234.008 203.944 1233.841 203.73 1233.652 202.819 C 1233.38 201.508 1233.384 201.5 1234.653 200.666 C 1235.28 200.255 1235.884 199.92 1235.995 199.92 C 1236.106 199.92 1236.592 200.307 1237.075 200.782 L 1237.952 201.645 L 1239.702 202.205 C 1240.665 202.513 1241.631 202.796 1241.849 202.836 L 1242.245 202.909 L 1241.818 201.639 C 1241.582 200.941 1241.39 200.243 1241.39 200.086 C 1241.39 199.93 1241.587 198.979 1241.827 197.973 C 1242.068 196.967 1242.265 196.08 1242.265 196 C 1242.265 195.921 1241.611 195.49 1240.812 195.043 C 1240 194.59 1238.916 193.85 1238.355 193.366 L 1237.351 192.498 L 1236.905 192.756 C 1236.477 193.005 1236.452 193.06 1236.261 194.157 C 1236.152 194.784 1236.009 195.344 1235.944 195.401 C 1235.879 195.458 1235.265 195.956 1234.577 196.506 C 1233.511 197.36 1233.274 197.619 1232.966 198.264 C 1232.669 198.887 1232.538 199.033 1232.232 199.094 C 1231.58 199.225 1230.954 199.176 1230.661 198.971 C 1230.505 198.862 1230.306 198.8 1230.216 198.834 C 1230.126 198.869 1229.789 199.406 1229.468 200.028 L 1228.884 201.159 L 1228.13 201.243 C 1227.468 201.317 1227.338 201.379 1227.056 201.748 L 1226.736 202.17 L 1225.04 202.17 L 1223.347 202.17 L 1222.368 201.666 C 1220.405 200.656 1220.228 200.522 1219.827 199.754 C 1219.576 199.273 1219.356 199.012 1219.157 198.961 C 1218.707 198.846 1218.304 197.829 1218.081 196.239 C 1217.976 195.489 1217.89 194.863 1217.89 194.848 C 1217.89 194.833 1217.699 194.864 1217.466 194.916 C 1217.233 194.969 1216.775 195.216 1216.448 195.465 C 1215.865 195.91 1215.832 195.92 1214.712 195.92 L 1213.571 195.92 L 1212.566 195.006 L 1211.56 194.092 L 1209.515 193.75 C 1208.389 193.563 1207.394 193.348 1207.304 193.274 C 1207.181 193.172 1207.14 192.626 1207.14 191.098 L 1207.14 189.057 L 1209.015 187.539 C 1210.345 186.463 1210.913 185.926 1210.968 185.69 C 1211.01 185.507 1211.192 185.105 1211.372 184.795 C 1211.553 184.486 1211.818 183.811 1211.96 183.295 L 1212.218 182.358 L 1213.273 181.704 C 1213.853 181.344 1214.378 181.032 1214.439 181.01 C 1214.501 180.988 1214.51 180.602 1214.461 180.141 L 1214.373 179.313 L 1213.789 179.022 C 1213.286 178.772 1213.192 178.664 1213.103 178.233 C 1213.046 177.958 1213.028 177.55 1213.062 177.327 C 1213.116 176.973 1213.089 176.919 1212.851 176.918 C 1212.701 176.918 1211.654 176.833 1210.525 176.729 L 1208.47 176.541 L 1207.752 175.856 C 1207.037 175.174 1206.842 175.067 1206.709 175.284 C 1206.67 175.346 1206.37 175.433 1206.039 175.479 L 1205.437 175.561 L 1205.287 176.291 C 1205.196 176.732 1205.058 177.049 1204.939 177.094 C 1204.476 177.272 1201.229 177.58 1200.962 177.471 C 1200.809 177.409 1200.078 176.711 1199.337 175.92 C 1197.808 174.287 1196.877 172.721 1196.908 171.83 C 1196.931 171.177 1196.351 169.083 1195.9 168.19 C 1195.486 167.371 1195.632 167.437 1193.671 167.161 C 1192.66 167.018 1192.63 167.005 1192.15 166.432 C 1191.657 165.844 1191.265 164.744 1191.265 163.963 C 1191.266 163.767 1191.542 162.46 1191.878 161.059 C 1192.46 158.642 1192.485 158.47 1192.359 157.709 C 1192.263 157.131 1192.18 156.925 1192.06 156.971 C 1191.766 157.084 1189.703 158.505 1189.529 158.715 C 1189.228 159.077 1188.949 158.952 1188.654 158.323 L 1188.375 157.727 L 1188.757 156.733 C 1188.968 156.186 1189.14 155.687 1189.14 155.625 C 1189.14 155.564 1188.873 155.183 1188.546 154.776 C 1188.005 154.101 1187.804 153.963 1186.265 153.213 C 1185.041 152.617 1184.142 152.279 1182.994 151.985 L 1181.412 151.579 L 1180.611 152.299 C 1180.087 152.772 1179.611 153.369 1179.23 154.024 C 1178.91 154.574 1178.581 155.066 1178.498 155.118 C 1178.403 155.176 1178.023 154.873 1177.468 154.291 L 1176.591 153.371 L 1174.773 153.022 C 1173.772 152.83 1172.129 152.465 1171.125 152.207 L 1169.298 151.739 L 1168.832 152.149 C 1168.477 152.46 1168.284 152.544 1168.033 152.495 C 1167.851 152.459 1167.028 152.365 1166.203 152.288 C 1165.378 152.21 1164.274 152.017 1163.75 151.86 C 1162.796 151.574 1162.792 151.574 1158.468 151.7 L 1154.144 151.825 L 1151.15 150.123 L 1148.158 148.422 L 1146.349 148.288 L 1144.542 148.153 Z M 1129.109 191.065 C 1129.079 191.072 1129.058 191.095 1129.044 191.129 C 1129.022 191.186 1128.879 191.483 1128.727 191.791 L 1128.452 192.352 L 1126.962 192.766 L 1125.469 193.18 L 1124.77 192.489 L 1124.069 191.795 L 1122.594 191.795 L 1121.122 191.795 L 1119.389 193.116 L 1117.659 194.436 L 1116.444 194.348 C 1115.297 194.264 1115.22 194.239 1115.036 193.918 C 1114.852 193.597 1114.764 193.57 1113.417 193.426 C 1112.633 193.342 1111.955 193.312 1111.909 193.358 C 1111.863 193.403 1111.602 193.868 1111.327 194.391 C 1110.834 195.328 1110.807 195.355 1109.481 196.168 C 1108.741 196.622 1108.017 197.111 1107.874 197.254 L 1107.614 197.514 L 1108.579 198.442 L 1109.546 199.367 L 1113.124 198.969 C 1115.7 198.682 1116.748 198.607 1116.866 198.703 C 1116.956 198.777 1117.171 199.079 1117.344 199.375 C 1117.518 199.672 1117.831 200.058 1118.038 200.233 L 1118.413 200.549 L 1118.87 200.168 C 1119.121 199.959 1119.498 199.651 1119.708 199.483 L 1120.091 199.176 L 1120.989 199.526 C 1121.483 199.718 1121.91 199.9 1121.94 199.93 C 1121.97 199.96 1122.121 200.7 1122.274 201.576 L 1122.552 203.17 L 1122.018 204.598 C 1121.536 205.886 1121.491 206.094 1121.569 206.723 C 1121.617 207.106 1121.704 207.42 1121.762 207.42 C 1121.82 207.42 1122.384 207.223 1123.014 206.983 C 1123.645 206.742 1124.225 206.545 1124.305 206.547 C 1124.385 206.549 1124.902 207.182 1125.452 207.953 C 1126.546 209.488 1129.355 212.477 1129.952 212.742 C 1130.44 212.959 1130.438 212.96 1130.692 212.68 C 1130.895 212.456 1130.898 212.275 1130.753 210.076 L 1130.597 207.713 L 1131.181 206.119 C 1131.502 205.242 1131.765 204.437 1131.765 204.33 C 1131.765 204.224 1131.484 203.646 1131.142 203.047 L 1130.519 201.959 L 1130.769 199.971 L 1131.021 197.983 L 1131.642 197.379 L 1132.265 196.778 L 1133.187 197.285 C 1133.694 197.565 1134.175 197.795 1134.257 197.795 C 1134.614 197.795 1136.015 196.366 1136.015 196.002 C 1136.015 195.972 1135.663 195.721 1135.234 195.444 C 1134.553 195.004 1134.326 194.929 1133.474 194.852 C 1132.348 194.75 1132.531 194.894 1130.874 192.799 C 1129.943 191.621 1129.321 191.012 1129.109 191.065 L 1129.109 191.065 Z M 1127.374 220.254 C 1127.338 220.254 1126.803 220.48 1126.185 220.756 L 1125.062 221.26 L 1123.665 222.366 L 1122.269 223.473 L 1122.657 223.491 C 1122.871 223.501 1124.043 223.533 1125.263 223.561 L 1125.263 223.559 C 1126.483 223.587 1127.874 223.608 1128.353 223.604 L 1129.222 223.598 L 1129.491 222.723 C 1129.64 222.242 1129.76 221.806 1129.759 221.754 C 1129.759 221.599 1128.489 220.703 1127.941 220.469 C 1127.665 220.351 1127.41 220.254 1127.374 220.254 L 1127.374 220.254 Z M 1122.718 234.155 C 1122.665 234.208 1121.95 235.524 1121.95 235.569 C 1121.95 235.591 1122.014 235.641 1122.091 235.678 C 1122.168 235.715 1122.519 235.748 1122.87 235.75 L 1123.509 235.754 L 1123.476 235.332 C 1123.415 234.536 1123.414 234.53 1123.068 234.317 C 1122.893 234.21 1122.736 234.137 1122.718 234.155 L 1122.718 234.155 Z M 1115.759 234.819 C 1115.688 234.818 1115.604 235 1115.458 235.479 C 1115.285 236.048 1115.197 236.223 1114.823 236.737 C 1114.563 237.094 1114.388 237.396 1114.388 237.489 C 1114.388 237.635 1114.403 237.642 1114.654 237.608 C 1114.8 237.588 1115.486 237.553 1116.179 237.53 L 1117.439 237.489 L 1117.54 236.918 C 1117.597 236.605 1117.674 236.177 1117.712 235.967 C 1117.788 235.548 1117.761 235.362 1117.587 235.139 C 1117.484 235.007 1117.386 234.981 1116.665 234.905 C 1116.221 234.858 1115.813 234.819 1115.759 234.819 L 1115.759 234.819 Z M 1119.064 238.809 C 1119.04 238.808 1119.015 238.815 1118.99 238.828 C 1118.883 238.886 1118.876 238.941 1118.912 239.364 C 1118.934 239.623 1118.951 240.156 1118.951 240.547 L 1118.951 241.258 L 1119.091 241.184 C 1119.537 240.947 1120.689 240.119 1120.716 240.016 C 1120.743 239.913 1120.667 239.864 1120.234 239.69 C 1119.793 239.513 1119.678 239.433 1119.416 239.125 C 1119.22 238.896 1119.137 238.813 1119.064 238.809 L 1119.064 238.809 Z" id="Mayo" transform="matrix(0.868562, 0, 0, 0.868562, -911.843872, 13.696216)"/>
</svg>