<?xml version="1.0" encoding="utf-8"?>
<svg viewBox="256.564 209.985 52.695 49.191" width="52.695" height="49.191" xmlns="http://www.w3.org/2000/svg">
  <path style="opacity:1;fill:#ff4d66;fill-opacity:1;stroke:none;stroke-width:0.0625;stroke-linecap:round;stroke-linejoin:round;stroke-miterlimit:4;stroke-dasharray:none;stroke-dashoffset:0;stroke-opacity:1" d="M 1364.208 280.265 C 1362.685 278.962 1361.342 277.871 1361.224 277.838 C 1361.106 277.806 1360.319 277.651 1359.475 277.493 C 1358.582 277.327 1357.958 277.153 1357.981 277.076 C 1358.002 277.004 1358.654 276.618 1359.429 276.218 C 1360.659 275.583 1360.88 275.419 1361.173 274.927 L 1361.509 274.364 L 1362.321 274.403 C 1363.371 274.454 1366.072 274.263 1366.344 274.119 C 1366.459 274.058 1366.787 273.585 1367.073 273.067 C 1367.516 272.264 1367.682 272.081 1368.201 271.817 L 1368.81 271.509 L 1369.199 270.227 C 1369.413 269.522 1369.615 268.849 1369.649 268.731 C 1369.684 268.609 1369.409 268.006 1369.013 267.333 C 1368.434 266.349 1368.179 266.048 1367.506 265.554 C 1367.061 265.227 1366.694 264.928 1366.691 264.889 C 1366.691 264.851 1366.526 263.756 1366.332 262.455 C 1366.08 260.765 1365.923 260.05 1365.784 259.948 C 1365.676 259.869 1364.847 259.584 1363.94 259.313 L 1362.292 258.822 L 1362.365 258.124 C 1362.452 257.292 1362.485 257.35 1360.782 255.382 C 1359.034 253.363 1359.116 253.425 1358.049 253.319 C 1356.94 253.21 1356.74 253.115 1356.638 252.651 C 1356.545 252.228 1355.148 251.048 1354.531 250.871 C 1354.313 250.808 1353.595 250.757 1352.934 250.757 C 1352.274 250.757 1351.389 250.721 1350.969 250.678 L 1350.205 250.598 L 1347.713 248.382 L 1345.221 246.166 L 1346.462 244.93 C 1347.538 243.859 1347.827 243.474 1348.637 242.035 C 1349.151 241.121 1349.571 240.304 1349.571 240.218 C 1349.571 239.943 1348.855 238.356 1348.683 238.249 C 1348.591 238.193 1348.163 238.109 1347.732 238.062 C 1346.719 237.954 1346.678 237.698 1347.603 237.257 L 1348.259 236.945 L 1348.437 236.053 L 1348.615 235.162 L 1349.3 235.081 C 1349.806 235.022 1350.151 234.882 1350.622 234.545 C 1350.972 234.295 1351.325 234.011 1351.405 233.913 C 1351.534 233.758 1351.728 232.361 1351.728 231.591 C 1351.727 231.325 1350.365 229.022 1349.963 228.61 C 1349.851 228.495 1349.112 228.054 1348.321 227.631 C 1347.531 227.208 1346.839 226.82 1346.785 226.767 C 1346.731 226.715 1347.284 226.589 1348.014 226.487 L 1349.342 226.302 L 1349.718 227.143 C 1350.08 227.952 1350.125 227.998 1350.864 228.323 C 1351.612 228.652 1353.619 228.989 1354.908 229.002 C 1355.417 229.007 1355.449 228.983 1356.033 228.141 L 1356.634 227.275 L 1358.422 226.634 L 1360.211 225.993 L 1361.537 226.19 C 1362.83 226.383 1362.879 226.402 1363.542 226.979 C 1365.267 228.482 1364.896 228.314 1367.605 228.81 C 1368.958 229.058 1370.74 229.42 1371.564 229.616 L 1373.063 229.971 L 1374.036 229.542 C 1374.657 229.268 1375.173 228.935 1375.463 228.623 C 1375.713 228.353 1376.28 227.963 1376.722 227.756 C 1377.304 227.484 1377.645 227.222 1377.953 226.811 L 1378.379 226.242 L 1378.567 226.638 C 1378.744 227.013 1378.736 227.067 1378.413 227.646 C 1378.225 227.982 1378.071 228.321 1378.071 228.399 C 1378.071 228.477 1378.332 229.123 1378.65 229.836 C 1379.203 231.076 1379.258 231.149 1379.9 231.517 C 1380.692 231.97 1380.747 232.228 1380.191 232.878 C 1379.988 233.116 1379.821 233.445 1379.821 233.609 C 1379.821 233.872 1380.342 236.976 1380.513 237.728 C 1380.561 237.94 1380.902 238.173 1381.865 238.652 L 1383.152 239.293 L 1384.241 239.005 L 1385.33 238.717 L 1386.374 237.519 C 1386.948 236.859 1387.706 236.077 1388.057 235.781 L 1388.696 235.243 L 1388.696 234.48 C 1388.696 233.885 1388.625 233.595 1388.373 233.165 C 1388.195 232.861 1388.078 232.584 1388.112 232.55 C 1388.147 232.515 1388.883 232.527 1389.748 232.577 L 1391.32 232.666 L 1392.039 233.556 L 1392.758 234.445 L 1392.842 236.257 C 1392.888 237.254 1392.933 238.239 1392.941 238.445 C 1392.952 238.731 1393.218 239.112 1394.062 240.048 C 1394.871 240.945 1395.21 241.424 1395.323 241.826 C 1395.408 242.13 1395.554 242.442 1395.648 242.52 C 1395.863 242.698 1397.647 242.551 1397.838 242.34 C 1397.91 242.26 1398.205 241.806 1398.492 241.33 L 1399.016 240.466 L 1400.325 240.096 C 1401.061 239.888 1401.862 239.569 1402.156 239.367 C 1402.443 239.169 1402.741 239.007 1402.817 239.007 C 1402.893 239.007 1403.426 239.359 1404.001 239.789 C 1404.577 240.218 1405.213 240.661 1405.415 240.772 C 1405.692 240.924 1405.802 241.094 1405.862 241.459 C 1405.937 241.919 1405.906 241.979 1405.256 242.635 C 1404.486 243.413 1404.454 243.557 1404.76 244.857 L 1404.946 245.644 L 1404.321 246.57 C 1403.787 247.361 1403.696 247.584 1403.695 248.095 C 1403.695 248.629 1403.609 248.815 1402.915 249.795 C 1402.145 250.881 1402.113 250.908 1400.413 251.902 C 1399.466 252.455 1398.639 253.005 1398.576 253.122 C 1398.496 253.272 1398.543 253.498 1398.735 253.877 C 1399.15 254.697 1400.662 255.788 1402.303 256.452 L 1403.634 256.99 L 1403.598 257.52 C 1403.571 257.919 1403.455 258.168 1403.129 258.529 C 1402.891 258.792 1402.696 259.085 1402.696 259.179 C 1402.696 259.393 1403.837 262.741 1404.185 263.549 C 1404.51 264.3 1404.526 264.843 1404.227 264.928 C 1403.027 265.27 1402.597 265.274 1401.424 264.952 C 1399.98 264.556 1399.856 264.558 1399.35 264.979 C 1398.997 265.273 1398.892 265.509 1398.578 266.709 C 1398.378 267.472 1398.126 268.309 1398.018 268.568 C 1397.91 268.826 1397.821 269.104 1397.821 269.184 C 1397.821 269.264 1398.36 270.193 1399.019 271.247 L 1400.216 273.165 L 1399.957 273.789 C 1399.814 274.132 1399.412 274.797 1399.063 275.268 C 1398.505 276.02 1398.389 276.116 1398.094 276.063 C 1397.536 275.964 1393.272 275.382 1393.102 275.382 C 1393.015 275.382 1392.452 275.823 1391.851 276.363 C 1390.775 277.328 1390.753 277.359 1390.407 278.425 L 1390.055 279.508 L 1389.532 279.427 C 1389.244 279.382 1388.074 278.879 1386.931 278.309 C 1385.256 277.473 1384.776 277.174 1384.453 276.766 C 1384.233 276.488 1383.72 276.027 1383.314 275.742 C 1382.697 275.309 1382.565 275.151 1382.507 274.772 C 1382.364 273.833 1382.278 273.707 1381.507 273.298 C 1380.764 272.904 1380.75 272.902 1379.732 273.025 L 1378.707 273.149 L 1377.958 272.641 C 1377.547 272.361 1377.099 272.132 1376.963 272.132 C 1376.465 272.132 1375.602 272.627 1374.353 273.628 C 1373.147 274.595 1373.025 274.737 1372.228 276.096 L 1371.384 277.538 L 1369.634 278.867 L 1367.884 280.195 L 1367.847 281.179 C 1367.816 282.015 1367.769 282.198 1367.534 282.394 C 1367.382 282.52 1367.195 282.626 1367.117 282.628 C 1367.039 282.63 1365.731 281.567 1364.208 280.265 L 1364.208 280.265 Z" id="Meath West" transform="matrix(0.868562, 0, 0, 0.868562, -911.843872, 13.696216)"/>
</svg>