<?xml version="1.0" encoding="utf-8"?>
<svg viewBox="284.879 201.887 52.112 55.872" width="52.112" height="55.872" xmlns="http://www.w3.org/2000/svg">
  <path style="opacity:1;fill:#ff4d66;fill-opacity:1;stroke:none;stroke-width:0.0625;stroke-linecap:round;stroke-linejoin:round;stroke-miterlimit:4;stroke-dasharray:none;stroke-dashoffset:0;stroke-opacity:1" d="M 1416.571 280.826 C 1415.725 280.69 1415.478 280.576 1414.037 279.654 C 1413.159 279.092 1412.36 278.632 1412.261 278.632 C 1412.162 278.632 1411.705 279.081 1411.246 279.629 C 1410.787 280.178 1410.298 280.663 1410.16 280.706 C 1409.969 280.767 1409.784 280.654 1409.396 280.241 C 1409.002 279.82 1408.682 279.628 1408.009 279.404 L 1407.134 279.114 L 1405.321 279.665 L 1403.509 280.216 L 1402.899 279.369 C 1402.314 278.556 1402.239 278.5 1401.086 278.008 C 1400.16 277.612 1399.822 277.4 1399.616 277.085 L 1399.348 276.676 L 1399.997 275.81 C 1400.647 274.942 1401.321 273.576 1401.321 273.124 C 1401.321 272.992 1400.792 272.035 1400.144 270.998 L 1398.968 269.114 L 1399.258 268.261 C 1399.417 267.792 1399.618 267.093 1399.705 266.706 C 1399.791 266.32 1399.934 265.945 1400.022 265.872 C 1400.137 265.776 1400.519 265.831 1401.39 266.068 L 1402.598 266.398 L 1403.879 266.128 C 1404.583 265.979 1405.233 265.812 1405.323 265.756 C 1405.413 265.701 1405.513 265.339 1405.545 264.951 C 1405.593 264.374 1405.533 264.062 1405.214 263.221 C 1404.999 262.657 1404.606 261.566 1404.339 260.797 L 1403.854 259.4 L 1404.214 258.962 C 1404.669 258.411 1404.991 256.612 1404.685 256.334 C 1404.588 256.246 1403.834 255.902 1403.009 255.571 C 1402.005 255.167 1401.231 254.758 1400.669 254.332 C 1400.207 253.981 1399.828 253.653 1399.825 253.603 C 1399.825 253.552 1400.54 253.088 1401.419 252.571 C 1402.554 251.904 1403.087 251.514 1403.255 251.226 C 1403.386 251.003 1403.757 250.454 1404.079 250.007 C 1404.559 249.341 1404.681 249.061 1404.755 248.449 C 1404.83 247.835 1404.957 247.544 1405.469 246.811 L 1406.091 245.919 L 1405.875 244.83 L 1405.659 243.74 L 1406.389 243.002 L 1407.119 242.265 L 1406.954 241.417 C 1406.738 240.312 1406.662 240.184 1406.036 239.865 C 1405.746 239.718 1404.968 239.183 1404.308 238.677 C 1403.647 238.171 1403.004 237.757 1402.879 237.757 C 1402.754 237.757 1402.31 237.979 1401.892 238.25 C 1401.379 238.584 1400.698 238.865 1399.786 239.12 C 1399.045 239.328 1398.388 239.529 1398.325 239.567 C 1398.263 239.606 1398.031 239.96 1397.81 240.354 C 1397.261 241.33 1397.089 241.507 1396.687 241.507 C 1396.403 241.507 1396.315 241.43 1396.198 241.076 C 1396.12 240.839 1395.583 240.122 1395.005 239.482 L 1393.954 238.32 L 1393.934 237.007 C 1393.923 236.285 1393.879 235.317 1393.836 234.855 C 1393.761 234.045 1393.725 233.972 1392.833 232.826 C 1391.765 231.453 1392.032 231.554 1389.186 231.444 C 1387.026 231.36 1387.031 231.358 1386.881 232.16 C 1386.808 232.549 1386.857 232.726 1387.183 233.255 C 1387.77 234.21 1387.719 234.602 1386.909 235.369 C 1386.545 235.713 1385.913 236.387 1385.505 236.865 C 1384.826 237.661 1384.696 237.754 1383.995 237.944 L 1383.227 238.152 L 1382.43 237.751 C 1381.992 237.53 1381.6 237.298 1381.559 237.235 C 1381.518 237.172 1381.356 236.36 1381.198 235.432 L 1380.911 233.745 L 1381.225 233.407 C 1381.735 232.86 1381.796 232.639 1381.645 231.884 C 1381.514 231.228 1381.477 231.18 1380.771 230.754 C 1380.095 230.346 1379.998 230.23 1379.625 229.383 L 1379.218 228.457 L 1379.579 227.74 L 1379.941 227.023 L 1379.632 226.359 C 1379.462 225.994 1379.323 225.632 1379.322 225.555 C 1379.321 225.478 1379.652 225.271 1380.057 225.096 L 1380.794 224.776 L 1381.14 223.738 L 1381.485 222.7 L 1379.653 220.933 C 1378.088 219.423 1377.821 219.11 1377.821 218.788 C 1377.821 218.58 1377.92 218.296 1378.039 218.157 C 1378.257 217.905 1378.267 217.908 1379.946 218.641 C 1380.874 219.046 1382.29 219.584 1383.094 219.836 L 1384.555 220.294 L 1384.702 220.932 C 1384.885 221.729 1385.879 223.469 1386.21 223.574 C 1386.549 223.682 1386.675 223.553 1387.579 222.182 C 1388.27 221.134 1388.548 220.845 1389.874 219.794 C 1391.163 218.772 1391.45 218.478 1391.845 217.771 L 1392.307 216.945 L 1393.058 216.807 L 1393.808 216.669 L 1393.937 217.273 C 1394.008 217.605 1394.104 218.117 1394.148 218.411 C 1394.193 218.704 1394.273 219.029 1394.326 219.132 C 1394.379 219.235 1394.923 219.566 1395.537 219.866 L 1396.652 220.412 L 1396.942 221.929 C 1397.102 222.763 1397.259 223.518 1397.292 223.606 C 1397.367 223.809 1398.236 224.26 1398.534 224.25 C 1398.658 224.246 1399.369 223.867 1400.115 223.407 L 1401.472 222.57 L 1401.945 221.507 L 1402.418 220.445 L 1403.463 220.41 L 1404.508 220.376 L 1404.758 220.848 C 1405.129 221.549 1405.466 221.538 1406.213 220.803 L 1406.823 220.202 L 1407.182 220.573 C 1407.492 220.893 1407.605 221.23 1407.994 223.007 C 1408.477 225.205 1408.569 225.381 1409.251 225.384 C 1410.125 225.388 1410.164 225.433 1410.331 226.659 L 1410.485 227.786 L 1411.122 228.192 C 1411.472 228.415 1412.068 228.766 1412.446 228.972 L 1413.133 229.347 L 1415.147 229.017 L 1417.16 228.686 L 1417.65 229.066 L 1418.139 229.445 L 1418.011 230.293 C 1417.901 231.026 1417.803 231.239 1417.292 231.869 C 1416.639 232.673 1415.775 234.368 1415.842 234.715 C 1415.866 234.838 1416.306 235.172 1416.837 235.469 C 1417.711 235.96 1417.921 236.02 1419.429 236.216 L 1421.071 236.43 L 1421.071 237.394 L 1421.071 238.357 L 1422.085 239.732 L 1423.1 241.106 L 1424.054 241.378 C 1424.946 241.632 1425.034 241.689 1425.405 242.251 C 1425.697 242.692 1426.105 243.044 1426.939 243.572 C 1428.183 244.361 1428.143 244.292 1428.252 245.82 C 1428.323 246.802 1428.334 246.829 1428.854 247.304 C 1429.145 247.571 1429.565 247.928 1429.787 248.099 L 1430.192 248.409 L 1431.455 248.187 C 1432.941 247.926 1432.948 247.919 1433.263 246.382 C 1433.522 245.123 1433.73 244.797 1433.958 245.297 C 1434.171 245.765 1434.419 245.801 1435.529 245.523 C 1436.794 245.207 1437.822 245.277 1437.819 245.679 C 1437.819 245.825 1437.776 246.007 1437.725 246.084 C 1437.674 246.16 1436.93 246.35 1436.07 246.506 C 1435.211 246.662 1434.442 246.842 1434.36 246.906 C 1434.001 247.192 1433.686 248.576 1433.61 250.201 L 1433.534 251.831 L 1432.083 252.888 C 1431.286 253.469 1430.408 254.148 1430.133 254.397 L 1429.633 254.85 L 1427.954 253.866 C 1427.03 253.325 1426.186 252.886 1426.079 252.89 C 1425.971 252.894 1425.477 253.049 1424.981 253.234 C 1424.177 253.533 1423.909 253.73 1422.517 255.045 L 1420.955 256.52 L 1420.513 257.938 C 1420.269 258.717 1420.07 259.44 1420.07 259.544 C 1420.07 259.648 1420.689 260.301 1421.444 260.995 L 1422.818 262.257 L 1423.766 262.257 L 1424.714 262.257 L 1425.439 262.949 C 1426.126 263.604 1426.168 263.679 1426.223 264.343 C 1426.294 265.202 1426.451 265.336 1427.509 265.45 L 1428.298 265.534 L 1428.555 266.152 L 1428.811 266.769 L 1428.012 268.937 C 1427.573 270.13 1427.116 271.558 1426.997 272.111 L 1426.781 273.117 L 1426.332 273.185 C 1426.085 273.222 1425.292 273.312 1424.57 273.386 C 1423.848 273.459 1423.145 273.542 1423.008 273.571 C 1422.855 273.603 1422.522 274.018 1422.148 274.643 C 1421.565 275.618 1421.542 275.693 1421.61 276.36 L 1421.682 277.058 L 1420.796 278.314 C 1420.309 279.005 1419.597 279.893 1419.213 280.289 C 1418.425 281.1 1418.357 281.114 1416.57 280.826 L 1416.571 280.826 Z" id="Meath East" transform="matrix(0.868562, 0, 0, 0.868562, -911.843872, 13.696216)"/>
</svg>