<?xml version="1.0" encoding="utf-8"?>
<svg viewBox="144.829 188.392 73.553 90.281" width="73.553" height="90.281" xmlns="http://www.w3.org/2000/svg">
  <path style="opacity:1;fill:#ff4d66;fill-opacity:1;stroke:none;stroke-width:0.0625;stroke-linecap:round;stroke-linejoin:round;stroke-miterlimit:4;stroke-dasharray:none;stroke-dashoffset:0;stroke-opacity:1" d="M 1278.593 304.416 L 1277.89 303.655 L 1277.89 301.973 L 1277.89 300.291 L 1277.483 300.043 C 1276.831 299.646 1276.647 299.718 1275.702 300.739 L 1274.827 301.684 L 1273.202 302.114 C 1272.308 302.35 1271.548 302.544 1271.512 302.544 C 1271.476 302.544 1270.971 302.151 1270.39 301.67 C 1269.403 300.853 1269.293 300.795 1268.729 300.795 C 1268.209 300.795 1268.075 300.85 1267.758 301.197 C 1267.555 301.419 1267.39 301.645 1267.39 301.7 C 1267.39 301.754 1266.007 301.784 1264.317 301.766 L 1261.244 301.732 L 1260.901 300.92 C 1260.563 300.116 1260.546 300.1 1259.365 299.42 C 1258.707 299.042 1258.03 298.632 1257.86 298.511 C 1257.423 298.198 1257.211 298.331 1256.705 299.235 C 1256.3 299.959 1256.201 300.05 1255.571 300.286 C 1255.191 300.428 1254.828 300.545 1254.764 300.545 C 1254.7 300.545 1254.592 300.643 1254.523 300.763 C 1254.213 301.306 1254.182 301.326 1253.905 301.178 C 1253.661 301.047 1253.64 300.934 1253.64 299.746 L 1253.64 298.457 L 1252.947 297.388 L 1252.254 296.319 L 1251.468 296.182 C 1251.035 296.106 1250.597 296.045 1250.494 296.045 C 1250.355 296.045 1250.246 295.716 1250.072 294.769 C 1249.842 293.514 1249.737 293.3 1249.164 292.92 C 1248.938 292.769 1248.839 292.497 1248.665 291.549 L 1248.447 290.365 L 1247.595 289.861 C 1246.398 289.152 1246.355 289.028 1247.063 288.308 C 1247.38 287.987 1247.639 287.641 1247.637 287.54 C 1247.637 287.44 1247.443 286.746 1247.207 285.999 C 1246.971 285.252 1246.71 284.221 1246.628 283.708 C 1246.545 283.196 1246.379 282.655 1246.258 282.506 L 1246.04 282.236 L 1245.246 282.521 C 1244.47 282.801 1244.448 282.802 1244.265 282.571 C 1244.161 282.44 1243.815 281.994 1243.495 281.579 C 1243.053 281.006 1242.743 280.746 1242.213 280.503 C 1241.567 280.207 1241.515 280.152 1241.515 279.763 C 1241.515 279.087 1241.702 278.968 1243.015 278.815 C 1244.354 278.659 1244.337 278.671 1245.073 277.357 C 1245.628 276.363 1245.566 276.182 1244.535 275.782 C 1243.9 275.536 1243.742 275.404 1243.338 274.78 C 1242.932 274.153 1242.849 273.891 1242.685 272.709 C 1242.539 271.662 1242.428 271.268 1242.194 270.961 L 1241.892 270.564 L 1242.257 270.484 C 1242.724 270.381 1242.847 270.225 1243.003 269.54 C 1243.105 269.091 1243.08 268.77 1242.876 267.897 C 1242.737 267.3 1242.54 266.743 1242.439 266.659 C 1242.338 266.575 1241.85 266.482 1241.354 266.452 L 1240.452 266.398 L 1239.774 267.091 L 1239.095 267.785 L 1238.628 267.025 C 1238.371 266.607 1238.11 266.216 1238.049 266.154 C 1237.988 266.093 1237.441 266.001 1236.833 265.95 L 1235.728 265.857 L 1235.174 263.92 C 1234.869 262.855 1234.567 261.921 1234.504 261.844 C 1234.441 261.768 1233.881 261.667 1233.261 261.62 C 1232.268 261.545 1232.065 261.487 1231.557 261.134 C 1231.084 260.805 1230.894 260.546 1230.503 259.7 C 1229.977 258.564 1229.965 258.555 1228.595 258.286 C 1228.123 258.194 1227.713 258.056 1227.684 257.98 C 1227.655 257.905 1227.715 257.485 1227.817 257.047 C 1227.98 256.348 1228.094 256.159 1228.754 255.492 C 1229.438 254.799 1229.524 254.651 1229.725 253.812 C 1229.945 252.892 1229.945 252.891 1229.674 252.673 C 1229.521 252.549 1229.063 252.415 1228.623 252.365 L 1227.842 252.277 L 1227.263 252.933 L 1226.685 253.59 L 1225.568 252.947 C 1224.954 252.593 1223.71 251.725 1222.803 251.018 C 1221.896 250.311 1220.349 249.209 1219.365 248.57 C 1218.381 247.93 1217.352 247.209 1217.077 246.967 L 1216.577 246.527 L 1217.008 246.175 C 1217.431 245.829 1217.476 245.821 1219.601 245.733 L 1221.763 245.643 L 1223.183 244.125 C 1224.366 242.86 1224.64 242.493 1224.824 241.92 C 1224.945 241.542 1225.186 241.081 1225.358 240.896 C 1225.654 240.578 1225.688 240.571 1225.969 240.755 C 1226.306 240.976 1227.856 241.299 1228.11 241.202 C 1228.201 241.167 1228.437 240.82 1228.633 240.431 C 1228.948 239.808 1229.144 239.618 1230.293 238.83 L 1231.596 237.935 L 1231.766 237.225 C 1231.988 236.298 1232.133 236.17 1232.96 236.17 C 1234.012 236.17 1234.033 236.127 1234.372 233.293 C 1234.651 230.954 1234.682 230.821 1235.151 229.941 C 1235.419 229.438 1235.639 228.967 1235.639 228.895 C 1235.639 228.823 1235.428 228.175 1235.17 227.455 L 1234.702 226.145 L 1233.202 225.074 C 1231.06 223.546 1231.2 223.714 1231.687 223.249 C 1232.089 222.865 1232.101 222.823 1232.259 221.2 L 1232.42 219.543 L 1233.223 218.912 L 1234.025 218.281 L 1233.938 216.718 L 1233.851 215.156 L 1234.151 215.22 C 1234.316 215.256 1234.787 215.35 1235.197 215.429 C 1235.608 215.509 1236.345 215.772 1236.835 216.015 C 1237.466 216.327 1237.814 216.432 1238.026 216.373 C 1238.415 216.265 1239.938 214.386 1239.994 213.945 C 1240.065 213.379 1239.745 210.809 1239.586 210.678 C 1239.504 210.61 1238.963 210.516 1238.382 210.469 L 1237.326 210.384 L 1236.264 209.505 C 1235.679 209.021 1235.193 208.621 1235.183 208.616 C 1235.173 208.611 1235.125 208.016 1235.076 207.293 L 1234.988 205.978 L 1235.755 205.612 C 1236.593 205.211 1236.726 204.989 1236.551 204.283 C 1236.461 203.918 1236.331 203.802 1235.636 203.466 C 1234.983 203.15 1234.811 203.005 1234.748 202.716 C 1234.597 202.032 1234.634 201.949 1235.273 201.539 L 1235.907 201.132 L 1236.62 201.838 C 1237.303 202.514 1237.41 202.57 1239.183 203.163 C 1241.797 204.039 1242.73 204.192 1244.848 204.094 L 1246.577 204.013 L 1246.861 204.403 C 1247.068 204.687 1247.194 205.142 1247.327 206.089 C 1247.546 207.65 1247.591 207.781 1247.934 207.852 C 1248.638 207.999 1253.247 208.173 1258.389 208.248 L 1264.077 208.33 L 1265.249 208.754 L 1266.421 209.177 L 1267.499 208.778 C 1268.111 208.552 1268.82 208.181 1269.139 207.92 C 1269.912 207.288 1270.028 207.241 1271.469 206.984 L 1272.736 206.758 L 1274.005 205.635 C 1274.703 205.018 1275.303 204.541 1275.337 204.576 C 1275.372 204.611 1275.44 205.192 1275.489 205.868 L 1275.577 207.097 L 1276.804 207.977 C 1277.623 208.565 1278.178 209.071 1278.474 209.502 L 1278.918 210.146 L 1280.323 210.533 C 1281.096 210.746 1281.808 210.92 1281.906 210.92 C 1282.004 210.92 1282.466 210.534 1282.934 210.062 L 1283.785 209.204 L 1284.369 209.328 C 1284.694 209.397 1285.133 209.61 1285.362 209.811 C 1285.859 210.245 1285.902 210.247 1286.905 209.874 L 1287.702 209.578 L 1288.385 208.318 L 1289.069 207.058 L 1289.688 207.395 C 1290.295 207.725 1290.34 207.793 1291.846 210.607 L 1293.383 213.482 L 1293.383 214.459 C 1293.383 214.996 1293.444 215.544 1293.515 215.677 C 1293.586 215.809 1294.05 216.192 1294.546 216.529 C 1295.572 217.224 1295.772 217.427 1296.493 218.506 L 1297.011 219.281 L 1297.011 221.233 L 1297.011 223.184 L 1297.56 223.683 C 1298.08 224.157 1298.115 224.233 1298.263 225.207 C 1298.348 225.771 1298.492 226.317 1298.582 226.421 C 1298.672 226.524 1299.312 226.888 1300.003 227.228 C 1300.861 227.65 1301.261 227.915 1301.261 228.06 C 1301.261 228.177 1301.03 228.565 1300.747 228.922 C 1300.211 229.601 1300.085 229.928 1299.948 231.007 C 1299.869 231.628 1299.834 231.676 1299.157 232.119 C 1298.681 232.43 1298.244 232.872 1297.822 233.469 L 1297.196 234.357 L 1296.288 234.438 C 1295.788 234.483 1295.297 234.588 1295.195 234.672 C 1295.07 234.776 1295.011 235.07 1295.01 235.591 C 1295.01 236.012 1294.973 236.658 1294.929 237.025 L 1294.849 237.693 L 1293.441 238.631 L 1292.033 239.569 L 1291.827 240.713 L 1291.62 241.857 L 1289.81 243.677 L 1287.999 245.498 L 1287.755 247.731 L 1287.511 249.965 L 1287.817 250.974 C 1287.985 251.528 1288.216 252.545 1288.33 253.232 L 1288.537 254.482 L 1290.319 256.857 C 1291.3 258.163 1292.385 259.766 1292.731 260.42 L 1293.361 261.607 L 1293.702 264.482 C 1293.985 266.863 1294.053 268.044 1294.101 271.357 L 1294.158 275.357 L 1294.573 276.045 C 1294.972 276.706 1294.997 276.824 1295.229 279.19 L 1295.471 281.649 L 1296.292 282.753 C 1296.969 283.662 1297.137 283.988 1297.25 284.599 C 1297.325 285.007 1297.386 285.39 1297.386 285.45 C 1297.386 285.51 1296.966 285.75 1296.452 285.984 L 1295.519 286.41 L 1294.897 287.648 C 1294.198 289.041 1294.386 288.93 1292.413 289.117 C 1291.338 289.218 1291.136 289.407 1291.136 290.314 L 1291.136 290.902 L 1290.418 291.047 C 1288.938 291.345 1288.723 291.405 1288.637 291.544 C 1288.589 291.623 1288.399 292.4 1288.216 293.272 L 1287.884 294.857 L 1287.154 295.56 L 1286.423 296.263 L 1286.264 297.464 C 1286.089 298.786 1286.092 298.78 1285.199 299.509 C 1284.642 299.963 1284.533 300.137 1284.199 301.108 C 1283.84 302.151 1283.801 302.209 1283.248 302.489 C 1282.855 302.688 1282.545 302.978 1282.274 303.399 C 1281.935 303.928 1281.727 304.09 1280.836 304.517 C 1279.259 305.274 1279.391 305.28 1278.59 304.416 L 1278.593 304.416 Z" id="Roscommon Galway" transform="matrix(0.868562, 0, 0, 0.868562, -911.843872, 13.696216)"/>
</svg>