<?xml version="1.0" encoding="utf-8"?>
<svg viewBox="128.544 111.929 109.758 95.46" width="109.758" height="95.46" xmlns="http://www.w3.org/2000/svg">
  <path style="opacity:1;fill:#cb85f9;fill-opacity:1;stroke:none;stroke-width:0.0625;stroke-linecap:round;stroke-linejoin:round;stroke-miterlimit:4;stroke-dasharray:none;stroke-dashoffset:0;stroke-opacity:1" d="M 1304.371 221.851 C 1304.053 221.215 1303.78 220.681 1303.765 220.664 C 1303.667 220.551 1302.476 220.423 1302.323 220.508 C 1302.219 220.566 1302.013 220.997 1301.866 221.467 C 1301.704 221.982 1301.522 222.335 1301.405 222.359 C 1301.212 222.398 1300.87 222.111 1300.634 221.711 C 1300.552 221.572 1300.231 221.458 1299.696 221.379 C 1299.249 221.312 1298.693 221.225 1298.46 221.186 L 1298.036 221.114 L 1298.112 220.092 L 1298.188 219.07 L 1297.31 217.788 C 1296.623 216.786 1296.267 216.395 1295.674 215.993 C 1294.473 215.177 1294.446 215.136 1294.446 214.11 L 1294.446 213.213 L 1292.987 210.454 C 1290.969 206.64 1291.117 206.844 1289.992 206.324 C 1288.555 205.66 1288.589 205.645 1287.704 207.305 C 1287.285 208.091 1286.847 208.757 1286.727 208.791 C 1286.607 208.826 1286.418 208.891 1286.307 208.937 C 1286.184 208.988 1285.967 208.906 1285.745 208.722 C 1285.4 208.437 1284.06 208.064 1283.509 208.101 C 1283.371 208.11 1282.917 208.494 1282.499 208.955 L 1281.74 209.792 L 1280.661 209.507 C 1279.624 209.233 1279.565 209.199 1279.153 208.61 C 1278.885 208.227 1278.32 207.715 1277.648 207.246 L 1276.571 206.495 L 1276.559 205.47 C 1276.541 203.963 1276.493 203.859 1275.708 203.597 C 1274.915 203.332 1275.016 203.283 1273.384 204.738 L 1272.259 205.742 L 1271.071 205.955 C 1269.555 206.227 1269.464 206.264 1268.651 206.926 C 1268.241 207.26 1267.653 207.585 1267.166 207.747 L 1266.359 208.015 L 1265.326 207.634 L 1264.293 207.253 L 1257.464 207.119 C 1253.707 207.046 1250.156 206.948 1249.571 206.903 L 1248.509 206.82 L 1248.353 205.64 C 1248.198 204.465 1248.118 204.277 1247.345 203.28 C 1247.129 203.002 1247.044 202.989 1245.263 202.968 L 1243.406 202.945 L 1242.928 201.516 L 1242.449 200.087 L 1242.972 197.848 C 1243.354 196.209 1243.46 195.555 1243.366 195.402 C 1243.296 195.288 1242.504 194.773 1241.606 194.257 C 1240.656 193.712 1239.461 192.888 1238.748 192.289 C 1238.074 191.721 1237.449 191.257 1237.358 191.257 C 1237.268 191.257 1236.83 191.496 1236.385 191.789 C 1235.546 192.34 1235.426 192.53 1235.265 193.57 C 1235.222 193.845 1235.159 194.216 1235.124 194.395 C 1235.08 194.621 1234.66 195.043 1233.761 195.767 C 1232.753 196.58 1232.4 196.947 1232.183 197.411 C 1231.947 197.914 1231.849 198.007 1231.553 198.007 C 1231.361 198.007 1230.948 197.884 1230.637 197.732 L 1230.071 197.457 L 1229.576 197.941 C 1229.303 198.207 1228.882 198.802 1228.639 199.264 C 1228.182 200.133 1228.014 200.252 1227.237 200.256 C 1226.933 200.257 1226.751 200.364 1226.463 200.714 L 1226.087 201.17 L 1224.746 201.083 C 1223.439 200.999 1223.373 200.98 1222.194 200.35 C 1221.018 199.722 1220.971 199.68 1220.559 198.887 C 1220.253 198.299 1220.055 198.059 1219.854 198.03 C 1219.506 197.981 1219.286 197.259 1219.065 195.445 C 1218.853 193.703 1218.868 193.721 1217.767 193.777 C 1216.927 193.819 1216.81 193.861 1216.159 194.353 C 1215.531 194.827 1215.385 194.882 1214.769 194.882 C 1214.092 194.882 1214.062 194.866 1213.065 193.986 L 1212.05 193.09 L 1210.154 192.768 L 1208.259 192.445 L 1208.228 191.007 L 1208.197 189.57 L 1209.959 188.149 C 1211.297 187.071 1211.763 186.619 1211.895 186.274 C 1211.991 186.024 1212.23 185.51 1212.426 185.132 C 1212.622 184.754 1212.856 184.164 1212.946 183.82 C 1213.036 183.476 1213.16 183.13 1213.22 183.051 C 1213.281 182.973 1213.829 182.62 1214.438 182.269 C 1215.047 181.917 1215.574 181.557 1215.608 181.467 C 1215.69 181.254 1215.466 179.018 1215.33 178.688 C 1215.27 178.543 1215.003 178.359 1214.717 178.264 C 1214.087 178.056 1214.014 177.761 1214.417 177.045 C 1214.65 176.631 1214.684 176.468 1214.579 176.272 C 1214.425 175.984 1214.314 175.965 1211.134 175.682 L 1208.884 175.482 L 1207.991 174.62 C 1207.5 174.145 1207.022 173.757 1206.928 173.757 C 1206.835 173.758 1206.599 173.895 1206.405 174.062 C 1206.169 174.264 1205.821 174.396 1205.37 174.452 C 1204.616 174.546 1204.504 174.662 1204.371 175.494 C 1204.325 175.78 1204.232 176.048 1204.164 176.09 C 1204.095 176.132 1203.441 176.239 1202.711 176.326 L 1201.384 176.485 L 1200.163 175.215 C 1199.215 174.23 1198.817 173.701 1198.385 172.86 L 1197.828 171.775 L 1198.249 170.86 C 1198.508 170.297 1198.874 169.752 1199.2 169.445 C 1199.64 169.03 1200.11 168.171 1201.96 164.406 L 1204.191 159.868 L 1204.327 158.156 C 1204.402 157.215 1204.509 156.328 1204.567 156.185 C 1204.658 155.959 1204.852 155.905 1206.09 155.765 C 1207.411 155.615 1207.738 155.628 1210.821 155.945 L 1214.134 156.287 L 1217.371 158.282 C 1219.151 159.379 1220.973 160.553 1221.421 160.892 L 1222.234 161.507 L 1223.642 161.507 L 1225.05 161.507 L 1226.092 160.18 C 1227.033 158.981 1227.203 158.824 1227.855 158.563 C 1229.054 158.081 1229.039 158.081 1229.245 158.48 C 1229.358 158.699 1229.882 159.126 1230.579 159.568 L 1231.727 160.296 L 1233.993 159.892 C 1235.239 159.67 1236.324 159.478 1236.404 159.467 C 1236.484 159.455 1237.468 160.663 1238.591 162.151 C 1240.594 164.805 1240.665 164.882 1242.259 166.126 C 1243.448 167.055 1243.951 167.377 1244.134 167.328 C 1244.271 167.291 1244.89 167.259 1245.509 167.257 C 1246.128 167.255 1246.71 167.205 1246.804 167.146 C 1246.991 167.027 1247.205 166.089 1247.084 165.918 C 1247.042 165.86 1246.587 165.565 1246.071 165.263 C 1245.383 164.86 1242.181 162.774 1240.612 161.707 C 1240.6 161.699 1240.66 161.148 1240.745 160.482 C 1240.842 159.728 1240.864 158.935 1240.805 158.38 C 1240.715 157.537 1240.736 157.416 1241.195 156.169 C 1241.73 154.713 1241.749 154.683 1242.196 154.574 C 1242.446 154.514 1242.64 154.614 1243.165 155.075 L 1243.821 155.652 L 1243.821 156.883 C 1243.821 158.701 1243.889 158.739 1246.732 158.505 C 1248.461 158.362 1248.722 158.308 1249.603 157.91 C 1250.135 157.669 1250.571 157.397 1250.571 157.304 C 1250.571 157.212 1250.417 156.967 1250.228 156.761 C 1249.966 156.476 1249.406 156.213 1247.884 155.662 L 1245.884 154.939 L 1245.22 153.973 C 1244.855 153.442 1244.589 152.955 1244.628 152.891 C 1244.668 152.827 1245.01 152.736 1245.388 152.689 C 1246.014 152.611 1246.195 152.651 1247.388 153.14 L 1248.699 153.677 L 1249.073 153.319 C 1249.278 153.122 1249.446 152.87 1249.446 152.759 C 1249.446 152.593 1248.092 151.329 1246.857 150.342 C 1246.701 150.217 1246.069 149.977 1245.453 149.808 L 1244.334 149.502 L 1243.126 150.004 L 1241.917 150.507 L 1239.814 150.507 L 1237.711 150.507 L 1236.703 149.367 C 1235.788 148.332 1235.697 148.181 1235.698 147.711 C 1235.698 147.427 1235.741 147.134 1235.792 147.059 C 1235.843 146.984 1236.691 146.568 1237.677 146.134 C 1239.37 145.389 1239.501 145.306 1240.052 144.625 C 1240.62 143.922 1240.761 143.837 1245.81 141.179 L 1250.987 138.453 L 1251.539 137.599 C 1252.057 136.798 1252.107 136.644 1252.341 135.095 L 1252.592 133.445 L 1253.195 132.833 L 1253.798 132.221 L 1254.077 132.771 C 1254.23 133.073 1254.418 133.361 1254.495 133.412 C 1254.572 133.462 1255.268 133.504 1256.042 133.505 L 1257.45 133.507 L 1259.292 132.585 L 1261.134 131.663 L 1263.661 131.483 L 1266.188 131.303 L 1267.036 130.55 C 1267.597 130.052 1268.071 129.478 1268.436 128.854 L 1268.988 127.911 L 1270.903 127.821 L 1272.819 127.731 L 1273.352 127.255 C 1273.738 126.909 1273.847 126.74 1273.748 126.638 C 1273.673 126.561 1272.774 126.256 1271.748 125.958 L 1269.884 125.418 L 1269.415 124.754 C 1269.158 124.389 1268.947 124.051 1268.947 124.003 C 1268.947 123.955 1269.869 123.372 1270.997 122.707 C 1272.125 122.043 1273.082 121.412 1273.122 121.305 C 1273.163 121.199 1273.196 120.68 1273.196 120.151 C 1273.196 119.326 1273.151 119.124 1272.877 118.72 C 1272.46 118.106 1272.555 117.81 1273.235 117.606 C 1273.609 117.494 1274.199 117.052 1275.295 116.064 C 1276.399 115.069 1277.218 114.456 1278.205 113.888 L 1279.579 113.098 L 1280.642 113.548 L 1281.704 113.998 L 1285.092 114.208 C 1288.272 114.404 1288.552 114.404 1289.666 114.206 C 1290.597 114.039 1290.989 113.901 1291.491 113.563 C 1292.098 113.155 1292.567 113.043 1292.991 113.206 C 1293.283 113.318 1293.148 113.54 1291.533 115.613 L 1290.039 117.531 L 1289.607 118.975 C 1289.369 119.769 1289.2 120.555 1289.232 120.721 C 1289.329 121.229 1288.615 123.758 1288.019 125.015 C 1287.71 125.667 1287.362 126.636 1287.245 127.167 C 1287.074 127.945 1286.946 128.226 1286.583 128.611 C 1286.142 129.08 1286.105 129.093 1284.571 129.318 C 1283.01 129.547 1283.008 129.548 1282.009 130.252 C 1281.459 130.639 1280.942 130.998 1280.859 131.048 C 1280.777 131.098 1279.856 131.279 1278.812 131.451 C 1277.769 131.622 1276.871 131.79 1276.816 131.824 C 1276.586 131.966 1276.075 133.05 1276.176 133.181 C 1276.235 133.258 1276.621 133.753 1277.034 134.282 C 1277.779 135.238 1277.785 135.252 1277.871 136.28 L 1277.957 137.316 L 1280.751 140.068 L 1283.545 142.82 L 1284.388 144.695 C 1284.852 145.726 1285.294 146.633 1285.37 146.71 C 1285.446 146.787 1286.45 147.208 1287.6 147.645 L 1289.691 148.441 L 1290.673 149.88 C 1291.213 150.672 1292.251 152.196 1292.98 153.267 L 1294.306 155.213 L 1293.632 156.392 C 1293.262 157.04 1292.753 158.115 1292.502 158.782 C 1292.096 159.859 1291.96 160.075 1291.273 160.735 L 1290.5 161.477 L 1289.069 161.57 L 1287.639 161.664 L 1287.218 162.117 C 1286.45 162.943 1286.225 163.314 1286.085 163.983 C 1285.849 165.11 1285.886 165.241 1286.762 166.351 L 1287.575 167.382 L 1287.135 168.254 C 1286.751 169.017 1286.696 169.242 1286.696 170.052 C 1286.696 170.673 1286.751 171.023 1286.864 171.116 C 1286.956 171.193 1287.673 171.347 1288.458 171.459 C 1289.571 171.618 1290.031 171.745 1290.559 172.042 C 1291.012 172.298 1291.639 172.497 1292.466 172.648 L 1293.698 172.873 L 1295.92 174.564 L 1298.143 176.255 L 1299.415 178.483 L 1300.687 180.711 L 1301.602 180.998 L 1302.517 181.285 L 1302.876 182.158 C 1303.103 182.709 1303.332 183.071 1303.497 183.138 C 1303.765 183.248 1305.63 183.508 1306.149 183.508 C 1306.361 183.508 1306.571 183.31 1306.946 182.758 C 1307.226 182.345 1307.524 182.01 1307.607 182.012 C 1307.934 182.021 1309.726 182.487 1309.828 182.59 C 1309.888 182.65 1310.49 183.513 1311.165 184.509 L 1312.393 186.32 L 1313.423 186.32 L 1314.453 186.32 L 1315.177 187.445 C 1315.896 188.561 1315.92 188.582 1317.987 190 C 1320.293 191.581 1320.168 191.396 1319.893 192.816 C 1319.8 193.295 1319.752 193.758 1319.785 193.845 C 1319.869 194.065 1321.183 194.758 1321.516 194.758 C 1321.667 194.758 1322 194.67 1322.257 194.563 C 1322.513 194.456 1322.735 194.385 1322.75 194.407 C 1322.765 194.428 1322.96 194.705 1323.183 195.022 L 1323.589 195.598 L 1323.455 197.022 C 1323.231 199.412 1323.248 199.567 1323.759 199.883 L 1324.196 200.153 L 1324.196 201.163 C 1324.196 202.157 1324.184 202.195 1323.496 203.434 C 1323.111 204.128 1322.759 204.735 1322.714 204.784 C 1322.669 204.833 1321.734 204.962 1320.637 205.072 C 1319.54 205.181 1318.573 205.329 1318.487 205.401 C 1318.401 205.472 1318.052 206.046 1317.712 206.675 C 1317.371 207.305 1316.912 207.989 1316.691 208.195 C 1316.47 208.401 1316.169 208.83 1316.024 209.147 C 1315.878 209.465 1315.168 210.576 1314.446 211.617 L 1313.134 213.509 L 1312.614 213.433 C 1312.328 213.392 1312.018 213.405 1311.926 213.464 C 1311.834 213.522 1311.286 214.061 1310.708 214.661 L 1309.657 215.753 L 1308.938 219.077 C 1308.542 220.906 1308.187 222.434 1308.148 222.473 C 1308.092 222.529 1305.411 222.987 1305.041 223.004 C 1304.99 223.006 1304.688 222.487 1304.37 221.851 L 1304.371 221.851 Z" id="Sligo Leitrim" transform="matrix(0.868562, 0, 0, 0.868562, -911.843872, 13.696216)"/>
</svg>