<?xml version="1.0" encoding="utf-8"?>
<svg viewBox="176.013 286.937 79.899 115.058" width="79.899" height="115.058" xmlns="http://www.w3.org/2000/svg">
  <path style="opacity:1;fill:#e0e600;fill-opacity:1;stroke:none;stroke-width:0.0625;stroke-linecap:round;stroke-linejoin:round;stroke-miterlimit:4;stroke-dasharray:none;stroke-dashoffset:0;stroke-opacity:1" d="M 1288.622 446.692 L 1287.185 446.315 L 1284.81 446.559 C 1283.503 446.694 1282.425 446.797 1282.412 446.789 C 1282.4 446.781 1282.325 446.157 1282.247 445.401 C 1282.169 444.646 1282.057 443.908 1281.998 443.762 C 1281.914 443.552 1281.611 443.42 1280.561 443.137 C 1279.385 442.82 1279.141 442.703 1278.453 442.134 L 1277.675 441.491 L 1277.458 439.913 C 1277.269 438.543 1277.186 438.249 1276.825 437.682 C 1276.044 436.453 1276.05 436.531 1276.717 436.143 C 1277.043 435.954 1277.353 435.738 1277.406 435.664 C 1277.497 435.536 1277.48 435.179 1277.298 433.344 C 1277.231 432.669 1277.145 432.494 1276.413 431.523 L 1275.604 430.45 L 1276.277 429.551 C 1276.647 429.057 1276.987 428.59 1277.033 428.514 C 1277.148 428.321 1276.765 426.186 1276.583 426.007 C 1276.501 425.926 1275.763 425.728 1274.941 425.565 L 1273.448 425.27 L 1272.901 424.367 L 1272.353 423.464 L 1272.184 421.207 C 1272.085 419.889 1271.953 418.875 1271.866 418.77 C 1271.752 418.633 1271.378 418.59 1270.286 418.59 C 1268.894 418.59 1268.839 418.601 1268.3 418.972 C 1267.995 419.182 1267.696 419.323 1267.636 419.286 C 1267.576 419.249 1267.489 418.865 1267.442 418.432 C 1267.396 417.999 1267.316 417.578 1267.266 417.496 C 1267.215 417.413 1266.369 416.895 1265.385 416.343 L 1263.597 415.34 L 1262.602 415.34 C 1261.652 415.34 1261.58 415.32 1261.021 414.892 C 1260.391 414.41 1260.477 414.418 1258.747 414.665 C 1258.445 414.708 1258.189 414.652 1257.921 414.484 C 1257.553 414.253 1257.521 414.169 1257.323 412.895 L 1257.113 411.549 L 1257.478 411.163 C 1257.963 410.65 1258.061 410.429 1258.246 409.429 L 1258.403 408.579 L 1259.044 408.258 C 1260.046 407.756 1260.097 407.681 1260.193 406.584 L 1260.279 405.603 L 1261.037 405.347 C 1261.95 405.038 1261.987 405.038 1262.334 405.327 C 1262.593 405.544 1262.601 405.602 1262.48 406.479 C 1262.41 406.988 1262.217 407.663 1262.05 407.982 C 1261.677 408.696 1261.675 408.851 1262.031 409.771 C 1262.525 411.045 1262.906 411.031 1263.611 409.711 C 1263.963 409.054 1264.051 408.732 1264.111 407.885 L 1264.184 406.857 L 1265.236 405.781 C 1266.272 404.72 1266.3 404.702 1267.21 404.502 L 1268.134 404.299 L 1268.726 404.882 C 1269.068 405.219 1269.434 405.465 1269.592 405.465 C 1269.746 405.465 1270.263 405.127 1270.775 404.693 C 1271.275 404.268 1271.708 403.902 1271.737 403.88 C 1271.766 403.857 1271.938 402.144 1272.117 400.073 C 1272.43 396.479 1272.435 396.281 1272.234 395.712 L 1272.024 395.115 L 1272.569 394.581 C 1273.139 394.021 1273.998 392.736 1273.995 392.446 C 1273.995 392.354 1273.769 391.866 1273.494 391.362 L 1272.995 390.446 L 1273.147 389.299 C 1273.289 388.227 1273.346 388.079 1274.03 387.008 C 1274.57 386.163 1274.871 385.508 1275.181 384.508 C 1275.709 382.801 1275.673 382.713 1274.37 382.514 C 1273.589 382.396 1273.308 382.41 1272.398 382.612 C 1271.466 382.82 1271.274 382.828 1270.829 382.68 C 1270.351 382.521 1270.303 382.459 1269.988 381.582 C 1269.63 380.588 1269.44 380.409 1268.605 380.279 C 1268.249 380.225 1268.116 380.128 1267.995 379.836 C 1267.825 379.425 1267.692 379.372 1266.499 379.242 L 1265.688 379.153 L 1265.247 378.34 L 1264.806 377.528 L 1262.87 377.465 L 1260.934 377.403 L 1259.835 376.784 C 1258.89 376.251 1258.685 376.074 1258.367 375.519 C 1258.125 375.096 1257.997 374.698 1257.997 374.369 C 1257.997 373.87 1258.007 373.864 1258.604 373.72 C 1259.047 373.613 1259.356 373.427 1259.747 373.027 L 1260.284 372.481 L 1260.123 371.907 C 1260.035 371.592 1259.902 371.296 1259.827 371.25 C 1259.752 371.204 1259.24 371.177 1258.688 371.19 L 1257.684 371.215 L 1258.247 370.909 C 1258.556 370.741 1259.4 370.367 1260.122 370.078 C 1260.844 369.788 1261.53 369.469 1261.647 369.369 C 1261.945 369.115 1262.214 367.882 1262.015 367.684 C 1261.933 367.602 1261.432 367.476 1260.901 367.403 L 1259.934 367.271 L 1259.646 366.649 C 1259.387 366.094 1259.25 365.97 1258.361 365.489 C 1257.752 365.16 1257.277 364.979 1257.137 365.023 C 1257.011 365.063 1256.69 365.498 1256.422 365.989 C 1255.94 366.873 1255.924 366.887 1254.954 367.299 C 1253.991 367.708 1253.447 367.813 1253.325 367.616 C 1253.291 367.561 1253.507 366.582 1253.805 365.441 L 1254.347 363.367 L 1253.496 361.839 C 1252.984 360.919 1252.613 360.091 1252.563 359.758 L 1252.48 359.205 L 1254.238 356.741 L 1255.997 354.278 L 1256.007 352.215 L 1256.017 350.153 L 1256.642 349.606 L 1257.268 349.059 L 1259.559 349.201 C 1260.819 349.28 1261.928 349.312 1262.022 349.272 C 1262.116 349.233 1262.571 348.72 1263.033 348.134 C 1263.628 347.377 1264.31 346.219 1265.376 344.151 C 1266.204 342.546 1266.881 341.119 1266.881 340.979 C 1266.881 340.634 1266.519 340.465 1265.779 340.465 C 1264.545 340.465 1264.439 340.404 1264.187 339.547 C 1263.909 338.596 1263.701 338.341 1263.205 338.339 C 1262.379 338.336 1261.91 338.192 1261.777 337.901 C 1261.624 337.565 1261.596 337.594 1263.152 336.485 C 1264.125 335.791 1264.258 335.648 1264.442 335.092 C 1264.645 334.482 1264.668 334.462 1266.046 333.725 C 1267.373 333.014 1267.616 332.815 1270.881 329.771 L 1274.318 326.564 L 1275.757 323.734 C 1276.719 321.841 1277.73 320.095 1278.804 318.465 C 1279.688 317.125 1280.425 316.012 1280.441 315.993 C 1280.457 315.973 1281.13 315.876 1281.934 315.776 C 1283.536 315.578 1283.472 315.599 1284.206 315.005 C 1284.488 314.777 1284.786 314.59 1284.867 314.59 C 1284.948 314.59 1285.505 314.918 1286.104 315.318 C 1286.703 315.718 1288.712 316.985 1290.568 318.133 C 1292.424 319.281 1294.618 320.743 1295.443 321.382 L 1296.943 322.544 L 1296.908 324.201 C 1296.874 325.78 1296.855 325.889 1296.498 326.523 C 1296.174 327.097 1296.105 327.389 1295.994 328.668 C 1295.918 329.544 1295.805 330.185 1295.717 330.24 C 1295.635 330.291 1295.333 330.369 1295.044 330.412 C 1294.756 330.456 1294.44 330.584 1294.342 330.697 C 1294.15 330.917 1293.131 333.893 1293.131 334.231 C 1293.131 334.602 1293.769 335.897 1294.146 336.289 C 1294.509 336.668 1294.512 336.68 1294.288 336.957 L 1294.059 337.239 L 1292.644 337.013 L 1291.23 336.788 L 1290.68 337.369 C 1290.251 337.823 1290.131 338.045 1290.131 338.378 C 1290.131 338.613 1290.101 339.052 1290.063 339.354 C 1289.997 339.889 1290.019 339.931 1290.92 341.003 L 1291.845 342.104 L 1291.914 343.11 L 1291.983 344.116 L 1291.29 345.197 C 1290.909 345.791 1290.583 346.295 1290.565 346.316 C 1290.467 346.432 1288.83 345.879 1288.155 345.502 L 1287.367 345.061 L 1286.81 345.274 C 1286.503 345.391 1286.204 345.581 1286.145 345.695 C 1286.086 345.809 1286.001 346.381 1285.955 346.966 L 1285.872 348.028 L 1286.546 348.693 L 1287.219 349.358 L 1287.004 350.408 C 1286.761 351.6 1286.762 351.603 1287.663 352.547 C 1288.038 352.94 1288.527 353.225 1289.676 353.724 C 1290.51 354.086 1291.199 354.387 1291.207 354.392 C 1291.217 354.398 1291.17 354.831 1291.108 355.355 C 1291.003 356.234 1291.018 356.362 1291.305 357.009 C 1291.608 357.694 1291.639 357.721 1292.714 358.218 C 1293.318 358.497 1293.926 358.709 1294.065 358.689 C 1294.363 358.646 1295.454 357.088 1295.579 356.528 C 1295.625 356.322 1295.824 355.831 1296.021 355.438 C 1296.219 355.044 1296.381 354.637 1296.381 354.532 C 1296.381 354.427 1296.1 353.947 1295.756 353.466 C 1295.413 352.984 1295.156 352.59 1295.187 352.59 C 1295.218 352.59 1295.762 352.958 1296.397 353.408 C 1297.032 353.857 1297.64 354.208 1297.747 354.188 C 1297.855 354.168 1298.117 353.825 1298.329 353.427 C 1298.54 353.028 1299.051 352.353 1299.463 351.927 C 1299.875 351.501 1300.459 350.843 1300.761 350.465 C 1301.063 350.087 1301.945 349.039 1302.72 348.137 C 1303.496 347.234 1304.131 346.403 1304.131 346.289 C 1304.131 346.175 1303.922 345.698 1303.666 345.23 L 1303.201 344.377 L 1303.422 343.89 C 1303.567 343.572 1303.89 343.23 1304.354 342.903 C 1304.744 342.628 1305.582 341.868 1306.215 341.215 L 1307.366 340.028 L 1308.655 340.704 C 1309.363 341.076 1310.235 341.653 1310.592 341.985 C 1311.03 342.394 1311.355 342.594 1311.592 342.602 C 1311.785 342.609 1312.248 342.679 1312.621 342.759 L 1313.3 342.903 L 1313.756 344.275 L 1314.213 345.648 L 1315.391 346.049 C 1316.047 346.272 1317.022 346.494 1317.593 346.551 L 1318.618 346.653 L 1318.191 347.348 C 1317.852 347.901 1317.484 348.243 1316.396 349.017 L 1315.027 349.991 L 1314.454 351.614 C 1313.927 353.105 1313.881 353.333 1313.881 354.423 C 1313.881 355.608 1313.88 355.611 1313.381 356.308 C 1313.106 356.692 1312.881 357.077 1312.881 357.163 C 1312.881 357.249 1313.221 357.968 1313.637 358.76 L 1314.393 360.199 L 1315.043 360.41 C 1315.401 360.526 1315.737 360.66 1315.789 360.708 C 1315.842 360.756 1315.971 361.325 1316.076 361.972 C 1316.251 363.055 1316.348 363.295 1317.277 364.964 L 1318.288 366.778 L 1318.199 368.994 L 1318.11 371.21 L 1319.031 372.181 C 1319.873 373.069 1319.977 373.237 1320.234 374.126 C 1320.562 375.264 1320.565 375.266 1322.189 375.4 C 1322.806 375.451 1323.428 375.537 1323.572 375.592 C 1323.715 375.646 1324.904 376.452 1326.212 377.382 L 1328.591 379.073 L 1329.718 381.113 L 1330.845 383.153 L 1330.996 384.523 C 1331.079 385.276 1331.186 385.961 1331.233 386.044 C 1331.28 386.127 1332.148 387.097 1333.162 388.199 C 1334.176 389.301 1335.005 390.304 1335.005 390.428 C 1335.006 390.552 1334.915 391.104 1334.806 391.656 C 1334.624 392.575 1334.624 392.718 1334.806 393.349 C 1334.968 393.906 1335.162 394.191 1335.818 394.841 L 1336.629 395.646 L 1336.629 399.344 L 1336.629 403.043 L 1337.206 403.723 C 1337.619 404.21 1338.046 404.537 1338.711 404.876 C 1339.337 405.195 1339.609 405.398 1339.547 405.501 C 1339.496 405.584 1339.037 406.23 1338.526 406.936 C 1337.68 408.105 1337.548 408.232 1337.055 408.356 C 1336.274 408.553 1336.217 408.666 1336.389 409.672 C 1336.469 410.143 1336.57 410.591 1336.613 410.668 C 1336.656 410.746 1337.41 411.41 1338.288 412.143 L 1339.884 413.478 L 1340.617 414.94 L 1341.35 416.403 L 1342.24 416.833 C 1342.729 417.07 1343.129 417.276 1343.129 417.292 C 1343.129 417.307 1342.872 417.889 1342.557 418.586 L 1341.984 419.851 L 1342.075 422.862 L 1342.166 425.872 L 1343.332 427.193 C 1343.974 427.919 1344.486 428.525 1344.47 428.538 C 1344.454 428.552 1344.161 428.517 1343.817 428.459 C 1343.474 428.402 1342.501 428.352 1341.657 428.348 L 1340.122 428.341 L 1339.22 427.671 L 1338.317 427 L 1334.88 426.171 L 1331.442 425.343 L 1328.13 425.14 L 1324.817 424.937 L 1323.471 425.446 C 1322.144 425.948 1322.107 425.954 1320.908 425.881 C 1319.72 425.809 1319.641 425.822 1317.442 426.445 C 1316.2 426.798 1314.045 427.284 1312.63 427.531 C 1310.188 427.957 1308.85 428.363 1308.501 428.782 C 1308.437 428.859 1308.321 430.521 1308.242 432.475 L 1308.099 436.028 L 1308.527 437.089 L 1308.955 438.149 L 1309.863 438.407 C 1310.362 438.548 1310.822 438.746 1310.886 438.846 C 1311.219 439.373 1311.547 440.817 1311.866 443.162 C 1312.062 444.601 1312.212 445.791 1312.2 445.806 C 1312.188 445.821 1311.957 445.727 1311.685 445.596 C 1311.414 445.466 1310.664 445.287 1310.017 445.198 L 1308.842 445.038 L 1308.389 445.564 C 1308.14 445.854 1307.875 446.091 1307.8 446.091 C 1307.726 446.091 1307.489 445.761 1307.274 445.357 C 1307.059 444.954 1306.812 444.568 1306.725 444.5 C 1306.328 444.189 1304.607 444.076 1301.48 444.156 L 1298.317 444.237 L 1297.771 443.364 C 1297.471 442.883 1296.956 442.225 1296.627 441.901 L 1296.029 441.312 L 1294.861 441.701 C 1293.965 442 1293.471 442.091 1292.747 442.091 C 1291.292 442.091 1291.325 442.035 1291.278 444.582 L 1291.238 446.719 L 1290.793 446.905 C 1290.246 447.134 1290.362 447.145 1288.629 446.692 L 1288.622 446.692 Z" id="Tipperary" transform="matrix(0.868562, 0, 0, 0.868562, -911.843872, 13.696216)"/>
</svg>