<?xml version="1.0" encoding="utf-8"?>
<svg viewBox="198.393 383.795 88.627 51.201" width="88.627" height="51.201" xmlns="http://www.w3.org/2000/svg">
  <path style="opacity:1;fill:#cb85f9;fill-opacity:1;stroke:none;stroke-width:0.0625;stroke-linecap:round;stroke-linejoin:round;stroke-miterlimit:4;stroke-dasharray:none;stroke-dashoffset:0;stroke-opacity:1" d="M 1313.27 484.787 C 1312.448 484.561 1312.122 484.4 1311.708 484.013 C 1311.42 483.744 1311.002 483.36 1310.779 483.159 L 1310.373 482.794 L 1309.654 483.019 C 1309.258 483.142 1308.382 483.525 1307.706 483.871 C 1306.504 484.485 1306.466 484.495 1305.979 484.335 C 1305.706 484.244 1305.437 484.082 1305.382 483.974 C 1305.327 483.866 1305.184 483.103 1305.066 482.278 C 1304.732 479.959 1304.72 479.929 1304.029 479.609 C 1303.457 479.344 1303.366 479.338 1301.622 479.46 C 1298.846 479.654 1299.152 479.728 1298.279 478.653 L 1297.518 477.715 L 1297.428 476.325 L 1297.338 474.936 L 1296.449 474.528 C 1295.391 474.043 1295.184 473.749 1295.057 472.552 C 1294.949 471.532 1294.833 471.43 1293.542 471.219 L 1292.649 471.072 L 1291.638 469.706 C 1290.656 468.38 1290.613 468.34 1290.146 468.34 C 1289.702 468.34 1289.653 468.305 1289.526 467.891 C 1289.416 467.532 1289.426 467.361 1289.576 467.047 C 1289.749 466.684 1289.734 466.46 1289.387 464.278 L 1289.01 461.903 L 1287.785 460.747 C 1286.985 459.993 1286.386 459.534 1286.06 459.425 C 1285.409 459.208 1285.336 458.847 1285.865 458.47 C 1286.203 458.23 1286.247 458.127 1286.247 457.579 C 1286.247 456.818 1286.345 456.863 1283.666 456.401 C 1281.795 456.079 1281.528 456.061 1280 456.166 C 1279.093 456.227 1278.328 456.255 1278.299 456.226 C 1278.27 456.197 1278.247 455.789 1278.247 455.318 L 1278.247 454.463 L 1278.962 454.12 L 1279.676 453.778 L 1280.368 451.127 L 1281.06 448.476 L 1281.54 448.206 C 1281.926 447.989 1282.511 447.886 1284.513 447.68 L 1287.004 447.424 L 1288.734 447.829 L 1290.464 448.233 L 1291.276 447.865 C 1291.723 447.662 1292.121 447.444 1292.16 447.381 C 1292.199 447.317 1292.271 446.354 1292.32 445.24 L 1292.409 443.215 L 1293.04 443.215 C 1293.388 443.215 1294.142 443.062 1294.724 442.872 L 1295.778 442.529 L 1296.224 443.069 C 1296.469 443.365 1296.898 443.956 1297.177 444.381 L 1297.685 445.153 L 1301.747 445.215 C 1303.982 445.25 1305.882 445.324 1305.969 445.381 C 1306.057 445.437 1306.298 445.82 1306.505 446.23 C 1306.913 447.039 1306.907 447.035 1307.772 447.15 C 1308.395 447.234 1308.557 447.145 1309.034 446.464 C 1309.242 446.168 1309.25 446.167 1310.203 446.327 C 1310.811 446.429 1311.34 446.606 1311.646 446.808 C 1312.085 447.099 1312.173 447.115 1312.611 446.984 C 1313.452 446.732 1313.445 446.795 1313.005 443.498 C 1312.61 440.539 1312.106 438.459 1311.66 437.946 C 1311.561 437.832 1311.118 437.64 1310.676 437.521 C 1309.778 437.278 1309.751 437.254 1309.442 436.465 C 1309.243 435.957 1309.231 435.593 1309.312 432.68 L 1309.402 429.456 L 1309.747 429.278 C 1309.936 429.18 1311.322 428.878 1312.826 428.607 C 1314.329 428.336 1316.544 427.833 1317.747 427.49 C 1319.9 426.875 1319.953 426.867 1321.06 426.963 C 1322.166 427.059 1322.207 427.053 1323.513 426.576 C 1325.046 426.015 1325.093 426.013 1328.872 426.271 C 1331.307 426.438 1331.598 426.487 1334.704 427.248 L 1337.973 428.049 L 1338.766 428.676 L 1339.56 429.304 L 1341.31 429.382 C 1345.353 429.563 1347.404 430.098 1348.967 431.38 C 1350.557 432.683 1350.926 433.263 1352.4 436.778 C 1352.947 438.084 1353.448 439.217 1353.513 439.295 C 1353.578 439.374 1353.895 439.503 1354.22 439.583 C 1355.836 439.982 1355.669 439.852 1356.123 441.059 C 1356.531 442.142 1356.869 442.623 1357.16 442.53 C 1357.243 442.503 1357.975 442.277 1358.788 442.029 L 1360.266 441.576 L 1361.1 439.864 L 1361.935 438.153 L 1362.896 437.908 L 1363.857 437.662 L 1364.142 438.033 C 1364.955 439.091 1365.077 439.156 1366.576 439.332 C 1367.341 439.421 1368.017 439.53 1368.078 439.574 C 1368.138 439.617 1368.324 439.95 1368.491 440.313 C 1368.657 440.676 1368.867 441.034 1368.956 441.108 C 1369.075 441.207 1369.683 441.12 1371.214 440.787 C 1372.367 440.535 1373.435 440.278 1373.588 440.215 C 1373.74 440.151 1374.042 439.785 1374.259 439.402 C 1374.608 438.783 1374.746 438.662 1375.474 438.332 C 1376.261 437.975 1376.306 437.968 1376.515 438.181 C 1376.704 438.373 1376.719 438.519 1376.626 439.258 C 1376.543 439.922 1376.565 440.299 1376.727 440.944 C 1376.934 441.774 1376.937 441.778 1377.935 442.49 C 1379.213 443.402 1379.234 443.487 1378.67 445.507 L 1378.244 447.028 L 1378.507 448.526 C 1378.651 449.35 1378.789 450.057 1378.815 450.098 C 1378.84 450.139 1379.196 450.274 1379.607 450.398 C 1380.313 450.612 1380.347 450.64 1380.239 450.924 C 1380.176 451.089 1379.492 451.995 1378.718 452.939 C 1377.943 453.882 1377.086 455.001 1376.813 455.425 C 1376.252 456.296 1376.275 456.286 1374.423 456.408 C 1373.394 456.475 1372.858 456.433 1371.247 456.157 C 1369.351 455.832 1369.271 455.805 1367.497 454.909 C 1364.624 453.456 1364.9 453.518 1363.972 454.11 C 1363.539 454.387 1362.707 455.079 1362.122 455.649 L 1361.06 456.686 L 1353.251 456.765 L 1345.442 456.844 L 1345.001 457.133 C 1344.569 457.415 1344.517 457.419 1342.627 457.323 L 1340.694 457.225 L 1339.978 457.847 C 1339.537 458.231 1338.864 458.641 1338.223 458.915 C 1337.264 459.326 1337.118 459.44 1336.31 460.401 C 1335.337 461.558 1335.427 461.518 1333.435 461.665 C 1332.477 461.735 1332.17 461.818 1331.365 462.221 C 1330.846 462.481 1330.362 462.769 1330.29 462.861 C 1330.218 462.953 1329.97 463.57 1329.738 464.233 L 1329.318 465.439 L 1328.564 464.777 L 1327.81 464.115 L 1327.513 462.759 C 1327.35 462.013 1327.161 461.333 1327.092 461.247 C 1327.023 461.161 1326.774 461.09 1326.538 461.09 C 1326.135 461.09 1326.089 461.134 1325.796 461.809 C 1325.016 463.604 1324.851 463.838 1323.918 464.472 C 1322.865 465.188 1322.653 465.583 1322.945 466.283 C 1323.053 466.541 1323.262 466.775 1323.449 466.846 C 1323.726 466.951 1323.844 466.902 1324.349 466.47 C 1324.669 466.197 1324.966 466.014 1325.009 466.063 C 1325.052 466.113 1325.3 466.673 1325.56 467.308 C 1325.82 467.944 1326.095 468.513 1326.171 468.573 C 1326.249 468.635 1326.885 468.638 1327.622 468.581 C 1329.888 468.406 1330.061 468.419 1330.227 468.784 C 1330.542 469.474 1330.435 469.687 1329.554 470.121 L 1328.736 470.525 L 1327.885 472.163 C 1327.066 473.741 1327.029 473.851 1326.87 475.192 C 1326.779 475.957 1326.672 476.63 1326.632 476.687 C 1326.592 476.745 1325.857 477.284 1324.997 477.885 L 1323.435 478.979 L 1321.175 478.893 L 1318.915 478.807 L 1317.363 479.842 C 1316.509 480.411 1315.782 480.901 1315.747 480.932 C 1315.713 480.962 1315.622 481.751 1315.546 482.686 C 1315.409 484.363 1315.402 484.39 1315.013 484.738 C 1314.549 485.153 1314.599 485.151 1313.271 484.787 L 1313.27 484.787 Z" id="Waterford" transform="matrix(0.868562, 0, 0, 0.868562, -911.843872, 13.696216)"/>
</svg>