<?xml version="1.0" encoding="utf-8"?>
<svg viewBox="283.305 329.572 62.206 81.634" width="62.206" height="81.634" xmlns="http://www.w3.org/2000/svg">
  <path style="opacity:1;fill:#e0e600;fill-opacity:1;stroke:none;stroke-width:0.0625;stroke-linecap:round;stroke-linejoin:round;stroke-miterlimit:4;stroke-dasharray:none;stroke-dashoffset:0;stroke-opacity:1" d="M 1382.954 457.548 C 1382.913 457.481 1383.104 457.017 1383.379 456.515 C 1383.655 456.014 1384.219 454.852 1384.633 453.934 L 1385.387 452.264 L 1384.763 450.817 C 1384.42 450.021 1384.14 449.238 1384.14 449.076 C 1384.14 448.914 1384.231 448.384 1384.341 447.897 L 1384.542 447.013 L 1383.177 445.729 C 1381.871 444.5 1381.788 444.39 1381.266 443.213 C 1380.536 441.565 1380.525 441.555 1379.86 441.877 L 1379.327 442.136 L 1378.613 441.651 C 1378.024 441.251 1377.874 441.075 1377.758 440.644 C 1377.629 440.168 1377.662 439.312 1377.841 438.393 C 1377.895 438.117 1377.804 437.941 1377.351 437.455 C 1377.045 437.126 1376.618 436.504 1376.401 436.073 L 1376.008 435.289 L 1376.324 434.261 C 1376.525 433.605 1376.844 432.941 1377.202 432.429 C 1377.511 431.987 1377.764 431.521 1377.764 431.393 C 1377.764 431.266 1377.622 430.88 1377.447 430.537 L 1377.131 429.912 L 1377.279 427.697 C 1377.361 426.479 1377.441 425.465 1377.456 425.445 C 1377.471 425.425 1377.92 425.304 1378.452 425.177 C 1378.985 425.05 1379.464 424.875 1379.518 424.788 C 1379.572 424.7 1379.656 424.174 1379.704 423.618 C 1379.786 422.672 1379.847 422.508 1380.653 421.061 C 1381.127 420.21 1381.514 419.422 1381.514 419.31 C 1381.514 419.197 1381.261 418.797 1380.952 418.42 C 1380.41 417.759 1380.22 417.174 1380.545 417.165 C 1380.631 417.163 1381.258 417.087 1381.939 416.998 C 1383.214 416.829 1383.59 416.626 1383.459 416.176 C 1383.428 416.069 1383.284 415.319 1383.139 414.509 L 1382.876 413.035 L 1383.258 412.368 C 1383.642 411.697 1383.904 411.545 1384.676 411.545 C 1384.816 411.545 1385.482 411.342 1386.154 411.095 C 1387.547 410.584 1387.412 410.775 1387.944 408.563 C 1388.114 407.852 1388.304 407.205 1388.365 407.126 C 1388.426 407.047 1388.889 406.454 1389.393 405.808 L 1390.311 404.635 L 1390.538 403.074 L 1390.765 401.514 L 1391.62 400.561 C 1392.719 399.335 1392.828 399.147 1393.007 398.17 C 1393.123 397.537 1393.304 397.136 1393.826 396.357 L 1394.496 395.357 L 1394.822 392.482 C 1395.001 390.901 1395.178 389.466 1395.214 389.295 C 1395.25 389.123 1395.713 388.52 1396.241 387.955 C 1397.094 387.043 1397.287 386.901 1397.967 386.692 L 1398.732 386.456 L 1400.019 386.939 C 1401.118 387.352 1401.399 387.412 1401.941 387.346 C 1403.411 387.17 1403.362 387.209 1404.351 385.453 C 1404.846 384.575 1405.289 383.758 1405.334 383.637 C 1405.395 383.474 1405.156 383.15 1404.404 382.38 L 1403.391 381.342 L 1403.546 380.787 C 1403.697 380.25 1403.74 380.214 1404.853 379.67 C 1406.001 379.109 1406.007 379.104 1407.01 377.734 C 1407.963 376.431 1408.037 376.362 1408.421 376.397 C 1409.1 376.459 1409.192 376.526 1409.468 377.157 C 1409.707 377.703 1409.806 377.793 1410.406 378.016 C 1411.132 378.287 1411.071 378.184 1411.509 379.881 C 1411.59 380.193 1411.735 380.433 1411.869 380.476 C 1411.993 380.515 1412.996 380.468 1414.099 380.372 L 1416.103 380.197 L 1417.475 379.277 C 1418.723 378.44 1419.072 378.108 1421.359 375.584 C 1422.741 374.058 1423.925 372.708 1423.989 372.584 C 1424.054 372.459 1424.207 371.823 1424.328 371.17 C 1424.53 370.087 1424.584 369.96 1424.938 369.73 L 1425.327 369.478 L 1425.389 367.634 L 1425.451 365.79 L 1426.42 365.238 C 1427.084 364.859 1427.946 364.527 1429.159 364.181 L 1430.928 363.677 L 1432.051 364 C 1432.915 364.248 1433.388 364.477 1434.112 364.996 C 1434.628 365.367 1435.112 365.668 1435.188 365.665 C 1435.44 365.657 1436.74 365.323 1436.909 365.223 C 1437 365.169 1437.306 364.938 1437.588 364.71 C 1437.871 364.481 1438.133 364.295 1438.171 364.295 C 1438.21 364.295 1438.277 364.507 1438.321 364.766 C 1438.365 365.025 1438.447 365.313 1438.504 365.405 C 1438.561 365.497 1439.245 365.751 1440.025 365.969 C 1441.432 366.364 1441.443 366.369 1441.529 366.793 C 1441.577 367.028 1441.698 367.28 1441.798 367.352 C 1441.898 367.425 1442.634 367.645 1443.435 367.84 L 1444.892 368.195 L 1445.226 369.312 C 1445.498 370.22 1445.682 370.576 1446.212 371.218 C 1446.671 371.775 1446.976 372.031 1447.246 372.085 L 1447.628 372.161 L 1447.378 372.762 C 1447.237 373.101 1446.142 374.606 1444.863 376.219 L 1442.597 379.076 L 1442.18 381.145 C 1441.785 383.105 1441.763 383.354 1441.763 385.884 L 1441.763 388.554 L 1442.396 391.08 C 1442.743 392.47 1443.256 394.332 1443.535 395.219 L 1444.041 396.83 L 1443.579 397.969 C 1443.324 398.595 1442.152 400.766 1440.975 402.795 C 1438.987 406.219 1438.682 406.671 1436.705 409.129 C 1434.723 411.593 1434.429 412.029 1432.463 415.428 L 1430.35 419.08 L 1430.431 421.718 C 1430.493 423.741 1430.567 424.548 1430.747 425.175 C 1430.974 425.961 1430.974 426.003 1430.759 426.268 C 1430.597 426.47 1430.405 426.543 1430.056 426.538 C 1429.599 426.532 1429.54 426.481 1428.826 425.479 C 1428.413 424.901 1428.016 424.403 1427.942 424.374 C 1427.869 424.344 1427.001 424.475 1426.013 424.665 C 1424.502 424.956 1424.175 425.06 1423.953 425.317 C 1423.703 425.608 1423.659 425.617 1423.061 425.482 C 1422.258 425.301 1421.513 424.749 1421.513 424.335 C 1421.513 424.167 1421.575 423.634 1421.65 423.149 C 1421.737 422.585 1421.743 422.225 1421.666 422.148 C 1421.405 421.886 1420.688 422.392 1419.764 423.49 L 1418.832 424.597 L 1418.869 425.347 C 1418.889 425.76 1418.934 426.142 1418.968 426.197 C 1419.138 426.472 1419.928 426.73 1420.817 426.8 C 1421.751 426.874 1421.829 426.903 1422.166 427.305 C 1423.162 428.495 1423.393 428.962 1423.602 430.217 C 1423.739 431.044 1423.867 431.466 1424.002 431.539 C 1424.111 431.597 1424.819 431.682 1425.576 431.727 L 1426.951 431.81 L 1427.303 431.302 C 1427.576 430.908 1427.735 430.795 1428.014 430.795 C 1428.343 430.795 1428.378 430.839 1428.438 431.326 C 1428.474 431.618 1428.535 432.645 1428.573 433.607 C 1428.611 434.57 1428.677 435.85 1428.719 436.453 L 1428.795 437.548 L 1429.595 438.107 C 1430.092 438.454 1430.699 438.747 1431.2 438.88 C 1431.955 439.082 1432.045 439.082 1432.66 438.885 C 1433.41 438.645 1433.508 438.708 1433.511 439.432 C 1433.511 439.733 1433.639 440.056 1433.896 440.411 C 1434.202 440.834 1434.293 441.106 1434.347 441.773 L 1434.415 442.607 L 1433.545 444.117 C 1432.719 445.551 1432.665 445.694 1432.466 446.977 C 1432.248 448.372 1432.228 448.416 1431.309 449.459 L 1430.793 450.045 L 1429.663 449.929 C 1429.003 449.86 1427.461 449.515 1425.949 449.096 L 1423.365 448.38 L 1420.437 448.66 L 1417.509 448.94 L 1415.099 449.795 C 1413.751 450.274 1412.36 450.687 1411.944 450.733 L 1411.2 450.814 L 1409.905 449.711 C 1408.692 448.677 1408.573 448.532 1408.014 447.419 C 1407.433 446.264 1407.39 446.215 1406.464 445.628 C 1405.585 445.071 1405.4 445.007 1404.035 444.788 L 1402.557 444.551 L 1400.191 445.05 C 1398.89 445.325 1396.908 445.693 1395.786 445.868 C 1393.386 446.243 1393.317 446.225 1393.431 445.264 C 1393.47 444.934 1393.537 444.607 1393.58 444.537 C 1393.623 444.468 1394.018 444.17 1394.458 443.875 C 1395.059 443.471 1395.529 442.985 1396.343 441.925 C 1397.5 440.418 1397.519 440.346 1396.858 439.946 C 1396.526 439.745 1396.488 439.752 1395.645 440.173 C 1394.984 440.502 1394.357 441.002 1393.048 442.245 C 1392.099 443.146 1391.166 444.108 1390.976 444.382 L 1390.63 444.881 L 1390.99 445.869 C 1391.187 446.412 1391.446 447.46 1391.565 448.196 L 1391.781 449.536 L 1391.462 450.571 L 1391.144 451.607 L 1388.985 452.699 C 1387.797 453.3 1386.648 453.9 1386.432 454.033 C 1386.153 454.205 1385.781 454.744 1385.146 455.896 C 1384.514 457.043 1384.171 457.54 1383.976 457.592 C 1383.553 457.705 1383.036 457.683 1382.952 457.548 L 1382.954 457.548 Z" id="Wexford" transform="matrix(0.868562, 0, 0, 0.868562, -911.843872, 13.696216)"/>
</svg>