<?xml version="1.0" encoding="utf-8"?>
<svg viewBox="298.338 277.805 56.768 65.462" width="56.768" height="65.462" xmlns="http://www.w3.org/2000/svg">
  <path style="opacity:1;fill:#e0e600;fill-opacity:1;stroke:none;stroke-width:0.0625;stroke-linecap:round;stroke-linejoin:round;stroke-miterlimit:4;stroke-dasharray:none;stroke-dashoffset:0;stroke-opacity:1" d="M 1412.269 378.497 C 1412.025 377.461 1412.014 377.448 1411.194 377.166 C 1410.704 376.997 1410.579 376.876 1410.254 376.259 C 1409.856 375.504 1409.834 375.489 1408.91 375.363 L 1408.316 375.283 L 1408.316 374.634 C 1408.316 373.464 1408.164 373.202 1406.873 372.12 L 1405.691 371.13 L 1405.691 370.456 C 1405.691 369.95 1405.562 369.471 1405.175 368.537 C 1404.89 367.852 1404.608 367.261 1404.547 367.223 C 1404.486 367.186 1403.732 367.082 1402.872 366.992 C 1400.729 366.769 1400.797 366.851 1401.086 364.829 C 1401.412 362.546 1401.314 362.74 1402.434 362.177 C 1402.978 361.903 1403.451 361.58 1403.487 361.458 C 1403.522 361.336 1403.622 360.8 1403.708 360.267 C 1403.794 359.734 1403.896 359.3 1403.934 359.302 C 1403.972 359.304 1404.676 359.69 1405.498 360.159 L 1406.991 361.012 L 1407.248 361.775 C 1407.389 362.194 1407.56 362.591 1407.629 362.656 C 1407.738 362.758 1411.605 363.673 1411.93 363.673 C 1411.996 363.673 1412.35 363.305 1412.715 362.854 C 1413.259 362.183 1413.589 361.921 1414.544 361.401 C 1415.247 361.019 1415.749 360.661 1415.808 360.501 C 1415.862 360.355 1415.944 359.476 1415.99 358.548 C 1416.136 355.598 1416.156 355.498 1416.771 354.707 L 1417.316 354.004 L 1417.316 352.854 C 1417.316 352.083 1417.264 351.663 1417.16 351.58 C 1416.964 351.425 1414.699 350.673 1414.428 350.673 C 1414.318 350.673 1413.943 350.974 1413.595 351.341 C 1412.98 351.992 1412.941 352.012 1412.119 352.089 C 1411.404 352.155 1411.212 352.129 1410.87 351.918 C 1410.496 351.687 1410.46 351.604 1410.379 350.801 C 1410.331 350.318 1410.216 349.871 1410.121 349.791 C 1410.027 349.713 1409.184 349.543 1408.248 349.413 C 1407.312 349.284 1405.412 348.978 1404.025 348.733 C 1401.82 348.345 1401.311 348.209 1399.97 347.649 L 1398.437 347.009 L 1398.245 346.31 C 1397.947 345.223 1397.96 345.245 1395.573 341.942 L 1393.316 338.82 L 1393.316 337.758 L 1393.316 336.697 L 1394.191 335.852 C 1394.738 335.324 1395.064 334.909 1395.061 334.746 C 1395.061 334.603 1394.89 334.291 1394.686 334.053 C 1394.483 333.815 1394.316 333.553 1394.316 333.472 C 1394.316 333.39 1394.588 333.258 1394.921 333.178 C 1395.42 333.058 1395.686 332.871 1396.452 332.101 L 1397.379 331.168 L 1397.82 328.959 L 1398.261 326.749 L 1399.156 326.524 C 1400.516 326.182 1402.299 325.089 1403.014 324.16 C 1403.325 323.755 1403.703 323.397 1403.854 323.363 C 1404.005 323.329 1404.661 323.213 1405.31 323.104 C 1405.96 322.996 1406.532 322.882 1406.58 322.852 C 1406.629 322.822 1406.825 322.55 1407.016 322.248 C 1407.221 321.925 1407.558 321.604 1407.837 321.468 C 1408.364 321.209 1410.876 319.092 1411.005 318.798 C 1411.05 318.695 1411.139 317.883 1411.203 316.993 L 1411.319 315.376 L 1412.037 314.746 C 1413.529 313.435 1413.532 313.429 1413.632 312.499 L 1413.723 311.65 L 1413.057 310.976 L 1412.39 310.301 L 1412.648 309.956 C 1412.936 309.569 1413.443 309.448 1414.838 309.432 L 1415.672 309.423 L 1416.317 308.205 C 1416.887 307.126 1416.952 306.928 1416.878 306.486 C 1416.696 305.389 1416.669 305.439 1417.816 304.731 L 1418.879 304.076 L 1420.937 304.187 C 1422.351 304.264 1423.022 304.347 1423.084 304.455 C 1423.133 304.541 1423.39 304.92 1423.655 305.298 L 1424.137 305.986 L 1425.471 306.069 C 1426.205 306.114 1426.864 306.188 1426.936 306.232 C 1427.016 306.281 1427.066 306.921 1427.066 307.865 C 1427.066 309.682 1426.982 309.565 1428.693 310.114 L 1429.758 310.456 L 1430.756 309.954 C 1432.386 309.134 1432.272 309.329 1432.725 306.58 C 1433.059 304.558 1433.156 304.173 1433.334 304.173 C 1433.577 304.173 1434.165 304.877 1434.541 305.619 C 1434.769 306.069 1434.941 306.194 1436.067 306.724 L 1437.337 307.321 L 1438.608 306.796 C 1439.307 306.507 1440.357 305.99 1440.941 305.647 L 1442.004 305.024 L 1442.644 305.225 C 1443.221 305.406 1443.304 305.479 1443.494 305.977 C 1443.61 306.28 1443.772 306.582 1443.854 306.648 C 1443.936 306.713 1444.791 306.854 1445.754 306.962 L 1447.504 307.158 L 1448.801 306.54 C 1449.515 306.201 1450.142 305.923 1450.195 305.923 C 1450.248 305.923 1450.355 306.104 1450.432 306.325 C 1450.509 306.546 1450.796 307.071 1451.069 307.49 L 1451.567 308.254 L 1451.443 310.081 L 1451.32 311.909 L 1452.465 313.74 L 1453.61 315.571 L 1454.535 319.528 L 1455.461 323.486 L 1455.414 325.923 C 1455.367 328.349 1455.365 328.365 1454.964 329.287 C 1454.578 330.173 1454.556 330.315 1454.456 332.475 C 1454.398 333.718 1454.398 334.827 1454.455 334.939 C 1454.512 335.052 1455.485 336.038 1456.617 337.132 L 1458.675 339.121 L 1458.609 339.678 C 1458.573 339.985 1458.095 341.712 1457.546 343.517 C 1456.734 346.191 1456.346 347.236 1455.448 349.173 L 1454.346 351.548 L 1454.256 352.867 C 1454.206 353.592 1454.129 354.316 1454.085 354.475 C 1454.04 354.634 1453.58 355.101 1453.062 355.512 C 1451.776 356.531 1450.509 358.16 1449.63 359.923 C 1449.209 360.768 1448.602 361.74 1448.159 362.279 L 1447.403 363.198 L 1447.549 365.967 C 1447.629 367.49 1447.73 369.256 1447.773 369.892 C 1447.865 371.273 1447.728 371.379 1446.999 370.488 C 1446.663 370.079 1446.444 369.602 1446.183 368.709 C 1445.987 368.039 1445.747 367.432 1445.65 367.362 C 1445.553 367.291 1444.822 367.074 1444.024 366.879 L 1442.573 366.525 L 1442.492 366.092 C 1442.389 365.546 1442.152 365.403 1440.754 365.047 C 1440.135 364.89 1439.567 364.699 1439.493 364.623 C 1439.418 364.548 1439.29 364.181 1439.209 363.808 C 1438.934 362.55 1438.675 362.513 1437.341 363.539 C 1436.799 363.956 1436.15 364.339 1435.854 364.417 C 1435.339 364.552 1435.314 364.543 1434.479 363.939 C 1433.79 363.441 1433.37 363.251 1432.266 362.94 L 1430.904 362.556 L 1428.906 363.128 C 1427.293 363.59 1426.677 363.835 1425.706 364.4 C 1425.045 364.784 1424.462 365.158 1424.412 365.23 C 1424.362 365.302 1424.319 366.15 1424.318 367.115 L 1424.318 368.869 L 1423.96 369.081 C 1423.633 369.274 1423.577 369.417 1423.323 370.702 L 1423.045 372.111 L 1420.587 374.829 C 1418.457 377.186 1417.972 377.653 1416.94 378.343 C 1415.753 379.137 1415.746 379.139 1414.627 379.224 C 1414.01 379.271 1413.278 379.34 1412.999 379.377 L 1412.493 379.444 L 1412.269 378.497 Z" id="Wicklow" transform="matrix(0.868562, 0, 0, 0.868562, -911.843872, 13.696216)"/>
</svg>